<?xml version="1.0" standalone="no"?>
 <!DOCTYPE svg PUBLIC "-//W3C//DTD SVG 1.1//EN" 
 "http://www.w3.org/Graphics/SVG/1.1/DTD/svg11.dtd"> 
<svg
  xmlns:svg="http://www.w3.org/2000/svg"
  xmlns="http://www.w3.org/2000/svg"
  xmlns:xlink="http://www.w3.org/1999/xlink"
  version="1.1"
  width="29.700220cm" height="21.000720cm" viewBox="0 0 297002200 210007200">
<title>SVG Picture created as mca_game_console-F_Silkscreen.svg date 2022/08/24 11:00:13 </title>
  <desc>Picture generated by PCBNEW </desc>
<g style="fill:#000000; fill-opacity:1.000000;stroke:#000000; stroke-opacity:1.000000;
stroke-linecap:round; stroke-linejoin:round;"
 transform="translate(0 0) scale(1 1)">
</g>
<g style="fill:#000000; fill-opacity:0.0; 
stroke:#000000; stroke-width:0.000000; stroke-opacity:1; 
stroke-linecap:round; stroke-linejoin:round;">
</g>
<g style="fill:#000000; fill-opacity:0.0; 
stroke:#000000; stroke-width:21200.000000; stroke-opacity:1; 
stroke-linecap:round; stroke-linejoin:round;">
</g>
<g style="fill:#000000; fill-opacity:0.0; 
stroke:#000000; stroke-width:150000.000000; stroke-opacity:1; 
stroke-linecap:round; stroke-linejoin:round;">
<rect x="177002200.000000" y="166007200.000000" width="108000000.000000" height="32000000.000000" rx="0.000000" />
</g>
<g style="fill:#000000; fill-opacity:0.0; 
stroke:#000000; stroke-width:21200.000000; stroke-opacity:1; 
stroke-linecap:round; stroke-linejoin:round;">
</g>
<g style="fill:#000000; fill-opacity:0.0; 
stroke:#000000; stroke-width:150000.000000; stroke-opacity:1; 
stroke-linecap:round; stroke-linejoin:round;">
<rect x="10000000.000000" y="10000000.000000" width="277002200.000000" height="190007200.000000" rx="0.000000" />
</g>
<g style="fill:#000000; fill-opacity:0.0; 
stroke:#000000; stroke-width:21200.000000; stroke-opacity:1; 
stroke-linecap:round; stroke-linejoin:round;">
</g>
<g style="fill:#000000; fill-opacity:0.0; 
stroke:#000000; stroke-width:150000.000000; stroke-opacity:1; 
stroke-linecap:round; stroke-linejoin:round;">
<rect x="12000000.000000" y="12000000.000000" width="273002200.000000" height="186007200.000000" rx="0.000000" />
</g>
<g style="fill:#000000; fill-opacity:0.0; 
stroke:#000000; stroke-width:21200.000000; stroke-opacity:1; 
stroke-linecap:round; stroke-linejoin:round;">
</g>
<g style="fill:#000000; fill-opacity:0.0; 
stroke:#000000; stroke-width:150000.000000; stroke-opacity:1; 
stroke-linecap:round; stroke-linejoin:round;">
<path d="M60000000 12000000
L60000000 10000000
" />
</g>
<g style="fill:#000000; fill-opacity:0.0; 
stroke:#000000; stroke-width:21200.000000; stroke-opacity:1; 
stroke-linecap:round; stroke-linejoin:round;">
</g>
<g style="fill:#000000; fill-opacity:0.0; 
stroke:#000000; stroke-width:150000.000000; stroke-opacity:1; 
stroke-linecap:round; stroke-linejoin:round;">
<path d="M110000000 12000000
L110000000 10000000
" />
</g>
<g style="fill:#000000; fill-opacity:0.0; 
stroke:#000000; stroke-width:21200.000000; stroke-opacity:1; 
stroke-linecap:round; stroke-linejoin:round;">
</g>
<g style="fill:#000000; fill-opacity:0.0; 
stroke:#000000; stroke-width:150000.000000; stroke-opacity:1; 
stroke-linecap:round; stroke-linejoin:round;">
<path d="M160000000 12000000
L160000000 10000000
" />
</g>
<g style="fill:#000000; fill-opacity:0.0; 
stroke:#000000; stroke-width:21200.000000; stroke-opacity:1; 
stroke-linecap:round; stroke-linejoin:round;">
</g>
<g style="fill:#000000; fill-opacity:0.0; 
stroke:#000000; stroke-width:150000.000000; stroke-opacity:1; 
stroke-linecap:round; stroke-linejoin:round;">
<path d="M210000000 12000000
L210000000 10000000
" />
</g>
<g style="fill:#000000; fill-opacity:0.0; 
stroke:#000000; stroke-width:21200.000000; stroke-opacity:1; 
stroke-linecap:round; stroke-linejoin:round;">
</g>
<g style="fill:#000000; fill-opacity:0.0; 
stroke:#000000; stroke-width:150000.000000; stroke-opacity:1; 
stroke-linecap:round; stroke-linejoin:round;">
<path d="M260000000 12000000
L260000000 10000000
" />
</g>
<g style="fill:#000000; fill-opacity:0.0; 
stroke:#000000; stroke-width:21200.000000; stroke-opacity:1; 
stroke-linecap:round; stroke-linejoin:round;">
</g>
<g style="fill:#000000; fill-opacity:0.0; 
stroke:#000000; stroke-width:150000.000000; stroke-opacity:1; 
stroke-linecap:round; stroke-linejoin:round;">
<text x="35000000.000000" y="11650000.000000"
textLength="1388095.000000" font-size="1733333.000000" lengthAdjust="spacingAndGlyphs"
text-anchor="start" opacity="0">1</text>
<g class="stroked-text"><desc>1</desc>
<path d="M36065476 11588095
L35322619 11588095
" />
<path d="M35694047 11588095
L35694047 10288095
L35570238 10473809
L35446428 10597619
L35322619 10659523
" />
</g></g>
<g style="fill:#000000; fill-opacity:0.0; 
stroke:#000000; stroke-width:21200.000000; stroke-opacity:1; 
stroke-linecap:round; stroke-linejoin:round;">
</g>
<g style="fill:#000000; fill-opacity:0.0; 
stroke:#000000; stroke-width:150000.000000; stroke-opacity:1; 
stroke-linecap:round; stroke-linejoin:round;">
<text x="85000000.000000" y="11650000.000000"
textLength="1388095.000000" font-size="1733333.000000" lengthAdjust="spacingAndGlyphs"
text-anchor="start" opacity="0">2</text>
<g class="stroked-text"><desc>2</desc>
<path d="M85322619 10411904
L85384523 10350000
L85508333 10288095
L85817857 10288095
L85941666 10350000
L86003571 10411904
L86065476 10535714
L86065476 10659523
L86003571 10845238
L85260714 11588095
L86065476 11588095
" />
</g></g>
<g style="fill:#000000; fill-opacity:0.0; 
stroke:#000000; stroke-width:21200.000000; stroke-opacity:1; 
stroke-linecap:round; stroke-linejoin:round;">
</g>
<g style="fill:#000000; fill-opacity:0.0; 
stroke:#000000; stroke-width:150000.000000; stroke-opacity:1; 
stroke-linecap:round; stroke-linejoin:round;">
<text x="135000000.000000" y="11650000.000000"
textLength="1388095.000000" font-size="1733333.000000" lengthAdjust="spacingAndGlyphs"
text-anchor="start" opacity="0">3</text>
<g class="stroked-text"><desc>3</desc>
<path d="M135260714 10288095
L136065476 10288095
L135632142 10783333
L135817857 10783333
L135941666 10845238
L136003571 10907142
L136065476 11030952
L136065476 11340476
L136003571 11464285
L135941666 11526190
L135817857 11588095
L135446428 11588095
L135322619 11526190
L135260714 11464285
" />
</g></g>
<g style="fill:#000000; fill-opacity:0.0; 
stroke:#000000; stroke-width:21200.000000; stroke-opacity:1; 
stroke-linecap:round; stroke-linejoin:round;">
</g>
<g style="fill:#000000; fill-opacity:0.0; 
stroke:#000000; stroke-width:150000.000000; stroke-opacity:1; 
stroke-linecap:round; stroke-linejoin:round;">
<text x="185000000.000000" y="11650000.000000"
textLength="1388095.000000" font-size="1733333.000000" lengthAdjust="spacingAndGlyphs"
text-anchor="start" opacity="0">4</text>
<g class="stroked-text"><desc>4</desc>
<path d="M185941666 10721428
L185941666 11588095
" />
<path d="M185632142 10226190
L185322619 11154761
L186127380 11154761
" />
</g></g>
<g style="fill:#000000; fill-opacity:0.0; 
stroke:#000000; stroke-width:21200.000000; stroke-opacity:1; 
stroke-linecap:round; stroke-linejoin:round;">
</g>
<g style="fill:#000000; fill-opacity:0.0; 
stroke:#000000; stroke-width:150000.000000; stroke-opacity:1; 
stroke-linecap:round; stroke-linejoin:round;">
<text x="235000000.000000" y="11650000.000000"
textLength="1388095.000000" font-size="1733333.000000" lengthAdjust="spacingAndGlyphs"
text-anchor="start" opacity="0">5</text>
<g class="stroked-text"><desc>5</desc>
<path d="M236003571 10288095
L235384523 10288095
L235322619 10907142
L235384523 10845238
L235508333 10783333
L235817857 10783333
L235941666 10845238
L236003571 10907142
L236065476 11030952
L236065476 11340476
L236003571 11464285
L235941666 11526190
L235817857 11588095
L235508333 11588095
L235384523 11526190
L235322619 11464285
" />
</g></g>
<g style="fill:#000000; fill-opacity:0.0; 
stroke:#000000; stroke-width:21200.000000; stroke-opacity:1; 
stroke-linecap:round; stroke-linejoin:round;">
</g>
<g style="fill:#000000; fill-opacity:0.0; 
stroke:#000000; stroke-width:150000.000000; stroke-opacity:1; 
stroke-linecap:round; stroke-linejoin:round;">
<text x="285000000.000000" y="11650000.000000"
textLength="1388095.000000" font-size="1733333.000000" lengthAdjust="spacingAndGlyphs"
text-anchor="start" opacity="0">6</text>
<g class="stroked-text"><desc>6</desc>
<path d="M285941666 10288095
L285694047 10288095
L285570238 10350000
L285508333 10411904
L285384523 10597619
L285322619 10845238
L285322619 11340476
L285384523 11464285
L285446428 11526190
L285570238 11588095
L285817857 11588095
L285941666 11526190
L286003571 11464285
L286065476 11340476
L286065476 11030952
L286003571 10907142
L285941666 10845238
L285817857 10783333
L285570238 10783333
L285446428 10845238
L285384523 10907142
L285322619 11030952
" />
</g></g>
<g style="fill:#000000; fill-opacity:0.0; 
stroke:#000000; stroke-width:21200.000000; stroke-opacity:1; 
stroke-linecap:round; stroke-linejoin:round;">
</g>
<g style="fill:#000000; fill-opacity:0.0; 
stroke:#000000; stroke-width:150000.000000; stroke-opacity:1; 
stroke-linecap:round; stroke-linejoin:round;">
<path d="M60000000 198007200
L60000000 200007200
" />
</g>
<g style="fill:#000000; fill-opacity:0.0; 
stroke:#000000; stroke-width:21200.000000; stroke-opacity:1; 
stroke-linecap:round; stroke-linejoin:round;">
</g>
<g style="fill:#000000; fill-opacity:0.0; 
stroke:#000000; stroke-width:150000.000000; stroke-opacity:1; 
stroke-linecap:round; stroke-linejoin:round;">
<path d="M110000000 198007200
L110000000 200007200
" />
</g>
<g style="fill:#000000; fill-opacity:0.0; 
stroke:#000000; stroke-width:21200.000000; stroke-opacity:1; 
stroke-linecap:round; stroke-linejoin:round;">
</g>
<g style="fill:#000000; fill-opacity:0.0; 
stroke:#000000; stroke-width:150000.000000; stroke-opacity:1; 
stroke-linecap:round; stroke-linejoin:round;">
<path d="M160000000 198007200
L160000000 200007200
" />
</g>
<g style="fill:#000000; fill-opacity:0.0; 
stroke:#000000; stroke-width:21200.000000; stroke-opacity:1; 
stroke-linecap:round; stroke-linejoin:round;">
</g>
<g style="fill:#000000; fill-opacity:0.0; 
stroke:#000000; stroke-width:150000.000000; stroke-opacity:1; 
stroke-linecap:round; stroke-linejoin:round;">
<path d="M210000000 198007200
L210000000 200007200
" />
</g>
<g style="fill:#000000; fill-opacity:0.0; 
stroke:#000000; stroke-width:21200.000000; stroke-opacity:1; 
stroke-linecap:round; stroke-linejoin:round;">
</g>
<g style="fill:#000000; fill-opacity:0.0; 
stroke:#000000; stroke-width:150000.000000; stroke-opacity:1; 
stroke-linecap:round; stroke-linejoin:round;">
<path d="M260000000 198007200
L260000000 200007200
" />
</g>
<g style="fill:#000000; fill-opacity:0.0; 
stroke:#000000; stroke-width:21200.000000; stroke-opacity:1; 
stroke-linecap:round; stroke-linejoin:round;">
</g>
<g style="fill:#000000; fill-opacity:0.0; 
stroke:#000000; stroke-width:150000.000000; stroke-opacity:1; 
stroke-linecap:round; stroke-linejoin:round;">
<text x="35000000.000000" y="199657200.000000"
textLength="1388095.000000" font-size="1733333.000000" lengthAdjust="spacingAndGlyphs"
text-anchor="start" opacity="0">1</text>
<g class="stroked-text"><desc>1</desc>
<path d="M36065476 199595295
L35322619 199595295
" />
<path d="M35694047 199595295
L35694047 198295295
L35570238 198481009
L35446428 198604819
L35322619 198666723
" />
</g></g>
<g style="fill:#000000; fill-opacity:0.0; 
stroke:#000000; stroke-width:21200.000000; stroke-opacity:1; 
stroke-linecap:round; stroke-linejoin:round;">
</g>
<g style="fill:#000000; fill-opacity:0.0; 
stroke:#000000; stroke-width:150000.000000; stroke-opacity:1; 
stroke-linecap:round; stroke-linejoin:round;">
<text x="85000000.000000" y="199657200.000000"
textLength="1388095.000000" font-size="1733333.000000" lengthAdjust="spacingAndGlyphs"
text-anchor="start" opacity="0">2</text>
<g class="stroked-text"><desc>2</desc>
<path d="M85322619 198419104
L85384523 198357200
L85508333 198295295
L85817857 198295295
L85941666 198357200
L86003571 198419104
L86065476 198542914
L86065476 198666723
L86003571 198852438
L85260714 199595295
L86065476 199595295
" />
</g></g>
<g style="fill:#000000; fill-opacity:0.0; 
stroke:#000000; stroke-width:21200.000000; stroke-opacity:1; 
stroke-linecap:round; stroke-linejoin:round;">
</g>
<g style="fill:#000000; fill-opacity:0.0; 
stroke:#000000; stroke-width:150000.000000; stroke-opacity:1; 
stroke-linecap:round; stroke-linejoin:round;">
<text x="135000000.000000" y="199657200.000000"
textLength="1388095.000000" font-size="1733333.000000" lengthAdjust="spacingAndGlyphs"
text-anchor="start" opacity="0">3</text>
<g class="stroked-text"><desc>3</desc>
<path d="M135260714 198295295
L136065476 198295295
L135632142 198790533
L135817857 198790533
L135941666 198852438
L136003571 198914342
L136065476 199038152
L136065476 199347676
L136003571 199471485
L135941666 199533390
L135817857 199595295
L135446428 199595295
L135322619 199533390
L135260714 199471485
" />
</g></g>
<g style="fill:#000000; fill-opacity:0.0; 
stroke:#000000; stroke-width:21200.000000; stroke-opacity:1; 
stroke-linecap:round; stroke-linejoin:round;">
</g>
<g style="fill:#000000; fill-opacity:0.0; 
stroke:#000000; stroke-width:150000.000000; stroke-opacity:1; 
stroke-linecap:round; stroke-linejoin:round;">
<text x="185000000.000000" y="199657200.000000"
textLength="1388095.000000" font-size="1733333.000000" lengthAdjust="spacingAndGlyphs"
text-anchor="start" opacity="0">4</text>
<g class="stroked-text"><desc>4</desc>
<path d="M185941666 198728628
L185941666 199595295
" />
<path d="M185632142 198233390
L185322619 199161961
L186127380 199161961
" />
</g></g>
<g style="fill:#000000; fill-opacity:0.0; 
stroke:#000000; stroke-width:21200.000000; stroke-opacity:1; 
stroke-linecap:round; stroke-linejoin:round;">
</g>
<g style="fill:#000000; fill-opacity:0.0; 
stroke:#000000; stroke-width:150000.000000; stroke-opacity:1; 
stroke-linecap:round; stroke-linejoin:round;">
<text x="235000000.000000" y="199657200.000000"
textLength="1388095.000000" font-size="1733333.000000" lengthAdjust="spacingAndGlyphs"
text-anchor="start" opacity="0">5</text>
<g class="stroked-text"><desc>5</desc>
<path d="M236003571 198295295
L235384523 198295295
L235322619 198914342
L235384523 198852438
L235508333 198790533
L235817857 198790533
L235941666 198852438
L236003571 198914342
L236065476 199038152
L236065476 199347676
L236003571 199471485
L235941666 199533390
L235817857 199595295
L235508333 199595295
L235384523 199533390
L235322619 199471485
" />
</g></g>
<g style="fill:#000000; fill-opacity:0.0; 
stroke:#000000; stroke-width:21200.000000; stroke-opacity:1; 
stroke-linecap:round; stroke-linejoin:round;">
</g>
<g style="fill:#000000; fill-opacity:0.0; 
stroke:#000000; stroke-width:150000.000000; stroke-opacity:1; 
stroke-linecap:round; stroke-linejoin:round;">
<text x="285000000.000000" y="199657200.000000"
textLength="1388095.000000" font-size="1733333.000000" lengthAdjust="spacingAndGlyphs"
text-anchor="start" opacity="0">6</text>
<g class="stroked-text"><desc>6</desc>
<path d="M285941666 198295295
L285694047 198295295
L285570238 198357200
L285508333 198419104
L285384523 198604819
L285322619 198852438
L285322619 199347676
L285384523 199471485
L285446428 199533390
L285570238 199595295
L285817857 199595295
L285941666 199533390
L286003571 199471485
L286065476 199347676
L286065476 199038152
L286003571 198914342
L285941666 198852438
L285817857 198790533
L285570238 198790533
L285446428 198852438
L285384523 198914342
L285322619 199038152
" />
</g></g>
<g style="fill:#000000; fill-opacity:0.0; 
stroke:#000000; stroke-width:21200.000000; stroke-opacity:1; 
stroke-linecap:round; stroke-linejoin:round;">
</g>
<g style="fill:#000000; fill-opacity:0.0; 
stroke:#000000; stroke-width:150000.000000; stroke-opacity:1; 
stroke-linecap:round; stroke-linejoin:round;">
<path d="M10000000 60000000
L12000000 60000000
" />
</g>
<g style="fill:#000000; fill-opacity:0.0; 
stroke:#000000; stroke-width:21200.000000; stroke-opacity:1; 
stroke-linecap:round; stroke-linejoin:round;">
</g>
<g style="fill:#000000; fill-opacity:0.0; 
stroke:#000000; stroke-width:150000.000000; stroke-opacity:1; 
stroke-linecap:round; stroke-linejoin:round;">
<path d="M10000000 110000000
L12000000 110000000
" />
</g>
<g style="fill:#000000; fill-opacity:0.0; 
stroke:#000000; stroke-width:21200.000000; stroke-opacity:1; 
stroke-linecap:round; stroke-linejoin:round;">
</g>
<g style="fill:#000000; fill-opacity:0.0; 
stroke:#000000; stroke-width:150000.000000; stroke-opacity:1; 
stroke-linecap:round; stroke-linejoin:round;">
<path d="M10000000 160000000
L12000000 160000000
" />
</g>
<g style="fill:#000000; fill-opacity:0.0; 
stroke:#000000; stroke-width:21200.000000; stroke-opacity:1; 
stroke-linecap:round; stroke-linejoin:round;">
</g>
<g style="fill:#000000; fill-opacity:0.0; 
stroke:#000000; stroke-width:150000.000000; stroke-opacity:1; 
stroke-linecap:round; stroke-linejoin:round;">
<text x="11000000.000000" y="35650000.000000"
textLength="1264286.000000" font-size="1733333.000000" lengthAdjust="spacingAndGlyphs"
text-anchor="middle" opacity="0">A</text>
<g class="stroked-text"><desc>A</desc>
<path d="M10690476 35216666
L11309523 35216666
" />
<path d="M10566666 35588095
L11000000 34288095
L11433333 35588095
" />
</g></g>
<g style="fill:#000000; fill-opacity:0.0; 
stroke:#000000; stroke-width:21200.000000; stroke-opacity:1; 
stroke-linecap:round; stroke-linejoin:round;">
</g>
<g style="fill:#000000; fill-opacity:0.0; 
stroke:#000000; stroke-width:150000.000000; stroke-opacity:1; 
stroke-linecap:round; stroke-linejoin:round;">
<text x="11000000.000000" y="85650000.000000"
textLength="1450000.000000" font-size="1733333.000000" lengthAdjust="spacingAndGlyphs"
text-anchor="middle" opacity="0">B</text>
<g class="stroked-text"><desc>B</desc>
<path d="M11092857 84907142
L11278571 84969047
L11340476 85030952
L11402380 85154761
L11402380 85340476
L11340476 85464285
L11278571 85526190
L11154761 85588095
L10659523 85588095
L10659523 84288095
L11092857 84288095
L11216666 84350000
L11278571 84411904
L11340476 84535714
L11340476 84659523
L11278571 84783333
L11216666 84845238
L11092857 84907142
L10659523 84907142
" />
</g></g>
<g style="fill:#000000; fill-opacity:0.0; 
stroke:#000000; stroke-width:21200.000000; stroke-opacity:1; 
stroke-linecap:round; stroke-linejoin:round;">
</g>
<g style="fill:#000000; fill-opacity:0.0; 
stroke:#000000; stroke-width:150000.000000; stroke-opacity:1; 
stroke-linecap:round; stroke-linejoin:round;">
<text x="11000000.000000" y="135650000.000000"
textLength="1450000.000000" font-size="1733333.000000" lengthAdjust="spacingAndGlyphs"
text-anchor="middle" opacity="0">C</text>
<g class="stroked-text"><desc>C</desc>
<path d="M11402380 135464285
L11340476 135526190
L11154761 135588095
L11030952 135588095
L10845238 135526190
L10721428 135402380
L10659523 135278571
L10597619 135030952
L10597619 134845238
L10659523 134597619
L10721428 134473809
L10845238 134350000
L11030952 134288095
L11154761 134288095
L11340476 134350000
L11402380 134411904
" />
</g></g>
<g style="fill:#000000; fill-opacity:0.0; 
stroke:#000000; stroke-width:21200.000000; stroke-opacity:1; 
stroke-linecap:round; stroke-linejoin:round;">
</g>
<g style="fill:#000000; fill-opacity:0.0; 
stroke:#000000; stroke-width:150000.000000; stroke-opacity:1; 
stroke-linecap:round; stroke-linejoin:round;">
<text x="11000000.000000" y="185650000.000000"
textLength="1450000.000000" font-size="1733333.000000" lengthAdjust="spacingAndGlyphs"
text-anchor="middle" opacity="0">D</text>
<g class="stroked-text"><desc>D</desc>
<path d="M10659523 185588095
L10659523 184288095
L10969047 184288095
L11154761 184350000
L11278571 184473809
L11340476 184597619
L11402380 184845238
L11402380 185030952
L11340476 185278571
L11278571 185402380
L11154761 185526190
L10969047 185588095
L10659523 185588095
" />
</g></g>
<g style="fill:#000000; fill-opacity:0.0; 
stroke:#000000; stroke-width:21200.000000; stroke-opacity:1; 
stroke-linecap:round; stroke-linejoin:round;">
</g>
<g style="fill:#000000; fill-opacity:0.0; 
stroke:#000000; stroke-width:150000.000000; stroke-opacity:1; 
stroke-linecap:round; stroke-linejoin:round;">
<path d="M287002200 60000000
L285002200 60000000
" />
</g>
<g style="fill:#000000; fill-opacity:0.0; 
stroke:#000000; stroke-width:21200.000000; stroke-opacity:1; 
stroke-linecap:round; stroke-linejoin:round;">
</g>
<g style="fill:#000000; fill-opacity:0.0; 
stroke:#000000; stroke-width:150000.000000; stroke-opacity:1; 
stroke-linecap:round; stroke-linejoin:round;">
<path d="M287002200 110000000
L285002200 110000000
" />
</g>
<g style="fill:#000000; fill-opacity:0.0; 
stroke:#000000; stroke-width:21200.000000; stroke-opacity:1; 
stroke-linecap:round; stroke-linejoin:round;">
</g>
<g style="fill:#000000; fill-opacity:0.0; 
stroke:#000000; stroke-width:150000.000000; stroke-opacity:1; 
stroke-linecap:round; stroke-linejoin:round;">
<path d="M287002200 160000000
L285002200 160000000
" />
</g>
<g style="fill:#000000; fill-opacity:0.0; 
stroke:#000000; stroke-width:21200.000000; stroke-opacity:1; 
stroke-linecap:round; stroke-linejoin:round;">
</g>
<g style="fill:#000000; fill-opacity:0.0; 
stroke:#000000; stroke-width:150000.000000; stroke-opacity:1; 
stroke-linecap:round; stroke-linejoin:round;">
<text x="286002200.000000" y="35650000.000000"
textLength="1264286.000000" font-size="1733333.000000" lengthAdjust="spacingAndGlyphs"
text-anchor="middle" opacity="0">A</text>
<g class="stroked-text"><desc>A</desc>
<path d="M285692676 35216666
L286311723 35216666
" />
<path d="M285568866 35588095
L286002200 34288095
L286435533 35588095
" />
</g></g>
<g style="fill:#000000; fill-opacity:0.0; 
stroke:#000000; stroke-width:21200.000000; stroke-opacity:1; 
stroke-linecap:round; stroke-linejoin:round;">
</g>
<g style="fill:#000000; fill-opacity:0.0; 
stroke:#000000; stroke-width:150000.000000; stroke-opacity:1; 
stroke-linecap:round; stroke-linejoin:round;">
<text x="286002200.000000" y="85650000.000000"
textLength="1450000.000000" font-size="1733333.000000" lengthAdjust="spacingAndGlyphs"
text-anchor="middle" opacity="0">B</text>
<g class="stroked-text"><desc>B</desc>
<path d="M286095057 84907142
L286280771 84969047
L286342676 85030952
L286404580 85154761
L286404580 85340476
L286342676 85464285
L286280771 85526190
L286156961 85588095
L285661723 85588095
L285661723 84288095
L286095057 84288095
L286218866 84350000
L286280771 84411904
L286342676 84535714
L286342676 84659523
L286280771 84783333
L286218866 84845238
L286095057 84907142
L285661723 84907142
" />
</g></g>
<g style="fill:#000000; fill-opacity:0.0; 
stroke:#000000; stroke-width:21200.000000; stroke-opacity:1; 
stroke-linecap:round; stroke-linejoin:round;">
</g>
<g style="fill:#000000; fill-opacity:0.0; 
stroke:#000000; stroke-width:150000.000000; stroke-opacity:1; 
stroke-linecap:round; stroke-linejoin:round;">
<text x="286002200.000000" y="135650000.000000"
textLength="1450000.000000" font-size="1733333.000000" lengthAdjust="spacingAndGlyphs"
text-anchor="middle" opacity="0">C</text>
<g class="stroked-text"><desc>C</desc>
<path d="M286404580 135464285
L286342676 135526190
L286156961 135588095
L286033152 135588095
L285847438 135526190
L285723628 135402380
L285661723 135278571
L285599819 135030952
L285599819 134845238
L285661723 134597619
L285723628 134473809
L285847438 134350000
L286033152 134288095
L286156961 134288095
L286342676 134350000
L286404580 134411904
" />
</g></g>
<g style="fill:#000000; fill-opacity:0.0; 
stroke:#000000; stroke-width:21200.000000; stroke-opacity:1; 
stroke-linecap:round; stroke-linejoin:round;">
</g>
<g style="fill:#000000; fill-opacity:0.0; 
stroke:#000000; stroke-width:150000.000000; stroke-opacity:1; 
stroke-linecap:round; stroke-linejoin:round;">
<text x="286002200.000000" y="185650000.000000"
textLength="1450000.000000" font-size="1733333.000000" lengthAdjust="spacingAndGlyphs"
text-anchor="middle" opacity="0">D</text>
<g class="stroked-text"><desc>D</desc>
<path d="M285661723 185588095
L285661723 184288095
L285971247 184288095
L286156961 184350000
L286280771 184473809
L286342676 184597619
L286404580 184845238
L286404580 185030952
L286342676 185278571
L286280771 185402380
L286156961 185526190
L285971247 185588095
L285661723 185588095
" />
</g></g>
<g style="fill:#000000; fill-opacity:0.0; 
stroke:#000000; stroke-width:21200.000000; stroke-opacity:1; 
stroke-linecap:round; stroke-linejoin:round;">
</g>
<g style="fill:#000000; fill-opacity:0.0; 
stroke:#000000; stroke-width:150000.000000; stroke-opacity:1; 
stroke-linecap:round; stroke-linejoin:round;">
<text x="200002200.000000" y="193857200.000000"
textLength="7007143.000000" font-size="2000000.000000" lengthAdjust="spacingAndGlyphs"
text-anchor="start" opacity="0">Date: </text>
<g class="stroked-text"><desc>Date: </desc>
<path d="M200434342 193785771
L200434342 192285771
L200791485 192285771
L201005771 192357200
L201148628 192500057
L201220057 192642914
L201291485 192928628
L201291485 193142914
L201220057 193428628
L201148628 193571485
L201005771 193714342
L200791485 193785771
L200434342 193785771
" />
<path d="M202577200 193785771
L202577200 193000057
L202505771 192857200
L202362914 192785771
L202077200 192785771
L201934342 192857200
" />
<path d="M202577200 193714342
L202434342 193785771
L202077200 193785771
L201934342 193714342
L201862914 193571485
L201862914 193428628
L201934342 193285771
L202077200 193214342
L202434342 193214342
L202577200 193142914
" />
<path d="M203077200 192785771
L203648628 192785771
" />
<path d="M203291485 192285771
L203291485 193571485
L203362914 193714342
L203505771 193785771
L203648628 193785771
" />
<path d="M204720057 193714342
L204577200 193785771
L204291485 193785771
L204148628 193714342
L204077200 193571485
L204077200 193000057
L204148628 192857200
L204291485 192785771
L204577200 192785771
L204720057 192857200
L204791485 193000057
L204791485 193142914
L204077200 193285771
" />
<path d="M205434342 193642914
L205505771 193714342
L205434342 193785771
L205362914 193714342
L205434342 193642914
L205434342 193785771
" />
<path d="M205434342 192857200
L205505771 192928628
L205434342 193000057
L205362914 192928628
L205434342 192857200
L205434342 193000057
" />
</g></g>
<g style="fill:#000000; fill-opacity:0.0; 
stroke:#000000; stroke-width:21200.000000; stroke-opacity:1; 
stroke-linecap:round; stroke-linejoin:round;">
</g>
<g style="fill:#000000; fill-opacity:0.0; 
stroke:#000000; stroke-width:150000.000000; stroke-opacity:1; 
stroke-linecap:round; stroke-linejoin:round;">
<path d="M177002200 194507200
L285002200 194507200
" />
</g>
<g style="fill:#000000; fill-opacity:0.0; 
stroke:#000000; stroke-width:21200.000000; stroke-opacity:1; 
stroke-linecap:round; stroke-linejoin:round;">
</g>
<g style="fill:#000000; fill-opacity:0.0; 
stroke:#000000; stroke-width:150000.000000; stroke-opacity:1; 
stroke-linecap:round; stroke-linejoin:round;">
<text x="178002200.000000" y="196657200.000000"
textLength="34364286.000000" font-size="2000000.000000" lengthAdjust="spacingAndGlyphs"
text-anchor="start" opacity="0">KiCad E.D.A.  kicad (6.0.6-0)</text>
<g class="stroked-text"><desc>KiCad E.D.A.  kicad (6.0.6-0)</desc>
<path d="M178434342 196585771
L178434342 195085771
" />
<path d="M179291485 196585771
L178648628 195728628
" />
<path d="M179291485 195085771
L178434342 195942914
" />
<path d="M179934342 196585771
L179934342 195585771
" />
<path d="M179934342 195085771
L179862914 195157200
L179934342 195228628
L180005771 195157200
L179934342 195085771
L179934342 195228628
" />
<path d="M181505771 196442914
L181434342 196514342
L181220057 196585771
L181077200 196585771
L180862914 196514342
L180720057 196371485
L180648628 196228628
L180577200 195942914
L180577200 195728628
L180648628 195442914
L180720057 195300057
L180862914 195157200
L181077200 195085771
L181220057 195085771
L181434342 195157200
L181505771 195228628
" />
<path d="M182791485 196585771
L182791485 195800057
L182720057 195657200
L182577200 195585771
L182291485 195585771
L182148628 195657200
" />
<path d="M182791485 196514342
L182648628 196585771
L182291485 196585771
L182148628 196514342
L182077200 196371485
L182077200 196228628
L182148628 196085771
L182291485 196014342
L182648628 196014342
L182791485 195942914
" />
<path d="M184148628 196585771
L184148628 195085771
" />
<path d="M184148628 196514342
L184005771 196585771
L183720057 196585771
L183577200 196514342
L183505771 196442914
L183434342 196300057
L183434342 195871485
L183505771 195728628
L183577200 195657200
L183720057 195585771
L184005771 195585771
L184148628 195657200
" />
<path d="M186005771 195800057
L186505771 195800057
" />
<path d="M186720057 196585771
L186005771 196585771
L186005771 195085771
L186720057 195085771
" />
<path d="M187362914 196442914
L187434342 196514342
L187362914 196585771
L187291485 196514342
L187362914 196442914
L187362914 196585771
" />
<path d="M188077200 196585771
L188077200 195085771
L188434342 195085771
L188648628 195157200
L188791485 195300057
L188862914 195442914
L188934342 195728628
L188934342 195942914
L188862914 196228628
L188791485 196371485
L188648628 196514342
L188434342 196585771
L188077200 196585771
" />
<path d="M189577200 196442914
L189648628 196514342
L189577200 196585771
L189505771 196514342
L189577200 196442914
L189577200 196585771
" />
<path d="M190220057 196157200
L190934342 196157200
" />
<path d="M190077200 196585771
L190577200 195085771
L191077200 196585771
" />
<path d="M191577200 196442914
L191648628 196514342
L191577200 196585771
L191505771 196514342
L191577200 196442914
L191577200 196585771
" />
<path d="M194577200 196585771
L194577200 195085771
" />
<path d="M194720057 196014342
L195148628 196585771
" />
<path d="M195148628 195585771
L194577200 196157200
" />
<path d="M195791485 196585771
L195791485 195585771
" />
<path d="M195791485 195085771
L195720057 195157200
L195791485 195228628
L195862914 195157200
L195791485 195085771
L195791485 195228628
" />
<path d="M197148628 196514342
L197005771 196585771
L196720057 196585771
L196577200 196514342
L196505771 196442914
L196434342 196300057
L196434342 195871485
L196505771 195728628
L196577200 195657200
L196720057 195585771
L197005771 195585771
L197148628 195657200
" />
<path d="M198434342 196585771
L198434342 195800057
L198362914 195657200
L198220057 195585771
L197934342 195585771
L197791485 195657200
" />
<path d="M198434342 196514342
L198291485 196585771
L197934342 196585771
L197791485 196514342
L197720057 196371485
L197720057 196228628
L197791485 196085771
L197934342 196014342
L198291485 196014342
L198434342 195942914
" />
<path d="M199791485 196585771
L199791485 195085771
" />
<path d="M199791485 196514342
L199648628 196585771
L199362914 196585771
L199220057 196514342
L199148628 196442914
L199077200 196300057
L199077200 195871485
L199148628 195728628
L199220057 195657200
L199362914 195585771
L199648628 195585771
L199791485 195657200
" />
<path d="M202077200 197157200
L202005771 197085771
L201862914 196871485
L201791485 196728628
L201720057 196514342
L201648628 196157200
L201648628 195871485
L201720057 195514342
L201791485 195300057
L201862914 195157200
L202005771 194942914
L202077200 194871485
" />
<path d="M203291485 195085771
L203005771 195085771
L202862914 195157200
L202791485 195228628
L202648628 195442914
L202577200 195728628
L202577200 196300057
L202648628 196442914
L202720057 196514342
L202862914 196585771
L203148628 196585771
L203291485 196514342
L203362914 196442914
L203434342 196300057
L203434342 195942914
L203362914 195800057
L203291485 195728628
L203148628 195657200
L202862914 195657200
L202720057 195728628
L202648628 195800057
L202577200 195942914
" />
<path d="M204077200 196442914
L204148628 196514342
L204077200 196585771
L204005771 196514342
L204077200 196442914
L204077200 196585771
" />
<path d="M205077200 195085771
L205220057 195085771
L205362914 195157200
L205434342 195228628
L205505771 195371485
L205577200 195657200
L205577200 196014342
L205505771 196300057
L205434342 196442914
L205362914 196514342
L205220057 196585771
L205077200 196585771
L204934342 196514342
L204862914 196442914
L204791485 196300057
L204720057 196014342
L204720057 195657200
L204791485 195371485
L204862914 195228628
L204934342 195157200
L205077200 195085771
" />
<path d="M206220057 196442914
L206291485 196514342
L206220057 196585771
L206148628 196514342
L206220057 196442914
L206220057 196585771
" />
<path d="M207577200 195085771
L207291485 195085771
L207148628 195157200
L207077200 195228628
L206934342 195442914
L206862914 195728628
L206862914 196300057
L206934342 196442914
L207005771 196514342
L207148628 196585771
L207434342 196585771
L207577200 196514342
L207648628 196442914
L207720057 196300057
L207720057 195942914
L207648628 195800057
L207577200 195728628
L207434342 195657200
L207148628 195657200
L207005771 195728628
L206934342 195800057
L206862914 195942914
" />
<path d="M208362914 196014342
L209505771 196014342
" />
<path d="M210505771 195085771
L210648628 195085771
L210791485 195157200
L210862914 195228628
L210934342 195371485
L211005771 195657200
L211005771 196014342
L210934342 196300057
L210862914 196442914
L210791485 196514342
L210648628 196585771
L210505771 196585771
L210362914 196514342
L210291485 196442914
L210220057 196300057
L210148628 196014342
L210148628 195657200
L210220057 195371485
L210291485 195228628
L210362914 195157200
L210505771 195085771
" />
<path d="M211505771 197157200
L211577200 197085771
L211720057 196871485
L211791485 196728628
L211862914 196514342
L211934342 196157200
L211934342 195871485
L211862914 195514342
L211791485 195300057
L211720057 195157200
L211577200 194942914
L211505771 194871485
" />
</g></g>
<g style="fill:#000000; fill-opacity:0.0; 
stroke:#000000; stroke-width:21200.000000; stroke-opacity:1; 
stroke-linecap:round; stroke-linejoin:round;">
</g>
<g style="fill:#000000; fill-opacity:0.0; 
stroke:#000000; stroke-width:150000.000000; stroke-opacity:1; 
stroke-linecap:round; stroke-linejoin:round;">
<path d="M177002200 191507200
L285002200 191507200
" />
</g>
<g style="fill:#000000; fill-opacity:0.0; 
stroke:#000000; stroke-width:21200.000000; stroke-opacity:1; 
stroke-linecap:round; stroke-linejoin:round;">
</g>
<g style="fill:#000000; fill-opacity:0.0; 
stroke:#000000; stroke-width:300000.000000; stroke-opacity:1; 
stroke-linecap:round; stroke-linejoin:round;">
<text x="263002200.000000" y="193857200.000000"
textLength="5935714.000000" font-size="2000000.000000" lengthAdjust="spacingAndGlyphs"
text-anchor="start" opacity="0">Rev: </text>
<g class="stroked-text"><desc>Rev: </desc>
<path d="M264411485 193785771
L263911485 193071485
" />
<path d="M263554342 193785771
L263554342 192285771
L264125771 192285771
L264268628 192357200
L264340057 192428628
L264411485 192571485
L264411485 192785771
L264340057 192928628
L264268628 193000057
L264125771 193071485
L263554342 193071485
" />
<path d="M265625771 193714342
L265482914 193785771
L265197200 193785771
L265054342 193714342
L264982914 193571485
L264982914 193000057
L265054342 192857200
L265197200 192785771
L265482914 192785771
L265625771 192857200
L265697200 193000057
L265697200 193142914
L264982914 193285771
" />
<path d="M266197200 192785771
L266554342 193785771
L266911485 192785771
" />
<path d="M267482914 193642914
L267554342 193714342
L267482914 193785771
L267411485 193714342
L267482914 193642914
L267482914 193785771
" />
<path d="M267482914 192857200
L267554342 192928628
L267482914 193000057
L267411485 192928628
L267482914 192857200
L267482914 193000057
" />
</g></g>
<g style="fill:#000000; fill-opacity:0.0; 
stroke:#000000; stroke-width:21200.000000; stroke-opacity:1; 
stroke-linecap:round; stroke-linejoin:round;">
</g>
<g style="fill:#000000; fill-opacity:0.0; 
stroke:#000000; stroke-width:150000.000000; stroke-opacity:1; 
stroke-linecap:round; stroke-linejoin:round;">
<text x="178002200.000000" y="193857200.000000"
textLength="9604286.000000" font-size="2000000.000000" lengthAdjust="spacingAndGlyphs"
text-anchor="start" opacity="0">Size: A4</text>
<g class="stroked-text"><desc>Size: A4</desc>
<path d="M178362914 193714342
L178577200 193785771
L178934342 193785771
L179077200 193714342
L179148628 193642914
L179220057 193500057
L179220057 193357200
L179148628 193214342
L179077200 193142914
L178934342 193071485
L178648628 193000057
L178505771 192928628
L178434342 192857200
L178362914 192714342
L178362914 192571485
L178434342 192428628
L178505771 192357200
L178648628 192285771
L179005771 192285771
L179220057 192357200
" />
<path d="M179862914 193785771
L179862914 192785771
" />
<path d="M179862914 192285771
L179791485 192357200
L179862914 192428628
L179934342 192357200
L179862914 192285771
L179862914 192428628
" />
<path d="M180434342 192785771
L181220057 192785771
L180434342 193785771
L181220057 193785771
" />
<path d="M182362914 193714342
L182220057 193785771
L181934342 193785771
L181791485 193714342
L181720057 193571485
L181720057 193000057
L181791485 192857200
L181934342 192785771
L182220057 192785771
L182362914 192857200
L182434342 193000057
L182434342 193142914
L181720057 193285771
" />
<path d="M183077200 193642914
L183148628 193714342
L183077200 193785771
L183005771 193714342
L183077200 193642914
L183077200 193785771
" />
<path d="M183077200 192857200
L183148628 192928628
L183077200 193000057
L183005771 192928628
L183077200 192857200
L183077200 193000057
" />
<path d="M184862914 193357200
L185577200 193357200
" />
<path d="M184720057 193785771
L185220057 192285771
L185720057 193785771
" />
<path d="M186862914 192785771
L186862914 193785771
" />
<path d="M186505771 192214342
L186148628 193285771
L187077200 193285771
" />
</g></g>
<g style="fill:#000000; fill-opacity:0.0; 
stroke:#000000; stroke-width:21200.000000; stroke-opacity:1; 
stroke-linecap:round; stroke-linejoin:round;">
</g>
<g style="fill:#000000; fill-opacity:0.0; 
stroke:#000000; stroke-width:150000.000000; stroke-opacity:1; 
stroke-linecap:round; stroke-linejoin:round;">
<text x="263002200.000000" y="196657200.000000"
textLength="8507143.000000" font-size="2000000.000000" lengthAdjust="spacingAndGlyphs"
text-anchor="start" opacity="0">Id: 1/1</text>
<g class="stroked-text"><desc>Id: 1/1</desc>
<path d="M263434342 196585771
L263434342 195085771
" />
<path d="M264791485 196585771
L264791485 195085771
" />
<path d="M264791485 196514342
L264648628 196585771
L264362914 196585771
L264220057 196514342
L264148628 196442914
L264077200 196300057
L264077200 195871485
L264148628 195728628
L264220057 195657200
L264362914 195585771
L264648628 195585771
L264791485 195657200
" />
<path d="M265505771 196442914
L265577200 196514342
L265505771 196585771
L265434342 196514342
L265505771 196442914
L265505771 196585771
" />
<path d="M265505771 195657200
L265577200 195728628
L265505771 195800057
L265434342 195728628
L265505771 195657200
L265505771 195800057
" />
<path d="M268148628 196585771
L267291485 196585771
" />
<path d="M267720057 196585771
L267720057 195085771
L267577200 195300057
L267434342 195442914
L267291485 195514342
" />
<path d="M269862914 195014342
L268577200 196942914
" />
<path d="M271148628 196585771
L270291485 196585771
" />
<path d="M270720057 196585771
L270720057 195085771
L270577200 195300057
L270434342 195442914
L270291485 195514342
" />
</g></g>
<g style="fill:#000000; fill-opacity:0.0; 
stroke:#000000; stroke-width:21200.000000; stroke-opacity:1; 
stroke-linecap:round; stroke-linejoin:round;">
</g>
<g style="fill:#000000; fill-opacity:0.0; 
stroke:#000000; stroke-width:150000.000000; stroke-opacity:1; 
stroke-linecap:round; stroke-linejoin:round;">
<path d="M177002200 187507200
L285002200 187507200
" />
</g>
<g style="fill:#000000; fill-opacity:0.0; 
stroke:#000000; stroke-width:21200.000000; stroke-opacity:1; 
stroke-linecap:round; stroke-linejoin:round;">
</g>
<g style="fill:#000000; fill-opacity:0.0; 
stroke:#000000; stroke-width:400000.000000; stroke-opacity:1; 
stroke-linecap:round; stroke-linejoin:round;">
<text x="178002200.000000" y="190307200.000000"
textLength="9409643.000000" font-size="2666666.000000" lengthAdjust="spacingAndGlyphs"
text-anchor="start" opacity="0">Title: </text>
<g class="stroked-text"><desc>Title: </desc>
<path d="M178714580 188211961
L179857438 188211961
" />
<path d="M179036009 190211961
L179286009 188211961
" />
<path d="M180274104 190211961
L180440771 188878628
" />
<path d="M180524104 188211961
L180416961 188307200
L180500295 188402438
L180607438 188307200
L180524104 188211961
L180500295 188402438
" />
<path d="M181107438 188878628
L181869342 188878628
" />
<path d="M181476485 188211961
L181262200 189926247
L181333628 190116723
L181512200 190211961
L181702676 190211961
" />
<path d="M182655057 190211961
L182476485 190116723
L182405057 189926247
L182619342 188211961
" />
<path d="M184190771 190116723
L183988390 190211961
L183607438 190211961
L183428866 190116723
L183357438 189926247
L183452676 189164342
L183571723 188973866
L183774104 188878628
L184155057 188878628
L184333628 188973866
L184405057 189164342
L184381247 189354819
L183405057 189545295
" />
<path d="M185155057 190021485
L185238390 190116723
L185131247 190211961
L185047914 190116723
L185155057 190021485
L185131247 190211961
" />
<path d="M185286009 188973866
L185369342 189069104
L185262200 189164342
L185178866 189069104
L185286009 188973866
L185262200 189164342
" />
</g></g>
<g style="fill:#000000; fill-opacity:0.0; 
stroke:#000000; stroke-width:21200.000000; stroke-opacity:1; 
stroke-linecap:round; stroke-linejoin:round;">
</g>
<g style="fill:#000000; fill-opacity:0.0; 
stroke:#000000; stroke-width:150000.000000; stroke-opacity:1; 
stroke-linecap:round; stroke-linejoin:round;">
<text x="178002200.000000" y="186457200.000000"
textLength="39805714.000000" font-size="2000000.000000" lengthAdjust="spacingAndGlyphs"
text-anchor="start" opacity="0">File: mca_game_console.kicad_pcb</text>
<g class="stroked-text"><desc>File: mca_game_console.kicad_pcb</desc>
<path d="M178934342 185600057
L178434342 185600057
" />
<path d="M178434342 186385771
L178434342 184885771
L179148628 184885771
" />
<path d="M179720057 186385771
L179720057 185385771
" />
<path d="M179720057 184885771
L179648628 184957200
L179720057 185028628
L179791485 184957200
L179720057 184885771
L179720057 185028628
" />
<path d="M180648628 186385771
L180505771 186314342
L180434342 186171485
L180434342 184885771
" />
<path d="M181791485 186314342
L181648628 186385771
L181362914 186385771
L181220057 186314342
L181148628 186171485
L181148628 185600057
L181220057 185457200
L181362914 185385771
L181648628 185385771
L181791485 185457200
L181862914 185600057
L181862914 185742914
L181148628 185885771
" />
<path d="M182505771 186242914
L182577200 186314342
L182505771 186385771
L182434342 186314342
L182505771 186242914
L182505771 186385771
" />
<path d="M182505771 185457200
L182577200 185528628
L182505771 185600057
L182434342 185528628
L182505771 185457200
L182505771 185600057
" />
<path d="M184362914 186385771
L184362914 185385771
" />
<path d="M184362914 185528628
L184434342 185457200
L184577200 185385771
L184791485 185385771
L184934342 185457200
L185005771 185600057
L185005771 186385771
" />
<path d="M185005771 185600057
L185077200 185457200
L185220057 185385771
L185434342 185385771
L185577200 185457200
L185648628 185600057
L185648628 186385771
" />
<path d="M187005771 186314342
L186862914 186385771
L186577200 186385771
L186434342 186314342
L186362914 186242914
L186291485 186100057
L186291485 185671485
L186362914 185528628
L186434342 185457200
L186577200 185385771
L186862914 185385771
L187005771 185457200
" />
<path d="M188291485 186385771
L188291485 185600057
L188220057 185457200
L188077200 185385771
L187791485 185385771
L187648628 185457200
" />
<path d="M188291485 186314342
L188148628 186385771
L187791485 186385771
L187648628 186314342
L187577200 186171485
L187577200 186028628
L187648628 185885771
L187791485 185814342
L188148628 185814342
L188291485 185742914
" />
<path d="M188648628 186528628
L189791485 186528628
" />
<path d="M190791485 185385771
L190791485 186600057
L190720057 186742914
L190648628 186814342
L190505771 186885771
L190291485 186885771
L190148628 186814342
" />
<path d="M190791485 186314342
L190648628 186385771
L190362914 186385771
L190220057 186314342
L190148628 186242914
L190077200 186100057
L190077200 185671485
L190148628 185528628
L190220057 185457200
L190362914 185385771
L190648628 185385771
L190791485 185457200
" />
<path d="M192148628 186385771
L192148628 185600057
L192077200 185457200
L191934342 185385771
L191648628 185385771
L191505771 185457200
" />
<path d="M192148628 186314342
L192005771 186385771
L191648628 186385771
L191505771 186314342
L191434342 186171485
L191434342 186028628
L191505771 185885771
L191648628 185814342
L192005771 185814342
L192148628 185742914
" />
<path d="M192862914 186385771
L192862914 185385771
" />
<path d="M192862914 185528628
L192934342 185457200
L193077200 185385771
L193291485 185385771
L193434342 185457200
L193505771 185600057
L193505771 186385771
" />
<path d="M193505771 185600057
L193577200 185457200
L193720057 185385771
L193934342 185385771
L194077200 185457200
L194148628 185600057
L194148628 186385771
" />
<path d="M195434342 186314342
L195291485 186385771
L195005771 186385771
L194862914 186314342
L194791485 186171485
L194791485 185600057
L194862914 185457200
L195005771 185385771
L195291485 185385771
L195434342 185457200
L195505771 185600057
L195505771 185742914
L194791485 185885771
" />
<path d="M195791485 186528628
L196934342 186528628
" />
<path d="M197934342 186314342
L197791485 186385771
L197505771 186385771
L197362914 186314342
L197291485 186242914
L197220057 186100057
L197220057 185671485
L197291485 185528628
L197362914 185457200
L197505771 185385771
L197791485 185385771
L197934342 185457200
" />
<path d="M198791485 186385771
L198648628 186314342
L198577200 186242914
L198505771 186100057
L198505771 185671485
L198577200 185528628
L198648628 185457200
L198791485 185385771
L199005771 185385771
L199148628 185457200
L199220057 185528628
L199291485 185671485
L199291485 186100057
L199220057 186242914
L199148628 186314342
L199005771 186385771
L198791485 186385771
" />
<path d="M199934342 185385771
L199934342 186385771
" />
<path d="M199934342 185528628
L200005771 185457200
L200148628 185385771
L200362914 185385771
L200505771 185457200
L200577200 185600057
L200577200 186385771
" />
<path d="M201220057 186314342
L201362914 186385771
L201648628 186385771
L201791485 186314342
L201862914 186171485
L201862914 186100057
L201791485 185957200
L201648628 185885771
L201434342 185885771
L201291485 185814342
L201220057 185671485
L201220057 185600057
L201291485 185457200
L201434342 185385771
L201648628 185385771
L201791485 185457200
" />
<path d="M202720057 186385771
L202577200 186314342
L202505771 186242914
L202434342 186100057
L202434342 185671485
L202505771 185528628
L202577200 185457200
L202720057 185385771
L202934342 185385771
L203077200 185457200
L203148628 185528628
L203220057 185671485
L203220057 186100057
L203148628 186242914
L203077200 186314342
L202934342 186385771
L202720057 186385771
" />
<path d="M204077200 186385771
L203934342 186314342
L203862914 186171485
L203862914 184885771
" />
<path d="M205220057 186314342
L205077200 186385771
L204791485 186385771
L204648628 186314342
L204577200 186171485
L204577200 185600057
L204648628 185457200
L204791485 185385771
L205077200 185385771
L205220057 185457200
L205291485 185600057
L205291485 185742914
L204577200 185885771
" />
<path d="M205934342 186242914
L206005771 186314342
L205934342 186385771
L205862914 186314342
L205934342 186242914
L205934342 186385771
" />
<path d="M206648628 186385771
L206648628 184885771
" />
<path d="M206791485 185814342
L207220057 186385771
" />
<path d="M207220057 185385771
L206648628 185957200
" />
<path d="M207862914 186385771
L207862914 185385771
" />
<path d="M207862914 184885771
L207791485 184957200
L207862914 185028628
L207934342 184957200
L207862914 184885771
L207862914 185028628
" />
<path d="M209220057 186314342
L209077200 186385771
L208791485 186385771
L208648628 186314342
L208577200 186242914
L208505771 186100057
L208505771 185671485
L208577200 185528628
L208648628 185457200
L208791485 185385771
L209077200 185385771
L209220057 185457200
" />
<path d="M210505771 186385771
L210505771 185600057
L210434342 185457200
L210291485 185385771
L210005771 185385771
L209862914 185457200
" />
<path d="M210505771 186314342
L210362914 186385771
L210005771 186385771
L209862914 186314342
L209791485 186171485
L209791485 186028628
L209862914 185885771
L210005771 185814342
L210362914 185814342
L210505771 185742914
" />
<path d="M211862914 186385771
L211862914 184885771
" />
<path d="M211862914 186314342
L211720057 186385771
L211434342 186385771
L211291485 186314342
L211220057 186242914
L211148628 186100057
L211148628 185671485
L211220057 185528628
L211291485 185457200
L211434342 185385771
L211720057 185385771
L211862914 185457200
" />
<path d="M212220057 186528628
L213362914 186528628
" />
<path d="M213720057 185385771
L213720057 186885771
" />
<path d="M213720057 185457200
L213862914 185385771
L214148628 185385771
L214291485 185457200
L214362914 185528628
L214434342 185671485
L214434342 186100057
L214362914 186242914
L214291485 186314342
L214148628 186385771
L213862914 186385771
L213720057 186314342
" />
<path d="M215720057 186314342
L215577200 186385771
L215291485 186385771
L215148628 186314342
L215077200 186242914
L215005771 186100057
L215005771 185671485
L215077200 185528628
L215148628 185457200
L215291485 185385771
L215577200 185385771
L215720057 185457200
" />
<path d="M216362914 186385771
L216362914 184885771
" />
<path d="M216362914 185457200
L216505771 185385771
L216791485 185385771
L216934342 185457200
L217005771 185528628
L217077200 185671485
L217077200 186100057
L217005771 186242914
L216934342 186314342
L216791485 186385771
L216505771 186385771
L216362914 186314342
" />
</g></g>
<g style="fill:#000000; fill-opacity:0.0; 
stroke:#000000; stroke-width:21200.000000; stroke-opacity:1; 
stroke-linecap:round; stroke-linejoin:round;">
</g>
<g style="fill:#000000; fill-opacity:0.0; 
stroke:#000000; stroke-width:150000.000000; stroke-opacity:1; 
stroke-linecap:round; stroke-linejoin:round;">
<path d="M177002200 181507200
L285002200 181507200
" />
</g>
<g style="fill:#000000; fill-opacity:0.0; 
stroke:#000000; stroke-width:21200.000000; stroke-opacity:1; 
stroke-linecap:round; stroke-linejoin:round;">
</g>
<g style="fill:#000000; fill-opacity:0.0; 
stroke:#000000; stroke-width:150000.000000; stroke-opacity:1; 
stroke-linecap:round; stroke-linejoin:round;">
<text x="178002200.000000" y="183757200.000000"
textLength="8221429.000000" font-size="2000000.000000" lengthAdjust="spacingAndGlyphs"
text-anchor="start" opacity="0">Sheet: </text>
<g class="stroked-text"><desc>Sheet: </desc>
<path d="M178362914 183614342
L178577200 183685771
L178934342 183685771
L179077200 183614342
L179148628 183542914
L179220057 183400057
L179220057 183257200
L179148628 183114342
L179077200 183042914
L178934342 182971485
L178648628 182900057
L178505771 182828628
L178434342 182757200
L178362914 182614342
L178362914 182471485
L178434342 182328628
L178505771 182257200
L178648628 182185771
L179005771 182185771
L179220057 182257200
" />
<path d="M179862914 183685771
L179862914 182185771
" />
<path d="M180505771 183685771
L180505771 182900057
L180434342 182757200
L180291485 182685771
L180077200 182685771
L179934342 182757200
L179862914 182828628
" />
<path d="M181791485 183614342
L181648628 183685771
L181362914 183685771
L181220057 183614342
L181148628 183471485
L181148628 182900057
L181220057 182757200
L181362914 182685771
L181648628 182685771
L181791485 182757200
L181862914 182900057
L181862914 183042914
L181148628 183185771
" />
<path d="M183077200 183614342
L182934342 183685771
L182648628 183685771
L182505771 183614342
L182434342 183471485
L182434342 182900057
L182505771 182757200
L182648628 182685771
L182934342 182685771
L183077200 182757200
L183148628 182900057
L183148628 183042914
L182434342 183185771
" />
<path d="M183577200 182685771
L184148628 182685771
" />
<path d="M183791485 182185771
L183791485 183471485
L183862914 183614342
L184005771 183685771
L184148628 183685771
" />
<path d="M184648628 183542914
L184720057 183614342
L184648628 183685771
L184577200 183614342
L184648628 183542914
L184648628 183685771
" />
<path d="M184648628 182757200
L184720057 182828628
L184648628 182900057
L184577200 182828628
L184648628 182757200
L184648628 182900057
" />
</g></g>
<g style="fill:#000000; fill-opacity:0.0; 
stroke:#000000; stroke-width:21200.000000; stroke-opacity:1; 
stroke-linecap:round; stroke-linejoin:round;">
</g>
<g style="fill:#000000; fill-opacity:0.0; 
stroke:#000000; stroke-width:300000.000000; stroke-opacity:1; 
stroke-linecap:round; stroke-linejoin:round;">
<text x="178002200.000000" y="180757200.000000"
textLength="150000.000000" font-size="2000000.000000" lengthAdjust="spacingAndGlyphs"
text-anchor="start" opacity="0"></text>
<g class="stroked-text"><desc></desc>
</g></g>
<g style="fill:#000000; fill-opacity:0.0; 
stroke:#000000; stroke-width:21200.000000; stroke-opacity:1; 
stroke-linecap:round; stroke-linejoin:round;">
</g>
<g style="fill:#000000; fill-opacity:0.0; 
stroke:#000000; stroke-width:150000.000000; stroke-opacity:1; 
stroke-linecap:round; stroke-linejoin:round;">
<text x="178002200.000000" y="177757200.000000"
textLength="300000.000000" font-size="2000000.000000" lengthAdjust="spacingAndGlyphs"
text-anchor="start" opacity="0"></text>
<g class="stroked-text"><desc></desc>
</g></g>
<g style="fill:#000000; fill-opacity:0.0; 
stroke:#000000; stroke-width:21200.000000; stroke-opacity:1; 
stroke-linecap:round; stroke-linejoin:round;">
</g>
<g style="fill:#000000; fill-opacity:0.0; 
stroke:#000000; stroke-width:150000.000000; stroke-opacity:1; 
stroke-linecap:round; stroke-linejoin:round;">
<text x="178002200.000000" y="174757200.000000"
textLength="150000.000000" font-size="2000000.000000" lengthAdjust="spacingAndGlyphs"
text-anchor="start" opacity="0"></text>
<g class="stroked-text"><desc></desc>
</g></g>
<g style="fill:#000000; fill-opacity:0.0; 
stroke:#000000; stroke-width:21200.000000; stroke-opacity:1; 
stroke-linecap:round; stroke-linejoin:round;">
</g>
<g style="fill:#000000; fill-opacity:0.0; 
stroke:#000000; stroke-width:150000.000000; stroke-opacity:1; 
stroke-linecap:round; stroke-linejoin:round;">
<text x="178002200.000000" y="171757200.000000"
textLength="150000.000000" font-size="2000000.000000" lengthAdjust="spacingAndGlyphs"
text-anchor="start" opacity="0"></text>
<g class="stroked-text"><desc></desc>
</g></g>
<g style="fill:#000000; fill-opacity:0.0; 
stroke:#000000; stroke-width:21200.000000; stroke-opacity:1; 
stroke-linecap:round; stroke-linejoin:round;">
</g>
<g style="fill:#000000; fill-opacity:0.0; 
stroke:#000000; stroke-width:150000.000000; stroke-opacity:1; 
stroke-linecap:round; stroke-linejoin:round;">
<text x="178002200.000000" y="168757200.000000"
textLength="150000.000000" font-size="2000000.000000" lengthAdjust="spacingAndGlyphs"
text-anchor="start" opacity="0"></text>
<g class="stroked-text"><desc></desc>
</g></g>
<g style="fill:#000000; fill-opacity:0.0; 
stroke:#000000; stroke-width:21200.000000; stroke-opacity:1; 
stroke-linecap:round; stroke-linejoin:round;">
</g>
<g style="fill:#000000; fill-opacity:0.0; 
stroke:#000000; stroke-width:150000.000000; stroke-opacity:1; 
stroke-linecap:round; stroke-linejoin:round;">
<path d="M197002200 191507200
L197002200 194507200
" />
</g>
<g style="fill:#000000; fill-opacity:0.0; 
stroke:#000000; stroke-width:21200.000000; stroke-opacity:1; 
stroke-linecap:round; stroke-linejoin:round;">
</g>
<g style="fill:#000000; fill-opacity:0.0; 
stroke:#000000; stroke-width:150000.000000; stroke-opacity:1; 
stroke-linecap:round; stroke-linejoin:round;">
<path d="M261002200 191507200
L261002200 198007200
" />
</g>
<g style="fill:#F2EDA1; fill-opacity:0.0; 
stroke:#F2EDA1; stroke-width:150000.000000; stroke-opacity:1; 
stroke-linecap:round; stroke-linejoin:round;">
<path d="M154200000 106500000
L151200000 104000000
" />
<path d="M151200000 104000000
L154200000 101500000
" />
<path d="M154200000 101500000
L154200000 106500000
" />
<g transform="rotate(-90.000000 151749999.000000 77500000.000000)">
<text x="151749999.000000" y="79000000.000000"
textLength="2721429.000000" font-size="4000000.000000" lengthAdjust="spacingAndGlyphs"
text-anchor="middle" opacity="0">A</text>
</g>
<g class="stroked-text"><desc>A</desc>
<path d="M152249999 78214285
L152249999 76785714
" />
<path d="M153107141 78500000
L150107141 77500000
L153107141 76500000
" />
</g><text x="84500000.000000" y="88000000.000000"
textLength="2766429.000000" font-size="4000000.000000" lengthAdjust="spacingAndGlyphs"
text-anchor="middle" opacity="0"></text>
<g class="stroked-text"><desc></desc>
<path d="M84357142 87571428
L84500000 87714285
L84357142 87857142
L84214285 87714285
L84357142 87571428
L84357142 87857142
" />
<path d="M83785714 85000000
L84071428 84857142
L84785714 84857142
L85071428 85000000
L85214285 85285714
L85214285 85571428
L85071428 85857142
L84928571 86000000
L84642857 86142857
L84500000 86285714
L84357142 86571428
L84357142 86714285
" />
</g><g transform="rotate(-90.000000 159250000.000000 104000000.000000)">
<text x="159250000.000000" y="105500000.000000"
textLength="3623571.000000" font-size="4000000.000000" lengthAdjust="spacingAndGlyphs"
text-anchor="middle" opacity="0"></text>
</g>
<g class="stroked-text"><desc></desc>
<path d="M160607142 105000000
L157607142 105000000
L157607142 103000000
L160607142 103000000
L160607142 105000000
" />
</g></g>
<g style="fill:#F2EDA1; fill-opacity:0.0; 
stroke:#F2EDA1; stroke-width:500000.000000; stroke-opacity:1; 
stroke-linecap:round; stroke-linejoin:round;">
<g transform="rotate(-90.000000 117000000.000000 125800000.000000)">
<text x="117000000.000000" y="126800000.000000"
textLength="49242619.000000" font-size="2666666.000000" lengthAdjust="spacingAndGlyphs"
text-anchor="middle" opacity="0">Makecode Arcade Game Console</text>
</g>
<g class="stroked-text"><desc>Makecode Arcade Game Console</desc>
<path d="M117904761 149847619
L115904761 149847619
L117333333 149180952
L115904761 148514285
L117904761 148514285
" />
<path d="M117904761 146704761
L116857142 146704761
L116666666 146800000
L116571428 146990476
L116571428 147371428
L116666666 147561904
" />
<path d="M117809523 146704761
L117904761 146895238
L117904761 147371428
L117809523 147561904
L117619047 147657142
L117428571 147657142
L117238095 147561904
L117142857 147371428
L117142857 146895238
L117047619 146704761
" />
<path d="M117904761 145752380
L115904761 145752380
" />
<path d="M117142857 145561904
L117904761 144990476
" />
<path d="M116571428 144990476
L117333333 145752380
" />
<path d="M117809523 143371428
L117904761 143561904
L117904761 143942857
L117809523 144133333
L117619047 144228571
L116857142 144228571
L116666666 144133333
L116571428 143942857
L116571428 143561904
L116666666 143371428
L116857142 143276190
L117047619 143276190
L117238095 144228571
" />
<path d="M117809523 141561904
L117904761 141752380
L117904761 142133333
L117809523 142323809
L117714285 142419047
L117523809 142514285
L116952380 142514285
L116761904 142419047
L116666666 142323809
L116571428 142133333
L116571428 141752380
L116666666 141561904
" />
<path d="M117904761 140419047
L117809523 140609523
L117714285 140704761
L117523809 140800000
L116952380 140800000
L116761904 140704761
L116666666 140609523
L116571428 140419047
L116571428 140133333
L116666666 139942857
L116761904 139847619
L116952380 139752380
L117523809 139752380
L117714285 139847619
L117809523 139942857
L117904761 140133333
L117904761 140419047
" />
<path d="M117904761 138038095
L115904761 138038095
" />
<path d="M117809523 138038095
L117904761 138228571
L117904761 138609523
L117809523 138800000
L117714285 138895238
L117523809 138990476
L116952380 138990476
L116761904 138895238
L116666666 138800000
L116571428 138609523
L116571428 138228571
L116666666 138038095
" />
<path d="M117809523 136323809
L117904761 136514285
L117904761 136895238
L117809523 137085714
L117619047 137180952
L116857142 137180952
L116666666 137085714
L116571428 136895238
L116571428 136514285
L116666666 136323809
L116857142 136228571
L117047619 136228571
L117238095 137180952
" />
<path d="M117333333 133942857
L117333333 132990476
" />
<path d="M117904761 134133333
L115904761 133466666
L117904761 132800000
" />
<path d="M117904761 132133333
L116571428 132133333
" />
<path d="M116952380 132133333
L116761904 132038095
L116666666 131942857
L116571428 131752380
L116571428 131561904
" />
<path d="M117809523 130038095
L117904761 130228571
L117904761 130609523
L117809523 130800000
L117714285 130895238
L117523809 130990476
L116952380 130990476
L116761904 130895238
L116666666 130800000
L116571428 130609523
L116571428 130228571
L116666666 130038095
" />
<path d="M117904761 128323809
L116857142 128323809
L116666666 128419047
L116571428 128609523
L116571428 128990476
L116666666 129180952
" />
<path d="M117809523 128323809
L117904761 128514285
L117904761 128990476
L117809523 129180952
L117619047 129276190
L117428571 129276190
L117238095 129180952
L117142857 128990476
L117142857 128514285
L117047619 128323809
" />
<path d="M117904761 126514285
L115904761 126514285
" />
<path d="M117809523 126514285
L117904761 126704761
L117904761 127085714
L117809523 127276190
L117714285 127371428
L117523809 127466666
L116952380 127466666
L116761904 127371428
L116666666 127276190
L116571428 127085714
L116571428 126704761
L116666666 126514285
" />
<path d="M117809523 124800000
L117904761 124990476
L117904761 125371428
L117809523 125561904
L117619047 125657142
L116857142 125657142
L116666666 125561904
L116571428 125371428
L116571428 124990476
L116666666 124800000
L116857142 124704761
L117047619 124704761
L117238095 125657142
" />
<path d="M116000000 121276190
L115904761 121466666
L115904761 121752380
L116000000 122038095
L116190476 122228571
L116380952 122323809
L116761904 122419047
L117047619 122419047
L117428571 122323809
L117619047 122228571
L117809523 122038095
L117904761 121752380
L117904761 121561904
L117809523 121276190
L117714285 121180952
L117047619 121180952
L117047619 121561904
" />
<path d="M117904761 119466666
L116857142 119466666
L116666666 119561904
L116571428 119752380
L116571428 120133333
L116666666 120323809
" />
<path d="M117809523 119466666
L117904761 119657142
L117904761 120133333
L117809523 120323809
L117619047 120419047
L117428571 120419047
L117238095 120323809
L117142857 120133333
L117142857 119657142
L117047619 119466666
" />
<path d="M117904761 118514285
L116571428 118514285
" />
<path d="M116761904 118514285
L116666666 118419047
L116571428 118228571
L116571428 117942857
L116666666 117752380
L116857142 117657142
L117904761 117657142
" />
<path d="M116857142 117657142
L116666666 117561904
L116571428 117371428
L116571428 117085714
L116666666 116895238
L116857142 116800000
L117904761 116800000
" />
<path d="M117809523 115085714
L117904761 115276190
L117904761 115657142
L117809523 115847619
L117619047 115942857
L116857142 115942857
L116666666 115847619
L116571428 115657142
L116571428 115276190
L116666666 115085714
L116857142 114990476
L117047619 114990476
L117238095 115942857
" />
<path d="M117714285 111466666
L117809523 111561904
L117904761 111847619
L117904761 112038095
L117809523 112323809
L117619047 112514285
L117428571 112609523
L117047619 112704761
L116761904 112704761
L116380952 112609523
L116190476 112514285
L116000000 112323809
L115904761 112038095
L115904761 111847619
L116000000 111561904
L116095238 111466666
" />
<path d="M117904761 110323809
L117809523 110514285
L117714285 110609523
L117523809 110704761
L116952380 110704761
L116761904 110609523
L116666666 110514285
L116571428 110323809
L116571428 110038095
L116666666 109847619
L116761904 109752380
L116952380 109657142
L117523809 109657142
L117714285 109752380
L117809523 109847619
L117904761 110038095
L117904761 110323809
" />
<path d="M116571428 108800000
L117904761 108800000
" />
<path d="M116761904 108800000
L116666666 108704761
L116571428 108514285
L116571428 108228571
L116666666 108038095
L116857142 107942857
L117904761 107942857
" />
<path d="M117809523 107085714
L117904761 106895238
L117904761 106514285
L117809523 106323809
L117619047 106228571
L117523809 106228571
L117333333 106323809
L117238095 106514285
L117238095 106800000
L117142857 106990476
L116952380 107085714
L116857142 107085714
L116666666 106990476
L116571428 106800000
L116571428 106514285
L116666666 106323809
" />
<path d="M117904761 105085714
L117809523 105276190
L117714285 105371428
L117523809 105466666
L116952380 105466666
L116761904 105371428
L116666666 105276190
L116571428 105085714
L116571428 104800000
L116666666 104609523
L116761904 104514285
L116952380 104419047
L117523809 104419047
L117714285 104514285
L117809523 104609523
L117904761 104800000
L117904761 105085714
" />
<path d="M117904761 103276190
L117809523 103466666
L117619047 103561904
L115904761 103561904
" />
<path d="M117809523 101752380
L117904761 101942857
L117904761 102323809
L117809523 102514285
L117619047 102609523
L116857142 102609523
L116666666 102514285
L116571428 102323809
L116571428 101942857
L116666666 101752380
L116857142 101657142
L117047619 101657142
L117238095 102609523
" />
</g></g>
<g style="fill:#F2EDA1; fill-opacity:0.0; 
stroke:#F2EDA1; stroke-width:150000.000000; stroke-opacity:1; 
stroke-linecap:round; stroke-linejoin:round;">
<text x="227100000.000000" y="134000000.000000"
textLength="4364286.000000" font-size="4000000.000000" lengthAdjust="spacingAndGlyphs"
text-anchor="middle" opacity="0"></text>
<g class="stroked-text"><desc></desc>
<path d="M225957142 133142857
L225957142 132285714
L227528571 132285714
L227528571 132000000
L228242857 132714285
L227528571 133428571
L227528571 133142857
L225957142 133142857
" />
</g><text x="214100000.000000" y="119700000.000000"
textLength="3909286.000000" font-size="4000000.000000" lengthAdjust="spacingAndGlyphs"
text-anchor="middle" opacity="0"></text>
<g class="stroked-text"><desc></desc>
<path d="M214528571 119557142
L213671428 119557142
L213671428 117985714
L213385714 117985714
L214100000 117271428
L214814285 117985714
L214528571 117985714
L214528571 119557142
" />
</g></g>
<g style="fill:#F2EDA1; fill-opacity:0.0; 
stroke:#F2EDA1; stroke-width:500000.000000; stroke-opacity:1; 
stroke-linecap:round; stroke-linejoin:round;">
<g transform="rotate(-90.000000 121400000.000000 69200000.000000)">
<text x="121400000.000000" y="70200000.000000"
textLength="16099762.000000" font-size="2666666.000000" lengthAdjust="spacingAndGlyphs"
text-anchor="middle" opacity="0">POWER ON</text>
</g>
<g class="stroked-text"><desc>POWER ON</desc>
<path d="M122304761 76676190
L120304761 76676190
L120304761 75914285
L120400000 75723809
L120495238 75628571
L120685714 75533333
L120971428 75533333
L121161904 75628571
L121257142 75723809
L121352380 75914285
L121352380 76676190
" />
<path d="M120304761 74295238
L120304761 73914285
L120400000 73723809
L120590476 73533333
L120971428 73438095
L121638095 73438095
L122019047 73533333
L122209523 73723809
L122304761 73914285
L122304761 74295238
L122209523 74485714
L122019047 74676190
L121638095 74771428
L120971428 74771428
L120590476 74676190
L120400000 74485714
L120304761 74295238
" />
<path d="M120304761 72771428
L122304761 72295238
L120876190 71914285
L122304761 71533333
L120304761 71057142
" />
<path d="M121257142 70295238
L121257142 69628571
" />
<path d="M122304761 69342857
L122304761 70295238
L120304761 70295238
L120304761 69342857
" />
<path d="M122304761 67342857
L121352380 68009523
" />
<path d="M122304761 68485714
L120304761 68485714
L120304761 67723809
L120400000 67533333
L120495238 67438095
L120685714 67342857
L120971428 67342857
L121161904 67438095
L121257142 67533333
L121352380 67723809
L121352380 68485714
" />
<path d="M120304761 64580952
L120304761 64200000
L120400000 64009523
L120590476 63819047
L120971428 63723809
L121638095 63723809
L122019047 63819047
L122209523 64009523
L122304761 64200000
L122304761 64580952
L122209523 64771428
L122019047 64961904
L121638095 65057142
L120971428 65057142
L120590476 64961904
L120400000 64771428
L120304761 64580952
" />
<path d="M122304761 62866666
L120304761 62866666
L122304761 61723809
L120304761 61723809
" />
</g></g>
<g style="fill:#F2EDA1; fill-opacity:0.0; 
stroke:#F2EDA1; stroke-width:150000.000000; stroke-opacity:1; 
stroke-linecap:round; stroke-linejoin:round;">
<g transform="rotate(-90.000000 159250000.000000 87750000.000000)">
<text x="159250000.000000" y="89250000.000000"
textLength="3650000.000000" font-size="4000000.000000" lengthAdjust="spacingAndGlyphs"
text-anchor="middle" opacity="0">B</text>
</g>
<g class="stroked-text"><desc>B</desc>
<path d="M159035714 87535714
L159178571 87107142
L159321428 86964285
L159607142 86821428
L160035714 86821428
L160321428 86964285
L160464285 87107142
L160607142 87392857
L160607142 88535714
L157607142 88535714
L157607142 87535714
L157750000 87250000
L157892857 87107142
L158178571 86964285
L158464285 86964285
L158750000 87107142
L158892857 87250000
L159035714 87535714
L159035714 88535714
" />
</g><text x="201200000.000000" y="133950000.000000"
textLength="3909286.000000" font-size="4000000.000000" lengthAdjust="spacingAndGlyphs"
text-anchor="middle" opacity="0"></text>
<g class="stroked-text"><desc></desc>
<path d="M202342857 132235714
L202342857 133092857
L200771428 133092857
L200771428 133378571
L200057142 132664285
L200771428 131950000
L200771428 132235714
L202342857 132235714
" />
</g><text x="214100000.000000" y="147700000.000000"
textLength="3909286.000000" font-size="4000000.000000" lengthAdjust="spacingAndGlyphs"
text-anchor="middle" opacity="0"></text>
<g class="stroked-text"><desc></desc>
<path d="M213671428 145271428
L214528571 145271428
L214528571 146842857
L214814285 146842857
L214100000 147557142
L213385714 146842857
L213671428 146842857
L213671428 145271428
" />
</g><text x="96960000.000000" y="75270000.000000"
textLength="2147381.000000" font-size="1333333.000000" lengthAdjust="spacingAndGlyphs"
text-anchor="middle" opacity="0">R2</text>
<g class="stroked-text"><desc>R2</desc>
<path d="M96793333 75222380
L96460000 74746190
" />
<path d="M96221904 75222380
L96221904 74222380
L96602857 74222380
L96698095 74270000
L96745714 74317619
L96793333 74412857
L96793333 74555714
L96745714 74650952
L96698095 74698571
L96602857 74746190
L96221904 74746190
" />
<path d="M97174285 74317619
L97221904 74270000
L97317142 74222380
L97555238 74222380
L97650476 74270000
L97698095 74317619
L97745714 74412857
L97745714 74508095
L97698095 74650952
L97126666 75222380
L97745714 75222380
" />
</g><text x="99400000.000000" y="116550000.000000"
textLength="2147381.000000" font-size="1333333.000000" lengthAdjust="spacingAndGlyphs"
text-anchor="middle" opacity="0">R1</text>
<g class="stroked-text"><desc>R1</desc>
<path d="M99233333 116502380
L98900000 116026190
" />
<path d="M98661904 116502380
L98661904 115502380
L99042857 115502380
L99138095 115550000
L99185714 115597619
L99233333 115692857
L99233333 115835714
L99185714 115930952
L99138095 115978571
L99042857 116026190
L98661904 116026190
" />
<path d="M100185714 116502380
L99614285 116502380
" />
<path d="M99900000 116502380
L99900000 115502380
L99804761 115645238
L99709523 115740476
L99614285 115788095
" />
</g><text x="92140000.000000" y="75270000.000000"
textLength="2195000.000000" font-size="1333333.000000" lengthAdjust="spacingAndGlyphs"
text-anchor="middle" opacity="0">Q1</text>
<g class="stroked-text"><desc>Q1</desc>
<path d="M92044761 75317619
L91949523 75270000
L91854285 75174761
L91711428 75031904
L91616190 74984285
L91520952 74984285
" />
<path d="M91568571 75222380
L91473333 75174761
L91378095 75079523
L91330476 74889047
L91330476 74555714
L91378095 74365238
L91473333 74270000
L91568571 74222380
L91759047 74222380
L91854285 74270000
L91949523 74365238
L91997142 74555714
L91997142 74889047
L91949523 75079523
L91854285 75174761
L91759047 75222380
L91568571 75222380
" />
<path d="M92949523 75222380
L92378095 75222380
" />
<path d="M92663809 75222380
L92663809 74222380
L92568571 74365238
L92473333 74460476
L92378095 74508095
" />
</g><g transform="rotate(-90.000000 160400000.000000 128400000.000000)">
<text x="160400000.000000" y="128900000.000000"
textLength="4480714.000000" font-size="1333333.000000" lengthAdjust="spacingAndGlyphs"
text-anchor="middle" opacity="0">RIGHT</text>
</g>
<g class="stroked-text"><desc>RIGHT</desc>
<path d="M160852380 129733333
L160376190 130066666
" />
<path d="M160852380 130304761
L159852380 130304761
L159852380 129923809
L159900000 129828571
L159947619 129780952
L160042857 129733333
L160185714 129733333
L160280952 129780952
L160328571 129828571
L160376190 129923809
L160376190 130304761
" />
<path d="M160852380 129304761
L159852380 129304761
" />
<path d="M159900000 128304761
L159852380 128400000
L159852380 128542857
L159900000 128685714
L159995238 128780952
L160090476 128828571
L160280952 128876190
L160423809 128876190
L160614285 128828571
L160709523 128780952
L160804761 128685714
L160852380 128542857
L160852380 128447619
L160804761 128304761
L160757142 128257142
L160423809 128257142
L160423809 128447619
" />
<path d="M160852380 127828571
L159852380 127828571
" />
<path d="M160328571 127828571
L160328571 127257142
" />
<path d="M160852380 127257142
L159852380 127257142
" />
<path d="M159852380 126923809
L159852380 126352380
" />
<path d="M160852380 126638095
L159852380 126638095
" />
</g><g transform="rotate(-90.000000 177000000.000000 135500000.000000)">
<text x="177000000.000000" y="136000000.000000"
textLength="4433095.000000" font-size="1333333.000000" lengthAdjust="spacingAndGlyphs"
text-anchor="middle" opacity="0">DOWN</text>
</g>
<g class="stroked-text"><desc>DOWN</desc>
<path d="M177452380 137380952
L176452380 137380952
L176452380 137142857
L176500000 137000000
L176595238 136904761
L176690476 136857142
L176880952 136809523
L177023809 136809523
L177214285 136857142
L177309523 136904761
L177404761 137000000
L177452380 137142857
L177452380 137380952
" />
<path d="M176452380 136190476
L176452380 136000000
L176500000 135904761
L176595238 135809523
L176785714 135761904
L177119047 135761904
L177309523 135809523
L177404761 135904761
L177452380 136000000
L177452380 136190476
L177404761 136285714
L177309523 136380952
L177119047 136428571
L176785714 136428571
L176595238 136380952
L176500000 136285714
L176452380 136190476
" />
<path d="M176452380 135428571
L177452380 135190476
L176738095 135000000
L177452380 134809523
L176452380 134571428
" />
<path d="M177452380 134190476
L176452380 134190476
L177452380 133619047
L176452380 133619047
" />
</g><text x="135000000.000000" y="114050000.000000"
textLength="1909286.000000" font-size="1333333.000000" lengthAdjust="spacingAndGlyphs"
text-anchor="middle" opacity="0">J3</text>
<g class="stroked-text"><desc>J3</desc>
<path d="M134666666 113002380
L134666666 113716666
L134619047 113859523
L134523809 113954761
L134380952 114002380
L134285714 114002380
" />
<path d="M135047619 113002380
L135666666 113002380
L135333333 113383333
L135476190 113383333
L135571428 113430952
L135619047 113478571
L135666666 113573809
L135666666 113811904
L135619047 113907142
L135571428 113954761
L135476190 114002380
L135190476 114002380
L135095238 113954761
L135047619 113907142
" />
</g><g transform="rotate(-90.000000 160500000.000000 142500000.000000)">
<text x="160500000.000000" y="143000000.000000"
textLength="3528333.000000" font-size="1333333.000000" lengthAdjust="spacingAndGlyphs"
text-anchor="middle" opacity="0">LEFT</text>
</g>
<g class="stroked-text"><desc>LEFT</desc>
<path d="M160952380 143452380
L160952380 143928571
L159952380 143928571
" />
<path d="M160428571 143119047
L160428571 142785714
" />
<path d="M160952380 142642857
L160952380 143119047
L159952380 143119047
L159952380 142642857
" />
<path d="M160428571 141880952
L160428571 142214285
" />
<path d="M160952380 142214285
L159952380 142214285
L159952380 141738095
" />
<path d="M159952380 141500000
L159952380 140928571
" />
<path d="M160952380 141214285
L159952380 141214285
" />
</g><text x="118491000.000000" y="61786000.000000"
textLength="2147381.000000" font-size="1333333.000000" lengthAdjust="spacingAndGlyphs"
text-anchor="middle" opacity="0">D1</text>
<g class="stroked-text"><desc>D1</desc>
<path d="M117752904 61738380
L117752904 60738380
L117991000 60738380
L118133857 60786000
L118229095 60881238
L118276714 60976476
L118324333 61166952
L118324333 61309809
L118276714 61500285
L118229095 61595523
L118133857 61690761
L117991000 61738380
L117752904 61738380
" />
<path d="M119276714 61738380
L118705285 61738380
" />
<path d="M118991000 61738380
L118991000 60738380
L118895761 60881238
L118800523 60976476
L118705285 61024095
" />
</g><g transform="rotate(-90.000000 168800000.000000 104000000.000000)">
<text x="168800000.000000" y="104500000.000000"
textLength="4337857.000000" font-size="1333333.000000" lengthAdjust="spacingAndGlyphs"
text-anchor="middle" opacity="0">MENU</text>
</g>
<g class="stroked-text"><desc>MENU</desc>
<path d="M169252380 105833333
L168252380 105833333
L168966666 105500000
L168252380 105166666
L169252380 105166666
" />
<path d="M168728571 104690476
L168728571 104357142
" />
<path d="M169252380 104214285
L169252380 104690476
L168252380 104690476
L168252380 104214285
" />
<path d="M169252380 103785714
L168252380 103785714
L169252380 103214285
L168252380 103214285
" />
<path d="M168252380 102738095
L169061904 102738095
L169157142 102690476
L169204761 102642857
L169252380 102547619
L169252380 102357142
L169204761 102261904
L169157142 102214285
L169061904 102166666
L168252380 102166666
" />
</g><g transform="rotate(-90.000000 151500000.000000 135500000.000000)">
<text x="151500000.000000" y="136000000.000000"
textLength="2242619.000000" font-size="1333333.000000" lengthAdjust="spacingAndGlyphs"
text-anchor="middle" opacity="0">UP</text>
</g>
<g class="stroked-text"><desc>UP</desc>
<path d="M150952380 136285714
L151761904 136285714
L151857142 136238095
L151904761 136190476
L151952380 136095238
L151952380 135904761
L151904761 135809523
L151857142 135761904
L151761904 135714285
L150952380 135714285
" />
<path d="M151952380 135238095
L150952380 135238095
L150952380 134857142
L151000000 134761904
L151047619 134714285
L151142857 134666666
L151285714 134666666
L151380952 134714285
L151428571 134761904
L151476190 134857142
L151476190 135238095
" />
</g><text x="181135000.000000" y="80480000.000000"
textLength="1909286.000000" font-size="1333333.000000" lengthAdjust="spacingAndGlyphs"
text-anchor="middle" opacity="0">J2</text>
<g class="stroked-text"><desc>J2</desc>
<path d="M180801666 79432380
L180801666 80146666
L180754047 80289523
L180658809 80384761
L180515952 80432380
L180420714 80432380
" />
<path d="M181230238 79527619
L181277857 79480000
L181373095 79432380
L181611190 79432380
L181706428 79480000
L181754047 79527619
L181801666 79622857
L181801666 79718095
L181754047 79860952
L181182619 80432380
L181801666 80432380
" />
</g><text x="92100000.000000" y="79720000.000000"
textLength="2147381.000000" font-size="1333333.000000" lengthAdjust="spacingAndGlyphs"
text-anchor="middle" opacity="0">C1</text>
<g class="stroked-text"><desc>C1</desc>
<path d="M91933333 79577142
L91885714 79624761
L91742857 79672380
L91647619 79672380
L91504761 79624761
L91409523 79529523
L91361904 79434285
L91314285 79243809
L91314285 79100952
L91361904 78910476
L91409523 78815238
L91504761 78720000
L91647619 78672380
L91742857 78672380
L91885714 78720000
L91933333 78767619
" />
<path d="M92885714 79672380
L92314285 79672380
" />
<path d="M92600000 79672380
L92600000 78672380
L92504761 78815238
L92409523 78910476
L92314285 78958095
" />
</g><text x="96880000.000000" y="79720000.000000"
textLength="2147381.000000" font-size="1333333.000000" lengthAdjust="spacingAndGlyphs"
text-anchor="middle" opacity="0">R3</text>
<g class="stroked-text"><desc>R3</desc>
<path d="M96713333 79672380
L96380000 79196190
" />
<path d="M96141904 79672380
L96141904 78672380
L96522857 78672380
L96618095 78720000
L96665714 78767619
L96713333 78862857
L96713333 79005714
L96665714 79100952
L96618095 79148571
L96522857 79196190
L96141904 79196190
" />
<path d="M97046666 78672380
L97665714 78672380
L97332380 79053333
L97475238 79053333
L97570476 79100952
L97618095 79148571
L97665714 79243809
L97665714 79481904
L97618095 79577142
L97570476 79624761
L97475238 79672380
L97189523 79672380
L97094285 79624761
L97046666 79577142
" />
</g></g>
<g style="fill:#F2EDA1; fill-opacity:1.0; 
stroke:#F2EDA1; stroke-width:1.000000; stroke-opacity:1; 
stroke-linecap:round; stroke-linejoin:round;">
<circle cx="95950000.000000" cy="90405000.000000" r="60000.000000" /> 
</g>
<g style="fill:#F2EDA1; fill-opacity:1.0; 
stroke:#F2EDA1; stroke-width:120000.000000; stroke-opacity:1; 
stroke-linecap:round; stroke-linejoin:round;">
</g>
<g style="fill:#F2EDA1; fill-opacity:0.0; 
stroke:#F2EDA1; stroke-width:120000.000000; stroke-opacity:1; 
stroke-linecap:round; stroke-linejoin:round;">
<path d="M90450000 86905000
L90450000 89455000
" />
<path d="M90450000 85505000
L90450000 85605000
" />
<path d="M91350000 90505000
L90450000 89455000
" />
<path d="M90450000 85505000
L95950000 85505000
" />
<path d="M95950000 89105000
L95950000 86905000
" />
<path d="M95950000 90505000
L95950000 90405000
" />
<path d="M95950000 90505000
L91350000 90505000
" />
<path d="M95950000 85605000
L95950000 85505000
" />
<path d="M96732936 75685000
L97187064 75685000
" />
<path d="M96732936 77155000
L97187064 77155000
" />
<path d="M169400000 84768124
L160596521 75964645
" />
<path d="M160596521 75964645
L169364645 67196521
" />
<path d="M169364645 67196521
L178168124 76000000
" />
<path d="M178168124 76000000
L169400000 84768124
" />
<path d="M99627064 113665000
L99172936 113665000
" />
<path d="M99627064 115135000
L99172936 115135000
" />
<path d="M142805000 133830000
L124965000 133830000
" />
<path d="M145405000 131170000
L145405000 132500000
" />
<path d="M144075000 131170000
L145405000 131170000
" />
<path d="M142805000 131170000
L142805000 133830000
" />
<path d="M142805000 131170000
L124965000 131170000
" />
<path d="M124965000 131170000
L124965000 133830000
" />
<path d="M160200000 75568124
L151396521 66764645
" />
<path d="M151396521 66764645
L160164645 57996521
" />
<path d="M160164645 57996521
L168968124 66800000
" />
<path d="M168968124 66800000
L160200000 75568124
" />
<path d="M170200000 145068124
L161396521 136264645
" />
<path d="M161396521 136264645
L170164645 127496521
" />
<path d="M170164645 127496521
L178968124 136300000
" />
<path d="M178968124 136300000
L170200000 145068124
" />
<path d="M152231876 145400000
L161035355 136596521
" />
<path d="M161035355 136596521
L169803479 145364645
" />
<path d="M169803479 145364645
L161000000 154168124
" />
<path d="M161000000 154168124
L152231876 145400000
" />
<path d="M167500000 85000000
L166000000 85000000
" />
<path d="M167500000 85000000
L167500000 91000000
" />
<path d="M161500000 85000000
L163000000 85000000
" />
<path d="M167500000 91000000
L166000000 91000000
" />
<path d="M161500000 91000000
L163000000 91000000
" />
<path d="M161500000 91000000
L161500000 85000000
" />
<path d="M92140000 75610000
L90465000 75610000
" />
<path d="M92140000 78730000
L92790000 78730000
" />
<path d="M92140000 78730000
L91490000 78730000
" />
<path d="M92140000 75610000
L92790000 75610000
" />
<path d="M161500000 125500000
L163000000 125500000
" />
<path d="M167500000 131500000
L166000000 131500000
" />
<path d="M167500000 125500000
L166000000 125500000
" />
<path d="M161500000 131500000
L161500000 125500000
" />
<path d="M167500000 125500000
L167500000 131500000
" />
<path d="M161500000 131500000
L163000000 131500000
" />
<path d="M170000000 132500000
L171500000 132500000
" />
<path d="M176000000 138500000
L174500000 138500000
" />
<path d="M170000000 138500000
L170000000 132500000
" />
<path d="M176000000 132500000
L174500000 132500000
" />
<path d="M170000000 138500000
L171500000 138500000
" />
<path d="M176000000 132500000
L176000000 138500000
" />
<path d="M169768124 127000000
L160964645 135803479
" />
<path d="M160964645 135803479
L152196521 127035355
" />
<path d="M152196521 127035355
L161000000 118231876
" />
<path d="M161000000 118231876
L169768124 127000000
" />
<path d="M164000000 112768124
L155196521 103964645
" />
<path d="M155196521 103964645
L163964645 95196521
" />
<path d="M163964645 95196521
L172768124 104000000
" />
<path d="M172768124 104000000
L164000000 112768124
" />
<path d="M130050000 113896447
L129550000 113896447
" />
<path d="M129290000 114890000
L129290000 114750000
" />
<path d="M140960000 114890000
L140710000 114890000
" />
<path d="M141810000 116090000
L141810000 115190000
" />
<path d="M140960000 115190000
L140960000 114890000
" />
<path d="M129800000 114250000
L130050000 113896447
" />
<path d="M141810000 115190000
L140960000 115190000
" />
<path d="M128190000 115190000
L129040000 115190000
" />
<path d="M129040000 115190000
L129040000 114890000
" />
<path d="M129360000 117810000
L140640000 117810000
" />
<path d="M128190000 116090000
L128190000 115190000
" />
<path d="M129550000 113896447
L129800000 114250000
" />
<path d="M129040000 114890000
L129290000 114890000
" />
<path d="M167500000 139500000
L167500000 145500000
" />
<path d="M161500000 139500000
L163000000 139500000
" />
<path d="M167500000 139500000
L166000000 139500000
" />
<path d="M161500000 145500000
L163000000 145500000
" />
<path d="M167500000 145500000
L166000000 145500000
" />
<path d="M161500000 145500000
L161500000 139500000
" />
<path d="M120391000 60286000
L117241000 60286000
" />
<path d="M120391000 58586000
L117241000 58586000
" />
<path d="M120391000 60286000
L120391000 58586000
" />
<path d="M161500000 101000000
L163000000 101000000
" />
<path d="M167500000 101000000
L167500000 107000000
" />
<path d="M167500000 107000000
L166000000 107000000
" />
<path d="M161500000 107000000
L161500000 101000000
" />
<path d="M167500000 101000000
L166000000 101000000
" />
<path d="M161500000 107000000
L163000000 107000000
" />
<path d="M158500000 138500000
L157000000 138500000
" />
<path d="M158500000 132500000
L158500000 138500000
" />
<path d="M152500000 138500000
L152500000 132500000
" />
<path d="M152500000 132500000
L154000000 132500000
" />
<path d="M152500000 138500000
L154000000 138500000
" />
<path d="M158500000 132500000
L157000000 132500000
" />
<path d="M180850000 119970000
L186850000 119970000
" />
<path d="M186850000 109810000
L186850000 110570000
" />
<path d="M186850000 118190000
L180850000 118190000
" />
<path d="M177860000 82630000
L178190000 82630000
" />
<path d="M180850000 82050000
L186850000 82050000
" />
<path d="M178190000 108920000
L180850000 108920000
" />
<path d="M177792929 97870000
L178190000 97870000
" />
<path d="M177792929 102190000
L178190000 102190000
" />
<path d="M186850000 81870000
L186850000 82630000
" />
<path d="M178190000 101300000
L180850000 101300000
" />
<path d="M177792929 110570000
L178190000 110570000
" />
<path d="M180850000 122510000
L186850000 122510000
" />
<path d="M177792929 89490000
L178190000 89490000
" />
<path d="M180850000 92030000
L186850000 92030000
" />
<path d="M177792929 104730000
L178190000 104730000
" />
<path d="M186850000 114890000
L186850000 115650000
" />
<path d="M177792929 105490000
L178190000 105490000
" />
<path d="M177792929 117430000
L178190000 117430000
" />
<path d="M177792929 109810000
L178190000 109810000
" />
<path d="M186850000 113110000
L180850000 113110000
" />
<path d="M180850000 94570000
L186850000 94570000
" />
<path d="M178190000 93680000
L180850000 93680000
" />
<path d="M186850000 115650000
L180850000 115650000
" />
<path d="M178190000 83520000
L180850000 83520000
" />
<path d="M186850000 87710000
L180850000 87710000
" />
<path d="M177792929 97110000
L178190000 97110000
" />
<path d="M186850000 95330000
L180850000 95330000
" />
<path d="M177792929 95330000
L178190000 95330000
" />
<path d="M180850000 114890000
L186850000 114890000
" />
<path d="M186850000 82630000
L180850000 82630000
" />
<path d="M186850000 92790000
L180850000 92790000
" />
<path d="M180850000 81930000
L186850000 81930000
" />
<path d="M186850000 86950000
L186850000 87710000
" />
<path d="M180850000 81870000
L186850000 81870000
" />
<path d="M180850000 112350000
L186850000 112350000
" />
<path d="M186850000 102190000
L186850000 102950000
" />
<path d="M177792929 114890000
L178190000 114890000
" />
<path d="M177792929 107270000
L178190000 107270000
" />
<path d="M180850000 82530000
L186850000 82530000
" />
<path d="M186850000 84410000
L186850000 85170000
" />
<path d="M177792929 120730000
L178190000 120730000
" />
<path d="M180850000 84410000
L186850000 84410000
" />
<path d="M178190000 86060000
L180850000 86060000
" />
<path d="M186850000 85170000
L180850000 85170000
" />
<path d="M178190000 116540000
L180850000 116540000
" />
<path d="M180850000 86950000
L186850000 86950000
" />
<path d="M186850000 108030000
L180850000 108030000
" />
<path d="M178190000 111460000
L180850000 111460000
" />
<path d="M177792929 112350000
L178190000 112350000
" />
<path d="M177792929 100410000
L178190000 100410000
" />
<path d="M178190000 98760000
L180850000 98760000
" />
<path d="M177792929 87710000
L178190000 87710000
" />
<path d="M180850000 80920000
L178190000 80920000
" />
<path d="M178190000 80920000
L178190000 124220000
" />
<path d="M175480000 82250000
L175480000 80980000
" />
<path d="M177792929 118190000
L178190000 118190000
" />
<path d="M178190000 91140000
L180850000 91140000
" />
<path d="M180850000 117430000
L186850000 117430000
" />
<path d="M186850000 90250000
L180850000 90250000
" />
<path d="M178190000 96220000
L180850000 96220000
" />
<path d="M177792929 108030000
L178190000 108030000
" />
<path d="M180850000 89490000
L186850000 89490000
" />
<path d="M186850000 97870000
L180850000 97870000
" />
<path d="M178190000 106380000
L180850000 106380000
" />
<path d="M177792929 115650000
L178190000 115650000
" />
<path d="M178190000 119080000
L180850000 119080000
" />
<path d="M177792929 85170000
L178190000 85170000
" />
<path d="M178190000 121620000
L180850000 121620000
" />
<path d="M186850000 100410000
L180850000 100410000
" />
<path d="M180850000 104730000
L186850000 104730000
" />
<path d="M180850000 124220000
L180850000 80920000
" />
<path d="M177792929 94570000
L178190000 94570000
" />
<path d="M186850000 112350000
L186850000 113110000
" />
<path d="M180850000 107270000
L186850000 107270000
" />
<path d="M180850000 82290000
L186850000 82290000
" />
<path d="M180850000 109810000
L186850000 109810000
" />
<path d="M178190000 88600000
L180850000 88600000
" />
<path d="M186850000 102950000
L180850000 102950000
" />
<path d="M177792929 84410000
L178190000 84410000
" />
<path d="M186850000 107270000
L186850000 108030000
" />
<path d="M186850000 117430000
L186850000 118190000
" />
<path d="M177792929 123270000
L178190000 123270000
" />
<path d="M177792929 90250000
L178190000 90250000
" />
<path d="M177792929 92030000
L178190000 92030000
" />
<path d="M175480000 80980000
L176750000 80980000
" />
<path d="M177792929 122510000
L178190000 122510000
" />
<path d="M177792929 92790000
L178190000 92790000
" />
<path d="M178190000 114000000
L180850000 114000000
" />
<path d="M186850000 122510000
L186850000 123270000
" />
<path d="M186850000 120730000
L180850000 120730000
" />
<path d="M177860000 81870000
L178190000 81870000
" />
<path d="M180850000 82410000
L186850000 82410000
" />
<path d="M177792929 86950000
L178190000 86950000
" />
<path d="M177792929 113110000
L178190000 113110000
" />
<path d="M178190000 124220000
L180850000 124220000
" />
<path d="M177792929 99650000
L178190000 99650000
" />
<path d="M186850000 92030000
L186850000 92790000
" />
<path d="M180850000 97110000
L186850000 97110000
" />
<path d="M186850000 89490000
L186850000 90250000
" />
<path d="M180850000 102190000
L186850000 102190000
" />
<path d="M180850000 82170000
L186850000 82170000
" />
<path d="M186850000 94570000
L186850000 95330000
" />
<path d="M186850000 123270000
L180850000 123270000
" />
<path d="M177792929 119970000
L178190000 119970000
" />
<path d="M180850000 99650000
L186850000 99650000
" />
<path d="M186850000 110570000
L180850000 110570000
" />
<path d="M186850000 104730000
L186850000 105490000
" />
<path d="M186850000 105490000
L180850000 105490000
" />
<path d="M178190000 103840000
L180850000 103840000
" />
<path d="M186850000 119970000
L186850000 120730000
" />
<path d="M186850000 99650000
L186850000 100410000
" />
<path d="M177792929 102950000
L178190000 102950000
" />
<path d="M186850000 97110000
L186850000 97870000
" />
<path d="M151800000 127431876
L160603479 136235355
" />
<path d="M160603479 136235355
L151835355 145003479
" />
<path d="M151835355 145003479
L143031876 136200000
" />
<path d="M143031876 136200000
L151800000 127431876
" />
<path d="M91838748 81635000
L92361252 81635000
" />
<path d="M91838748 80165000
L92361252 80165000
" />
<path d="M96652936 80135000
L97107064 80135000
" />
<path d="M96652936 81605000
L97107064 81605000
" />
<path d="M154500000 80500001
L156000000 80500001
" />
<path d="M160500000 74500001
L159000000 74500001
" />
<path d="M160500000 74500001
L160500000 80500001
" />
<path d="M154500000 80500001
L154500000 74500001
" />
<path d="M160500000 80500001
L159000000 80500001
" />
<path d="M154500000 74500001
L156000000 74500001
" />
<g >
</g>
<g >
</g>
<g >
</g>
<g >
</g>
<g >
</g>
<g >
</g>
<g >
</g>
<g >
</g>
<g >
</g>
<g >
</g>
<g >
</g>
<g >
</g>
<g >
</g>
<g >
</g>
<g >
</g>
<g >
</g>
<g >
</g>
<g >
</g>
<g >
</g>
<g >
</g>
<g >
</g>
<g >
</g>
<g >
</g>
<g >
</g>
<g >
</g>
<g >
</g>
<g >
</g>
<g >
</g>
<g >
</g>
<g >
</g>
<g >
</g>
<g >
</g>
<g style="fill:#F2EDA1; fill-opacity:0.0; 
stroke:#F2EDA1; stroke-width:120000.000000; stroke-opacity:1; 
stroke-linecap:round; stroke-linejoin:round;">
<g >
</g>
<g style="fill:#F2EDA1; fill-opacity:1.0; 
stroke:#F2EDA1; stroke-width:1.000000; stroke-opacity:1; 
stroke-linecap:round; stroke-linejoin:round;">
<path style="fill:#F2EDA1; fill-opacity:1.0; 
stroke:#F2EDA1; stroke-width:1.000000; stroke-opacity:1; 
stroke-linecap:round; stroke-linejoin:round;fill-rule:evenodd;"
d="M 116219579.000000,67964684.000000
118097600.000000,69373200.000000
118140095.000000,69430074.000000
118145096.000000,69500894.000000
118111015.000000,69563176.000000
118048672.000000,69597145.000000
118022000.000000,69600000.000000
117618115.000000,69600000.000000
117604584.000000,69603973.000000
117604296.000000,69605977.000000
117605722.000000,69610173.000000
119383819.000000,72771234.000000
119400000.000000,72833007.000000
119400000.000000,76674000.000000
119379998.000000,76742121.000000
119326342.000000,76788614.000000
119274000.000000,76800000.000000
118526000.000000,76800000.000000
118457879.000000,76779998.000000
118411386.000000,76726342.000000
118400000.000000,76674000.000000
118400000.000000,73015513.000000
118392700.000000,72986312.000000
116808527.000000,70015987.000000
116798651.000000,70005916.000000
116794413.000000,70007449.000000
116403914.000000,70528115.000000
116347040.000000,70570610.000000
116276220.000000,70575611.000000
116213938.000000,70541530.000000
116179969.000000,70479187.000000
116177393.000000,70460896.000000
116018258.000000,68073865.000000
116033685.000000,68004565.000000
116084129.000000,67954606.000000
116153575.000000,67939850.000000
Z" /> 
</g>
</g>
</g>
<g style="fill:#000000; fill-opacity:1.0; 
stroke:#000000; stroke-width:1.000000; stroke-opacity:1; 
stroke-linecap:round; stroke-linejoin:round;">
</g>
<g style="fill:#D0D2CD; fill-opacity:1.0; 
stroke:#D0D2CD; stroke-width:1.000000; stroke-opacity:1; 
stroke-linecap:round; stroke-linejoin:round;">
</g>
<g style="fill:#D0D2CD; fill-opacity:0.0; 
stroke:#D0D2CD; stroke-width:100000.000000; stroke-opacity:1; 
stroke-linecap:round; stroke-linejoin:round;">
<path d="M181000000.000000 58250000.000000 A4000000.000000 4000000.000000 0.0 0 0 177000000.000000 54250000.000000" />
<path d="M119000000 154000000
L177000000 154000000
" />
<path d="M115000000.000000 150000000.000000 A4000000.000000 4000000.000000 0.0 0 0 119000000.000000 154000000.000000" />
<path d="M115000000 150000000
L115000000 58250000
" />
<path d="M119000000.000000 54250000.000000 A4000000.000000 4000000.000000 0.0 0 0 115000000.000000 58250000.000000" />
<path d="M177000000 54250000
L171612500 54250000
" />
<path d="M177000000.000000 154000000.000000 A4000000.000000 4000000.000000 0.0 0 0 181000000.000000 150000000.000000" />
<path d="M151000000 54250000
L171612500 54250000
" />
<path d="M151000000 54250000
L119000000 54250000
" />
<path d="M181000000 150000000
L181000000 58250000
" />
<g >
</g>
<g >
</g>
<g >
</g>
<g >
</g>
<g >
</g>
<g >
</g>
<g >
</g>
<g >
</g>
<g >
</g>
<g >
</g>
<g >
</g>
<g >
</g>
<g >
</g>
<g >
</g>
<g >
</g>
<g >
</g>
<g >
</g>
<g >
</g>
<g >
</g>
<g >
</g>
<g >
</g>
<g >
</g>
<g >
</g>
<g >
</g>
<g >
</g>
<g >
</g>
<g >
</g>
<g >
</g>
<g >
</g>
<g >
</g>
<g >
</g>
<g >
</g>
</g> 
</svg>
