<?xml version="1.0" encoding="UTF-8" standalone="no"?>
<!-- Created with Inkscape (http://www.inkscape.org/) -->

<svg
   width="12.598557mm"
   height="12.559708mm"
   viewBox="0 0 12.598557 12.559708"
   version="1.1"
   id="svg5"
   xml:space="preserve"
   xmlns:inkscape="http://www.inkscape.org/namespaces/inkscape"
   xmlns:sodipodi="http://sodipodi.sourceforge.net/DTD/sodipodi-0.dtd"
   xmlns="http://www.w3.org/2000/svg"
   xmlns:svg="http://www.w3.org/2000/svg"><sodipodi:namedview
     id="namedview7"
     pagecolor="#ffffff"
     bordercolor="#666666"
     borderopacity="1.0"
     inkscape:showpageshadow="2"
     inkscape:pageopacity="0.0"
     inkscape:pagecheckerboard="0"
     inkscape:deskcolor="#d1d1d1"
     inkscape:document-units="mm"
     showgrid="false" /><defs
     id="defs2" /><g
     inkscape:label="Layer 1"
     inkscape:groupmode="layer"
     id="layer1"
     transform="translate(-83.921419,-151.93879)"><path
       style="fill:#000000;stroke-width:0.0774855"
       d="m 83.943515,164.41578 c -0.02037,-0.0536 -0.02808,-2.87382 -0.01708,-6.26713 l 0.02,-6.16967 3.694189,-0.0201 3.694194,-0.0201 0.155162,9.5e-4 h 2.46743 c 2.17859,0 2.472896,0.0144 2.514371,0.12274 0.02588,0.0675 0.047,1.16757 0.047,2.44458 v 2.32183 l 0.0012,0.23287 -0.02011,3.70568 -0.02011,3.70568 -6.249491,0.0199 c -4.958646,0.0158 -6.257158,-2.3e-4 -6.28658,-0.0776 z m 1.047332,-0.36909 0.03869,-0.27162 1.260776,-0.0214 c 1.340696,-0.0227 1.485688,0.0126 1.485688,0.35662 0,0.19124 0.244493,0.25511 0.657605,0.17182 0.170206,-0.0344 0.270691,-0.0665 0.223306,-0.0713 -0.04737,-0.005 -0.177942,-0.10101 -0.290121,-0.21354 -0.302972,-0.30391 -0.285212,-0.7516 0.04331,-1.09159 l 0.247272,-0.25593 h 1.505486 c 1.494662,0 1.507345,10e-4 1.764222,0.19796 0.235767,0.1804 0.258741,0.23432 0.258741,0.60733 0,0.41483 -0.153239,0.66672 -0.464192,0.76302 -0.06383,0.0197 0.07182,0.061 0.301432,0.0916 0.467549,0.0624 0.526856,0.0306 0.562979,-0.30185 l 0.0253,-0.23282 h 1.35389 1.353895 l 0.02368,0.2443 c 0.02736,0.28227 0.166777,0.3442 0.633647,0.28139 l 0.30976,-0.0417 v -0.37289 c 0,-0.36397 -0.0057,-0.37348 -0.251439,-0.39721 l -0.251439,-0.0242 v -1.43569 -1.43572 l 0.251439,-0.0243 0.251439,-0.0242 v -1.74122 -1.7412 h -1.895036 c -1.730877,0 -2.140997,-0.0442 -1.763149,-0.18954 0.07276,-0.028 0.864792,-0.0473 1.760054,-0.043 0.895274,0.004 1.688698,0.006 1.763163,0.004 0.113295,-0.004 0.135388,-0.0794 0.135388,-0.4649 v -0.46073 l -0.251439,-0.0243 -0.251441,-0.0243 v -1.43572 -1.4357 l 0.251441,-0.0242 c 0.249867,-0.0242 0.251439,-0.0269 0.251439,-0.44623 v -0.42191 h -0.371361 c -0.425839,0 -0.557024,0.0954 -0.557024,0.40534 v 0.21909 l -1.373242,-0.0212 -1.373229,-0.0211 -0.02401,-0.29102 -0.02402,-0.29103 h -0.369262 c -0.203094,0 -0.389791,0.0206 -0.414881,0.0458 -0.02509,0.0252 0.05613,0.15257 0.180518,0.28312 0.312655,0.32817 0.322933,0.87214 0.02217,1.17383 -0.112173,0.11251 -0.247713,0.2046 -0.301184,0.2046 -0.15983,0 -0.191143,0.19811 -0.191143,1.20924 0,0.59076 -0.02994,0.96374 -0.07738,0.96374 -0.0479,0 -0.07738,-0.41391 -0.07738,-1.08649 v -1.08649 H 89.98925 88.64354 l -0.240279,-0.22515 c -0.184247,-0.17264 -0.240278,-0.29146 -0.240278,-0.50953 0,-0.32268 0.112798,-0.5761 0.323033,-0.72573 0.19648,-0.13986 0.107485,-0.24691 -0.205222,-0.24691 -0.376631,0 -0.504637,0.0703 -0.504637,0.2772 0,0.30328 -0.214856,0.34921 -1.52656,0.32622 l -1.219906,-0.0214 -0.03869,-0.27162 c -0.03458,-0.24278 -0.06652,-0.27429 -0.30082,-0.29674 -0.144183,-0.0137 -0.344365,-0.005 -0.444854,0.0209 -0.161442,0.0406 -0.182709,0.091 -0.182709,0.43256 v 0.38654 h 0.27078 0.27078 v 1.47451 1.47451 h -0.270785 -0.270781 v 2.32818 2.32817 h 0.270781 0.270778 v 1.4696 1.4696 l -0.251439,0.0242 c -0.240472,0.0232 -0.252454,0.0401 -0.274788,0.38741 -0.02218,0.34479 -0.0124,0.36483 0.19341,0.39752 0.119225,0.019 0.321212,0.0301 0.448866,0.0249 0.203892,-0.009 0.236796,-0.0425 0.270775,-0.2811 z m 0.51577,-1.06061 c -0.111168,-0.1115 -0.04113,-0.31731 0.180518,-0.53032 0.127659,-0.12261 0.232096,-0.28636 0.232096,-0.36374 0,-0.0847 0.05644,-0.14069 0.141657,-0.14069 0.07791,0 0.188238,-0.0873 0.245169,-0.19402 0.05694,-0.10669 0.143021,-0.19402 0.191309,-0.19402 0.04829,0 0.205902,-0.12223 0.350249,-0.27161 0.286561,-0.29657 0.397187,-0.32971 0.536926,-0.16081 0.07372,0.0891 0.03767,0.17077 -0.183942,0.41684 -0.151584,0.1683 -0.275617,0.36048 -0.275617,0.42703 0,0.0665 -0.07835,0.13217 -0.174073,0.14581 -0.111874,0.0159 -0.182908,0.0872 -0.198796,0.1994 -0.01488,0.10442 -0.07866,0.17461 -0.158894,0.17461 -0.0738,0 -0.252278,0.12224 -0.39662,0.27163 -0.2568,0.26577 -0.386302,0.32388 -0.489982,0.21989 z m 3.855371,-2.74207 c -0.122305,-0.12806 -0.281705,-0.23283 -0.354232,-0.23283 -0.07614,0 -0.152388,-0.0821 -0.180415,-0.19401 -0.03133,-0.12527 -0.10284,-0.19401 -0.201799,-0.19401 -0.09613,0 -0.153255,-0.0521 -0.153255,-0.14 0,-0.077 -0.121854,-0.25845 -0.270778,-0.40324 -0.296117,-0.28792 -0.328727,-0.39838 -0.159228,-0.53951 0.09044,-0.0753 0.174633,-0.0352 0.444853,0.21223 0.183313,0.16781 0.376819,0.28973 0.430005,0.27091 0.05754,-0.0204 0.09671,0.032 0.09671,0.12916 0,0.095 0.07421,0.19727 0.17724,0.24437 0.09749,0.0446 0.210629,0.1452 0.251438,0.22371 0.04081,0.0785 0.17292,0.26675 0.293583,0.4184 0.360206,0.45269 0.03345,0.63156 -0.374119,0.20482 z m -4.680602,-0.009 c -0.106375,-0.0406 -0.263038,-0.16896 -0.348141,-0.2849 -0.139847,-0.19051 -0.156812,-0.35264 -0.176335,-1.68529 -0.01954,-1.33436 -0.0076,-1.49702 0.124891,-1.71129 0.205434,-0.33205 0.663777,-0.46635 1.045507,-0.30636 0.462685,0.19392 0.514554,0.38858 0.514554,1.93115 0,1.33251 -0.04584,1.65688 -0.265248,1.87697 -0.121716,0.12211 -0.467639,0.26949 -0.610147,0.25995 -0.05042,-0.004 -0.178706,-0.0394 -0.285083,-0.0802 z m 0.572875,-0.15721 c 0.362732,-0.16579 0.432874,-0.47152 0.432874,-1.88677 0,-1.44726 -0.05844,-1.67404 -0.468448,-1.81741 -0.394509,-0.13797 -0.738127,0.0507 -0.849801,0.4668 -0.09827,0.36612 -0.06844,2.72033 0.03755,2.95946 0.06296,0.14209 0.396202,0.35766 0.561442,0.36318 0.05119,0.001 0.180063,-0.0367 0.286392,-0.0852 z m 8.218635,-0.11628 c -0.368796,-0.36994 -0.220727,-0.89886 0.310308,-1.10844 0.314741,-0.12425 0.659023,0.038 0.798799,0.3766 0.289528,0.70113 -0.572612,1.27 -1.109107,0.73184 z m 0.86456,-0.10884 c 0.190394,-0.17794 0.210225,-0.31725 0.08037,-0.56473 -0.117197,-0.22335 -0.215914,-0.28329 -0.46894,-0.28472 -0.241554,-0.001 -0.525227,0.26516 -0.525227,0.49348 0,0.22545 0.30349,0.5142 0.540454,0.5142 0.112208,0 0.280217,-0.0711 0.373346,-0.15823 z m 0.789833,-0.85966 c -0.698862,-0.27969 -0.706312,-1.22015 -0.01189,-1.51116 0.49692,-0.20826 1.09233,0.18853 1.093207,0.72857 5.78e-4,0.30017 -0.227394,0.64246 -0.505249,0.75892 -0.301769,0.12648 -0.317533,0.12713 -0.575992,0.0236 z m 0.688746,-0.30737 c 0.371837,-0.373 0.268556,-0.87498 -0.221967,-1.07879 -0.403953,-0.16784 -0.855198,0.2065 -0.855198,0.70944 0,0.20882 0.433275,0.60812 0.659839,0.60812 0.09863,0 0.286398,-0.10744 0.417326,-0.23877 z m -3.887603,-0.93937 c -0.135015,-0.1358 -0.315115,-0.25204 -0.400217,-0.25832 -0.09621,-0.007 -0.164287,-0.0768 -0.180001,-0.18412 -0.01423,-0.0969 -0.107496,-0.20407 -0.212754,-0.24421 -0.103124,-0.0393 -0.187485,-0.11984 -0.187485,-0.17898 0,-0.0591 -0.123016,-0.23832 -0.273388,-0.39825 -0.216465,-0.23024 -0.254763,-0.31328 -0.183939,-0.39887 0.13689,-0.16546 0.249127,-0.13204 0.528865,0.15747 0.141144,0.14606 0.300334,0.24876 0.353773,0.22817 0.05647,-0.0217 0.117967,0.0458 0.146859,0.16127 0.03239,0.12948 0.103059,0.19865 0.20296,0.19865 0.08566,0 0.153254,0.052 0.153254,0.11817 0,0.0649 0.140372,0.2709 0.311938,0.45762 0.286222,0.31147 0.301712,0.34972 0.187887,0.46389 -0.16321,0.16372 -0.163201,0.16373 -0.447749,-0.12248 z m 1.079833,-2.43226 c -0.02736,-0.0715 0.06431,-0.23974 0.232314,-0.42626 0.166197,-0.18453 0.259555,-0.35505 0.232758,-0.4251 -0.03235,-0.0846 0.0077,-0.11692 0.14477,-0.11692 0.137617,0 0.202804,-0.053 0.238055,-0.19401 0.02669,-0.10669 0.104228,-0.19403 0.172285,-0.19403 0.06802,0 0.249765,-0.12349 0.403792,-0.2743 0.187805,-0.18397 0.322673,-0.25792 0.409426,-0.22452 0.196331,0.0756 0.15546,0.28951 -0.102666,0.53764 -0.127658,0.12261 -0.232094,0.26964 -0.232094,0.3266 0,0.0569 -0.08315,0.14158 -0.184887,0.18805 -0.101625,0.0465 -0.224034,0.17069 -0.271879,0.27605 -0.04793,0.1053 -0.128086,0.17782 -0.178286,0.16103 -0.0502,-0.0168 -0.213618,0.0852 -0.363151,0.22673 -0.298354,0.28229 -0.431447,0.3193 -0.500381,0.13909 z m -7.007901,-0.32888 c -0.253149,-0.20563 -0.295293,-0.69889 -0.08282,-0.96928 0.221693,-0.2821 0.761214,-0.30551 1.00449,-0.0437 0.241792,0.26033 0.21753,0.78059 -0.0461,0.98862 -0.249388,0.19677 -0.649514,0.20784 -0.875567,0.0243 z m 0.752742,-0.13941 c 0.222703,-0.15648 0.233472,-0.57535 0.01977,-0.76935 -0.21134,-0.19183 -0.54338,-0.17537 -0.713519,0.0354 -0.398623,0.49382 0.173715,1.09934 0.693741,0.73397 z m 0.745856,9.464 c 0.06732,-0.0259 0.122379,-0.13067 0.122379,-0.23281 v -0.18572 h -1.145009 c -1.138993,0 -1.330682,0.0405 -1.330682,0.28145 0,0.0523 0.06093,0.11111 0.135388,0.1307 0.207467,0.0544 2.079232,0.0598 2.217924,0.006 z m 7.466413,-0.002 c 0.194308,-0.0389 0.240885,-0.0837 0.22243,-0.21342 -0.02241,-0.1572 -0.0701,-0.16501 -1.134598,-0.18569 -1.113022,-0.0216 -1.325761,0.0199 -1.325761,0.25821 0,0.0558 0.06093,0.11718 0.135386,0.13672 0.212609,0.0558 1.829565,0.0589 2.102543,0.004 z m -3.39835,-0.22013 c 0.339845,-0.10428 0.464134,-0.27286 0.464134,-0.62943 0,-0.26575 -0.04044,-0.36349 -0.203847,-0.4924 -0.189745,-0.14973 -0.304081,-0.16085 -1.652805,-0.16085 h -1.448954 l -0.203964,0.2046 c -0.389932,0.39115 -0.196965,0.9783 0.359258,1.09314 0.36821,0.0759 2.427102,0.0645 2.686179,-0.0151 z m -7.135135,-2.03934 c -0.02027,-1.24106 -0.02823,-1.29988 -0.175943,-1.29988 -0.147727,0 -0.155689,0.0588 -0.175942,1.29988 l -0.0212,1.29989 h 0.197154 0.197157 z m 11.854356,-0.0194 c 0,-1.2427 -0.008,-1.3193 -0.146452,-1.3193 -0.08049,0 -0.167595,0.0553 -0.193418,0.12275 -0.06398,0.16738 -0.05981,2.39943 0.0045,2.46411 0.02842,0.0284 0.11537,0.0516 0.193417,0.0516 0.13198,0 0.141842,-0.0917 0.141842,-1.31929 z m -11.854356,-7.62576 0.02119,-1.29891 h -0.195549 -0.195283 v 1.26756 c 0,0.69716 0.02442,1.29205 0.05426,1.32198 0.02984,0.0299 0.108166,0.0441 0.17407,0.0314 0.101473,-0.0195 0.123079,-0.22203 0.14104,-1.32198 z m 11.854356,0.0204 c 0,-1.2427 -0.008,-1.3193 -0.146452,-1.3193 -0.08049,0 -0.167595,0.0553 -0.193418,0.12275 -0.06398,0.16737 -0.05981,2.39943 0.0045,2.4641 0.02842,0.0284 0.11537,0.0516 0.193417,0.0516 0.13198,0 0.141842,-0.0918 0.141842,-1.31929 z m -4.951373,-1.4402 v -0.66475 l -1.309197,0.0245 c -1.262855,0.0236 -1.31625,0.0312 -1.508621,0.21266 -0.247388,0.23339 -0.263591,0.60156 -0.03909,0.88787 l 0.160347,0.20447 h 1.348276 1.348278 z m 0.517229,0.49602 c 0.310195,-0.29233 0.184477,-1.07295 -0.172799,-1.07295 -0.138671,0 -0.189699,0.18607 -0.189699,0.69186 0,0.59622 0.06345,0.66291 0.362498,0.38109 z m -4.269445,-1.15056 v -0.19402 l -1.111247,-0.0216 c -1.113022,-0.0216 -1.32576,0.0199 -1.32576,0.25821 0,0.15382 0.178152,0.17523 1.353892,0.16282 l 1.083115,-0.0114 z m 7.581796,0 v -0.19402 l -1.111246,-0.0216 c -1.113021,-0.0216 -1.32576,0.0199 -1.32576,0.25821 0,0.15382 0.178151,0.17523 1.353893,0.16282 l 1.083113,-0.0114 z"
       id="path370"
       sodipodi:nodetypes="csccccscsccccscccccsccsscscsccscccsscsccccccccssccsccccccscsscccccsssssssscccsssssscsccsccccccccccccccsccccscssssssssccssssscssssscssssssssscssscsscsssscccsscssscsssscscsccssssssccssssscssssssssssssscscsccscsscscsccssssscscsscccccssscccssscscccssscccscsccsccccccssccccsccsccccsssccccssssccsssccccssscc" /></g></svg>
