<?xml version="1.0" encoding="UTF-8" standalone="no"?>
<!-- Created with Inkscape (http://www.inkscape.org/) -->

<svg
   width="46.373196mm"
   height="27.234564mm"
   viewBox="0 0 46.373196 27.234564"
   version="1.1"
   id="svg5"
   xml:space="preserve"
   inkscape:version="1.2 (dc2aeda, 2022-05-15)"
   sodipodi:docname="power_path.svg"
   xmlns:inkscape="http://www.inkscape.org/namespaces/inkscape"
   xmlns:sodipodi="http://sodipodi.sourceforge.net/DTD/sodipodi-0.dtd"
   xmlns="http://www.w3.org/2000/svg"
   xmlns:svg="http://www.w3.org/2000/svg"><sodipodi:namedview
     id="namedview7"
     pagecolor="#ffffff"
     bordercolor="#666666"
     borderopacity="1.0"
     inkscape:showpageshadow="2"
     inkscape:pageopacity="0.0"
     inkscape:pagecheckerboard="0"
     inkscape:deskcolor="#d1d1d1"
     inkscape:document-units="mm"
     showgrid="false"
     inkscape:zoom="30.263158"
     inkscape:cx="72.497392"
     inkscape:cy="72.596522"
     inkscape:window-width="1028"
     inkscape:window-height="754"
     inkscape:window-x="412"
     inkscape:window-y="27"
     inkscape:window-maximized="0"
     inkscape:current-layer="g413" /><defs
     id="defs2" /><g
     inkscape:label="Layer 1"
     inkscape:groupmode="layer"
     id="layer1"
     transform="translate(-74.011864,-30.700838)"><g
       id="g413"
       transform="matrix(0.4260065,0,0,0.42589772,69.096654,33.257258)"
       style="stroke-width:2.34768"><ellipse
         style="fill:none;stroke:#000000;stroke-width:0.58692;stroke-linecap:round"
         id="path337"
         cx="70.68396"
         cy="35.669056"
         rx="4.8022842"
         ry="4.8035111" /><g
         id="g1199"
         transform="translate(4.5549532,-0.97981484)"
         style="stroke-width:2.34768"><path
           style="font-variation-settings:normal;opacity:1;fill:none;fill-opacity:1;stroke:#000000;stroke-width:0.58692;stroke-linecap:butt;stroke-linejoin:miter;stroke-miterlimit:4;stroke-dasharray:none;stroke-dashoffset:0;stroke-opacity:1;stop-color:#000000;stop-opacity:1"
           d="m 70.133344,46.885336 v 5.339257 l 2.725245,-2.66963 z"
           id="path414" /><path
           style="font-variation-settings:normal;opacity:1;fill:none;fill-opacity:1;stroke:#000000;stroke-width:0.58692;stroke-linecap:butt;stroke-linejoin:miter;stroke-miterlimit:4;stroke-dasharray:none;stroke-dashoffset:0;stroke-opacity:1;stop-color:#000000;stop-opacity:1"
           d="m 72.420399,47.513417 0.03933,-0.775269 0.454481,-0.01966 0.01012,5.656669 0.493806,0.04608 -0.0034,-0.75281"
           id="path416"
           sodipodi:nodetypes="cccccc" /></g><g
         id="g1248"
         style="stroke-width:2.34768"
         transform="translate(-16.148656,-14.387546)"><g
           id="g1209"
           style="stroke-width:2.34768"><path
             style="font-variation-settings:normal;opacity:1;fill:none;fill-opacity:1;stroke:#000000;stroke-width:0.58692;stroke-linecap:butt;stroke-linejoin:miter;stroke-miterlimit:4;stroke-dasharray:none;stroke-dashoffset:0;stroke-opacity:1;stop-color:#000000;stop-opacity:1"
             d="m 95.411381,44.271326 2.780864,-0.02781"
             id="path1069" /><path
             style="font-variation-settings:normal;opacity:1;fill:none;fill-opacity:1;stroke:#000000;stroke-width:0.58692;stroke-linecap:butt;stroke-linejoin:miter;stroke-miterlimit:4;stroke-dasharray:none;stroke-dashoffset:0;stroke-opacity:1;stop-color:#000000;stop-opacity:1"
             d="m 96.774004,44.243519 0.02781,5.339254 v 0"
             id="path1071" /></g><g
           aria-label="VSYS"
           transform="matrix(0.92998921,0,0,1.0752813,-3.1194326,-0.71082555)"
           id="text1127"
           style="font-size:3.31284px;line-height:1.25;-inkscape-font-specification:'sans-serif, Normal';letter-spacing:0px;stroke-width:0.621157"><path
             d="m 105.02104,38.062463 -0.87674,2.408603 h -0.42704 l -0.87674,-2.408603 h 0.34293 l 0.75542,2.119053 0.75542,-2.119053 z"
             id="path637" /><path
             d="m 107.13686,39.783587 q 0,0.140731 -0.0663,0.278226 -0.0647,0.137496 -0.18279,0.232934 -0.12941,0.103527 -0.30249,0.16176 -0.17147,0.05823 -0.41411,0.05823 -0.26043,0 -0.4691,-0.04853 -0.20705,-0.04853 -0.42219,-0.143966 v -0.401165 h 0.0226 q 0.18279,0.152054 0.4222,0.234552 0.2394,0.0825 0.44969,0.0825 0.29764,0 0.46263,-0.111614 0.16661,-0.111614 0.16661,-0.297638 0,-0.160142 -0.0793,-0.236169 -0.0776,-0.07603 -0.23779,-0.118085 -0.12132,-0.03235 -0.26366,-0.05338 -0.14073,-0.02103 -0.29926,-0.05338 -0.32028,-0.06794 -0.47557,-0.231317 -0.15367,-0.164994 -0.15367,-0.428663 0,-0.302491 0.25558,-0.494985 0.25558,-0.194112 0.64865,-0.194112 0.25397,0 0.46587,0.04853 0.21191,0.04853 0.37528,0.119703 v 0.378517 h -0.0226 q -0.1375,-0.116467 -0.36235,-0.192494 -0.22322,-0.07764 -0.45778,-0.07764 -0.25719,0 -0.4141,0.106761 -0.15529,0.106762 -0.15529,0.274992 0,0.150436 0.0776,0.236169 0.0776,0.08573 0.27338,0.131025 0.10353,0.02265 0.2944,0.055 0.19088,0.03235 0.32352,0.06632 0.26852,0.07118 0.4044,0.215141 0.13588,0.143966 0.13588,0.402782 z"
             id="path639" /><path
             d="m 109.3562,38.062463 -0.84762,1.352311 v 1.056292 h -0.32028 v -1.022322 l -0.85086,-1.386281 h 0.35425 l 0.65837,1.07732 0.66483,-1.07732 z"
             id="path641" /><path
             d="m 111.43967,39.783587 q 0,0.140731 -0.0663,0.278226 -0.0647,0.137496 -0.18279,0.232934 -0.12941,0.103527 -0.30249,0.16176 -0.17147,0.05823 -0.41411,0.05823 -0.26043,0 -0.4691,-0.04853 -0.20705,-0.04853 -0.42219,-0.143966 v -0.401165 h 0.0226 q 0.18279,0.152054 0.4222,0.234552 0.2394,0.0825 0.44969,0.0825 0.29764,0 0.46263,-0.111614 0.16661,-0.111614 0.16661,-0.297638 0,-0.160142 -0.0793,-0.236169 -0.0776,-0.07603 -0.23779,-0.118085 -0.12132,-0.03235 -0.26366,-0.05338 -0.14073,-0.02103 -0.29926,-0.05338 -0.32028,-0.06794 -0.47557,-0.231317 -0.15367,-0.164994 -0.15367,-0.428663 0,-0.302491 0.25558,-0.494985 0.25558,-0.194112 0.64865,-0.194112 0.25397,0 0.46587,0.04853 0.21191,0.04853 0.37528,0.119703 v 0.378517 h -0.0226 q -0.1375,-0.116467 -0.36235,-0.192494 -0.22322,-0.07764 -0.45778,-0.07764 -0.25719,0 -0.4141,0.106761 -0.15529,0.106762 -0.15529,0.274992 0,0.150436 0.0776,0.236169 0.0777,0.08573 0.27338,0.131025 0.10353,0.02265 0.2944,0.055 0.19088,0.03235 0.32352,0.06632 0.26852,0.07118 0.4044,0.215141 0.13588,0.143966 0.13588,0.402782 z"
             id="path643" /></g></g><g
         id="g738"
         transform="translate(-26.639692,-3.3095029)"><g
           aria-label="VBAT"
           transform="scale(0.92998921,1.0752813)"
           id="text1193"
           style="font-size:3.31284px;line-height:1.25;-inkscape-font-specification:'sans-serif, Normal';letter-spacing:0px;stroke-width:0.621157"><path
             d="m 91.639297,26.83257 -0.876738,2.408603 H 90.335513 L 89.458775,26.83257 h 0.342931 l 0.755418,2.119053 0.755418,-2.119053 z"
             id="path646" /><path
             d="m 93.821436,28.500313 q 0,0.179553 -0.06794,0.317049 -0.06794,0.137496 -0.182789,0.226464 -0.135878,0.106761 -0.299255,0.152054 -0.16176,0.04529 -0.412488,0.04529 h -0.85409 v -2.4086 h 0.71336 q 0.263669,0 0.394694,0.01941 0.131026,0.01941 0.250728,0.08088 0.132643,0.06956 0.192494,0.179553 0.05985,0.108379 0.05985,0.260434 0,0.171465 -0.08735,0.292785 -0.08735,0.119702 -0.232934,0.192494 v 0.01294 q 0.244257,0.05015 0.384988,0.21514 0.140731,0.163377 0.140731,0.414105 z m -0.53866,-1.085408 q 0,-0.08735 -0.02912,-0.147201 -0.02912,-0.05985 -0.09382,-0.09706 -0.07603,-0.04368 -0.184407,-0.05338 -0.108379,-0.01132 -0.268521,-0.01132 h -0.381753 v 0.695567 h 0.414105 q 0.150437,0 0.239405,-0.01456 0.08897,-0.01618 0.164995,-0.0647 0.07603,-0.04853 0.106761,-0.124555 0.03235,-0.07765 0.03235,-0.182789 z m 0.205435,1.098349 q 0,-0.145584 -0.04368,-0.231317 -0.04367,-0.08573 -0.158525,-0.145583 -0.07765,-0.04044 -0.189259,-0.05176 -0.109996,-0.01294 -0.268521,-0.01294 h -0.503073 v 0.896149 h 0.423811 q 0.210287,0 0.344548,-0.02103 0.134261,-0.02265 0.219993,-0.08088 0.09059,-0.06309 0.132643,-0.143966 0.04206,-0.08088 0.04206,-0.20867 z"
             id="path648" /><path
             d="M 96.17504,29.241173 H 95.833727 L 95.597558,28.56987 h -1.041733 l -0.236169,0.671303 h -0.325137 l 0.876738,-2.408603 h 0.427045 z m -0.676155,-0.946295 -0.422193,-1.182464 -0.423811,1.182464 z"
             id="path650" /><path
             d="m 98.064395,27.117267 h -0.860562 v 2.123906 H 96.883548 V 27.117267 H 96.022986 V 26.83257 h 2.041409 z"
             id="path652" /></g><g
           id="g1215"
           transform="translate(-11.014791,-11.170473)"
           style="stroke-width:2.34768"><path
             style="font-variation-settings:normal;opacity:1;fill:none;fill-opacity:1;stroke:#000000;stroke-width:0.58692;stroke-linecap:butt;stroke-linejoin:miter;stroke-miterlimit:4;stroke-dasharray:none;stroke-dashoffset:0;stroke-opacity:1;stop-color:#000000;stop-opacity:1"
             d="m 95.411381,44.271326 2.780864,-0.02781"
             id="path1211" /><path
             style="font-variation-settings:normal;opacity:1;fill:none;fill-opacity:1;stroke:#000000;stroke-width:0.58692;stroke-linecap:butt;stroke-linejoin:miter;stroke-miterlimit:4;stroke-dasharray:none;stroke-dashoffset:0;stroke-opacity:1;stop-color:#000000;stop-opacity:1"
             d="m 96.774004,44.243519 0.02781,5.339254 v 0"
             id="path1213" /></g></g><g
         id="g1234"
         transform="translate(18.1011,-0.78705175)"
         style="stroke-width:2.34768"><g
           aria-label="VBUS"
           transform="matrix(0.92998921,0,0,1.0752813,-1.6418066,-0.41055649)"
           id="text1181"
           style="font-size:3.31284px;line-height:1.25;-inkscape-font-specification:'sans-serif, Normal';letter-spacing:0px;stroke-width:0.621157"><path
             d="m 44.87033,37.88847 -0.876738,2.408603 H 43.566546 L 42.689808,37.88847 h 0.342931 l 0.755418,2.119053 0.755418,-2.119053 z"
             id="path655" /><path
             d="m 47.052469,39.556214 q 0,0.179553 -0.06794,0.317049 -0.06794,0.137496 -0.182788,0.226463 -0.135879,0.106762 -0.299256,0.152055 -0.16176,0.04529 -0.412487,0.04529 H 45.235907 V 37.88847 h 0.713361 q 0.263668,0 0.394694,0.01941 0.131025,0.01941 0.250727,0.08088 0.132643,0.06956 0.192494,0.179553 0.05985,0.108379 0.05985,0.260433 0,0.171465 -0.08735,0.292785 -0.08735,0.119702 -0.232934,0.192494 v 0.01294 q 0.244257,0.05015 0.384988,0.215141 0.140731,0.163377 0.140731,0.414105 z m -0.53866,-1.085408 q 0,-0.08735 -0.02912,-0.147202 -0.02912,-0.05985 -0.09382,-0.09706 -0.07603,-0.04368 -0.184406,-0.05338 -0.108379,-0.01132 -0.268521,-0.01132 h -0.381754 v 0.695567 h 0.414105 q 0.150437,0 0.239405,-0.01456 0.08897,-0.01618 0.164995,-0.0647 0.07603,-0.04853 0.106761,-0.124555 0.03235,-0.07764 0.03235,-0.182788 z m 0.205435,1.098348 q 0,-0.145583 -0.04368,-0.231316 -0.04368,-0.08573 -0.158525,-0.145584 -0.07764,-0.04044 -0.189258,-0.05176 -0.109997,-0.01294 -0.268522,-0.01294 h -0.503073 v 0.896149 h 0.423811 q 0.210288,0 0.344548,-0.02103 0.134261,-0.02265 0.219994,-0.08088 0.09058,-0.06309 0.132643,-0.143966 0.04206,-0.08088 0.04206,-0.208671 z"
             id="path657" /><path
             d="m 49.320341,39.32975 q 0,0.262051 -0.05823,0.45778 -0.05662,0.194112 -0.187642,0.32352 -0.124555,0.122937 -0.291167,0.179553 -0.166613,0.05662 -0.388224,0.05662 -0.226463,0 -0.394694,-0.05985 -0.16823,-0.05985 -0.283079,-0.176318 -0.131026,-0.132643 -0.189259,-0.320285 -0.05662,-0.187641 -0.05662,-0.461015 v -1.44128 h 0.320284 v 1.457456 q 0,0.195729 0.02588,0.308961 0.0275,0.113232 0.09058,0.205435 0.07118,0.105144 0.192494,0.158525 0.122938,0.05338 0.294403,0.05338 0.173083,0 0.294403,-0.05176 0.12132,-0.05338 0.194112,-0.160142 0.06309,-0.0922 0.08897,-0.210288 0.0275,-0.119702 0.0275,-0.29602 V 37.88847 h 0.320284 z"
             id="path659" /><path
             d="m 51.682034,39.609594 q 0,0.140731 -0.06632,0.278227 -0.0647,0.137496 -0.182788,0.232934 -0.129408,0.103526 -0.302491,0.16176 -0.171465,0.05823 -0.414105,0.05823 -0.260433,0 -0.469103,-0.04853 -0.207053,-0.04853 -0.422193,-0.143967 V 39.74709 h 0.02265 q 0.182788,0.152054 0.422193,0.234552 0.239404,0.0825 0.449692,0.0825 0.297638,0 0.462633,-0.111614 0.166613,-0.111614 0.166613,-0.297638 0,-0.160142 -0.07926,-0.236169 -0.07764,-0.07603 -0.237787,-0.118085 -0.121319,-0.03235 -0.263668,-0.05338 -0.140731,-0.02103 -0.299256,-0.05338 -0.320284,-0.06794 -0.475573,-0.231317 -0.153672,-0.164995 -0.153672,-0.428663 0,-0.302491 0.25558,-0.494985 0.255581,-0.194112 0.648657,-0.194112 0.253963,0 0.465868,0.04853 0.211905,0.04853 0.375283,0.119702 v 0.378518 h -0.02265 q -0.137495,-0.116467 -0.362341,-0.192494 -0.223229,-0.07764 -0.457781,-0.07764 -0.257198,0 -0.414105,0.106761 -0.155289,0.106761 -0.155289,0.274992 0,0.150436 0.07764,0.236169 0.07764,0.08573 0.273374,0.131025 0.103526,0.02265 0.294403,0.055 0.190876,0.03235 0.323519,0.06632 0.268521,0.07117 0.404399,0.215141 0.135879,0.143966 0.135879,0.402781 z"
             id="path661" /></g><g
           id="g1221"
           transform="translate(-55.752423,-0.09354453)"
           style="stroke-width:2.34768"><path
             style="font-variation-settings:normal;opacity:1;fill:none;fill-opacity:1;stroke:#000000;stroke-width:0.58692;stroke-linecap:butt;stroke-linejoin:miter;stroke-miterlimit:4;stroke-dasharray:none;stroke-dashoffset:0;stroke-opacity:1;stop-color:#000000;stop-opacity:1"
             d="m 95.411381,44.271326 2.780864,-0.02781"
             id="path1217" /><path
             style="font-variation-settings:normal;opacity:1;fill:none;fill-opacity:1;stroke:#000000;stroke-width:0.58692;stroke-linecap:butt;stroke-linejoin:miter;stroke-miterlimit:4;stroke-dasharray:none;stroke-dashoffset:0;stroke-opacity:1;stop-color:#000000;stop-opacity:1"
             d="m 96.774004,44.243519 0.02781,5.339254 v 0"
             id="path1219" /></g></g><g
         id="g1241"
         transform="translate(-85.78735,-2.7076722)"
         style="stroke-width:2.34768"><g
           aria-label="3V3"
           transform="matrix(0.92998921,0,0,1.0752813,-1.477626,-0.32844519)"
           id="text1187"
           style="font-size:3.31284px;line-height:1.25;-inkscape-font-specification:'sans-serif, Normal';letter-spacing:0px;stroke-width:0.621157"><path
             d="m 192.45699,38.282275 q 0.0776,0.06956 0.12779,0.174701 0.0502,0.105144 0.0502,0.271756 0,0.164995 -0.0599,0.302491 -0.0599,0.137496 -0.16823,0.239405 -0.12132,0.113231 -0.28631,0.16823 -0.16338,0.05338 -0.35911,0.05338 -0.20058,0 -0.39469,-0.04853 -0.19411,-0.04691 -0.31867,-0.103526 v -0.338078 h 0.0243 q 0.13749,0.09059 0.32352,0.150437 0.18602,0.05985 0.3591,0.05985 0.10191,0 0.21676,-0.03397 0.11485,-0.03397 0.18602,-0.100291 0.0744,-0.07117 0.11,-0.156907 0.0372,-0.08573 0.0372,-0.216758 0,-0.129407 -0.0421,-0.213523 -0.0404,-0.08573 -0.11323,-0.13426 -0.0728,-0.05015 -0.17632,-0.06794 -0.10353,-0.01941 -0.22323,-0.01941 h -0.14558 V 38.00081 h 0.11323 q 0.24587,0 0.39146,-0.101908 0.1472,-0.103527 0.1472,-0.300873 0,-0.08735 -0.0372,-0.152055 -0.0372,-0.06632 -0.10352,-0.108379 -0.0696,-0.04206 -0.14882,-0.05823 -0.0793,-0.01618 -0.17956,-0.01618 -0.15367,0 -0.32675,0.055 -0.17308,0.055 -0.32675,0.15529 h -0.0162 v -0.338078 q 0.11485,-0.05662 0.30573,-0.103527 0.19249,-0.04853 0.37204,-0.04853 0.17632,0 0.31058,0.03235 0.13426,0.03235 0.24264,0.103527 0.11647,0.07764 0.17632,0.187641 0.0598,0.109997 0.0598,0.257198 0,0.200582 -0.14235,0.351019 -0.14073,0.148819 -0.33322,0.187641 v 0.02265 q 0.0776,0.01294 0.17793,0.055 0.10029,0.04044 0.16985,0.101908 z"
             id="path630" /><path
             d="m 195.10661,37.03349 -0.87673,2.408603 h -0.42705 l -0.87674,-2.408603 h 0.34293 l 0.75542,2.119053 0.75542,-2.119053 z"
             id="path632" /><path
             d="m 196.82774,38.282275 q 0.0776,0.06956 0.12779,0.174701 0.0501,0.105144 0.0501,0.271756 0,0.164995 -0.0599,0.302491 -0.0599,0.137496 -0.16823,0.239405 -0.12132,0.113231 -0.28631,0.16823 -0.16338,0.05338 -0.35911,0.05338 -0.20058,0 -0.39469,-0.04853 -0.19411,-0.04691 -0.31867,-0.103526 v -0.338078 h 0.0243 q 0.13749,0.09059 0.32351,0.150437 0.18603,0.05985 0.35911,0.05985 0.10191,0 0.21676,-0.03397 0.11485,-0.03397 0.18602,-0.100291 0.0744,-0.07117 0.11,-0.156907 0.0372,-0.08573 0.0372,-0.216758 0,-0.129407 -0.042,-0.213523 -0.0404,-0.08573 -0.11323,-0.13426 -0.0728,-0.05015 -0.17632,-0.06794 -0.10353,-0.01941 -0.22323,-0.01941 h -0.14559 V 38.00081 h 0.11324 q 0.24587,0 0.39146,-0.101908 0.1472,-0.103527 0.1472,-0.300873 0,-0.08735 -0.0372,-0.152055 -0.0372,-0.06632 -0.10352,-0.108379 -0.0696,-0.04206 -0.14882,-0.05823 -0.0793,-0.01618 -0.17956,-0.01618 -0.15367,0 -0.32675,0.055 -0.17308,0.055 -0.32676,0.15529 h -0.0162 v -0.338078 q 0.11485,-0.05662 0.30572,-0.103527 0.1925,-0.04853 0.37205,-0.04853 0.17632,0 0.31058,0.03235 0.13426,0.03235 0.24264,0.103527 0.11647,0.07764 0.17632,0.187641 0.0599,0.109997 0.0599,0.257198 0,0.200582 -0.14235,0.351019 -0.14073,0.148819 -0.33322,0.187641 v 0.02265 q 0.0776,0.01294 0.17793,0.055 0.10029,0.04044 0.16985,0.101908 z"
             id="path634" /></g><g
           id="g1227"
           transform="translate(82.061822,-1.2547737)"
           style="stroke-width:2.34768"><path
             style="font-variation-settings:normal;opacity:1;fill:none;fill-opacity:1;stroke:#000000;stroke-width:0.58692;stroke-linecap:butt;stroke-linejoin:miter;stroke-miterlimit:4;stroke-dasharray:none;stroke-dashoffset:0;stroke-opacity:1;stop-color:#000000;stop-opacity:1"
             d="m 95.411381,44.271326 2.780864,-0.02781"
             id="path1223" /><path
             style="font-variation-settings:normal;opacity:1;fill:none;fill-opacity:1;stroke:#000000;stroke-width:0.58692;stroke-linecap:butt;stroke-linejoin:miter;stroke-miterlimit:4;stroke-dasharray:none;stroke-dashoffset:0;stroke-opacity:1;stop-color:#000000;stop-opacity:1"
             d="m 96.774004,44.243519 0.02781,5.339254 v 0"
             id="path1225" /></g></g><rect
         style="fill:none;stroke:#000000;stroke-width:0.58692;stroke-linecap:round;stroke-dasharray:none;stroke-opacity:1"
         id="rect1250"
         width="5.8873472"
         height="5.7695923"
         x="83.67157"
         y="42.972839" /><path
         style="font-variation-settings:normal;opacity:1;fill:none;fill-opacity:1;stroke:#000000;stroke-width:0.58692;stroke-linecap:butt;stroke-linejoin:miter;stroke-miterlimit:4;stroke-dasharray:none;stroke-dashoffset:0;stroke-opacity:1;stop-color:#000000;stop-opacity:1"
         d="m 89.534863,45.677495 h 3.64823"
         id="path1304" /><path
         style="font-variation-settings:normal;opacity:1;fill:none;fill-opacity:1;stroke:#000000;stroke-width:0.58692;stroke-linecap:butt;stroke-linejoin:miter;stroke-miterlimit:4;stroke-dasharray:none;stroke-dashoffset:0;stroke-opacity:1;stop-color:#000000;stop-opacity:1"
         d="m 80.647881,41.307899 v 7.202913"
         id="path1306" /><path
         style="font-variation-settings:normal;opacity:1;fill:none;fill-opacity:1;stroke:#000000;stroke-width:0.58692;stroke-linecap:butt;stroke-linejoin:miter;stroke-miterlimit:4;stroke-dasharray:none;stroke-dashoffset:0;stroke-opacity:1;stop-color:#000000;stop-opacity:1"
         d="m 80.661189,48.510813 -3.217032,0"
         id="path2034"
         sodipodi:nodetypes="cc" /><circle
         style="fill:#000000;fill-opacity:1;stroke:#000000;stroke-width:0.58692;stroke-linecap:round;stroke-dasharray:none;stroke-opacity:1"
         id="path2088"
         cx="80.652847"
         cy="45.918587"
         r="0.32740518" /><circle
         style="fill:#000000;fill-opacity:1;stroke:#000000;stroke-width:0.58692;stroke-linecap:round;stroke-dasharray:none;stroke-opacity:1"
         id="circle2142"
         cx="80.647469"
         cy="35.012997"
         r="0.32740518" /><path
         style="font-variation-settings:normal;opacity:1;fill:none;fill-opacity:1;stroke:#000000;stroke-width:0.58692;stroke-linecap:butt;stroke-linejoin:miter;stroke-miterlimit:4;stroke-dasharray:none;stroke-dashoffset:0;stroke-opacity:1;stop-color:#000000;stop-opacity:1"
         d="M 59.194158,48.575341 H 72.138557"
         id="path794" /><path
         style="font-variation-settings:normal;opacity:1;fill:none;fill-opacity:1;stroke:#000000;stroke-width:0.58692;stroke-linecap:butt;stroke-linejoin:miter;stroke-miterlimit:4;stroke-dasharray:none;stroke-dashoffset:0;stroke-opacity:1;stop-color:#000000;stop-opacity:1"
         d="M 65.394773,34.98896 H 58.951598"
         id="path1352" /><path
         style="font-variation-settings:normal;opacity:1;fill:none;fill-opacity:1;stroke:#000000;stroke-width:0.58692;stroke-linecap:butt;stroke-linejoin:miter;stroke-miterlimit:4;stroke-dasharray:none;stroke-dashoffset:0;stroke-opacity:1;stop-color:#000000;stop-opacity:1"
         d="m 70.687391,41.491842 v 6.909314"
         id="path1354"
         sodipodi:nodetypes="cc" /><path
         style="font-variation-settings:normal;opacity:1;fill:none;fill-opacity:1;stroke:#000000;stroke-width:0.58692;stroke-linecap:butt;stroke-linejoin:miter;stroke-miterlimit:4;stroke-dasharray:none;stroke-dashoffset:0;stroke-opacity:1;stop-color:#000000;stop-opacity:1"
         d="m 70.990633,34.98896 h 9.646114 v 6.735128"
         id="path1356"
         sodipodi:nodetypes="ccc" /><circle
         style="fill:#000000;fill-opacity:1;stroke:#000000;stroke-width:0.58692;stroke-linecap:round;stroke-dasharray:none;stroke-opacity:1"
         id="circle3591"
         cx="70.710625"
         cy="48.464039"
         r="0.32740518" /><path
         style="font-variation-settings:normal;opacity:1;fill:none;fill-opacity:1;stroke:#000000;stroke-width:0.58692045;stroke-linecap:butt;stroke-linejoin:miter;stroke-miterlimit:4;stroke-dasharray:none;stroke-dashoffset:0;stroke-opacity:1;stop-color:#000000;stop-opacity:1"
         d="m 65.347102,34.98896 h 3.33768 v 1.741844"
         id="path1003" /><path
         style="font-variation-settings:normal;opacity:1;fill:none;fill-opacity:1;stroke:#000000;stroke-width:0.58692045;stroke-linecap:butt;stroke-linejoin:miter;stroke-miterlimit:4;stroke-dasharray:none;stroke-dashoffset:0;stroke-opacity:1;stop-color:#000000;stop-opacity:1"
         d="m 67.988223,36.58565 h 1.364096"
         id="path1005" /><path
         style="font-variation-settings:normal;opacity:1;fill:none;fill-opacity:1;stroke:#000000;stroke-width:0.58692045;stroke-linecap:butt;stroke-linejoin:miter;stroke-miterlimit:4;stroke-dasharray:none;stroke-dashoffset:0;stroke-opacity:1;stop-color:#000000;stop-opacity:1"
         d="m 69.961809,36.556619 h 1.364095"
         id="path1007" /><path
         style="font-variation-settings:normal;opacity:1;fill:none;fill-opacity:1;stroke:#000000;stroke-width:0.58692045;stroke-linecap:butt;stroke-linejoin:miter;stroke-miterlimit:4;stroke-dasharray:none;stroke-dashoffset:0;stroke-opacity:1;stop-color:#000000;stop-opacity:1"
         d="m 71.848324,36.58565 h 1.335072"
         id="path1009" /><path
         style="font-variation-settings:normal;opacity:1;fill:none;fill-opacity:1;stroke:#000000;stroke-width:0.58692;stroke-linecap:butt;stroke-linejoin:miter;stroke-miterlimit:4;stroke-dasharray:none;stroke-dashoffset:0;stroke-opacity:1;stop-color:#000000;stop-opacity:1"
         d="m 70.687391,36.469528 v -1.422507 l -0.812653,0.78383"
         id="path1011"
         sodipodi:nodetypes="ccc" /><path
         style="font-variation-settings:normal;opacity:1;fill:none;fill-opacity:1;stroke:#000000;stroke-width:0.58692;stroke-linecap:butt;stroke-linejoin:miter;stroke-miterlimit:4;stroke-dasharray:none;stroke-dashoffset:0;stroke-opacity:1;stop-color:#000000;stop-opacity:1"
         d="M 71.558091,35.859882 70.629345,34.901868"
         id="path1109"
         sodipodi:nodetypes="cc" /><path
         style="font-variation-settings:normal;opacity:1;fill:none;fill-opacity:1;stroke:#000000;stroke-width:0.58692045;stroke-linecap:butt;stroke-linejoin:miter;stroke-miterlimit:4;stroke-dasharray:none;stroke-dashoffset:0;stroke-opacity:1;stop-color:#000000;stop-opacity:1"
         d="M 76.056705,34.95993 H 70.832508"
         id="path1111" /><path
         style="font-variation-settings:normal;opacity:1;fill:none;fill-opacity:1;stroke:#000000;stroke-width:0.58692045;stroke-linecap:butt;stroke-linejoin:miter;stroke-miterlimit:4;stroke-dasharray:none;stroke-dashoffset:0;stroke-opacity:1;stop-color:#000000;stop-opacity:1"
         d="M 73.270466,34.872837 V 32.927778 H 71.325904"
         id="path1113" /><path
         style="font-variation-settings:normal;opacity:1;fill:none;fill-opacity:1;stroke:#000000;stroke-width:0.58692045;stroke-linecap:butt;stroke-linejoin:miter;stroke-miterlimit:4;stroke-dasharray:none;stroke-dashoffset:0;stroke-opacity:1;stop-color:#000000;stop-opacity:1"
         d="m 70.077902,32.927778 h -2.147726 v 2.003121"
         id="path1115" /><path
         style="font-variation-settings:normal;opacity:1;fill:none;fill-opacity:1;stroke:#000000;stroke-width:0.58692045;stroke-linecap:butt;stroke-linejoin:miter;stroke-miterlimit:4;stroke-dasharray:none;stroke-dashoffset:0;stroke-opacity:1;stop-color:#000000;stop-opacity:1"
         d="m 67.930176,37.77591 h 5.25322"
         id="path1117" /><path
         style="font-variation-settings:normal;opacity:1;fill:none;fill-opacity:1;stroke:#000000;stroke-width:0.58692045;stroke-linecap:butt;stroke-linejoin:miter;stroke-miterlimit:4;stroke-dasharray:none;stroke-dashoffset:0;stroke-opacity:1;stop-color:#000000;stop-opacity:1"
         d="M 70.658368,41.636997 V 37.746879"
         id="path1119" /><path
         style="font-variation-settings:normal;opacity:1;fill:none;fill-opacity:1;stroke:#000000;stroke-width:0.58692045;stroke-linecap:butt;stroke-linejoin:miter;stroke-miterlimit:4;stroke-dasharray:none;stroke-dashoffset:0;stroke-opacity:1;stop-color:#000000;stop-opacity:1"
         d="m 70.223018,32.260072 v 1.393475 l 1.153919,-0.666386 z"
         id="path1121" /><path
         style="font-variation-settings:normal;opacity:1;fill:none;fill-opacity:1;stroke:#000000;stroke-width:0.58692045;stroke-linecap:butt;stroke-linejoin:miter;stroke-miterlimit:4;stroke-dasharray:none;stroke-dashoffset:0;stroke-opacity:1;stop-color:#000000;stop-opacity:1"
         d="m 71.296881,31.824611 v 2.177304"
         id="path1123" /><path
         style="font-variation-settings:normal;opacity:1;fill:none;fill-opacity:1;stroke:#000000;stroke-width:0.58692045;stroke-linecap:butt;stroke-linejoin:miter;stroke-miterlimit:4;stroke-dasharray:none;stroke-dashoffset:0;stroke-opacity:1;stop-color:#000000;stop-opacity:1"
         d="M 72.544883,36.440496 V 34.98896"
         id="path1125" /><path
         style="font-variation-settings:normal;opacity:1;fill:none;fill-opacity:1;stroke:#000000;stroke-width:0.58692;stroke-linecap:butt;stroke-linejoin:miter;stroke-miterlimit:4;stroke-dasharray:none;stroke-dashoffset:0;stroke-opacity:1;stop-color:#000000;stop-opacity:1"
         d="m 70.733744,48.575341 3.889125,0"
         id="path573"
         sodipodi:nodetypes="cc" /><path
         style="font-variation-settings:normal;opacity:1;fill:none;fill-opacity:1;stroke:#000000;stroke-width:0.58692;stroke-linecap:butt;stroke-linejoin:miter;stroke-miterlimit:4;stroke-dasharray:none;stroke-dashoffset:0;stroke-opacity:1;stop-color:#000000;stop-opacity:1"
         d="m 83.656399,45.883251 -3.044722,0"
         id="path645"
         sodipodi:nodetypes="cc" /><path
         style="font-variation-settings:normal;opacity:1;fill:none;fill-opacity:1;stroke:#000000;stroke-width:0.58692;stroke-linecap:butt;stroke-linejoin:miter;stroke-miterlimit:4;stroke-dasharray:none;stroke-dashoffset:0;stroke-opacity:1;stop-color:#000000;stop-opacity:1"
         d="M 59.532063,34.98896 H 53.088888"
         id="path861" /><path
         style="font-variation-settings:normal;opacity:1;fill:none;fill-opacity:1;stroke:#000000;stroke-width:0.58692;stroke-linecap:butt;stroke-linejoin:miter;stroke-miterlimit:4;stroke-dasharray:none;stroke-dashoffset:0;stroke-opacity:1;stop-color:#000000;stop-opacity:1"
         d="m 53.379121,34.727684 0,3.541747"
         id="path863"
         sodipodi:nodetypes="cc" /><rect
         style="fill:none;stroke:#000000;stroke-width:0.58692;stroke-linecap:round;stroke-dasharray:none;stroke-opacity:1"
         id="rect865"
         width="2.9850204"
         height="2.9245772"
         x="51.968201"
         y="38.152176" /><path
         style="font-variation-settings:normal;opacity:1;fill:none;fill-opacity:1;stroke:#000000;stroke-width:0.58692;stroke-linecap:butt;stroke-linejoin:miter;stroke-miterlimit:4;stroke-dasharray:none;stroke-dashoffset:0;stroke-opacity:1;stop-color:#000000;stop-opacity:1"
         d="m 53.466191,41.172506 v 7.66411"
         id="path963"
         sodipodi:nodetypes="cc" /><path
         style="font-variation-settings:normal;opacity:1;fill:none;fill-opacity:1;stroke:#000000;stroke-width:0.58692;stroke-linecap:butt;stroke-linejoin:miter;stroke-miterlimit:4;stroke-dasharray:none;stroke-dashoffset:0;stroke-opacity:1;stop-color:#000000;stop-opacity:1"
         d="M 59.50304,48.604371 H 53.234005"
         id="path965"
         sodipodi:nodetypes="cc" /><g
         id="path1030"><path
           style="color:#000000;fill:#000000;stroke-width:0.352152"
           d="m 53.563636,38.269433 1.277026,1.277352"
           id="path1120" /><path
           style="color:#000000;fill:#000000"
           d="m 53.6875,38.144531 -0.248047,0.25 1.277344,1.277344 0.248047,-0.25 z"
           id="path1122" /></g><g
         id="path1032"><path
           style="color:#000000;fill:#000000;stroke-width:0.352152"
           d="m 52.46075,38.211372 2.466982,2.438581"
           id="path1126" /><path
           style="color:#000000;fill:#000000"
           d="m 52.583984,38.085937 -0.246093,0.25 2.466796,2.439454 0.246094,-0.25 z"
           id="path1128" /></g><g
         id="path1034"><path
           style="color:#000000;fill:#000000;stroke-width:0.352152"
           d="m 51.996377,38.908109 2.350889,2.206335"
           id="path1132" /><path
           style="color:#000000;fill:#000000"
           d="m 52.117187,38.779297 -0.242187,0.257812 2.351562,2.205078 0.240235,-0.255859 z"
           id="path1134" /></g><g
         id="path1036"><path
           style="color:#000000;fill:#000000;stroke-width:0.352152;-inkscape-stroke:none"
           d="m 51.793214,39.691939 1.277026,1.277352"
           id="path1138" /><path
           style="color:#000000;fill:#000000;-inkscape-stroke:none"
           d="m 51.917969,39.568359 -0.25,0.248047 1.277343,1.277344 0.25,-0.248047 z"
           id="path1140" /></g></g></g></svg>
