<?xml version="1.0" encoding="UTF-8" standalone="no"?>
<!-- Created with Inkscape (http://www.inkscape.org/) -->

<svg
   width="210mm"
   height="297mm"
   viewBox="0 0 210 297"
   version="1.1"
   id="svg5"
   inkscape:version="1.2 (dc2aeda, 2022-05-15)"
   sodipodi:docname="boot-reset-fingers.svg"
   xmlns:inkscape="http://www.inkscape.org/namespaces/inkscape"
   xmlns:sodipodi="http://sodipodi.sourceforge.net/DTD/sodipodi-0.dtd"
   xmlns="http://www.w3.org/2000/svg"
   xmlns:svg="http://www.w3.org/2000/svg">
  <sodipodi:namedview
     id="namedview7"
     pagecolor="#ffffff"
     bordercolor="#666666"
     borderopacity="1.0"
     inkscape:showpageshadow="2"
     inkscape:pageopacity="0.0"
     inkscape:pagecheckerboard="0"
     inkscape:deskcolor="#d1d1d1"
     inkscape:document-units="mm"
     showgrid="false"
     inkscape:zoom="5.6568545"
     inkscape:cx="162.63455"
     inkscape:cy="103.06081"
     inkscape:window-width="1263"
     inkscape:window-height="624"
     inkscape:window-x="109"
     inkscape:window-y="25"
     inkscape:window-maximized="0"
     inkscape:current-layer="g594" />
  <defs
     id="defs2" />
  <g
     inkscape:label="Layer 1"
     inkscape:groupmode="layer"
     id="layer1">
    <g
       id="g594"
       transform="matrix(0.33,0,0,0.33,31.032048,16.928552)"
       style="stroke-width:0.39393939;stroke-dasharray:none">
      <g
         id="g732"
         transform="translate(0.94638541,8.9095226)"
         style="stroke-width:0.393939;stroke-dasharray:none">
        <path
           style="fill:none;stroke:#000000;stroke-width:0.393939;stroke-dasharray:none"
           d="m 32.434216,30.008755 0.327872,-0.288838 0.889933,0.04528 0.625142,0.150196 0.18673,0.255738 0.04059,0.598753 -0.527716,0.202969 -0.811522,-0.06217 -0.528063,-0.262577 -0.202967,-0.243561 z"
           id="path726"
           sodipodi:nodetypes="ccccccccccc" />
        <path
           style="fill:none;stroke:#000000;stroke-width:0.393939;stroke-dasharray:none"
           d="m 32.555997,30.116307 0.548013,0.30445 0.710388,0.08119 0.487122,-0.08119 0.06089,-0.284154"
           id="path728"
           sodipodi:nodetypes="ccccc" />
        <path
           style="fill:none;stroke:#000000;stroke-width:0.393939;stroke-dasharray:none"
           d="m 32.393625,29.937718 -0.6292,0.223263 -0.223265,0.12178 4e-6,0.710387 0.12178,0.223264 1.989082,0.87276 0.263858,-0.06089 1.197507,-0.548013 0.121783,-0.162374 -7e-6,-0.629198 -0.162375,-0.182671 -0.568309,-0.32475"
           id="path730"
           sodipodi:nodetypes="cccccccccccc" />
      </g>
      <g
         id="g695"
         transform="translate(18.736195,8.9095226)"
         style="stroke-width:0.393939;stroke-dasharray:none">
        <path
           style="fill:none;stroke:#000000;stroke-width:0.393939;stroke-dasharray:none"
           d="m 32.47481,29.714452 0.327872,-0.288838 0.889933,0.04528 0.625142,0.150196 0.18673,0.255738 v 0.893056 l -0.527716,0.202969 -0.811522,-0.06217 -0.528063,-0.262577 -0.202967,-0.243561 z"
           id="path686"
           sodipodi:nodetypes="ccccccccccc" />
        <path
           style="fill:none;stroke:#000000;stroke-width:0.393939;stroke-dasharray:none"
           d="m 32.555997,29.714452 0.548013,0.30445 0.710388,0.08119 0.487122,-0.08119 0.06089,-0.284154"
           id="path688" />
        <path
           style="fill:none;stroke:#000000;stroke-width:0.393939;stroke-dasharray:none"
           d="m 32.393625,29.937718 -0.6292,0.223263 -0.223265,0.12178 4e-6,0.710387 0.12178,0.223264 1.989082,0.87276 0.263858,-0.06089 1.197507,-0.548013 0.121783,-0.162374 -7e-6,-0.629198 -0.162375,-0.182671 -0.568309,-0.32475"
           id="path690"
           sodipodi:nodetypes="cccccccccccc" />
      </g>
      <g
         id="g708"
         transform="translate(1.5958816,-1.6245855)"
         style="stroke-width:0.39393939;stroke-dasharray:none">
        <path
           style="fill:none;stroke:#000000;stroke-width:0.39393939;stroke-dasharray:none"
           d="m 32.434216,30.008755 0.327872,-0.288838 0.889933,0.04528 0.625142,0.150196 0.18673,0.255738 0.04059,0.598753 -0.527716,0.202969 -0.811522,-0.06217 -0.528063,-0.262577 -0.202967,-0.243561 z"
           id="path702"
           sodipodi:nodetypes="ccccccccccc" />
        <path
           style="fill:none;stroke:#000000;stroke-width:0.39393939;stroke-dasharray:none"
           d="m 32.555997,30.116307 0.548013,0.30445 0.710388,0.08119 0.487122,-0.08119 0.06089,-0.284154"
           id="path704"
           sodipodi:nodetypes="ccccc" />
        <path
           style="fill:none;stroke:#000000;stroke-width:0.39393939;stroke-dasharray:none"
           d="m 32.393625,29.937718 -0.6292,0.223263 -0.223265,0.12178 4e-6,0.710387 0.12178,0.223264 1.989082,0.87276 0.263858,-0.06089 1.197507,-0.548013 0.121783,-0.162374 -7e-6,-0.629198 -0.162375,-0.182671 -0.568309,-0.32475"
           id="path706"
           sodipodi:nodetypes="cccccccccccc" />
      </g>
      <g
         id="g700"
         style="fill:none;stroke-width:0.39393939;stroke-dasharray:none"
         transform="translate(0.64949623,1.3801795)">
        <path
           style="fill:#ffffff;stroke:#000000;stroke-width:0.39393939;stroke-dasharray:none"
           d="m 38.377892,12.217236 1.016029,-2.4163519 3.043448,2.5045819 -0.674209,2.686342 -1.309621,2.80633 -1.309622,5.425571 -0.645346,1.900024 -0.940522,-0.381255 -0.233861,-0.795127 0.811149,-4.941183 -1.309621,0.935443 -1.328296,6.247347 -0.641331,0.882904 -0.855377,-0.134552 0.812649,-5.235023 -0.921538,-0.177234 -1.266805,-2.571569 -0.375205,-2.839138 z"
           id="path656"
           sodipodi:nodetypes="ccccccccccccccccccc" />
        <path
           style="fill:none;stroke:#000000;stroke-width:0.39393939;stroke-dasharray:none"
           d="m 35.172107,21.893214 -0.379399,-0.01996 0.463021,-3.638021 -0.529167,3.439584 -0.825678,-0.188584 0.152252,-3.479515 -0.198437,3.439583 -0.365092,-1.295436 -0.264584,-0.661458 0.103588,-2.144148 -0.169728,2.144144"
           id="path658"
           sodipodi:nodetypes="ccccccccccc" />
        <path
           style="fill:none;stroke:#000000;stroke-width:0.39393939;stroke-dasharray:none"
           d="m 37.928998,19.963636 -0.222117,1.305306 -1.21059,0.512913 0.175937,-1.141775"
           id="path660"
           sodipodi:nodetypes="cccc" />
      </g>
      <g
         id="g716"
         transform="translate(18.645158,-1.6245855)"
         style="stroke-width:0.39393939;stroke-dasharray:none">
        <path
           style="fill:none;stroke:#000000;stroke-width:0.39393939;stroke-dasharray:none"
           d="m 32.434216,30.008755 0.327872,-0.288838 0.889933,0.04528 0.625142,0.150196 0.18673,0.255738 0.04059,0.598753 -0.527716,0.202969 -0.811522,-0.06217 -0.528063,-0.262577 -0.202967,-0.243561 z"
           id="path710"
           sodipodi:nodetypes="ccccccccccc" />
        <path
           style="fill:none;stroke:#000000;stroke-width:0.39393939;stroke-dasharray:none"
           d="m 32.555997,30.116307 0.548013,0.30445 0.710388,0.08119 0.487122,-0.08119 0.06089,-0.284154"
           id="path712"
           sodipodi:nodetypes="ccccc" />
        <path
           style="fill:none;stroke:#000000;stroke-width:0.39393939;stroke-dasharray:none"
           d="m 32.393625,29.937718 -0.6292,0.223263 -0.223265,0.12178 4e-6,0.710387 0.12178,0.223264 1.989082,0.87276 0.263858,-0.06089 1.197507,-0.548013 0.121783,-0.162374 -7e-6,-0.629198 -0.162375,-0.182671 -0.568309,-0.32475"
           id="path714"
           sodipodi:nodetypes="cccccccccccc" />
      </g>
      <g
         id="g724"
         style="fill:none;stroke-width:0.39393939;stroke-dasharray:none"
         transform="translate(17.698772,1.3801795)">
        <path
           style="fill:#ffffff;stroke:#000000;stroke-width:0.39393939;stroke-dasharray:none"
           d="m 38.377892,12.217236 1.016029,-2.4163519 3.043448,2.5045819 -0.674209,2.686342 -1.309621,2.80633 -1.309622,5.425571 -0.645346,1.900024 -0.940522,-0.381255 -0.233861,-0.795127 0.811149,-4.941183 -1.309621,0.935443 -1.328296,6.247347 -0.641331,0.882904 -0.855377,-0.134552 0.812649,-5.235023 -0.921538,-0.177234 -1.266805,-2.571569 -0.375205,-2.839138 z"
           id="path718"
           sodipodi:nodetypes="ccccccccccccccccccc" />
        <path
           style="fill:none;stroke:#000000;stroke-width:0.39393939;stroke-dasharray:none"
           d="m 35.172107,21.893214 -0.379399,-0.01996 0.463021,-3.638021 -0.529167,3.439584 -0.825678,-0.188584 0.152252,-3.479515 -0.198437,3.439583 -0.365092,-1.295436 -0.264584,-0.661458 0.103588,-2.144148 -0.169728,2.144144"
           id="path720"
           sodipodi:nodetypes="ccccccccccc" />
        <path
           style="fill:none;stroke:#000000;stroke-width:0.39393939;stroke-dasharray:none"
           d="m 37.928998,19.963636 -0.222117,1.305306 -1.21059,0.512913 0.175937,-1.141775"
           id="path722"
           sodipodi:nodetypes="cccc" />
      </g>
      <g
         id="g1221"
         style="fill:none;stroke-width:0.393939;stroke-dasharray:none"
         transform="translate(-0.12152481,11.78687)">
        <path
           id="path1219"
           style="fill:#ffffff;stroke:#000000;stroke-width:0.393939;stroke-dasharray:none"
           d="m 34.627774,22.046169 -0.626804,4.891353 0.855245,0.134359 0.641304,-0.883151 0.662461,-4.142561 m 1.330668,0 -0.06615,0.403076 0.133357,2.293062 0.940511,0.381372 0.636622,-3.07751"
           sodipodi:nodetypes="cccccccccc" />
      </g>
      <g
         aria-label="BOOT"
         transform="rotate(12.388953)"
         id="text602"
         style="font-weight:900;font-size:32.0706px;line-height:1.25;font-family:'Noto Serif Myanmar';-inkscape-font-specification:'Noto Serif Myanmar, Heavy';word-spacing:0px;stroke-width:0.315848">
        <path
           d="m 39.025616,35.75446 q 0,0.225497 -0.09187,0.402971 -0.08978,0.177475 -0.248464,0.294399 -0.183739,0.137804 -0.40506,0.196266 -0.219233,0.05846 -0.557478,0.05846 h -1.357158 v -3.108934 h 1.206827 q 0.375828,0 0.549126,0.02505 0.175387,0.02506 0.346597,0.11066 0.177475,0.08978 0.26308,0.242201 0.08769,0.150331 0.08769,0.344509 0,0.225497 -0.119012,0.398795 -0.119012,0.171211 -0.336157,0.267256 v 0.0167 q 0.304838,0.06055 0.482313,0.250552 0.179562,0.190002 0.179562,0.501104 z m -1.027264,-1.277816 q 0,-0.07725 -0.03967,-0.154507 -0.03758,-0.07725 -0.135715,-0.114837 -0.08769,-0.03341 -0.219233,-0.03549 -0.129452,-0.0042 -0.365389,-0.0042 h -0.07517 v 0.657699 h 0.125276 q 0.190002,0 0.32363,-0.0063 0.133628,-0.0063 0.210882,-0.04176 0.108572,-0.04802 0.141979,-0.123189 0.03341,-0.07725 0.03341,-0.177474 z m 0.196266,1.265288 q 0,-0.148243 -0.05846,-0.227584 -0.05637,-0.08143 -0.194178,-0.121101 -0.09396,-0.02714 -0.258904,-0.02923 -0.164947,-0.0021 -0.344509,-0.0021 h -0.175387 v 0.774624 h 0.05846 q 0.338246,0 0.484401,-0.0021 0.146156,-0.0021 0.269344,-0.05429 0.125276,-0.0522 0.171211,-0.137804 0.04802,-0.08769 0.04802,-0.200442 z"
           style="font-size:4.27609px"
           id="path619" />
        <path
           d="m 42.646095,35.153135 q 0,0.743305 -0.425939,1.181771 -0.425939,0.436378 -1.177595,0.436378 -0.749569,0 -1.175507,-0.436378 -0.425939,-0.438466 -0.425939,-1.181771 0,-0.749569 0.425939,-1.183859 0.425938,-0.436378 1.175507,-0.436378 0.747481,0 1.175507,0.436378 0.428027,0.43429 0.428027,1.183859 z m -1.062759,0.787151 q 0.116924,-0.141979 0.173299,-0.334069 0.05637,-0.194178 0.05637,-0.45517 0,-0.279783 -0.06473,-0.476049 -0.06473,-0.196266 -0.169123,-0.317366 -0.106485,-0.125276 -0.246376,-0.181651 -0.137804,-0.05637 -0.288135,-0.05637 -0.152419,0 -0.288135,0.05429 -0.133628,0.05429 -0.246376,0.179562 -0.104397,0.116924 -0.171211,0.32363 -0.06473,0.204617 -0.06473,0.476049 0,0.277695 0.06264,0.473961 0.06473,0.194178 0.169123,0.317366 0.104396,0.123188 0.244288,0.18165 0.139892,0.05846 0.294399,0.05846 0.154507,0 0.294399,-0.05846 0.139891,-0.06055 0.244288,-0.185826 z"
           style="font-size:4.27609px"
           id="path621" />
        <path
           d="m 46.281189,35.153135 q 0,0.743305 -0.425939,1.181771 -0.425939,0.436378 -1.177595,0.436378 -0.749569,0 -1.175507,-0.436378 -0.425939,-0.438466 -0.425939,-1.181771 0,-0.749569 0.425939,-1.183859 0.425938,-0.436378 1.175507,-0.436378 0.74748,0 1.175507,0.436378 0.428027,0.43429 0.428027,1.183859 z m -1.062759,0.787151 q 0.116924,-0.141979 0.173298,-0.334069 0.05638,-0.194178 0.05638,-0.45517 0,-0.279783 -0.06473,-0.476049 -0.06473,-0.196266 -0.169123,-0.317366 -0.106485,-0.125276 -0.246376,-0.181651 -0.137804,-0.05637 -0.288135,-0.05637 -0.152419,0 -0.288135,0.05429 -0.133628,0.05429 -0.246377,0.179562 -0.104396,0.116924 -0.17121,0.32363 -0.06473,0.204617 -0.06473,0.476049 0,0.277695 0.06264,0.473961 0.06473,0.194178 0.169123,0.317366 0.104396,0.123188 0.244288,0.18165 0.139892,0.05846 0.294399,0.05846 0.154507,0 0.294399,-0.05846 0.139891,-0.06055 0.244288,-0.185826 z"
           style="font-size:4.27609px"
           id="path623" />
        <path
           d="m 49.325398,34.198949 h -0.97089 v 2.507609 h -0.801767 v -2.507609 h -0.970889 v -0.601325 h 2.743546 z"
           style="font-size:4.27609px"
           id="path625" />
      </g>
      <g
         aria-label="RESET"
         transform="rotate(11.086627)"
         id="text606"
         style="font-weight:900;font-size:32.0706px;line-height:1.25;font-family:'Noto Serif Myanmar';-inkscape-font-specification:'Noto Serif Myanmar, Heavy';word-spacing:0px;stroke-width:0.315848">
        <path
           d="m 53.166542,32.383313 q 0,-0.116924 -0.04802,-0.200442 -0.04802,-0.08352 -0.164947,-0.131539 -0.08143,-0.03341 -0.190002,-0.03967 -0.108573,-0.0084 -0.25264,-0.0084 h -0.290223 v 0.837262 h 0.246376 q 0.19209,0 0.321542,-0.01879 0.129452,-0.01879 0.217145,-0.08561 0.08352,-0.06473 0.1211,-0.141979 0.03967,-0.07934 0.03967,-0.210882 z m 1.250673,2.156837 h -0.979241 l -0.847702,-1.140013 h -0.369564 v 1.140013 h -0.797591 v -3.108935 h 1.34463 q 0.275607,0 0.473961,0.03132 0.198354,0.03132 0.371652,0.135716 0.175387,0.104397 0.277695,0.271431 0.104397,0.164947 0.104397,0.415499 0,0.344509 -0.160771,0.561655 -0.158683,0.217145 -0.45517,0.361212 z"
           style="font-size:4.27609px"
           id="path608" />
        <path
           d="m 57.016694,34.54015 h -2.248706 v -3.108935 h 2.248706 v 0.601325 h -1.451115 v 0.536599 h 1.346718 v 0.601326 h -1.346718 v 0.76836 h 1.451115 z"
           style="font-size:4.27609px"
           id="path610" />
        <path
           d="m 60.177827,33.562996 q 0,0.459346 -0.390444,0.747481 -0.388356,0.286047 -1.056495,0.286047 -0.386268,0 -0.674403,-0.06681 -0.286047,-0.0689 -0.536599,-0.173299 v -0.745392 h 0.08769 q 0.248465,0.198354 0.555391,0.304838 0.309014,0.106485 0.592973,0.106485 0.07308,0 0.19209,-0.01253 0.119013,-0.01253 0.194178,-0.04176 0.09187,-0.03758 0.150332,-0.09396 0.06055,-0.05638 0.06055,-0.167035 0,-0.102309 -0.08769,-0.175387 -0.08561,-0.07517 -0.25264,-0.114836 -0.175386,-0.04176 -0.371652,-0.07725 -0.194178,-0.03758 -0.365389,-0.09396 -0.392531,-0.127364 -0.56583,-0.344509 -0.171211,-0.219233 -0.171211,-0.542863 0,-0.43429 0.388356,-0.70781 0.390444,-0.275607 1.002209,-0.275607 0.306926,0 0.605501,0.06055 0.300663,0.05846 0.519896,0.148243 v 0.716162 h -0.08561 q -0.187914,-0.150331 -0.461433,-0.250552 -0.271432,-0.102309 -0.555391,-0.102309 -0.100221,0 -0.200442,0.01461 -0.09813,0.01253 -0.190002,0.05011 -0.08143,0.03132 -0.139891,0.09605 -0.05846,0.06264 -0.05846,0.144067 0,0.123188 0.09396,0.190002 0.09396,0.06473 0.354949,0.119013 0.17121,0.03549 0.327805,0.0689 0.158683,0.03341 0.340334,0.09187 0.357037,0.116924 0.526159,0.319454 0.171211,0.200441 0.171211,0.521983 z"
           style="font-size:4.27609px"
           id="path612" />
        <path
           d="m 62.975659,34.54015 h -2.248705 v -3.108935 h 2.248705 v 0.601325 h -1.451114 v 0.536599 h 1.346717 v 0.601326 h -1.346717 v 0.76836 h 1.451114 z"
           style="font-size:4.27609px"
           id="path614" />
        <path
           d="m 66.080418,32.03254 h -0.97089 v 2.50761 h -0.801767 v -2.50761 h -0.970889 v -0.601325 h 2.743546 z"
           style="font-size:4.27609px"
           id="path616" />
      </g>
      <g
         id="path822">
        <path
           style="color:#000000;fill:#000000;stroke-width:0.39394;-inkscape-stroke:none"
           d="M 50.882991,37.447018 50.031113,36.494919"
           id="path1483" />
        <path
           style="color:#000000;fill:#000000;-inkscape-stroke:none"
           d="m 50.177734,36.363281 -0.292968,0.263672 0.851562,0.951172 0.292969,-0.261719 z"
           id="path1485" />
      </g>
      <g
         id="path824">
        <path
           style="color:#000000;fill:#000000;stroke-width:0.39394;-inkscape-stroke:none"
           d="M 52.235974,37.346797 52.035532,35.643041"
           id="path1489" />
        <path
           style="color:#000000;fill:#000000;-inkscape-stroke:none"
           d="m 52.230469,35.619141 -0.390625,0.04687 0.201172,1.703125 0.390625,-0.04492 z"
           id="path1491" />
      </g>
      <g
         id="path826">
        <path
           style="color:#000000;fill:#000000;stroke-width:0.39394;-inkscape-stroke:none"
           d="m 53.238184,37.747681 0.851878,-0.901989"
           id="path1495" />
        <path
           style="color:#000000;fill:#000000;-inkscape-stroke:none"
           d="m 53.947266,36.710937 -0.851563,0.902344 0.285156,0.269531 0.851563,-0.902343 z"
           id="path1497" />
      </g>
      <g
         id="path828">
        <path
           style="color:#000000;fill:#000000;stroke-width:0.39394;-inkscape-stroke:none"
           d="m 54.190283,38.69978 1.002209,-0.200442"
           id="path1501" />
        <path
           style="color:#000000;fill:#000000;-inkscape-stroke:none"
           d="m 55.154297,38.306641 -1.001953,0.199218 0.07617,0.386719 1.001953,-0.199219 z"
           id="path1503" />
      </g>
      <g
         aria-label="①
② "
         transform="rotate(12.561902)"
         id="text3079"
         style="font-weight:900;font-size:4.27609px;line-height:1.25;font-family:'Noto Serif Myanmar';-inkscape-font-specification:'Noto Serif Myanmar, Heavy';word-spacing:0px;stroke-width:0.315848">
        <path
           d="m 49.489965,18.013741 c -0.200976,0 -0.299326,-0.0043 -0.440437,-0.02566 v 0.72266 c 0.183872,-0.02138 0.27367,-0.02566 0.555892,-0.02566 v 1.599258 c 0,0.222356 -0.0086,0.37202 -0.02566,0.538787 h 0.855218 c -0.0171,-0.166767 -0.02566,-0.312154 -0.02566,-0.538787 v -1.761749 c 0,-0.25229 0.0043,-0.363468 0.02138,-0.525959 -0.128282,0.01283 -0.183872,0.0171 -0.453265,0.0171 z m 0.427609,-0.675622 c -0.500302,0 -1.004881,0.192424 -1.368348,0.525959 -0.444714,0.406228 -0.679899,0.932187 -0.679899,1.518012 0,1.128888 0.91936,2.048247 2.048247,2.048247 1.128888,0 2.043972,-0.915083 2.043972,-2.048247 0,-0.508855 -0.188148,-0.992053 -0.52596,-1.368349 -0.397676,-0.440437 -0.932187,-0.675622 -1.518012,-0.675622 z m 0,0.141111 c 0.461818,0 0.932188,0.179595 1.269999,0.49175 0.414781,0.376296 0.632862,0.86377 0.632862,1.41111 0,1.051918 -0.855218,1.907136 -1.902861,1.907136 -1.051918,0 -1.907136,-0.855218 -1.907136,-1.907136 0,-0.47037 0.17532,-0.923636 0.491751,-1.269999 0.372019,-0.410505 0.86377,-0.632861 1.415385,-0.632861 z"
           style="font-family:'Hiragino Sans';-inkscape-font-specification:'Hiragino Sans, Heavy'"
           id="path3150" />
        <path
           d="m 50.473466,27.764089 c 0.218081,0 0.384848,0.0086 0.602929,0.02566 v -0.739763 c -0.141111,0.0171 -0.282222,0.02566 -0.555892,0.02566 h -0.628585 c 0.07697,-0.128282 0.183872,-0.21808 0.525959,-0.457541 0.128283,-0.0898 0.188148,-0.132559 0.243737,-0.17532 0.277946,-0.213805 0.380572,-0.3934 0.380572,-0.684174 0,-0.538788 -0.431885,-0.868047 -1.133164,-0.868047 -0.410504,0 -0.739763,0.128283 -0.94074,0.367744 -0.136834,0.162491 -0.1967,0.312155 -0.252289,0.624309 l 0.84239,0.07697 c 0.0086,-0.124007 0.02566,-0.183872 0.06842,-0.25229 0.06414,-0.09835 0.162492,-0.149663 0.290774,-0.149663 0.158216,0 0.27367,0.0898 0.27367,0.218081 0,0.132559 -0.06414,0.209528 -0.320707,0.380572 -0.286498,0.188148 -0.483198,0.337811 -0.615757,0.461818 -0.239461,0.226632 -0.401952,0.49175 -0.478922,0.782524 -0.03421,0.119731 -0.05131,0.213805 -0.05987,0.376296 0.149663,-0.01283 0.235185,-0.01283 0.538787,-0.01283 z m -0.555892,-3.437977 c -0.500302,0 -1.004881,0.192424 -1.368348,0.525959 -0.444714,0.406229 -0.679899,0.932188 -0.679899,1.518012 0,1.128888 0.91936,2.048248 2.048247,2.048248 1.128888,0 2.043972,-0.915084 2.043972,-2.048248 0,-0.508854 -0.188148,-0.992052 -0.52596,-1.368348 -0.397676,-0.440438 -0.932187,-0.675623 -1.518012,-0.675623 z m 0,0.141111 c 0.461818,0 0.932188,0.179596 1.269999,0.491751 0.414781,0.376296 0.632862,0.86377 0.632862,1.411109 0,1.051919 -0.855218,1.907137 -1.902861,1.907137 -1.051918,0 -1.907136,-0.855218 -1.907136,-1.907137 0,-0.470369 0.17532,-0.923635 0.491751,-1.269998 0.372019,-0.410505 0.86377,-0.632862 1.415385,-0.632862 z"
           style="font-family:'Hiragino Sans';-inkscape-font-specification:'Hiragino Sans, Heavy'"
           id="path3152" />
      </g>
    </g>
  </g>
</svg>
