<?xml version="1.0" encoding="UTF-8" standalone="no"?>
<!-- Created with Inkscape (http://www.inkscape.org/) -->

<svg
   width="3.4567738mm"
   height="39.578468mm"
   viewBox="0 0 3.4567738 39.578468"
   version="1.1"
   id="svg5"
   inkscape:version="1.2 (dc2aeda, 2022-05-15)"
   sodipodi:docname="pins.svg"
   xmlns:inkscape="http://www.inkscape.org/namespaces/inkscape"
   xmlns:sodipodi="http://sodipodi.sourceforge.net/DTD/sodipodi-0.dtd"
   xmlns="http://www.w3.org/2000/svg"
   xmlns:svg="http://www.w3.org/2000/svg">
  <sodipodi:namedview
     id="namedview7"
     pagecolor="#ffffff"
     bordercolor="#666666"
     borderopacity="1.0"
     inkscape:showpageshadow="2"
     inkscape:pageopacity="0.0"
     inkscape:pagecheckerboard="0"
     inkscape:deskcolor="#d1d1d1"
     inkscape:document-units="mm"
     showgrid="false"
     inkscape:zoom="26.910886"
     inkscape:cx="7.9521722"
     inkscape:cy="133.01309"
     inkscape:window-width="1349"
     inkscape:window-height="823"
     inkscape:window-x="595"
     inkscape:window-y="113"
     inkscape:window-maximized="0"
     inkscape:current-layer="layer1" />
  <defs
     id="defs2" />
  <g
     inkscape:label="圖層 1"
     inkscape:groupmode="layer"
     id="layer1"
     transform="translate(-59.06126,-20.811354)">
    <path
       id="rect3207"
       style="fill:#000000;stroke-width:0.1;stroke-linecap:round"
       d="M 59.121205 48.220017 L 59.121205 50.611602 L 62.513762 50.611602 L 62.513762 48.220017 L 59.121205 48.220017 z M 59.647271 48.439125 L 60.028126 48.439125 A 0.12501251 0.12501251 0 0 1 60.105124 48.46548 L 60.200209 48.539894 A 0.12501251 0.12501251 0 0 1 60.228631 48.5709 L 60.276173 48.645314 A 0.12501251 0.12501251 0 0 1 60.290126 48.674253 L 60.337668 48.823081 A 0.12501251 0.12501251 0 0 1 60.343352 48.861321 L 60.343352 49.084047 A 0.12501251 0.12501251 0 0 1 60.337668 49.122287 L 60.290126 49.270599 A 0.12501251 0.12501251 0 0 1 60.276173 49.300054 L 60.228631 49.374468 A 0.12501251 0.12501251 0 0 1 60.200209 49.405474 L 60.105124 49.479888 A 0.12501251 0.12501251 0 0 1 60.028126 49.506243 L 59.772328 49.506243 L 59.772328 50.123777 A 0.12500001 0.12500001 0 0 1 59.647271 50.248834 A 0.12500001 0.12500001 0 0 1 59.522214 50.123777 L 59.522214 49.381186 L 59.522214 48.564182 A 0.12501251 0.12501251 0 0 1 59.647271 48.439125 z M 60.884921 48.439125 A 0.12501251 0.12501251 0 0 1 61.010495 48.564182 L 61.010495 49.99872 L 61.171209 49.99872 A 0.12500001 0.12500001 0 0 1 61.295749 50.123777 A 0.12500001 0.12500001 0 0 1 61.171209 50.248834 L 60.885438 50.248834 L 60.599667 50.248834 A 0.12500001 0.12500001 0 0 1 60.47461 50.123777 A 0.12500001 0.12500001 0 0 1 60.599667 49.99872 L 60.760381 49.99872 L 60.760381 49.042706 L 60.676665 49.108335 A 0.12500001 0.12500001 0 0 1 60.500965 49.086631 A 0.12500001 0.12500001 0 0 1 60.52267 48.910931 L 60.601218 48.849953 L 60.679249 48.727996 L 60.7702 48.515089 A 0.12501251 0.12501251 0 0 1 60.884921 48.439125 z M 61.837835 48.439125 L 62.028004 48.439125 A 0.12500001 0.12500001 0 0 1 62.153061 48.564182 A 0.12500001 0.12500001 0 0 1 62.028004 48.688722 L 61.880726 48.688722 L 61.836284 48.723862 L 61.805795 48.771404 L 61.720529 48.970359 L 61.709677 49.037538 A 0.12501251 0.12501251 0 0 1 61.742233 49.033404 L 61.932919 49.033404 A 0.12501251 0.12501251 0 0 1 62.009917 49.059759 L 62.105002 49.134173 A 0.12501251 0.12501251 0 0 1 62.133424 49.165179 L 62.180966 49.239593 A 0.12501251 0.12501251 0 0 1 62.194919 49.268532 L 62.242461 49.41736 A 0.12501251 0.12501251 0 0 1 62.248146 49.4556 L 62.248146 49.826637 A 0.12501251 0.12501251 0 0 1 62.242461 49.864878 L 62.194919 50.013706 A 0.12501251 0.12501251 0 0 1 62.180966 50.042645 L 62.133424 50.117059 A 0.12501251 0.12501251 0 0 1 62.105002 50.148065 L 62.009917 50.222479 A 0.12501251 0.12501251 0 0 1 61.932919 50.248834 L 61.742233 50.248834 A 0.12501251 0.12501251 0 0 1 61.665752 50.222479 L 61.570151 50.148065 A 0.12501251 0.12501251 0 0 1 61.541729 50.117059 L 61.494186 50.042645 A 0.12501251 0.12501251 0 0 1 61.480751 50.013706 L 61.432691 49.864878 A 0.12501251 0.12501251 0 0 1 61.427007 49.826637 L 61.427007 49.232358 A 0.12501251 0.12501251 0 0 1 61.428557 49.212721 L 61.4761 48.915582 A 0.12501251 0.12501251 0 0 1 61.484368 48.886126 L 61.579969 48.663401 A 0.12501251 0.12501251 0 0 1 61.589788 48.645314 L 61.63733 48.5709 A 0.12501251 0.12501251 0 0 1 61.665752 48.539894 L 61.760837 48.46548 A 0.12501251 0.12501251 0 0 1 61.837835 48.439125 z M 59.772328 48.688722 L 59.772328 49.256129 L 59.985235 49.256129 L 60.029676 49.221506 L 60.057065 49.178615 L 60.093755 49.06441 L 60.093755 48.880442 L 60.057065 48.766237 L 60.029676 48.723862 L 59.985235 48.688722 L 59.772328 48.688722 z M 61.785125 49.283001 L 61.740683 49.318141 L 61.713811 49.360516 L 61.677121 49.474721 L 61.677121 49.807517 L 61.713811 49.921722 L 61.740683 49.964097 L 61.785125 49.99872 L 61.890028 49.99872 L 61.93447 49.964097 L 61.961858 49.921722 L 61.998548 49.807517 L 61.998548 49.474721 L 61.961858 49.360516 L 61.93447 49.318141 L 61.890028 49.283001 L 61.785125 49.283001 z " />
    <path
       id="rect3205"
       style="fill:#000000;stroke-width:0.1;stroke-linecap:round"
       d="m 59.120939,40.544812 v 2.391585 h 3.393075 v -2.391585 z m 0.526066,0.359151 h 0.380856 a 0.12501251,0.12501251 0 0 1 0.077,0.02687 l 0.0956,0.0739 a 0.12501251,0.12501251 0 0 1 0.0279,0.03101 l 0.04806,0.07441 a 0.12501251,0.12501251 0 0 1 0.01344,0.02946 l 0.04754,0.148311 a 0.12501251,0.12501251 0 0 1 0.0062,0.03824 v 0.223242 a 0.12501251,0.12501251 0 0 1 -0.0062,0.03772 l -0.04754,0.148828 a 0.12501251,0.12501251 0 0 1 -0.01344,0.02945 l -0.04806,0.0739 a 0.12501251,0.12501251 0 0 1 -0.0279,0.03152 l -0.0956,0.0739 a 0.12501251,0.12501251 0 0 1 -0.077,0.02636 h -0.255799 v 0.61805 a 0.12500001,0.12500001 0 0 1 -0.125057,0.125057 0.12500001,0.12500001 0 0 1 -0.125057,-0.125057 V 41.846541 41.02902 a 0.12501251,0.12501251 0 0 1 0.125057,-0.125057 z m 1.095541,0 h 0.237711 a 0.12501251,0.12501251 0 0 1 0.077,0.02687 l 0.0956,0.0739 a 0.12501251,0.12501251 0 0 1 0.02791,0.03101 l 0.04806,0.07441 a 0.12501251,0.12501251 0 0 1 0.01344,0.02946 l 0.04754,0.148311 a 0.12501251,0.12501251 0 0 1 0.0062,0.03824 v 0.148828 a 0.12501251,0.12501251 0 0 1 -0.0026,0.02584 l -0.04806,0.223242 a 0.12501251,0.12501251 0 0 1 -0.01654,0.04134 l -0.448552,0.698666 h 0.390674 A 0.12500001,0.12500001 0 0 1 61.296,42.589132 0.12500001,0.12500001 0 0 1 61.170943,42.714189 H 60.55186 a 0.12501251,0.12501251 0 0 1 -0.10542,-0.192237 l 0.559655,-0.872815 0.03979,-0.187585 v -0.115755 l -0.03669,-0.114205 -0.02739,-0.04289 -0.04444,-0.03462 h -0.151929 l -0.04444,0.03462 -0.03617,0.05633 a 0.12500001,0.12500001 0 0 1 -0.1726,0.03772 0.12500001,0.12500001 0 0 1 -0.03772,-0.172599 l 0.04754,-0.07441 a 0.12501251,0.12501251 0 0 1 0.02842,-0.03101 l 0.09509,-0.0739 a 0.12501251,0.12501251 0 0 1 0.077,-0.02687 z m 1.095023,0 a 0.12501251,0.12501251 0 0 1 0.125057,0.125057 v 1.435055 h 0.160714 a 0.12500001,0.12500001 0 0 1 0.125057,0.125057 0.12500001,0.12500001 0 0 1 -0.125057,0.125057 h -0.285771 -0.28577 a 0.12500001,0.12500001 0 0 1 -0.125057,-0.125057 0.12500001,0.12500001 0 0 1 0.125057,-0.125057 h 0.160713 v -0.956014 l -0.08372,0.06563 a 0.12500001,0.12500001 0 0 1 -0.175183,-0.0217 0.12500001,0.12500001 0 0 1 0.02119,-0.1757 l 0.07855,-0.06098 0.07803,-0.121957 0.09147,-0.213423 a 0.12501251,0.12501251 0 0 1 0.114722,-0.07597 z m -2.065507,0.250114 v 0.567407 h 0.212907 l 0.04444,-0.03514 0.02739,-0.04237 0.03669,-0.114205 v -0.183968 l -0.03669,-0.114205 -0.02739,-0.04289 -0.04444,-0.03462 z" />
    <path
       id="rect3528"
       style="fill:#000000;stroke-width:0.1;stroke-linecap:round"
       d="m 59.120939,35.539433 v 2.391585 h 3.393075 v -2.391585 z m 0.526066,0.341581 h 0.380856 a 0.12501251,0.12501251 0 0 1 0.077,0.02636 l 0.0956,0.07441 a 0.12501251,0.12501251 0 0 1 0.0279,0.03101 l 0.04806,0.07441 a 0.12501251,0.12501251 0 0 1 0.01344,0.02894 l 0.04754,0.148828 a 0.12501251,0.12501251 0 0 1 0.0062,0.03824 v 0.222726 a 0.12501251,0.12501251 0 0 1 -0.0062,0.03824 l -0.04754,0.148312 a 0.12501251,0.12501251 0 0 1 -0.01344,0.02945 l -0.04806,0.07441 a 0.12501251,0.12501251 0 0 1 -0.0279,0.03101 l -0.0956,0.07441 a 0.12501251,0.12501251 0 0 1 -0.077,0.02636 h -0.255799 v 0.61805 a 0.12500001,0.12500001 0 0 1 -0.125057,0.124541 0.12500001,0.12500001 0 0 1 -0.125057,-0.124541 v -0.743107 -0.817004 a 0.12501251,0.12501251 0 0 1 0.125057,-0.125057 z m 1.095541,0 h 0.237711 a 0.12501251,0.12501251 0 0 1 0.077,0.02636 l 0.0956,0.07441 a 0.12501251,0.12501251 0 0 1 0.02791,0.03101 l 0.04806,0.07441 a 0.12501251,0.12501251 0 0 1 0.01344,0.02894 l 0.04754,0.148828 a 0.12501251,0.12501251 0 0 1 0.0062,0.03824 v 0.148312 a 0.12501251,0.12501251 0 0 1 -0.0026,0.02636 l -0.04806,0.222725 a 0.12501251,0.12501251 0 0 1 -0.01654,0.04134 l -0.448552,0.699182 h 0.390674 A 0.12500001,0.12500001 0 0 1 61.296,37.566182 0.12500001,0.12500001 0 0 1 61.170943,37.690723 H 60.55186 a 0.12501251,0.12501251 0 0 1 -0.10542,-0.192237 l 0.559655,-0.872298 0.03979,-0.187585 v -0.115756 l -0.03669,-0.114721 -0.02739,-0.04237 -0.04444,-0.03462 h -0.151929 l -0.04444,0.03462 -0.03617,0.05633 a 0.12500001,0.12500001 0 0 1 -0.1726,0.03772 0.12500001,0.12500001 0 0 1 -0.03772,-0.172599 l 0.04754,-0.07441 a 0.12501251,0.12501251 0 0 1 0.02842,-0.03101 l 0.09509,-0.07441 a 0.12501251,0.12501251 0 0 1 0.077,-0.02636 z m 1.039213,0 a 0.12500001,0.12500001 0 0 0 5.16e-4,0 0.12500001,0.12500001 0 0 0 5.17e-4,0 0.12500001,0.12500001 0 0 0 5.17e-4,0 0.12500001,0.12500001 0 0 0 5.17e-4,0 0.12500001,0.12500001 0 0 0 5.16e-4,0 0.12500001,0.12500001 0 0 0 5.17e-4,0 0.12500001,0.12500001 0 0 0 5.17e-4,0 0.12500001,0.12500001 0 0 0 5.17e-4,0 0.12500001,0.12500001 0 0 0 5.17e-4,0 0.12500001,0.12500001 0 0 0 5.16e-4,0 0.12500001,0.12500001 0 0 0 5.17e-4,0 0.12500001,0.12500001 0 0 0 5.17e-4,0 0.12500001,0.12500001 0 0 0 5.17e-4,0 0.12500001,0.12500001 0 0 0 5.16e-4,0 0.12500001,0.12500001 0 0 0 5.17e-4,0 0.12500001,0.12500001 0 0 0 5.17e-4,0 h 0.09508 a 0.12501251,0.12501251 0 0 1 0.077,0.02636 l 0.09509,0.07441 a 0.12501251,0.12501251 0 0 1 0.02842,0.03101 l 0.04754,0.07441 a 0.12501251,0.12501251 0 0 1 0.01395,0.02894 l 0.04754,0.148828 a 0.12501251,0.12501251 0 0 1 0.0047,0.0186 l 0.04754,0.29714 a 0.12501251,0.12501251 0 0 1 0.0015,0.01964 v 0.371553 a 0.12501251,0.12501251 0 0 1 -0.0015,0.01964 l -0.04754,0.297139 a 0.12501251,0.12501251 0 0 1 -0.0047,0.01809 l -0.04754,0.148828 a 0.12501251,0.12501251 0 0 1 -0.01395,0.02945 l -0.04754,0.0739 a 0.12501251,0.12501251 0 0 1 -0.02842,0.03152 l -0.09509,0.0739 a 0.12501251,0.12501251 0 0 1 -0.077,0.02635 h -0.09508 a 0.12501251,0.12501251 0 0 1 -0.077,-0.02635 l -0.09508,-0.0739 a 0.12501251,0.12501251 0 0 1 -0.02842,-0.03152 l -0.04754,-0.0739 a 0.12501251,0.12501251 0 0 1 -0.01395,-0.02945 l -0.04754,-0.148828 a 0.12501251,0.12501251 0 0 1 -0.0041,-0.01809 l -0.04806,-0.297139 a 0.12501251,0.12501251 0 0 1 -0.0016,-0.01964 V 36.60035 a 0.12501251,0.12501251 0 0 1 0.0016,-0.01964 l 0.04806,-0.29714 a 0.12501251,0.12501251 0 0 1 0.0041,-0.0186 l 0.04754,-0.148828 a 0.12501251,0.12501251 0 0 1 0.01395,-0.02894 l 0.04754,-0.07441 a 0.12501251,0.12501251 0 0 1 0.02842,-0.03101 l 0.09508,-0.07441 a 0.12500001,0.12500001 0 0 0 5.17e-4,-5.17e-4 0.12500001,0.12500001 0 0 0 5.16e-4,0 0.12500001,0.12500001 0 0 0 5.17e-4,-5.17e-4 0.12500001,0.12500001 0 0 0 5.17e-4,-5.16e-4 0.12500001,0.12500001 0 0 0 5.17e-4,-5.17e-4 0.12500001,0.12500001 0 0 0 5.17e-4,0 0.12500001,0.12500001 0 0 0 0,-5.17e-4 0.12500001,0.12500001 0 0 0 5.16e-4,0 0.12500001,0.12500001 0 0 0 5.17e-4,-5.17e-4 0.12500001,0.12500001 0 0 0 5.17e-4,0 0.12500001,0.12500001 0 0 0 5.17e-4,-5.16e-4 0.12500001,0.12500001 0 0 0 5.16e-4,-5.17e-4 0.12500001,0.12500001 0 0 0 5.17e-4,-5.17e-4 0.12500001,0.12500001 0 0 0 5.17e-4,0 0.12500001,0.12500001 0 0 0 5.17e-4,-5.17e-4 0.12500001,0.12500001 0 0 0 5.16e-4,-5.16e-4 0.12500001,0.12500001 0 0 0 5.17e-4,0 0.12500001,0.12500001 0 0 0 5.17e-4,-5.17e-4 0.12500001,0.12500001 0 0 0 5.17e-4,0 0.12500001,0.12500001 0 0 0 0,-5.17e-4 0.12500001,0.12500001 0 0 0 5.16e-4,0 0.12500001,0.12500001 0 0 0 5.17e-4,-5.17e-4 0.12500001,0.12500001 0 0 0 5.17e-4,0 0.12500001,0.12500001 0 0 0 5.17e-4,-5.16e-4 0.12500001,0.12500001 0 0 0 5.17e-4,-5.17e-4 0.12500001,0.12500001 0 0 0 5.16e-4,0 0.12500001,0.12500001 0 0 0 5.17e-4,-5.17e-4 0.12500001,0.12500001 0 0 0 5.17e-4,0 0.12500001,0.12500001 0 0 0 5.17e-4,-5.17e-4 0.12500001,0.12500001 0 0 0 5.16e-4,-5.17e-4 0.12500001,0.12500001 0 0 0 5.17e-4,0 0.12500001,0.12500001 0 0 0 5.17e-4,-5.16e-4 0.12500001,0.12500001 0 0 0 5.17e-4,0 0.12500001,0.12500001 0 0 0 5.16e-4,-5.17e-4 0.12500001,0.12500001 0 0 0 5.17e-4,-5.17e-4 0.12500001,0.12500001 0 0 0 5.17e-4,0 0.12500001,0.12500001 0 0 0 5.17e-4,-5.17e-4 0.12500001,0.12500001 0 0 0 5.16e-4,0 0.12500001,0.12500001 0 0 0 5.17e-4,0 0.12500001,0.12500001 0 0 0 5.17e-4,-5.16e-4 0.12500001,0.12500001 0 0 0 5.17e-4,-5.17e-4 0.12500001,0.12500001 0 0 0 5.17e-4,0 0.12500001,0.12500001 0 0 0 5.16e-4,-5.17e-4 0.12500001,0.12500001 0 0 0 5.17e-4,0 0.12500001,0.12500001 0 0 0 5.17e-4,-5.17e-4 0.12500001,0.12500001 0 0 0 5.17e-4,0 0.12500001,0.12500001 0 0 0 5.16e-4,-5.16e-4 0.12500001,0.12500001 0 0 0 5.17e-4,0 0.12500001,0.12500001 0 0 0 5.17e-4,-5.17e-4 0.12500001,0.12500001 0 0 0 5.17e-4,0 0.12500001,0.12500001 0 0 0 5.16e-4,0 0.12500001,0.12500001 0 0 0 5.17e-4,-5.17e-4 0.12500001,0.12500001 0 0 0 5.17e-4,0 0.12500001,0.12500001 0 0 0 0,-5.17e-4 0.12500001,0.12500001 0 0 0 5.17e-4,0 0.12500001,0.12500001 0 0 0 5.16e-4,0 0.12500001,0.12500001 0 0 0 5.17e-4,-5.16e-4 0.12500001,0.12500001 0 0 0 5.17e-4,0 0.12500001,0.12500001 0 0 0 5.17e-4,0 0.12500001,0.12500001 0 0 0 5.17e-4,-5.17e-4 0.12500001,0.12500001 0 0 0 5.16e-4,0 0.12500001,0.12500001 0 0 0 5.17e-4,-5.17e-4 0.12500001,0.12500001 0 0 0 5.17e-4,0 0.12500001,0.12500001 0 0 0 5.17e-4,-5.17e-4 0.12500001,0.12500001 0 0 0 5.16e-4,0 0.12500001,0.12500001 0 0 0 5.17e-4,0 0.12500001,0.12500001 0 0 0 5.17e-4,-5.17e-4 0.12500001,0.12500001 0 0 0 5.17e-4,0 0.12500001,0.12500001 0 0 0 5.16e-4,0 0.12500001,0.12500001 0 0 0 5.17e-4,-5.16e-4 0.12500001,0.12500001 0 0 0 5.17e-4,0 0.12500001,0.12500001 0 0 0 5.17e-4,-5.17e-4 0.12500001,0.12500001 0 0 0 5.16e-4,0 0.12500001,0.12500001 0 0 0 5.17e-4,0 0.12500001,0.12500001 0 0 0 5.17e-4,-5.17e-4 0.12500001,0.12500001 0 0 0 5.17e-4,0 0.12500001,0.12500001 0 0 0 5.17e-4,0 0.12500001,0.12500001 0 0 0 5.16e-4,0 0.12500001,0.12500001 0 0 0 5.17e-4,-5.17e-4 0.12500001,0.12500001 0 0 0 5.17e-4,0 0.12500001,0.12500001 0 0 0 5.17e-4,0 0.12500001,0.12500001 0 0 0 5.16e-4,-5.16e-4 0.12500001,0.12500001 0 0 0 5.17e-4,0 0.12500001,0.12500001 0 0 0 5.17e-4,0 0.12500001,0.12500001 0 0 0 5.17e-4,-5.17e-4 0.12500001,0.12500001 0 0 0 5.16e-4,0 0.12500001,0.12500001 0 0 0 5.17e-4,0 0.12500001,0.12500001 0 0 0 5.17e-4,-5.17e-4 0.12500001,0.12500001 0 0 0 5.17e-4,0 0.12500001,0.12500001 0 0 0 5.16e-4,0 0.12500001,0.12500001 0 0 0 5.17e-4,0 0.12500001,0.12500001 0 0 0 5.17e-4,-5.17e-4 0.12500001,0.12500001 0 0 0 5.17e-4,0 0.12500001,0.12500001 0 0 0 5.17e-4,0 0.12500001,0.12500001 0 0 0 5.16e-4,0 0.12500001,0.12500001 0 0 0 5.17e-4,0 0.12500001,0.12500001 0 0 0 0,-5.16e-4 0.12500001,0.12500001 0 0 0 5.17e-4,0 0.12500001,0.12500001 0 0 0 5.17e-4,0 0.12500001,0.12500001 0 0 0 5.16e-4,0 0.12500001,0.12500001 0 0 0 5.17e-4,-5.17e-4 0.12500001,0.12500001 0 0 0 5.17e-4,0 0.12500001,0.12500001 0 0 0 5.17e-4,0 0.12500001,0.12500001 0 0 0 5.16e-4,0 0.12500001,0.12500001 0 0 0 5.17e-4,0 0.12500001,0.12500001 0 0 0 5.17e-4,0 0.12500001,0.12500001 0 0 0 5.17e-4,-5.17e-4 0.12500001,0.12500001 0 0 0 5.16e-4,0 0.12500001,0.12500001 0 0 0 5.17e-4,0 0.12500001,0.12500001 0 0 0 5.17e-4,0 0.12500001,0.12500001 0 0 0 5.17e-4,0 0.12500001,0.12500001 0 0 0 5.17e-4,-5.17e-4 0.12500001,0.12500001 0 0 0 5.16e-4,0 0.12500001,0.12500001 0 0 0 5.17e-4,0 0.12500001,0.12500001 0 0 0 5.17e-4,0 0.12500001,0.12500001 0 0 0 5.17e-4,0 0.12500001,0.12500001 0 0 0 5.16e-4,0 0.12500001,0.12500001 0 0 0 5.17e-4,-5.16e-4 0.12500001,0.12500001 0 0 0 5.17e-4,0 0.12500001,0.12500001 0 0 0 5.17e-4,0 0.12500001,0.12500001 0 0 0 5.16e-4,0 0.12500001,0.12500001 0 0 0 5.17e-4,0 0.12500001,0.12500001 0 0 0 5.17e-4,0 0.12500001,0.12500001 0 0 0 5.17e-4,0 0.12500001,0.12500001 0 0 0 5.16e-4,0 0.12500001,0.12500001 0 0 0 5.17e-4,-5.17e-4 0.12500001,0.12500001 0 0 0 5.17e-4,0 0.12500001,0.12500001 0 0 0 5.17e-4,0 0.12500001,0.12500001 0 0 0 5.17e-4,0 0.12500001,0.12500001 0 0 0 5.16e-4,0 0.12500001,0.12500001 0 0 0 5.17e-4,0 0.12500001,0.12500001 0 0 0 5.17e-4,0 0.12500001,0.12500001 0 0 0 5.17e-4,0 0.12500001,0.12500001 0 0 0 5.16e-4,0 0.12500001,0.12500001 0 0 0 5.17e-4,0 0.12500001,0.12500001 0 0 0 5.17e-4,0 0.12500001,0.12500001 0 0 0 5.17e-4,-5.17e-4 z m -2.009697,0.250114 v 0.56689 h 0.212907 l 0.04444,-0.03462 0.02739,-0.04237 0.03669,-0.114722 v -0.183452 l -0.03669,-0.114721 -0.02739,-0.04237 -0.04444,-0.03462 z m 2.060856,0 -0.04444,0.03462 -0.02739,0.04237 -0.03979,0.124023 -0.04444,0.278019 v 0.3514 l 0.04444,0.278019 0.03979,0.124024 0.02739,0.04237 0.04444,0.03514 h 0.0093 l 0.04444,-0.03514 0.02739,-0.04237 0.03979,-0.124024 0.04444,-0.278019 v -0.3514 l -0.04444,-0.278019 -0.03979,-0.124023 -0.02739,-0.04237 -0.04444,-0.03462 z" />
    <path
       id="rect3201"
       style="fill:#000000;stroke-width:0.1;stroke-linecap:round"
       d="m 59.120939,30.478243 v 2.391585 h 3.393075 v -2.391585 z m 1.760616,0.378788 a 0.1250125,0.1250125 0 0 1 0.02842,0.0026 0.1250125,0.1250125 0 0 1 0.09974,0.12299 v 1.435571 h 0.162264 a 0.125,0.125 0 0 1 0.125057,0.12454 0.125,0.125 0 0 1 -0.125057,0.125057 h -0.287321 -0.285254 a 0.125,0.125 0 0 1 -0.12454,-0.125057 0.125,0.125 0 0 1 0.12454,-0.12454 h 0.160197 v -0.955497 l -0.08372,0.0646 a 0.125,0.125 0 0 1 -0.1757,-0.02119 0.125,0.125 0 0 1 0.02325,-0.176216 l 0.07803,-0.06046 0.07803,-0.12299 0.08992,-0.212907 a 0.1250125,0.1250125 0 0 1 0.112138,-0.07648 z m -1.235067,5.17e-4 h 0.380856 a 0.1250125,0.1250125 0 0 1 0.07803,0.02739 l 0.0956,0.0739 a 0.1250125,0.1250125 0 0 1 0.02739,0.03152 l 0.04703,0.0739 a 0.1250125,0.1250125 0 0 1 0.01344,0.02946 l 0.04909,0.148312 a 0.1250125,0.1250125 0 0 1 0.0057,0.03721 v 0.222725 a 0.1250125,0.1250125 0 0 1 -0.0057,0.03927 l -0.04909,0.148312 a 0.1250125,0.1250125 0 0 1 -0.01344,0.02945 l -0.04703,0.0739 a 0.1250125,0.1250125 0 0 1 -0.02739,0.03152 l -0.0956,0.0739 a 0.1250125,0.1250125 0 0 1 -0.07803,0.02739 h -0.255799 v 0.617016 A 0.125,0.125 0 0 1 59.646488,32.66778 0.125,0.125 0 0 1 59.521431,32.542723 V 31.80065 30.982612 a 0.1250125,0.1250125 0 0 1 0.125057,-0.125057 z m 1.857251,0 h 0.668177 a 0.1250125,0.1250125 0 0 1 0.118855,0.15813 l -0.427364,1.560628 a 0.125,0.125 0 0 1 -0.154512,0.08785 0.125,0.125 0 0 1 -0.08785,-0.154512 l 0.38654,-1.401982 h -0.503846 a 0.125,0.125 0 0 1 -0.125057,-0.125057 0.125,0.125 0 0 1 0.125057,-0.125057 z m -1.732194,0.250114 v 0.567924 h 0.212907 l 0.04496,-0.03514 0.02739,-0.04289 0.03669,-0.115239 v -0.183451 l -0.03669,-0.113172 -0.02739,-0.04289 -0.04496,-0.03514 z" />
    <path
       id="rect3199"
       style="fill:#000000;stroke-width:0.1;stroke-linecap:round"
       d="m 59.120939,28.030847 v 2.391585 h 3.393075 v -2.391585 z m 0.526066,0.315226 h 0.380856 a 0.12501251,0.12501251 0 0 1 0.077,0.02635 l 0.0956,0.07441 a 0.12501251,0.12501251 0 0 1 0.0279,0.03101 l 0.04806,0.07441 a 0.12501251,0.12501251 0 0 1 0.01344,0.02946 l 0.04754,0.148311 a 0.12501251,0.12501251 0 0 1 0.0062,0.03824 v 0.222725 a 0.12501251,0.12501251 0 0 1 -0.0062,0.03824 l -0.04754,0.148828 a 0.12501251,0.12501251 0 0 1 -0.01344,0.02894 l -0.04806,0.07441 a 0.12501251,0.12501251 0 0 1 -0.0279,0.03101 l -0.0956,0.07441 a 0.12501251,0.12501251 0 0 1 -0.077,0.02635 h -0.255799 v 0.61805 a 0.12500001,0.12500001 0 0 1 -0.125057,0.125057 0.12500001,0.12500001 0 0 1 -0.125057,-0.125057 V 29.288135 28.47113 a 0.12501251,0.12501251 0 0 1 0.125057,-0.125057 z m 1.095541,0 h 0.237711 a 0.12501251,0.12501251 0 0 1 0.077,0.02635 l 0.0956,0.07441 a 0.12501251,0.12501251 0 0 1 0.02791,0.03101 l 0.04806,0.07441 a 0.12501251,0.12501251 0 0 1 0.01344,0.02946 l 0.04754,0.148311 a 0.12501251,0.12501251 0 0 1 0.0062,0.03824 v 0.148828 a 0.12501251,0.12501251 0 0 1 -0.0026,0.02584 l -0.04806,0.222726 a 0.12501251,0.12501251 0 0 1 -0.01654,0.04134 l -0.448552,0.699182 h 0.390674 A 0.12500001,0.12500001 0 0 1 61.296,30.031242 0.12500001,0.12500001 0 0 1 61.170943,30.156299 H 60.55186 a 0.12501251,0.12501251 0 0 1 -0.10542,-0.192753 l 0.559655,-0.872298 0.03979,-0.187586 v -0.115755 l -0.03669,-0.114722 -0.02739,-0.04237 -0.04444,-0.03462 h -0.151929 l -0.04444,0.03462 -0.03617,0.05633 a 0.12500001,0.12500001 0 0 1 -0.1726,0.03772 0.12500001,0.12500001 0 0 1 -0.03772,-0.1726 l 0.04754,-0.07441 a 0.12501251,0.12501251 0 0 1 0.02842,-0.03101 l 0.09509,-0.07441 a 0.12501251,0.12501251 0 0 1 0.077,-0.02635 z m 0.952396,0 h 0.237712 a 0.12501251,0.12501251 0 0 1 0.077,0.02635 l 0.09508,0.07441 a 0.12501251,0.12501251 0 0 1 0.02842,0.03101 l 0.04806,0.07441 a 0.12501251,0.12501251 0 0 1 0.01344,0.02946 l 0.04754,0.148311 a 0.12501251,0.12501251 0 0 1 0.0062,0.03824 v 0.148828 a 0.12501251,0.12501251 0 0 1 -0.0026,0.02584 l -0.04806,0.222726 a 0.12501251,0.12501251 0 0 1 -0.01654,0.04134 l -0.448551,0.699182 h 0.390674 a 0.12500001,0.12500001 0 0 1 0.125057,0.125057 0.12500001,0.12500001 0 0 1 -0.125057,0.125057 h -0.619084 a 0.12501251,0.12501251 0 0 1 -0.10542,-0.192753 l 0.559139,-0.872298 0.04031,-0.187586 v -0.115755 l -0.03669,-0.114722 -0.02739,-0.04237 -0.04444,-0.03462 h -0.151928 l -0.04444,0.03462 -0.03617,0.05633 a 0.12500001,0.12500001 0 0 1 -0.172599,0.03772 0.12500001,0.12500001 0 0 1 -0.03772,-0.1726 l 0.04754,-0.07441 a 0.12501251,0.12501251 0 0 1 0.02842,-0.03101 l 0.09508,-0.07441 a 0.12501251,0.12501251 0 0 1 0.077,-0.02635 z m -1.92288,0.250114 v 0.566891 h 0.212907 l 0.04444,-0.03462 0.02739,-0.04237 0.03669,-0.114722 v -0.183451 l -0.03669,-0.114722 -0.02739,-0.04237 -0.04444,-0.03462 z" />
    <path
       style="color:#000000;fill:#000000;fill-opacity:1;stroke:none;stroke-width:0.25;stroke-linecap:butt;stroke-linejoin:miter;-inkscape-stroke:none"
       d="m 60.599537,20.811354 a 0.12501251,0.12501251 0 0 0 -0.125,0.125 v 0.817143 0.742857 a 0.12500001,0.12500001 0 0 0 0.125,0.125 0.12500001,0.12500001 0 0 0 0.125,-0.125 v -0.617857 h 0.255952 a 0.12501251,0.12501251 0 0 0 0.07688,-0.02644 l 0.09524,-0.07429 a 0.12501251,0.12501251 0 0 0 0.02836,-0.03111 l 0.04762,-0.07429 a 0.12501251,0.12501251 0 0 0 0.0138,-0.02931 L 61.29,21.494506 a 0.12501251,0.12501251 0 0 0 0.006,-0.03815 v -0.222857 a 0.12501251,0.12501251 0 0 0 -0.006,-0.03815 l -0.04762,-0.148572 a 0.12501251,0.12501251 0 0 0 -0.0138,-0.02931 l -0.04762,-0.07428 a 0.12501251,0.12501251 0 0 0 -0.02836,-0.0311 l -0.09524,-0.07429 a 0.12501251,0.12501251 0 0 0 -0.07688,-0.02644 z m 0.125,0.25 h 0.212967 l 0.04451,0.03472 0.02728,0.04256 0.03667,0.114407 v 0.183773 l -0.03667,0.114406 -0.02728,0.04256 -0.04451,0.03472 h -0.212967 z"
       id="path917" />
    <path
       style="color:#000000;fill:#000000;fill-opacity:1;stroke:none;stroke-width:0.25;stroke-linecap:butt;stroke-linejoin:miter;-inkscape-stroke:none"
       d="m 61.790013,20.811354 a 0.12500001,0.12500001 0 0 0 -3.9e-5,0 0.12500001,0.12500001 0 0 0 -4.98e-4,2e-6 0.12500001,0.12500001 0 0 0 -4.99e-4,2e-6 0.12500001,0.12500001 0 0 0 -4.97e-4,6e-6 0.12500001,0.12500001 0 0 0 -4.99e-4,7e-6 0.12500001,0.12500001 0 0 0 -4.99e-4,10e-6 0.12500001,0.12500001 0 0 0 -4.98e-4,10e-6 0.12500001,0.12500001 0 0 0 -4.97e-4,1.4e-5 0.12500001,0.12500001 0 0 0 -4.99e-4,1.4e-5 0.12500001,0.12500001 0 0 0 -4.99e-4,1.8e-5 0.12500001,0.12500001 0 0 0 -4.97e-4,1.8e-5 0.12500001,0.12500001 0 0 0 -4.99e-4,2.2e-5 0.12500001,0.12500001 0 0 0 -4.97e-4,2.2e-5 0.12500001,0.12500001 0 0 0 -4.99e-4,2.6e-5 0.12500001,0.12500001 0 0 0 -4.96e-4,2.6e-5 0.12500001,0.12500001 0 0 0 -4.99e-4,3e-5 0.12500001,0.12500001 0 0 0 -4.96e-4,3e-5 0.12500001,0.12500001 0 0 0 -4.98e-4,3.4e-5 0.12500001,0.12500001 0 0 0 -4.96e-4,3.4e-5 0.12500001,0.12500001 0 0 0 -4.98e-4,3.7e-5 0.12500001,0.12500001 0 0 0 -4.96e-4,3.8e-5 0.12500001,0.12500001 0 0 0 -4.96e-4,4.2e-5 0.12500001,0.12500001 0 0 0 -4.98e-4,4.2e-5 0.12500001,0.12500001 0 0 0 -4.93e-4,4.5e-5 0.12500001,0.12500001 0 0 0 -4.99e-4,4.7e-5 0.12500001,0.12500001 0 0 0 -4.95e-4,4.9e-5 0.12500001,0.12500001 0 0 0 -4.96e-4,5e-5 0.12500001,0.12500001 0 0 0 -4.96e-4,5.4e-5 0.12500001,0.12500001 0 0 0 -4.95e-4,5.3e-5 0.12500001,0.12500001 0 0 0 -4.95e-4,5.8e-5 0.12500001,0.12500001 0 0 0 -4.95e-4,5.8e-5 0.12500001,0.12500001 0 0 0 -4.94e-4,6.1e-5 0.12500001,0.12500001 0 0 0 -4.96e-4,6.2e-5 0.12500001,0.12500001 0 0 0 -4.92e-4,6.5e-5 0.12500001,0.12500001 0 0 0 -4.96e-4,6.6e-5 0.12500001,0.12500001 0 0 0 -4.93e-4,6.9e-5 0.12500001,0.12500001 0 0 0 -4.93e-4,7e-5 0.12500001,0.12500001 0 0 0 -4.94e-4,7.3e-5 0.12500001,0.12500001 0 0 0 -4.92e-4,7.4e-5 0.12500001,0.12500001 0 0 0 -4.92e-4,7.7e-5 0.12500001,0.12500001 0 0 0 -4.93e-4,7.7e-5 0.12500001,0.12500001 0 0 0 -4.91e-4,8.1e-5 0.12500001,0.12500001 0 0 0 -4.92e-4,8.2e-5 0.12500001,0.12500001 0 0 0 -4.92e-4,8.5e-5 0.12500001,0.12500001 0 0 0 -4.9e-4,8.5e-5 0.12500001,0.12500001 0 0 0 -4.92e-4,8.9e-5 0.12500001,0.12500001 0 0 0 -4.89e-4,8.9e-5 0.12500001,0.12500001 0 0 0 -4.89e-4,9.3e-5 0.12500001,0.12500001 0 0 0 -4.9e-4,9.3e-5 0.12500001,0.12500001 0 0 0 -4.89e-4,9.7e-5 0.12500001,0.12500001 0 0 0 -4.89e-4,9.7e-5 0.12500001,0.12500001 0 0 0 -4.88e-4,1.01e-4 0.12500001,0.12500001 0 0 0 -4.88e-4,1.01e-4 0.12500001,0.12500001 0 0 0 -4.86e-4,1.04e-4 0.12500001,0.12500001 0 0 0 -4.89e-4,1.05e-4 0.12500001,0.12500001 0 0 0 -4.84e-4,1.08e-4 0.12500001,0.12500001 0 0 0 -4.88e-4,1.09e-4 0.12500001,0.12500001 0 0 0 -4.85e-4,1.12e-4 0.12500001,0.12500001 0 0 0 -4.86e-4,1.13e-4 0.12500001,0.12500001 0 0 0 -4.86e-4,1.16e-4 0.12500001,0.12500001 0 0 0 -4.83e-4,1.17e-4 0.12500001,0.12500001 0 0 0 -4.85e-4,1.2e-4 0.12500001,0.12500001 0 0 0 -4.83e-4,1.2e-4 0.12500001,0.12500001 0 0 0 -4.82e-4,1.24e-4 0.12500001,0.12500001 0 0 0 -4.83e-4,1.24e-4 0.12500001,0.12500001 0 0 0 -4.82e-4,1.28e-4 0.12500001,0.12500001 0 0 0 -4.81e-4,1.28e-4 0.12500001,0.12500001 0 0 0 -4.81e-4,1.31e-4 0.12500001,0.12500001 0 0 0 -4.8e-4,1.32e-4 0.12500001,0.12500001 0 0 0 -4.8e-4,1.35e-4 0.12500001,0.12500001 0 0 0 -4.8e-4,1.36e-4 0.12500001,0.12500001 0 0 0 -4.77e-4,1.39e-4 0.12500001,0.12500001 0 0 0 -4.8e-4,1.4e-4 0.12500001,0.12500001 0 0 0 -4.77e-4,1.43e-4 0.12500001,0.12500001 0 0 0 -4.77e-4,1.43e-4 0.12500001,0.12500001 0 0 0 -4.77e-4,1.47e-4 0.12500001,0.12500001 0 0 0 -4.76e-4,1.47e-4 0.12500001,0.12500001 0 0 0 -4.74e-4,1.5e-4 0.12500001,0.12500001 0 0 0 -4.76e-4,1.51e-4 0.12500001,0.12500001 0 0 0 -4.73e-4,1.55e-4 0.12500001,0.12500001 0 0 0 -4.74e-4,1.54e-4 0.12500001,0.12500001 0 0 0 -4.73e-4,1.58e-4 0.12500001,0.12500001 0 0 0 -4.72e-4,1.59e-4 0.12500001,0.12500001 0 0 0 -4.7e-4,1.61e-4 0.12500001,0.12500001 0 0 0 -4.73e-4,1.63e-4 0.12500001,0.12500001 0 0 0 -4.68e-4,1.65e-4 0.12500001,0.12500001 0 0 0 -4.72e-4,1.67e-4 0.12500001,0.12500001 0 0 0 -4.66e-4,1.68e-4 0.12500001,0.12500001 0 0 0 -4.71e-4,1.71e-4 0.12500001,0.12500001 0 0 0 -4.66e-4,1.73e-4 0.12500001,0.12500001 0 0 0 -4.68e-4,1.73e-4 0.12500001,0.12500001 0 0 0 -4.68e-4,1.78e-4 0.12500001,0.12500001 0 0 0 -4.64e-4,1.76e-4 0.12500001,0.12500001 0 0 0 -4.66e-4,1.81e-4 0.12500001,0.12500001 0 0 0 -4.63e-4,1.81e-4 0.12500001,0.12500001 0 0 0 -4.62e-4,1.84e-4 0.12500001,0.12500001 0 0 0 -4.64e-4,1.85e-4 0.12500001,0.12500001 0 0 0 -4.6e-4,1.87e-4 0.12500001,0.12500001 0 0 0 -4.63e-4,1.89e-4 0.12500001,0.12500001 0 0 0 -4.6e-4,1.91e-4 0.12500001,0.12500001 0 0 0 -4.6e-4,1.92e-4 0.12500001,0.12500001 0 0 0 -4.59e-4,1.96e-4 0.12500001,0.12500001 0 0 0 -4.58e-4,1.95e-4 0.12500001,0.12500001 0 0 0 -4.57e-4,1.99e-4 0.12500001,0.12500001 0 0 0 -4.57e-4,1.99e-4 0.12500001,0.12500001 0 0 0 -4.54e-4,2.03e-4 0.12500001,0.12500001 0 0 0 -4.56e-4,2.03e-4 0.12500001,0.12500001 0 0 0 -4.54e-4,2.06e-4 0.12500001,0.12500001 0 0 0 -4.53e-4,2.07e-4 0.12500001,0.12500001 0 0 0 -4.52e-4,2.09e-4 0.12500001,0.12500001 0 0 0 -4.52e-4,2.1e-4 0.12500001,0.12500001 0 0 0 -4.51e-4,2.14e-4 0.12500001,0.12500001 0 0 0 -4.5e-4,2.14e-4 0.12500001,0.12500001 0 0 0 -4.48e-4,2.16e-4 0.12500001,0.12500001 0 0 0 -4.49e-4,2.18e-4 0.12500001,0.12500001 0 0 0 -4.45e-4,2.2e-4 0.12500001,0.12500001 0 0 0 -4.49e-4,2.21e-4 0.12500001,0.12500001 0 0 0 -4.43e-4,2.24e-4 0.12500001,0.12500001 0 0 0 -4.47e-4,2.25e-4 0.12500001,0.12500001 0 0 0 -4.43e-4,2.27e-4 0.12500001,0.12500001 0 0 0 -4.43e-4,2.28e-4 0.12500001,0.12500001 0 0 0 -4.41e-4,2.31e-4 0.12500001,0.12500001 0 0 0 -4.42e-4,2.32e-4 0.12500001,0.12500001 0 0 0 -4.4e-4,2.35e-4 0.12500001,0.12500001 0 0 0 -4.39e-4,2.35e-4 0.12500001,0.12500001 0 0 0 -4.39e-4,2.39e-4 0.12500001,0.12500001 0 0 0 -4.36e-4,2.37e-4 0.12500001,0.12500001 0 0 0 -4.36e-4,2.42e-4 0.12500001,0.12500001 0 0 0 -4.36e-4,2.42e-4 0.12500001,0.12500001 0 0 0 -4.34e-4,2.45e-4 0.12500001,0.12500001 0 0 0 -4.33e-4,2.45e-4 0.12500001,0.12500001 0 0 0 -4.32e-4,2.49e-4 0.12500001,0.12500001 0 0 0 -4.32e-4,2.49e-4 0.12500001,0.12500001 0 0 0 -4.3e-4,2.52e-4 0.12500001,0.12500001 0 0 0 -4.3e-4,2.52e-4 0.12500001,0.12500001 0 0 0 -4.26e-4,2.55e-4 0.12500001,0.12500001 0 0 0 -4.29e-4,2.57e-4 0.12500001,0.12500001 0 0 0 -4.25e-4,2.58e-4 0.12500001,0.12500001 0 0 0 -4.27e-4,2.59e-4 0.12500001,0.12500001 0 0 0 -4.23e-4,2.62e-4 0.12500001,0.12500001 0 0 0 -4.24e-4,2.63e-4 0.12500001,0.12500001 0 0 0 -4.22e-4,2.66e-4 0.12500001,0.12500001 0 0 0 -4.21e-4,2.66e-4 0.12500001,0.12500001 0 0 0 -4.2e-4,2.69e-4 0.12500001,0.12500001 0 0 0 -4.19e-4,2.69e-4 0.12500001,0.12500001 0 0 0 -4.16e-4,2.71e-4 0.12500001,0.12500001 0 0 0 -4.19e-4,2.74e-4 0.12500001,0.12500001 0 0 0 -4.14e-4,2.75e-4 0.12500001,0.12500001 0 0 0 -4.16e-4,2.76e-4 0.12500001,0.12500001 0 0 0 -4.12e-4,2.79e-4 0.12500001,0.12500001 0 0 0 -4.14e-4,2.79e-4 0.12500001,0.12500001 0 0 0 -4.1e-4,2.82e-4 0.12500001,0.12500001 0 0 0 -4.11e-4,2.83e-4 0.12500001,0.12500001 0 0 0 -4.07e-4,2.84e-4 0.12500001,0.12500001 0 0 0 -4.1e-4,2.87e-4 0.12500001,0.12500001 0 0 0 -4.04e-4,2.87e-4 0.12500001,0.12500001 0 0 0 -4.08e-4,2.91e-4 0.12500001,0.12500001 0 0 0 -4.03e-4,2.92e-4 0.12500001,0.12500001 0 0 0 -4.05e-4,2.92e-4 0.12500001,0.12500001 0 0 0 -4.02e-4,2.96e-4 0.12500001,0.12500001 0 0 0 -4e-4,2.95e-4 0.12500001,0.12500001 0 0 0 -4e-4,2.99e-4 0.12500001,0.12500001 0 0 0 -3.99e-4,2.98e-4 0.12500001,0.12500001 0 0 0 -3.96e-4,3.01e-4 0.12500001,0.12500001 0 0 0 -3.97e-4,3.02e-4 0.12500001,0.12500001 0 0 0 -3.94e-4,3.05e-4 0.12500001,0.12500001 0 0 0 -3.94e-4,3.05e-4 0.12500001,0.12500001 0 0 0 -3.1e-5,2.3e-5 l -0.09524,0.07429 a 0.12501251,0.12501251 0 0 0 -0.02836,0.0311 l -0.04762,0.07428 a 0.12501251,0.12501251 0 0 0 -0.0138,0.02931 l -0.04762,0.148572 a 0.12501251,0.12501251 0 0 0 -0.0044,0.01837 l -0.04762,0.297143 a 0.12501251,0.12501251 0 0 0 -0.0016,0.01978 v 0.371428 a 0.12501251,0.12501251 0 0 0 0.0016,0.01978 l 0.04762,0.297143 a 0.12501251,0.12501251 0 0 0 0.0044,0.01837 l 0.04762,0.148571 a 0.12501251,0.12501251 0 0 0 0.0138,0.02931 l 0.04762,0.07429 a 0.12501251,0.12501251 0 0 0 0.02836,0.03111 l 0.09524,0.07429 a 0.12501251,0.12501251 0 0 0 0.07688,0.02644 h 0.09524 a 0.12501251,0.12501251 0 0 0 0.07688,-0.02644 l 0.09524,-0.07429 a 0.12501251,0.12501251 0 0 0 0.02836,-0.03111 l 0.04762,-0.07429 a 0.12501251,0.12501251 0 0 0 0.0138,-0.02931 l 0.04762,-0.148571 a 0.12501251,0.12501251 0 0 0 0.0044,-0.01837 l 0.04762,-0.297143 a 0.12501251,0.12501251 0 0 0 0.0016,-0.01978 V 21.53064 a 0.12501251,0.12501251 0 0 0 -0.0016,-0.01978 l -0.04762,-0.297143 a 0.12501251,0.12501251 0 0 0 -0.0044,-0.01837 l -0.04762,-0.148572 a 0.12501251,0.12501251 0 0 0 -0.0138,-0.02931 l -0.04762,-0.07428 a 0.12501251,0.12501251 0 0 0 -0.02836,-0.0311 l -0.09524,-0.07429 a 0.12501251,0.12501251 0 0 0 -0.07688,-0.02644 z m 0.04299,0.25 h 0.0093 l 0.04451,0.03472 0.02728,0.04256 0.03974,0.123997 0.04454,0.277964 v 0.351522 l -0.04454,0.277964 -0.03974,0.123996 -0.02728,0.04256 -0.04451,0.03472 h -0.0093 l -0.04451,-0.03472 -0.02728,-0.04256 -0.03974,-0.123996 -0.04454,-0.277964 v -0.351522 l 0.04454,-0.277964 0.03974,-0.123997 0.02728,-0.04256 z"
       id="path923" />
    <path
       style="color:#000000;fill:#000000;fill-opacity:1;stroke:none;stroke-width:0.25;stroke-linecap:butt;stroke-linejoin:miter;-inkscape-stroke:none"
       d="m 60.551918,23.322954 a 0.12501251,0.12501251 0 0 0 -0.125,0.125 v 0.742857 0.817144 a 0.12501251,0.12501251 0 0 0 0.125,0.125 h 0.380952 a 0.12501251,0.12501251 0 0 0 0.07688,-0.02644 l 0.09524,-0.07429 a 0.12501251,0.12501251 0 0 0 0.02836,-0.03111 l 0.04762,-0.07429 a 0.12501251,0.12501251 0 0 0 0.0138,-0.02931 l 0.04762,-0.148572 a 0.12501251,0.12501251 0 0 0 0.006,-0.03815 v -0.222857 a 0.12501251,0.12501251 0 0 0 -0.006,-0.03815 l -0.04762,-0.148572 a 0.12501251,0.12501251 0 0 0 -0.0138,-0.02931 l -0.04762,-0.07428 a 0.12501251,0.12501251 0 0 0 -0.03384,-0.03515 l 0.03384,-0.05279 a 0.12501251,0.12501251 0 0 0 0.0138,-0.02931 l 0.04762,-0.148572 a 0.12501251,0.12501251 0 0 0 0.006,-0.03815 v -0.148571 a 0.12501251,0.12501251 0 0 0 -0.006,-0.03815 l -0.04762,-0.148572 a 0.12501251,0.12501251 0 0 0 -0.0138,-0.02931 l -0.04762,-0.07428 a 0.12501251,0.12501251 0 0 0 -0.02836,-0.0311 l -0.09524,-0.07429 a 0.12501251,0.12501251 0 0 0 -0.07688,-0.02644 z m 0.125,0.25 h 0.165348 l 0.04451,0.03472 0.02728,0.04256 0.03667,0.114407 v 0.109487 l -0.03667,0.114407 -0.02728,0.04256 -0.04451,0.03472 h -0.165348 z m 0,0.742857 h 0.177775 l 0.08617,0.04481 0.02081,0.03247 0.03667,0.114407 v 0.183773 l -0.03667,0.114406 -0.02728,0.04256 -0.04451,0.03472 h -0.212967 z"
       id="path887" />
    <path
       style="color:#000000;fill:#000000;fill-opacity:1;stroke:none;stroke-width:0.25;stroke-linecap:butt;stroke-linejoin:miter;-inkscape-stroke:none"
       d="m 61.551918,23.322954 a 0.12501251,0.12501251 0 0 0 -0.125,0.125 v 1.560001 a 0.12500001,0.12500001 0 0 0 4e-6,9.97e-4 0.12500001,0.12500001 0 0 0 1.2e-5,9.96e-4 0.12500001,0.12500001 0 0 0 4.8e-5,0.002 0.12500001,0.12500001 0 0 0 3.5e-5,9.96e-4 0.12500001,0.12500001 0 0 0 4.4e-5,9.96e-4 0.12500001,0.12500001 0 0 0 1.11e-4,0.002 0.12500001,0.12500001 0 0 0 6.8e-5,9.95e-4 0.12500001,0.12500001 0 0 0 1.59e-4,0.002 0.12500001,0.12500001 0 0 0 1.9e-4,0.002 0.12500001,0.12500001 0 0 0 1.07e-4,9.91e-4 0.12500001,0.12500001 0 0 0 1.15e-4,9.9e-4 0.12500001,0.12500001 0 0 0 3.92e-4,0.003 0.12500001,0.12500001 0 0 0 0.0014,0.0079 0.12500001,0.12500001 0 0 0 2.09e-4,9.74e-4 0.12500001,0.12500001 0 0 0 2.16e-4,9.73e-4 0.12500001,0.12500001 0 0 0 4.57e-4,0.0019 0.12500001,0.12500001 0 0 0 2.4e-4,9.67e-4 0.12500001,0.12500001 0 0 0 2.48e-4,9.65e-4 0.12500001,0.12500001 0 0 0 2.55e-4,9.64e-4 0.12500001,0.12500001 0 0 0 5.34e-4,0.0019 0.12500001,0.12500001 0 0 0 2.79e-4,9.57e-4 0.12500001,0.12500001 0 0 0 5.79e-4,0.0019 0.12500001,0.12500001 0 0 0 6.1e-4,0.0019 0.12500001,0.12500001 0 0 0 3.16e-4,9.46e-4 0.12500001,0.12500001 0 0 0 3.24e-4,9.42e-4 0.12500001,0.12500001 0 0 0 3.32e-4,9.4e-4 0.12500001,0.12500001 0 0 0 6.85e-4,0.0019 0.12500001,0.12500001 0 0 0 3.53e-4,9.32e-4 0.12500001,0.12500001 0 0 0 3.61e-4,9.29e-4 0.12500001,0.12500001 0 0 0 0.0015,0.0037 0.12500001,0.12500001 0 0 0 0.0021,0.0045 0.12500001,0.12500001 0 0 0 4.34e-4,8.97e-4 0.12500001,0.12500001 0 0 0 4.41e-4,8.94e-4 0.12500001,0.12500001 0 0 0 9.03e-4,0.0018 0.12500001,0.12500001 0 0 0 4.63e-4,8.83e-4 0.12500001,0.12500001 0 0 0 4.69e-4,8.79e-4 0.12500001,0.12500001 0 0 0 0.0019,0.0035 0.12500001,0.12500001 0 0 0 5.04e-4,8.59e-4 0.12500001,0.12500001 0 0 0 10e-4,0.0017 0.12500001,0.12500001 0 0 0 0.0011,0.0017 0.12500001,0.12500001 0 0 0 0.0011,0.0017 0.12500001,0.12500001 0 0 0 5.52e-4,8.31e-4 0.12500001,0.12500001 0 0 0 0.0023,0.0033 0.12500001,0.12500001 0 0 0 0.0012,0.0016 0.12500001,0.12500001 0 0 0 5.96e-4,7.99e-4 0.12500001,0.12500001 0 0 0 6.03e-4,7.93e-4 0.12500001,0.12500001 0 0 0 0.0012,0.0016 0.12500001,0.12500001 0 0 0 6.22e-4,7.79e-4 0.12500001,0.12500001 0 0 0 0.0019,0.0023 0.12500001,0.12500001 0 0 0 6.46e-4,7.59e-4 0.12500001,0.12500001 0 0 0 6.53e-4,7.53e-4 0.12500001,0.12500001 0 0 0 6.58e-4,7.49e-4 0.12500001,0.12500001 0 0 0 0.0013,0.0015 0.12500001,0.12500001 0 0 0 0.0014,0.0015 0.12500001,0.12500001 0 0 0 0.0028,0.0029 0.12500001,0.12500001 0 0 0 0.0014,0.0014 0.12500001,0.12500001 0 0 0 0.0014,0.0014 0.12500001,0.12500001 0 0 0 0.0015,0.0013 0.12500001,0.12500001 0 0 0 7.43e-4,6.64e-4 0.12500001,0.12500001 0 0 0 0.0015,0.0013 0.12500001,0.12500001 0 0 0 0.0023,0.0019 0.12500001,0.12500001 0 0 0 0.0031,0.0025 0.12500001,0.12500001 0 0 0 7.93e-4,6.03e-4 0.12500001,0.12500001 0 0 0 7.99e-4,5.96e-4 0.12500001,0.12500001 0 0 0 0.0016,0.0012 0.12500001,0.12500001 0 0 0 0.0025,0.0017 0.12500001,0.12500001 0 0 0 0.0059,0.0038 0.12500001,0.12500001 0 0 0 0.0034,0.002 0.12500001,0.12500001 0 0 0 8.72e-4,4.84e-4 0.12500001,0.12500001 0 0 0 0.0018,9.45e-4 0.12500001,0.12500001 0 0 0 8.83e-4,4.63e-4 0.12500001,0.12500001 0 0 0 8.87e-4,4.55e-4 0.12500001,0.12500001 0 0 0 8.9e-4,4.48e-4 0.12500001,0.12500001 0 0 0 0.0018,8.75e-4 0.12500001,0.12500001 0 0 0 0.0018,8.47e-4 0.12500001,0.12500001 0 0 0 9.07e-4,4.12e-4 0.12500001,0.12500001 0 0 0 9.11e-4,4.05e-4 0.12500001,0.12500001 0 0 0 9.14e-4,3.98e-4 0.12500001,0.12500001 0 0 0 0.0018,7.74e-4 0.12500001,0.12500001 0 0 0 9.23e-4,3.76e-4 0.12500001,0.12500001 0 0 0 0.0028,0.0011 0.12500001,0.12500001 0 0 0 0.0028,0.001 0.12500001,0.12500001 0 0 0 9.42e-4,3.24e-4 0.12500001,0.12500001 0 0 0 9.46e-4,3.16e-4 0.12500001,0.12500001 0 0 0 0.0019,6.1e-4 0.12500001,0.12500001 0 0 0 9.53e-4,2.93e-4 0.12500001,0.12500001 0 0 0 0.0058,0.0016 0.12500001,0.12500001 0 0 0 9.67e-4,2.4e-4 0.12500001,0.12500001 0 0 0 0.0019,4.57e-4 0.12500001,0.12500001 0 0 0 0.0068,0.0014 0.12500001,0.12500001 0 0 0 0.003,4.63e-4 0.12500001,0.12500001 0 0 0 0.003,3.92e-4 0.12500001,0.12500001 0 0 0 0.002,2.22e-4 0.12500001,0.12500001 0 0 0 9.92e-4,9.9e-5 0.12500001,0.12500001 0 0 0 9.92e-4,9.2e-5 0.12500001,0.12500001 0 0 0 0.002,1.58e-4 0.12500001,0.12500001 0 0 0 9.95e-4,6.8e-5 0.12500001,0.12500001 0 0 0 0.005,2.18e-4 0.12500001,0.12500001 0 0 0 0.002,3.2e-5 0.12500001,0.12500001 0 0 0 9.97e-4,4e-6 h 0.238095 a 0.12501251,0.12501251 0 0 0 0.05767,-0.0141 l 0.142857,-0.07429 a 0.12501251,0.12501251 0 0 0 0.04757,-0.04344 l 0.09524,-0.148571 a 0.12501251,0.12501251 0 0 0 0.0138,-0.02931 l 0.04762,-0.148573 a 0.12501251,0.12501251 0 0 0 0.0044,-0.01837 l 0.04762,-0.297143 a 0.12501251,0.12501251 0 0 0 0.0016,-0.01978 v -0.222857 a 0.12501251,0.12501251 0 0 0 -0.0016,-0.01978 l -0.04762,-0.297143 a 0.12501251,0.12501251 0 0 0 -0.0044,-0.01837 l -0.04762,-0.148571 a 0.12501251,0.12501251 0 0 0 -0.0138,-0.02931 l -0.09524,-0.148571 a 0.12501251,0.12501251 0 0 0 -0.04757,-0.04344 l -0.142857,-0.07429 a 0.12501251,0.12501251 0 0 0 -0.05767,-0.0141 z m 0.125,0.25 h 0.08254 l 0.08617,0.04481 0.06843,0.106755 0.03974,0.123996 0.04454,0.277964 v 0.202951 l -0.04454,0.277964 -0.03974,0.123997 -0.06843,0.106756 -0.08617,0.04481 h -0.08254 z"
       id="path893" />
    <path
       style="color:#000000;fill:#000000;fill-opacity:1;stroke:none;stroke-width:0.25;stroke-linecap:butt;stroke-linejoin:miter;-inkscape-stroke:none"
       d="m 60.599537,25.834555 a 0.12501251,0.12501251 0 0 0 -0.125,0.125 v 0.817143 0.742857 a 0.12500001,0.12500001 0 0 0 0.125,0.125 0.12500001,0.12500001 0 0 0 0.125,-0.125 v -0.617857 h 0.255952 a 0.12501251,0.12501251 0 0 0 0.07688,-0.02644 l 0.09524,-0.07429 a 0.12501251,0.12501251 0 0 0 0.02836,-0.03111 l 0.04762,-0.07429 a 0.12501251,0.12501251 0 0 0 0.0138,-0.02931 L 61.29,26.517707 a 0.12501251,0.12501251 0 0 0 0.006,-0.03815 V 26.2567 A 0.12501251,0.12501251 0 0 0 61.29,26.21855 l -0.04762,-0.148572 a 0.12501251,0.12501251 0 0 0 -0.0138,-0.02931 l -0.04762,-0.07428 a 0.12501251,0.12501251 0 0 0 -0.02836,-0.0311 l -0.09524,-0.07429 a 0.12501251,0.12501251 0 0 0 -0.07688,-0.02644 z m 0.125,0.25 h 0.212967 l 0.04451,0.03472 0.02728,0.04256 0.03667,0.114407 v 0.183773 l -0.03667,0.114406 -0.02728,0.04256 -0.04451,0.03472 h -0.212967 z"
       id="path851" />
    <path
       id="path857"
       style="color:#000000;fill:#000000;fill-opacity:1;stroke:none;stroke-width:0.25;stroke-linecap:butt;stroke-linejoin:miter;-inkscape-stroke:none"
       d="M 61.837318 25.83482 A 0.12501251 0.12501251 0 0 0 61.722596 25.910268 L 61.631646 26.123691 L 61.553614 26.245648 L 61.475066 26.306626 A 0.12500001 0.12500001 0 0 0 61.453362 26.482326 A 0.12500001 0.12500001 0 0 0 61.628545 26.50403 L 61.712778 26.438401 L 61.712778 27.394415 L 61.552064 27.394415 A 0.12500001 0.12500001 0 0 0 61.427007 27.519472 A 0.12500001 0.12500001 0 0 0 61.552064 27.644529 L 61.837835 27.644529 L 62.123089 27.644529 A 0.12500001 0.12500001 0 0 0 62.248146 27.519472 A 0.12500001 0.12500001 0 0 0 62.123089 27.394415 L 61.962892 27.394415 L 61.962892 25.95936 A 0.12501251 0.12501251 0 0 0 61.837318 25.83482 z " />
    <path
       style="color:#000000;fill:#000000;fill-opacity:1;stroke:none;stroke-width:0.25;stroke-linecap:butt;stroke-linejoin:miter;-inkscape-stroke:none"
       d="m 59.647156,33.369355 a 0.12501251,0.12501251 0 0 0 -0.125,0.125 v 0.817143 0.742858 a 0.12500001,0.12500001 0 0 0 0.125,0.125 0.12500001,0.12500001 0 0 0 0.125,-0.125 v -0.617858 h 0.255952 a 0.12501251,0.12501251 0 0 0 0.07688,-0.02644 l 0.09524,-0.07429 a 0.12501251,0.12501251 0 0 0 0.02836,-0.0311 l 0.04762,-0.07429 a 0.12501251,0.12501251 0 0 0 0.0138,-0.02931 l 0.04762,-0.148571 a 0.12501251,0.12501251 0 0 0 0.006,-0.03815 V 33.79149 a 0.12501251,0.12501251 0 0 0 -0.006,-0.03815 L 60.29,33.604774 a 0.12501251,0.12501251 0 0 0 -0.0138,-0.02931 l -0.04762,-0.07429 a 0.12501251,0.12501251 0 0 0 -0.02836,-0.0311 l -0.09524,-0.07429 a 0.12501251,0.12501251 0 0 0 -0.07688,-0.02644 z m 0.125,0.25 h 0.212967 l 0.04451,0.03472 0.02728,0.04256 0.03667,0.114407 v 0.183773 l -0.03667,0.114406 -0.02728,0.04256 -0.04451,0.03472 h -0.212967 z"
       id="path769" />
    <path
       style="color:#000000;fill:#000000;fill-opacity:1;stroke:none;stroke-width:0.25;stroke-linecap:butt;stroke-linejoin:miter;-inkscape-stroke:none"
       d="m 60.742394,33.369355 a 0.12501251,0.12501251 0 0 0 -0.07688,0.02644 l -0.09524,0.07429 a 0.12501251,0.12501251 0 0 0 -0.02836,0.0311 l -0.04762,0.07429 a 0.12500001,0.12500001 0 0 0 0.03778,0.172694 0.12500001,0.12500001 0 0 0 0.172694,-0.03778 l 0.0361,-0.05631 0.04451,-0.03472 h 0.152125 l 0.04451,0.03472 0.02728,0.04256 0.03667,0.114407 v 0.115823 l -0.04011,0.187729 -0.559169,0.872306 a 0.12501251,0.12501251 0 0 0 0.105235,0.192458 h 0.619047 a 0.12500001,0.12500001 0 0 0 0.125,-0.125 0.12500001,0.12500001 0 0 0 -0.125,-0.125 h -0.390442 l 0.448058,-0.698972 a 0.12501251,0.12501251 0 0 0 0.01701,-0.04134 l 0.04762,-0.222857 a 0.12501251,0.12501251 0 0 0 0.0028,-0.02612 v -0.148571 a 0.12501251,0.12501251 0 0 0 -0.006,-0.03815 l -0.04762,-0.148572 a 0.12501251,0.12501251 0 0 0 -0.0138,-0.02931 l -0.04762,-0.07429 a 0.12501251,0.12501251 0 0 0 -0.02836,-0.0311 l -0.09524,-0.07429 a 0.12501251,0.12501251 0 0 0 -0.07688,-0.02644 z"
       id="path775" />
    <path
       style="color:#000000;fill:#000000;fill-opacity:1;stroke:none;stroke-width:0.25;stroke-linecap:butt;stroke-linejoin:miter;-inkscape-stroke:none"
       d="m 61.742394,33.369355 a 0.12501251,0.12501251 0 0 0 -0.07688,0.02644 l -0.09524,0.07429 a 0.12501251,0.12501251 0 0 0 -0.02836,0.0311 l -0.04762,0.07429 a 0.12501251,0.12501251 0 0 0 -0.0138,0.02931 l -0.04762,0.148572 a 0.12501251,0.12501251 0 0 0 -0.006,0.03815 v 0.07429 a 0.12501251,0.12501251 0 0 0 0.006,0.03815 l 0.04762,0.148572 a 0.12501251,0.12501251 0 0 0 0.0138,0.02931 l 0.04762,0.07429 a 0.12501251,0.12501251 0 0 0 0.0047,0.0068 0.12501251,0.12501251 0 0 0 -0.0047,0.0068 l -0.04762,0.07429 a 0.12501251,0.12501251 0 0 0 -0.0138,0.02931 l -0.04762,0.148571 a 0.12501251,0.12501251 0 0 0 -0.006,0.03815 v 0.297143 a 0.12501251,0.12501251 0 0 0 0.006,0.03815 l 0.04762,0.148572 a 0.12501251,0.12501251 0 0 0 0.0138,0.02931 l 0.04762,0.07429 a 0.12501251,0.12501251 0 0 0 0.02836,0.03111 l 0.09524,0.07429 a 0.12501251,0.12501251 0 0 0 0.07688,0.02644 h 0.190476 a 0.12501251,0.12501251 0 0 0 0.07688,-0.02644 l 0.09524,-0.07429 a 0.12501251,0.12501251 0 0 0 0.02836,-0.03111 l 0.04762,-0.07429 a 0.12501251,0.12501251 0 0 0 0.0138,-0.02931 l 0.04762,-0.148572 a 0.12501251,0.12501251 0 0 0 0.006,-0.03815 V 34.46004 a 0.12501251,0.12501251 0 0 0 -0.006,-0.03815 l -0.04762,-0.148571 a 0.12501251,0.12501251 0 0 0 -0.0138,-0.02931 l -0.04762,-0.07429 a 0.12501251,0.12501251 0 0 0 -0.0047,-0.0068 0.12501251,0.12501251 0 0 0 0.0047,-0.0068 l 0.04762,-0.07429 a 0.12501251,0.12501251 0 0 0 0.0138,-0.02931 l 0.04762,-0.148572 a 0.12501251,0.12501251 0 0 0 0.006,-0.03815 v -0.07429 a 0.12501251,0.12501251 0 0 0 -0.006,-0.03815 l -0.04762,-0.148572 a 0.12501251,0.12501251 0 0 0 -0.0138,-0.02931 l -0.04762,-0.07429 a 0.12501251,0.12501251 0 0 0 -0.02836,-0.0311 l -0.09524,-0.07429 a 0.12501251,0.12501251 0 0 0 -0.07688,-0.02644 z m 0.04299,0.25 h 0.104506 l 0.04451,0.03472 0.02728,0.04256 0.03667,0.114407 v 0.0352 l -0.03667,0.114407 -0.02728,0.04256 -0.04451,0.03472 h -0.104506 l -0.04451,-0.03472 -0.02728,-0.04256 -0.03667,-0.114407 v -0.0352 l 0.03667,-0.114407 0.02728,-0.04256 z m 0,0.668571 h 0.104506 l 0.04451,0.03472 0.02728,0.04256 0.03667,0.114406 v 0.258059 l -0.03667,0.114407 -0.02728,0.04256 -0.04451,0.03472 h -0.104506 l -0.04451,-0.03472 -0.02728,-0.04256 -0.03667,-0.114407 v -0.258059 l 0.03667,-0.114406 0.02728,-0.04256 z"
       id="path781" />
    <path
       style="color:#000000;fill:#000000;fill-opacity:1;stroke:none;stroke-width:0.25;stroke-linecap:butt;stroke-linejoin:miter;-inkscape-stroke:none"
       d="m 59.647156,38.392556 a 0.12501251,0.12501251 0 0 0 -0.125,0.125 v 0.817143 0.742857 a 0.12500001,0.12500001 0 0 0 0.125,0.125 0.12500001,0.12500001 0 0 0 0.125,-0.125 v -0.617857 h 0.255952 a 0.12501251,0.12501251 0 0 0 0.07688,-0.02644 l 0.09524,-0.07429 a 0.12501251,0.12501251 0 0 0 0.02836,-0.0311 l 0.04762,-0.07429 a 0.12501251,0.12501251 0 0 0 0.0138,-0.02931 l 0.04762,-0.148571 a 0.12501251,0.12501251 0 0 0 0.006,-0.03815 v -0.222857 a 0.12501251,0.12501251 0 0 0 -0.006,-0.03815 L 60.29,38.627975 a 0.12501251,0.12501251 0 0 0 -0.0138,-0.02931 l -0.04762,-0.07429 a 0.12501251,0.12501251 0 0 0 -0.02836,-0.0311 l -0.09524,-0.07429 a 0.12501251,0.12501251 0 0 0 -0.07688,-0.02644 z m 0.125,0.25 h 0.212967 l 0.04451,0.03472 0.02728,0.04256 0.03667,0.114407 v 0.183773 l -0.03667,0.114406 -0.02728,0.04256 -0.04451,0.03472 h -0.212967 z"
       id="path695" />
    <path
       style="color:#000000;fill:#000000;fill-opacity:1;stroke:none;stroke-width:0.25;stroke-linecap:butt;stroke-linejoin:miter;-inkscape-stroke:none"
       d="m 60.742394,38.392556 a 0.12501251,0.12501251 0 0 0 -0.07688,0.02644 l -0.09524,0.07429 a 0.12501251,0.12501251 0 0 0 -0.02836,0.0311 l -0.04762,0.07429 a 0.12500001,0.12500001 0 0 0 0.03778,0.172694 0.12500001,0.12500001 0 0 0 0.172694,-0.03778 l 0.0361,-0.05631 0.04451,-0.03472 h 0.152125 l 0.04451,0.03472 0.02728,0.04256 0.03667,0.114407 v 0.115823 l -0.04011,0.187729 -0.559169,0.872305 a 0.12501251,0.12501251 0 0 0 0.105235,0.192458 h 0.619047 a 0.12500001,0.12500001 0 0 0 0.125,-0.125 0.12500001,0.12500001 0 0 0 -0.125,-0.125 h -0.390442 l 0.448058,-0.698971 a 0.12501251,0.12501251 0 0 0 0.01701,-0.04134 l 0.04762,-0.222857 a 0.12501251,0.12501251 0 0 0 0.0028,-0.02612 v -0.148571 a 0.12501251,0.12501251 0 0 0 -0.006,-0.03815 l -0.04762,-0.148572 a 0.12501251,0.12501251 0 0 0 -0.0138,-0.02931 l -0.04762,-0.07429 a 0.12501251,0.12501251 0 0 0 -0.02836,-0.0311 l -0.09524,-0.07429 a 0.12501251,0.12501251 0 0 0 -0.07688,-0.02644 z"
       id="path701" />
    <path
       style="color:#000000;fill:#000000;fill-opacity:1;stroke:none;stroke-width:0.25;stroke-linecap:butt;stroke-linejoin:miter;-inkscape-stroke:none"
       d="m 61.504299,38.392556 a 0.12500001,0.12500001 0 0 0 -0.125,0.125 0.12500001,0.12500001 0 0 0 0.125,0.125 h 0.502694 l -0.385133,1.401886 a 0.12500001,0.12500001 0 0 0 0.08742,0.153648 0.12500001,0.12500001 0 0 0 0.153648,-0.08742 l 0.428571,-1.56 a 0.12501251,0.12501251 0 0 0 -0.120534,-0.158114 z"
       id="path707" />
    <path
       style="color:#000000;fill:#000000;fill-opacity:1;stroke:none;stroke-width:0.25;stroke-linecap:butt;stroke-linejoin:miter;-inkscape-stroke:none"
       d="m 59.647156,43.415756 a 0.12501251,0.12501251 0 0 0 -0.125,0.125 v 0.817143 0.742858 a 0.12500001,0.12500001 0 0 0 0.125,0.125 0.12500001,0.12500001 0 0 0 0.125,-0.125 v -0.617858 h 0.255952 a 0.12501251,0.12501251 0 0 0 0.07688,-0.02644 l 0.09524,-0.07429 a 0.12501251,0.12501251 0 0 0 0.02836,-0.03111 l 0.04762,-0.07429 a 0.12501251,0.12501251 0 0 0 0.0138,-0.02931 l 0.04762,-0.148571 a 0.12501251,0.12501251 0 0 0 0.006,-0.03815 v -0.222857 a 0.12501251,0.12501251 0 0 0 -0.006,-0.03815 L 60.29,43.651175 a 0.12501251,0.12501251 0 0 0 -0.0138,-0.02931 l -0.04762,-0.07428 a 0.12501251,0.12501251 0 0 0 -0.02836,-0.0311 l -0.09524,-0.07429 a 0.12501251,0.12501251 0 0 0 -0.07688,-0.02644 z m 0.125,0.25 h 0.212967 l 0.04451,0.03472 0.02728,0.04256 0.03667,0.114407 v 0.183773 l -0.03667,0.114406 -0.02728,0.04256 -0.04451,0.03472 h -0.212967 z"
       id="path619" />
    <path
       style="color:#000000;fill:#000000;fill-opacity:1;stroke:none;stroke-width:0.25;stroke-linecap:butt;stroke-linejoin:miter;-inkscape-stroke:none"
       d="m 60.742394,43.415756 a 0.12501251,0.12501251 0 0 0 -0.07688,0.02644 l -0.09524,0.07429 a 0.12501251,0.12501251 0 0 0 -0.02836,0.0311 l -0.04762,0.07428 a 0.12500001,0.12500001 0 0 0 0.03778,0.172694 0.12500001,0.12500001 0 0 0 0.172694,-0.03778 l 0.0361,-0.05631 0.04451,-0.03472 h 0.152125 l 0.04451,0.03472 0.02728,0.04256 0.03667,0.114407 v 0.115823 l -0.04011,0.187729 -0.559169,0.872306 a 0.12501251,0.12501251 0 0 0 0.105235,0.192458 h 0.619047 a 0.12500001,0.12500001 0 0 0 0.125,-0.125 0.12500001,0.12500001 0 0 0 -0.125,-0.125 h -0.390442 l 0.448058,-0.698972 a 0.12501251,0.12501251 0 0 0 0.01701,-0.04134 l 0.04762,-0.222857 a 0.12501251,0.12501251 0 0 0 0.0028,-0.02612 v -0.148571 a 0.12501251,0.12501251 0 0 0 -0.006,-0.03815 l -0.04762,-0.148572 a 0.12501251,0.12501251 0 0 0 -0.0138,-0.02931 l -0.04762,-0.07428 a 0.12501251,0.12501251 0 0 0 -0.02836,-0.0311 l -0.09524,-0.07429 a 0.12501251,0.12501251 0 0 0 -0.07688,-0.02644 z"
       id="path625" />
    <path
       style="color:#000000;fill:#000000;fill-opacity:1;stroke:none;stroke-width:0.25;stroke-linecap:butt;stroke-linejoin:miter;-inkscape-stroke:none"
       d="m 61.837632,43.415756 a 0.12501251,0.12501251 0 0 0 -0.07688,0.02644 l -0.09524,0.07429 a 0.12501251,0.12501251 0 0 0 -0.02836,0.0311 l -0.04762,0.07428 a 0.12501251,0.12501251 0 0 0 -0.0097,0.01834 l -0.09524,0.222857 a 0.12501251,0.12501251 0 0 0 -0.0085,0.02934 l -0.04762,0.297143 a 0.12501251,0.12501251 0 0 0 -0.0016,0.01978 v 0.594286 a 0.12501251,0.12501251 0 0 0 0.006,0.03815 l 0.04762,0.148571 a 0.12501251,0.12501251 0 0 0 0.0138,0.02931 l 0.04762,0.07429 a 0.12501251,0.12501251 0 0 0 0.02836,0.0311 l 0.09524,0.07429 a 0.12501251,0.12501251 0 0 0 0.07688,0.02644 h 0.190476 a 0.12501251,0.12501251 0 0 0 0.07688,-0.02644 l 0.09524,-0.07429 a 0.12501251,0.12501251 0 0 0 0.02836,-0.0311 l 0.04762,-0.07429 a 0.12501251,0.12501251 0 0 0 0.0138,-0.02931 l 0.04762,-0.148571 a 0.12501251,0.12501251 0 0 0 0.006,-0.03815 v -0.371429 a 0.12501251,0.12501251 0 0 0 -0.006,-0.03815 l -0.04762,-0.148571 a 0.12501251,0.12501251 0 0 0 -0.0138,-0.02931 l -0.04762,-0.07429 a 0.12501251,0.12501251 0 0 0 -0.02836,-0.0311 l -0.09524,-0.07429 a 0.12501251,0.12501251 0 0 0 -0.07688,-0.02644 h -0.190476 a 0.12501251,0.12501251 0 0 0 -0.03264,0.0043 l 0.01077,-0.06722 0.0851,-0.199135 0.03048,-0.04755 0.04451,-0.03472 h 0.147491 a 0.12500001,0.12500001 0 0 0 0.125,-0.125 0.12500001,0.12500001 0 0 0 -0.125,-0.125 z m -0.05225,0.844286 h 0.104506 l 0.04451,0.03472 0.02728,0.04256 0.03667,0.114406 v 0.332345 l -0.03667,0.114407 -0.02728,0.04256 -0.04451,0.03472 h -0.104506 l -0.04451,-0.03472 -0.02728,-0.04256 -0.03667,-0.114407 v -0.332345 l 0.03667,-0.114406 0.02728,-0.04256 z"
       id="path631" />
    <path
       style="color:#000000;fill:#000000;fill-opacity:1;stroke:none;stroke-width:0.25;stroke-linecap:butt;stroke-linejoin:miter;-inkscape-stroke:none"
       d="m 59.694775,45.927357 a 0.12501251,0.12501251 0 0 0 -0.07688,0.02644 l -0.09524,0.07429 a 0.12501251,0.12501251 0 0 0 -0.02836,0.0311 l -0.04762,0.07428 a 0.12501251,0.12501251 0 0 0 -0.0138,0.02931 l -0.04762,0.148572 a 0.12501251,0.12501251 0 0 0 -0.006,0.03815 v 0.148571 a 0.12501251,0.12501251 0 0 0 0.006,0.03815 l 0.04762,0.148572 a 0.12501251,0.12501251 0 0 0 0.0138,0.02931 l 0.04762,0.07429 a 0.12501251,0.12501251 0 0 0 0.02836,0.0311 l 0.09524,0.07429 a 0.12501251,0.12501251 0 0 0 0.03146,0.01789 l 0.173437,0.06764 0.06398,0.04991 0.02728,0.04256 0.03667,0.114407 v 0.109487 l -0.03667,0.114406 -0.02728,0.04256 -0.04451,0.03472 H 59.67771 l -0.115746,-0.06019 a 0.12500001,0.12500001 0 0 0 -0.168571,0.05323 0.12500001,0.12500001 0 0 0 0.05323,0.168571 l 0.142857,0.07429 a 0.12501251,0.12501251 0 0 0 0.05767,0.0141 h 0.238095 a 0.12501251,0.12501251 0 0 0 0.07688,-0.02644 l 0.09524,-0.07429 a 0.12501251,0.12501251 0 0 0 0.02836,-0.03111 l 0.04762,-0.07429 a 0.12501251,0.12501251 0 0 0 0.0138,-0.02931 l 0.04762,-0.148571 a 0.12501251,0.12501251 0 0 0 0.006,-0.03815 v -0.148571 a 0.12501251,0.12501251 0 0 0 -0.006,-0.03815 l -0.04762,-0.148572 a 0.12501251,0.12501251 0 0 0 -0.0138,-0.02931 l -0.04762,-0.07429 a 0.12501251,0.12501251 0 0 0 -0.02836,-0.03111 l -0.09524,-0.07428 a 0.12501251,0.12501251 0 0 0 -0.03146,-0.01789 l -0.173436,-0.06764 -0.06398,-0.04991 -0.02728,-0.04256 -0.03667,-0.114407 v -0.109487 l 0.03667,-0.114407 0.02728,-0.04256 0.04451,-0.03472 h 0.164552 l 0.115746,0.06019 a 0.12500001,0.12500001 0 0 0 0.168571,-0.05323 0.12500001,0.12500001 0 0 0 -0.05323,-0.168571 l -0.142857,-0.07429 a 0.12501251,0.12501251 0 0 0 -0.05767,-0.0141 z"
       id="path576" />
    <path
       style="color:#000000;fill:#000000;fill-opacity:1;stroke:none;stroke-width:0.25;stroke-linecap:butt;stroke-linejoin:miter;-inkscape-stroke:none"
       d="m 61.075727,45.927357 a 0.12500001,0.12500001 0 0 0 -0.125,0.125 v 0.855326 l -0.329055,-0.89832 a 0.12501251,0.12501251 0 0 0 -0.242373,0.04299 v 1.56 a 0.12500001,0.12500001 0 0 0 0.125,0.125 0.12500001,0.12500001 0 0 0 0.125,-0.125 v -0.855326 l 0.329055,0.89832 a 0.12501251,0.12501251 0 0 0 0.242373,-0.04299 v -1.56 a 0.12500001,0.12500001 0 0 0 -0.125,-0.125 z"
       id="path582" />
    <path
       style="color:#000000;fill:#000000;fill-opacity:1;stroke:none;stroke-width:0.25;stroke-linecap:butt;stroke-linejoin:miter;-inkscape-stroke:none"
       d="m 61.551918,45.927357 a 0.12501251,0.12501251 0 0 0 -0.125,0.125 v 1.56 a 0.12500001,0.12500001 0 0 0 4e-6,9.97e-4 0.12500001,0.12500001 0 0 0 1.2e-5,9.96e-4 0.12500001,0.12500001 0 0 0 4.8e-5,0.002 0.12500001,0.12500001 0 0 0 3.5e-5,9.96e-4 0.12500001,0.12500001 0 0 0 4.4e-5,9.96e-4 0.12500001,0.12500001 0 0 0 1.11e-4,0.002 0.12500001,0.12500001 0 0 0 6.8e-5,9.95e-4 0.12500001,0.12500001 0 0 0 1.59e-4,0.002 0.12500001,0.12500001 0 0 0 1.9e-4,0.002 0.12500001,0.12500001 0 0 0 1.07e-4,9.91e-4 0.12500001,0.12500001 0 0 0 1.15e-4,9.9e-4 0.12500001,0.12500001 0 0 0 3.92e-4,0.003 0.12500001,0.12500001 0 0 0 0.0014,0.0079 0.12500001,0.12500001 0 0 0 2.09e-4,9.74e-4 0.12500001,0.12500001 0 0 0 2.16e-4,9.73e-4 0.12500001,0.12500001 0 0 0 4.57e-4,0.0019 0.12500001,0.12500001 0 0 0 2.4e-4,9.67e-4 0.12500001,0.12500001 0 0 0 2.48e-4,9.65e-4 0.12500001,0.12500001 0 0 0 2.55e-4,9.64e-4 0.12500001,0.12500001 0 0 0 5.34e-4,0.0019 0.12500001,0.12500001 0 0 0 2.79e-4,9.57e-4 0.12500001,0.12500001 0 0 0 5.79e-4,0.0019 0.12500001,0.12500001 0 0 0 6.1e-4,0.0019 0.12500001,0.12500001 0 0 0 3.16e-4,9.46e-4 0.12500001,0.12500001 0 0 0 3.24e-4,9.42e-4 0.12500001,0.12500001 0 0 0 3.32e-4,9.4e-4 0.12500001,0.12500001 0 0 0 6.85e-4,0.0019 0.12500001,0.12500001 0 0 0 3.53e-4,9.32e-4 0.12500001,0.12500001 0 0 0 3.61e-4,9.29e-4 0.12500001,0.12500001 0 0 0 0.0015,0.0037 0.12500001,0.12500001 0 0 0 0.0021,0.0045 0.12500001,0.12500001 0 0 0 4.34e-4,8.97e-4 0.12500001,0.12500001 0 0 0 4.41e-4,8.94e-4 0.12500001,0.12500001 0 0 0 9.03e-4,0.0018 0.12500001,0.12500001 0 0 0 4.63e-4,8.83e-4 0.12500001,0.12500001 0 0 0 4.69e-4,8.79e-4 0.12500001,0.12500001 0 0 0 0.0019,0.0035 0.12500001,0.12500001 0 0 0 5.04e-4,8.59e-4 0.12500001,0.12500001 0 0 0 10e-4,0.0017 0.12500001,0.12500001 0 0 0 0.0011,0.0017 0.12500001,0.12500001 0 0 0 0.0011,0.0017 0.12500001,0.12500001 0 0 0 5.52e-4,8.31e-4 0.12500001,0.12500001 0 0 0 0.0023,0.0033 0.12500001,0.12500001 0 0 0 0.0012,0.0016 0.12500001,0.12500001 0 0 0 5.96e-4,7.99e-4 0.12500001,0.12500001 0 0 0 6.03e-4,7.93e-4 0.12500001,0.12500001 0 0 0 0.0012,0.0016 0.12500001,0.12500001 0 0 0 6.22e-4,7.79e-4 0.12500001,0.12500001 0 0 0 0.0019,0.0023 0.12500001,0.12500001 0 0 0 6.46e-4,7.59e-4 0.12500001,0.12500001 0 0 0 6.53e-4,7.53e-4 0.12500001,0.12500001 0 0 0 6.58e-4,7.49e-4 0.12500001,0.12500001 0 0 0 0.0013,0.0015 0.12500001,0.12500001 0 0 0 0.0014,0.0015 0.12500001,0.12500001 0 0 0 0.0028,0.0029 0.12500001,0.12500001 0 0 0 0.0014,0.0014 0.12500001,0.12500001 0 0 0 0.0014,0.0014 0.12500001,0.12500001 0 0 0 0.0015,0.0013 0.12500001,0.12500001 0 0 0 7.43e-4,6.64e-4 0.12500001,0.12500001 0 0 0 0.0015,0.0013 0.12500001,0.12500001 0 0 0 0.0023,0.0019 0.12500001,0.12500001 0 0 0 0.0031,0.0025 0.12500001,0.12500001 0 0 0 7.93e-4,6.03e-4 0.12500001,0.12500001 0 0 0 7.99e-4,5.96e-4 0.12500001,0.12500001 0 0 0 0.0016,0.0012 0.12500001,0.12500001 0 0 0 0.0025,0.0017 0.12500001,0.12500001 0 0 0 0.0059,0.0038 0.12500001,0.12500001 0 0 0 0.0034,0.002 0.12500001,0.12500001 0 0 0 8.72e-4,4.84e-4 0.12500001,0.12500001 0 0 0 0.0018,9.45e-4 0.12500001,0.12500001 0 0 0 8.83e-4,4.63e-4 0.12500001,0.12500001 0 0 0 8.87e-4,4.55e-4 0.12500001,0.12500001 0 0 0 8.9e-4,4.48e-4 0.12500001,0.12500001 0 0 0 0.0018,8.75e-4 0.12500001,0.12500001 0 0 0 0.0018,8.47e-4 0.12500001,0.12500001 0 0 0 9.07e-4,4.12e-4 0.12500001,0.12500001 0 0 0 9.11e-4,4.05e-4 0.12500001,0.12500001 0 0 0 9.14e-4,3.98e-4 0.12500001,0.12500001 0 0 0 0.0018,7.74e-4 0.12500001,0.12500001 0 0 0 9.23e-4,3.76e-4 0.12500001,0.12500001 0 0 0 0.0028,0.0011 0.12500001,0.12500001 0 0 0 0.0028,0.001 0.12500001,0.12500001 0 0 0 9.42e-4,3.24e-4 0.12500001,0.12500001 0 0 0 9.46e-4,3.16e-4 0.12500001,0.12500001 0 0 0 0.0019,6.1e-4 0.12500001,0.12500001 0 0 0 9.53e-4,2.93e-4 0.12500001,0.12500001 0 0 0 0.0058,0.0016 0.12500001,0.12500001 0 0 0 9.67e-4,2.4e-4 0.12500001,0.12500001 0 0 0 0.0019,4.57e-4 0.12500001,0.12500001 0 0 0 0.0068,0.0014 0.12500001,0.12500001 0 0 0 0.003,4.63e-4 0.12500001,0.12500001 0 0 0 0.003,3.92e-4 0.12500001,0.12500001 0 0 0 0.002,2.22e-4 0.12500001,0.12500001 0 0 0 9.92e-4,9.9e-5 0.12500001,0.12500001 0 0 0 9.92e-4,9.2e-5 0.12500001,0.12500001 0 0 0 0.002,1.58e-4 0.12500001,0.12500001 0 0 0 9.95e-4,6.8e-5 0.12500001,0.12500001 0 0 0 0.005,2.18e-4 0.12500001,0.12500001 0 0 0 0.002,3.2e-5 0.12500001,0.12500001 0 0 0 9.97e-4,4e-6 h 0.238095 a 0.12501251,0.12501251 0 0 0 0.05767,-0.0141 l 0.142857,-0.07429 a 0.12501251,0.12501251 0 0 0 0.04757,-0.04344 l 0.09524,-0.148571 a 0.12501251,0.12501251 0 0 0 0.0138,-0.02931 l 0.04762,-0.148572 a 0.12501251,0.12501251 0 0 0 0.0044,-0.01837 l 0.04762,-0.297143 a 0.12501251,0.12501251 0 0 0 0.0016,-0.01978 v -0.222857 a 0.12501251,0.12501251 0 0 0 -0.0016,-0.01978 l -0.04762,-0.297143 a 0.12501251,0.12501251 0 0 0 -0.0044,-0.01837 l -0.04762,-0.148571 a 0.12501251,0.12501251 0 0 0 -0.0138,-0.02931 l -0.09524,-0.148571 a 0.12501251,0.12501251 0 0 0 -0.04757,-0.04344 l -0.142857,-0.07429 a 0.12501251,0.12501251 0 0 0 -0.05767,-0.0141 z m 0.125,0.25 h 0.08254 l 0.08617,0.04481 0.06843,0.106755 0.03974,0.123996 0.04454,0.277964 v 0.202951 l -0.04454,0.277964 -0.03974,0.123997 -0.06843,0.106755 -0.08617,0.04481 h -0.08254 z"
       id="path588" />
    <path
       style="color:#000000;fill:#000000;fill-opacity:1;stroke:none;stroke-width:0.25;stroke-linecap:butt;stroke-linejoin:miter;-inkscape-stroke:none"
       d="m 59.647156,50.950557 a 0.12501251,0.12501251 0 0 0 -0.125,0.125 v 0.817143 0.742857 a 0.12500001,0.12500001 0 0 0 0.125,0.125 0.12500001,0.12500001 0 0 0 0.125,-0.125 V 52.0177 h 0.255952 a 0.12501251,0.12501251 0 0 0 0.07688,-0.02644 l 0.09524,-0.07429 a 0.12501251,0.12501251 0 0 0 0.02836,-0.03111 l 0.04762,-0.07429 A 0.12501251,0.12501251 0 0 0 60.29,51.78228 l 0.04762,-0.148571 a 0.12501251,0.12501251 0 0 0 0.006,-0.03815 V 51.3727 a 0.12501251,0.12501251 0 0 0 -0.006,-0.03815 L 60.29,51.185976 a 0.12501251,0.12501251 0 0 0 -0.0138,-0.02931 l -0.04762,-0.07429 a 0.12501251,0.12501251 0 0 0 -0.02836,-0.0311 l -0.09524,-0.07429 a 0.12501251,0.12501251 0 0 0 -0.07688,-0.02644 z m 0.125,0.25 h 0.212967 l 0.04451,0.03472 0.02728,0.04256 0.03667,0.114407 v 0.183773 l -0.03667,0.114406 -0.02728,0.04256 -0.04451,0.03472 h -0.212967 z"
       id="path488" />
    <path
       id="path494"
       style="color:#000000;fill:#000000;fill-opacity:1;stroke:none;stroke-width:0.25;stroke-linecap:butt;stroke-linejoin:miter;-inkscape-stroke:none"
       d="M 60.884921 50.9506 A 0.12501251 0.12501251 0 0 0 60.7702 51.026564 L 60.679249 51.239471 L 60.601218 51.361427 L 60.52267 51.422922 A 0.12500001 0.12500001 0 0 0 60.500965 51.598105 A 0.12500001 0.12500001 0 0 0 60.676665 51.619809 L 60.760381 51.55418 L 60.760381 52.510711 L 60.599667 52.510711 A 0.12500001 0.12500001 0 0 0 60.47461 52.635768 A 0.12500001 0.12500001 0 0 0 60.599667 52.760308 L 60.885438 52.760308 L 61.171209 52.760308 A 0.12500001 0.12500001 0 0 0 61.295749 52.635768 A 0.12500001 0.12500001 0 0 0 61.171209 52.510711 L 61.010495 52.510711 L 61.010495 51.075657 A 0.12501251 0.12501251 0 0 0 60.884921 50.9506 z " />
    <path
       id="path506"
       style="color:#000000;fill:#000000;fill-opacity:1;stroke:none;stroke-width:0.25;stroke-linecap:butt;stroke-linejoin:miter;-inkscape-stroke:none"
       d="M 61.790292 50.876186 A 0.12500001 0.12500001 0 0 0 61.667819 50.975404 L 61.429591 52.089548 A 0.12501251 0.12501251 0 0 0 61.552064 52.240443 L 61.902947 52.240443 L 61.902947 52.635768 A 0.12500001 0.12500001 0 0 0 62.028004 52.760308 A 0.12500001 0.12500001 0 0 0 62.153061 52.635768 L 62.153061 52.240443 L 62.171148 52.240443 A 0.12500001 0.12500001 0 0 0 62.296205 52.115386 A 0.12500001 0.12500001 0 0 0 62.171148 51.990329 L 62.153061 51.990329 L 62.153061 51.595521 A 0.12500001 0.12500001 0 0 0 62.028004 51.470465 A 0.12500001 0.12500001 0 0 0 61.902947 51.595521 L 61.902947 51.990329 L 61.706577 51.990329 L 61.912249 51.027597 A 0.12500001 0.12500001 0 0 0 61.816131 50.879286 A 0.12500001 0.12500001 0 0 0 61.790292 50.876186 z " />
    <path
       style="color:#000000;fill:#000000;fill-opacity:1;stroke:none;stroke-width:0.25;stroke-linecap:butt;stroke-linejoin:miter;-inkscape-stroke:none"
       d="m 59.790013,53.462157 a 0.12501251,0.12501251 0 0 0 -0.05767,0.0141 l -0.142857,0.07429 a 0.12501251,0.12501251 0 0 0 -0.04757,0.04344 l -0.09524,0.148571 a 0.12501251,0.12501251 0 0 0 -0.0138,0.02931 l -0.04762,0.148571 a 0.12501251,0.12501251 0 0 0 -0.0044,0.01837 l -0.04762,0.297143 a 0.12501251,0.12501251 0 0 0 -0.0016,0.01978 v 0.222857 a 0.12501251,0.12501251 0 0 0 0.0016,0.01978 l 0.04762,0.297143 a 0.12501251,0.12501251 0 0 0 0.0044,0.01837 l 0.04762,0.148572 a 0.12501251,0.12501251 0 0 0 0.0138,0.02931 l 0.09524,0.148571 a 0.12501251,0.12501251 0 0 0 0.04757,0.04344 l 0.142857,0.07429 a 0.12501251,0.12501251 0 0 0 0.05767,0.0141 h 0.09524 a 0.12501251,0.12501251 0 0 0 0.05767,-0.0141 l 0.142857,-0.07429 a 0.12501251,0.12501251 0 0 0 0.04757,-0.04344 l 0.04762,-0.07429 a 0.12501251,0.12501251 0 0 0 0.01976,-0.06746 v -0.520001 a 0.12501251,0.12501251 0 0 0 -0.125,-0.125 h -0.190476 a 0.12500001,0.12500001 0 0 0 -0.125,0.125 0.12500001,0.12500001 0 0 0 0.125,0.125 h 0.06548 v 0.358376 l -0.0099,0.01539 -0.08617,0.04481 h -0.03412 l -0.08617,-0.04481 -0.06843,-0.106755 -0.03974,-0.123998 -0.04454,-0.277964 v -0.202951 l 0.04454,-0.277964 0.03974,-0.123996 0.06843,-0.106755 0.08617,-0.04481 h 0.06931 l 0.06134,0.04785 a 0.12500001,0.12500001 0 0 0 0.175442,-0.02168 0.12500001,0.12500001 0 0 0 -0.02168,-0.175442 l -0.09524,-0.07429 a 0.12501251,0.12501251 0 0 0 -0.07688,-0.02644 z"
       id="path445" />
    <path
       style="color:#000000;fill:#000000;fill-opacity:1;stroke:none;stroke-width:0.25;stroke-linecap:butt;stroke-linejoin:miter;-inkscape-stroke:none"
       d="m 61.075727,53.462157 a 0.12500001,0.12500001 0 0 0 -0.125,0.125 v 0.855326 l -0.329055,-0.89832 a 0.12501251,0.12501251 0 0 0 -0.242373,0.04299 v 1.560001 a 0.12500001,0.12500001 0 0 0 0.125,0.125 0.12500001,0.12500001 0 0 0 0.125,-0.125 v -0.855327 l 0.329055,0.898321 a 0.12501251,0.12501251 0 0 0 0.242373,-0.04299 v -1.560001 a 0.12500001,0.12500001 0 0 0 -0.125,-0.125 z"
       id="path451" />
    <path
       style="color:#000000;fill:#000000;fill-opacity:1;stroke:none;stroke-width:0.25;stroke-linecap:butt;stroke-linejoin:miter;-inkscape-stroke:none"
       d="m 61.551918,53.462157 a 0.12501251,0.12501251 0 0 0 -0.125,0.125 v 1.560001 a 0.12500001,0.12500001 0 0 0 4e-6,9.97e-4 0.12500001,0.12500001 0 0 0 1.2e-5,9.96e-4 0.12500001,0.12500001 0 0 0 4.8e-5,0.002 0.12500001,0.12500001 0 0 0 3.5e-5,9.96e-4 0.12500001,0.12500001 0 0 0 4.4e-5,9.96e-4 0.12500001,0.12500001 0 0 0 1.11e-4,0.002 0.12500001,0.12500001 0 0 0 6.8e-5,9.95e-4 0.12500001,0.12500001 0 0 0 1.59e-4,0.002 0.12500001,0.12500001 0 0 0 1.9e-4,0.002 0.12500001,0.12500001 0 0 0 1.07e-4,9.91e-4 0.12500001,0.12500001 0 0 0 1.15e-4,9.9e-4 0.12500001,0.12500001 0 0 0 3.92e-4,0.003 0.12500001,0.12500001 0 0 0 0.0014,0.0079 0.12500001,0.12500001 0 0 0 2.09e-4,9.74e-4 0.12500001,0.12500001 0 0 0 2.16e-4,9.73e-4 0.12500001,0.12500001 0 0 0 4.57e-4,0.0019 0.12500001,0.12500001 0 0 0 2.4e-4,9.67e-4 0.12500001,0.12500001 0 0 0 2.48e-4,9.65e-4 0.12500001,0.12500001 0 0 0 2.55e-4,9.64e-4 0.12500001,0.12500001 0 0 0 5.34e-4,0.0019 0.12500001,0.12500001 0 0 0 2.79e-4,9.57e-4 0.12500001,0.12500001 0 0 0 5.79e-4,0.0019 0.12500001,0.12500001 0 0 0 6.1e-4,0.0019 0.12500001,0.12500001 0 0 0 3.16e-4,9.46e-4 0.12500001,0.12500001 0 0 0 3.24e-4,9.42e-4 0.12500001,0.12500001 0 0 0 3.32e-4,9.4e-4 0.12500001,0.12500001 0 0 0 6.85e-4,0.0019 0.12500001,0.12500001 0 0 0 3.53e-4,9.32e-4 0.12500001,0.12500001 0 0 0 3.61e-4,9.29e-4 0.12500001,0.12500001 0 0 0 0.0015,0.0037 0.12500001,0.12500001 0 0 0 0.0021,0.0045 0.12500001,0.12500001 0 0 0 4.34e-4,8.97e-4 0.12500001,0.12500001 0 0 0 4.41e-4,8.94e-4 0.12500001,0.12500001 0 0 0 9.03e-4,0.0018 0.12500001,0.12500001 0 0 0 4.63e-4,8.83e-4 0.12500001,0.12500001 0 0 0 4.69e-4,8.79e-4 0.12500001,0.12500001 0 0 0 0.0019,0.0035 0.12500001,0.12500001 0 0 0 5.04e-4,8.59e-4 0.12500001,0.12500001 0 0 0 10e-4,0.0017 0.12500001,0.12500001 0 0 0 0.0011,0.0017 0.12500001,0.12500001 0 0 0 0.0011,0.0017 0.12500001,0.12500001 0 0 0 5.52e-4,8.31e-4 0.12500001,0.12500001 0 0 0 0.0023,0.0033 0.12500001,0.12500001 0 0 0 0.0012,0.0016 0.12500001,0.12500001 0 0 0 5.96e-4,7.99e-4 0.12500001,0.12500001 0 0 0 6.03e-4,7.93e-4 0.12500001,0.12500001 0 0 0 0.0012,0.0016 0.12500001,0.12500001 0 0 0 6.22e-4,7.79e-4 0.12500001,0.12500001 0 0 0 0.0019,0.0023 0.12500001,0.12500001 0 0 0 6.46e-4,7.59e-4 0.12500001,0.12500001 0 0 0 6.53e-4,7.53e-4 0.12500001,0.12500001 0 0 0 6.58e-4,7.49e-4 0.12500001,0.12500001 0 0 0 0.0013,0.0015 0.12500001,0.12500001 0 0 0 0.0014,0.0015 0.12500001,0.12500001 0 0 0 0.0028,0.0029 0.12500001,0.12500001 0 0 0 0.0014,0.0014 0.12500001,0.12500001 0 0 0 0.0014,0.0014 0.12500001,0.12500001 0 0 0 0.0015,0.0013 0.12500001,0.12500001 0 0 0 7.43e-4,6.64e-4 0.12500001,0.12500001 0 0 0 0.0015,0.0013 0.12500001,0.12500001 0 0 0 0.0023,0.0019 0.12500001,0.12500001 0 0 0 0.0031,0.0025 0.12500001,0.12500001 0 0 0 7.93e-4,6.03e-4 0.12500001,0.12500001 0 0 0 7.99e-4,5.96e-4 0.12500001,0.12500001 0 0 0 0.0016,0.0012 0.12500001,0.12500001 0 0 0 0.0025,0.0017 0.12500001,0.12500001 0 0 0 0.0059,0.0038 0.12500001,0.12500001 0 0 0 0.0034,0.002 0.12500001,0.12500001 0 0 0 8.72e-4,4.84e-4 0.12500001,0.12500001 0 0 0 0.0018,9.45e-4 0.12500001,0.12500001 0 0 0 8.83e-4,4.63e-4 0.12500001,0.12500001 0 0 0 8.87e-4,4.55e-4 0.12500001,0.12500001 0 0 0 8.9e-4,4.48e-4 0.12500001,0.12500001 0 0 0 0.0018,8.75e-4 0.12500001,0.12500001 0 0 0 0.0018,8.47e-4 0.12500001,0.12500001 0 0 0 9.07e-4,4.12e-4 0.12500001,0.12500001 0 0 0 9.11e-4,4.05e-4 0.12500001,0.12500001 0 0 0 9.14e-4,3.98e-4 0.12500001,0.12500001 0 0 0 0.0018,7.74e-4 0.12500001,0.12500001 0 0 0 9.23e-4,3.76e-4 0.12500001,0.12500001 0 0 0 0.0028,0.0011 0.12500001,0.12500001 0 0 0 0.0028,0.001 0.12500001,0.12500001 0 0 0 9.42e-4,3.24e-4 0.12500001,0.12500001 0 0 0 9.46e-4,3.16e-4 0.12500001,0.12500001 0 0 0 0.0019,6.1e-4 0.12500001,0.12500001 0 0 0 9.53e-4,2.93e-4 0.12500001,0.12500001 0 0 0 0.0058,0.0016 0.12500001,0.12500001 0 0 0 9.67e-4,2.4e-4 0.12500001,0.12500001 0 0 0 0.0019,4.57e-4 0.12500001,0.12500001 0 0 0 0.0068,0.0014 0.12500001,0.12500001 0 0 0 0.003,4.63e-4 0.12500001,0.12500001 0 0 0 0.003,3.92e-4 0.12500001,0.12500001 0 0 0 0.002,2.22e-4 0.12500001,0.12500001 0 0 0 9.92e-4,9.9e-5 0.12500001,0.12500001 0 0 0 9.92e-4,9.2e-5 0.12500001,0.12500001 0 0 0 0.002,1.58e-4 0.12500001,0.12500001 0 0 0 9.95e-4,6.8e-5 0.12500001,0.12500001 0 0 0 0.005,2.18e-4 0.12500001,0.12500001 0 0 0 0.002,3.2e-5 0.12500001,0.12500001 0 0 0 9.97e-4,4e-6 h 0.238095 a 0.12501251,0.12501251 0 0 0 0.05767,-0.0141 l 0.142857,-0.07429 a 0.12501251,0.12501251 0 0 0 0.04757,-0.04344 l 0.09524,-0.148571 a 0.12501251,0.12501251 0 0 0 0.0138,-0.02931 l 0.04762,-0.148572 a 0.12501251,0.12501251 0 0 0 0.0044,-0.01837 l 0.04762,-0.297143 a 0.12501251,0.12501251 0 0 0 0.0016,-0.01978 v -0.222857 a 0.12501251,0.12501251 0 0 0 -0.0016,-0.01978 l -0.04762,-0.297143 a 0.12501251,0.12501251 0 0 0 -0.0044,-0.01837 l -0.04762,-0.148571 a 0.12501251,0.12501251 0 0 0 -0.0138,-0.02931 l -0.09524,-0.148571 a 0.12501251,0.12501251 0 0 0 -0.04757,-0.04344 l -0.142857,-0.07429 a 0.12501251,0.12501251 0 0 0 -0.05767,-0.0141 z m 0.125,0.25 h 0.08254 l 0.08617,0.04481 0.06843,0.106755 0.03974,0.123996 0.04454,0.277964 v 0.202951 l -0.04454,0.277964 -0.03974,0.123998 -0.06843,0.106755 -0.08617,0.04481 h -0.08254 z"
       id="path457" />
    <path
       style="color:#000000;fill:#000000;fill-opacity:1;stroke:none;stroke-width:0.25;stroke-linecap:butt;stroke-linejoin:miter;-inkscape-stroke:none"
       d="m 59.647156,55.973758 a 0.12501251,0.12501251 0 0 0 -0.125,0.125 v 0.817143 0.742857 a 0.12500001,0.12500001 0 0 0 0.125,0.125 0.12500001,0.12500001 0 0 0 0.125,-0.125 v -0.617857 h 0.255952 a 0.12501251,0.12501251 0 0 0 0.07688,-0.02644 l 0.09524,-0.07429 a 0.12501251,0.12501251 0 0 0 0.02836,-0.03111 l 0.04762,-0.07429 a 0.12501251,0.12501251 0 0 0 0.0138,-0.02931 l 0.04762,-0.148571 a 0.12501251,0.12501251 0 0 0 0.006,-0.03815 v -0.222857 a 0.12501251,0.12501251 0 0 0 -0.006,-0.03815 L 60.29,56.209177 a 0.12501251,0.12501251 0 0 0 -0.0138,-0.02931 l -0.04762,-0.07429 a 0.12501251,0.12501251 0 0 0 -0.02836,-0.0311 l -0.09524,-0.07429 a 0.12501251,0.12501251 0 0 0 -0.07688,-0.02644 z m 0.125,0.25 h 0.212967 l 0.04451,0.03472 0.02728,0.04256 0.03667,0.114407 v 0.183773 l -0.03667,0.114406 -0.02728,0.04256 -0.04451,0.03472 h -0.212967 z"
       id="path396" />
    <path
       id="path402"
       style="color:#000000;fill:#000000;fill-opacity:1;stroke:none;stroke-width:0.25;stroke-linecap:butt;stroke-linejoin:miter;-inkscape-stroke:none"
       d="M 60.884921 55.973549 A 0.12501251 0.12501251 0 0 0 60.7702 56.049513 L 60.679249 56.262937 L 60.601218 56.384893 L 60.52267 56.445871 A 0.12500001 0.12500001 0 0 0 60.500965 56.621571 A 0.12500001 0.12500001 0 0 0 60.676665 56.643275 L 60.760381 56.577646 L 60.760381 57.53366 L 60.599667 57.53366 A 0.12500001 0.12500001 0 0 0 60.47461 57.658717 A 0.12500001 0.12500001 0 0 0 60.599667 57.783774 L 60.885438 57.783774 L 61.171209 57.783774 A 0.12500001 0.12500001 0 0 0 61.295749 57.658717 A 0.12500001 0.12500001 0 0 0 61.171209 57.53366 L 61.010495 57.53366 L 61.010495 56.098606 A 0.12501251 0.12501251 0 0 0 60.884921 55.973549 z " />
    <path
       style="color:#000000;fill:#000000;fill-opacity:1;stroke:none;stroke-width:0.25;stroke-linecap:butt;stroke-linejoin:miter;-inkscape-stroke:none"
       d="m 61.599537,55.973758 a 0.12501251,0.12501251 0 0 0 -0.124744,0.117004 l -0.04762,0.742857 a 0.12501251,0.12501251 0 0 0 0.229979,0.07545 l 0.0361,-0.05631 0.04451,-0.03472 h 0.152125 l 0.04451,0.03472 0.02728,0.04256 0.03667,0.114406 v 0.332345 l -0.03667,0.114406 -0.02728,0.04256 -0.04451,0.03472 H 61.73776 l -0.04451,-0.03472 -0.0361,-0.05631 a 0.12500001,0.12500001 0 0 0 -0.172693,-0.03778 0.12500001,0.12500001 0 0 0 -0.03778,0.172693 l 0.04762,0.07429 a 0.12501251,0.12501251 0 0 0 0.02836,0.0311 l 0.09524,0.07429 a 0.12501251,0.12501251 0 0 0 0.07688,0.02644 h 0.238095 a 0.12501251,0.12501251 0 0 0 0.07688,-0.02644 l 0.09524,-0.07429 a 0.12501251,0.12501251 0 0 0 0.02836,-0.0311 l 0.04762,-0.07429 a 0.12501251,0.12501251 0 0 0 0.0138,-0.02931 l 0.04762,-0.148571 a 0.12501251,0.12501251 0 0 0 0.006,-0.03815 v -0.371429 a 0.12501251,0.12501251 0 0 0 -0.006,-0.03815 l -0.04762,-0.148571 a 0.12501251,0.12501251 0 0 0 -0.0138,-0.02931 l -0.04762,-0.07429 a 0.12501251,0.12501251 0 0 0 -0.02836,-0.03111 l -0.09524,-0.07428 a 0.12501251,0.12501251 0 0 0 -0.07688,-0.02644 h -0.238095 a 0.12501251,0.12501251 0 0 0 -6.4e-5,0 l 0.02207,-0.344286 h 0.358946 a 0.12500001,0.12500001 0 0 0 0.125,-0.125 0.12500001,0.12500001 0 0 0 -0.125,-0.125 z"
       id="path414" />
    <path
       style="color:#000000;fill:#000000;fill-opacity:1;stroke:none;stroke-width:0.25;stroke-linecap:butt;stroke-linejoin:miter;-inkscape-stroke:none"
       d="m 59.694775,58.485358 a 0.12500001,0.12500001 0 0 0 -0.125,0.125 0.12500001,0.12500001 0 0 0 0.125,0.125 h 0.405615 l -0.228922,0.408136 a 0.12501251,0.12501251 0 0 0 0.109021,0.18615 h 0.09987 l 0.04451,0.03472 0.02728,0.04256 0.03667,0.114407 v 0.332343 l -0.03667,0.114407 -0.02728,0.04256 -0.04451,0.03472 h -0.199744 l -0.04451,-0.03472 -0.0361,-0.05631 a 0.12500001,0.12500001 0 0 0 -0.172693,-0.03778 0.12500001,0.12500001 0 0 0 -0.03778,0.172693 l 0.04762,0.07429 a 0.12501251,0.12501251 0 0 0 0.02836,0.0311 l 0.09524,0.07429 a 0.12501251,0.12501251 0 0 0 0.07688,0.02644 h 0.285714 a 0.12501251,0.12501251 0 0 0 0.07688,-0.02644 l 0.09524,-0.07429 a 0.12501251,0.12501251 0 0 0 0.02836,-0.0311 l 0.04762,-0.07429 a 0.12501251,0.12501251 0 0 0 0.0138,-0.02931 l 0.04762,-0.148571 a 0.12501251,0.12501251 0 0 0 0.006,-0.03815 v -0.371429 a 0.12501251,0.12501251 0 0 0 -0.006,-0.03815 l -0.04762,-0.148571 a 0.12501251,0.12501251 0 0 0 -0.0138,-0.02931 l -0.04762,-0.07429 a 0.12501251,0.12501251 0 0 0 -0.02836,-0.03111 l -0.09524,-0.07428 a 0.12501251,0.12501251 0 0 0 -0.01538,-0.01026 l 0.237997,-0.424314 a 0.12501251,0.12501251 0 0 0 -0.109021,-0.18615 z"
       id="path353" />
    <path
       style="color:#000000;fill:#000000;fill-opacity:1;stroke:none;stroke-width:0.25;stroke-linecap:butt;stroke-linejoin:miter;-inkscape-stroke:none"
       d="m 60.599137,58.485359 a 0.12500001,0.12500001 0 0 0 -0.02572,0.0028 0.12500001,0.12500001 0 0 0 -0.09612,0.148361 l 0.333333,1.56 a 0.12501251,0.12501251 0 0 0 0.244482,0 l 0.333333,-1.56 a 0.12500001,0.12500001 0 0 0 -0.09612,-0.148361 0.12500001,0.12500001 0 0 0 -0.148361,0.09612 l -0.211092,0.987914 -0.211092,-0.987914 a 0.12500001,0.12500001 0 0 0 -0.122641,-0.09888 z"
       id="path359" />
    <path
       style="color:#000000;fill:#000000;fill-opacity:1;stroke:none;stroke-width:0.25;stroke-linecap:butt;stroke-linejoin:miter;-inkscape-stroke:none"
       d="m 61.504299,58.485358 a 0.12500001,0.12500001 0 0 0 -0.125,0.125 0.12500001,0.12500001 0 0 0 0.125,0.125 h 0.405615 l -0.228923,0.408136 a 0.12501251,0.12501251 0 0 0 0.109022,0.18615 h 0.09987 l 0.04451,0.03472 0.02728,0.04256 0.03667,0.114406 v 0.332345 l -0.03667,0.114406 -0.02728,0.04256 -0.04451,0.03472 h -0.199744 l -0.04451,-0.03472 -0.0361,-0.05631 a 0.12500001,0.12500001 0 0 0 -0.172693,-0.03778 0.12500001,0.12500001 0 0 0 -0.03778,0.172693 l 0.04762,0.07429 a 0.12501251,0.12501251 0 0 0 0.02836,0.0311 l 0.09524,0.07429 a 0.12501251,0.12501251 0 0 0 0.07688,0.02644 h 0.285714 a 0.12501251,0.12501251 0 0 0 0.07688,-0.02644 l 0.09524,-0.07429 a 0.12501251,0.12501251 0 0 0 0.02836,-0.0311 l 0.04762,-0.07429 a 0.12501251,0.12501251 0 0 0 0.0138,-0.02931 l 0.04762,-0.148571 a 0.12501251,0.12501251 0 0 0 0.006,-0.03815 v -0.371429 a 0.12501251,0.12501251 0 0 0 -0.006,-0.03815 l -0.04762,-0.148571 a 0.12501251,0.12501251 0 0 0 -0.0138,-0.02931 l -0.04762,-0.07429 a 0.12501251,0.12501251 0 0 0 -0.02836,-0.03111 l -0.09524,-0.07428 a 0.12501251,0.12501251 0 0 0 -0.01538,-0.01026 l 0.237997,-0.424314 a 0.12501251,0.12501251 0 0 0 -0.109022,-0.18615 z"
       id="path365" />
  </g>
</svg>
