<?xml version="1.0" encoding="UTF-8" standalone="no"?>
<!-- Created with Inkscape (http://www.inkscape.org/) -->

<svg
   width="3.5348201mm"
   height="39.829342mm"
   viewBox="0 0 3.5348201 39.829342"
   version="1.1"
   id="svg5"
   inkscape:version="1.2 (dc2aeda, 2022-05-15)"
   sodipodi:docname="pins.svg"
   inkscape:export-filename="./pins.png"
   inkscape:export-xdpi="1200"
   inkscape:export-ydpi="1200"
   xmlns:inkscape="http://www.inkscape.org/namespaces/inkscape"
   xmlns:sodipodi="http://sodipodi.sourceforge.net/DTD/sodipodi-0.dtd"
   xmlns="http://www.w3.org/2000/svg"
   xmlns:svg="http://www.w3.org/2000/svg">
  <sodipodi:namedview
     id="namedview7"
     pagecolor="#ffffff"
     bordercolor="#666666"
     borderopacity="1.0"
     inkscape:showpageshadow="2"
     inkscape:pageopacity="0.0"
     inkscape:pagecheckerboard="0"
     inkscape:deskcolor="#d1d1d1"
     inkscape:document-units="mm"
     showgrid="true"
     inkscape:zoom="13.455443"
     inkscape:cx="2.6383375"
     inkscape:cy="110.62438"
     inkscape:window-width="1201"
     inkscape:window-height="823"
     inkscape:window-x="26"
     inkscape:window-y="25"
     inkscape:window-maximized="0"
     inkscape:current-layer="layer1">
    <inkscape:grid
       type="xygrid"
       id="grid264"
       units="in"
       spacingy="2.54"
       originx="-0.047025"
       originy="-0.36274198" />
  </sodipodi:namedview>
  <defs
     id="defs2" />
  <g
     inkscape:label="圖層 1"
     inkscape:groupmode="layer"
     id="layer1"
     transform="translate(-59.108285,-21.174096)">
    <path
       id="rect404"
       style="fill:#000000;stroke-width:0.1;stroke-linecap:round"
       d="m 59.131939,54.04769 v 2.359545 h 3.40186 V 54.04769 Z m 0.534851,0.318326 h 0.380856 a 0.12501251,0.12501251 0 0 1 0.077,0.02636 l 0.09508,0.07441 a 0.12501251,0.12501251 0 0 1 0.02842,0.03101 l 0.04754,0.07441 a 0.12501251,0.12501251 0 0 1 0.01395,0.02894 l 0.04754,0.148828 a 0.12501251,0.12501251 0 0 1 0.0062,0.03824 v 0.222725 a 0.12501251,0.12501251 0 0 1 -0.0062,0.03824 l -0.04754,0.148311 a 0.12501251,0.12501251 0 0 1 -0.01395,0.02946 l -0.04754,0.07441 a 0.12501251,0.12501251 0 0 1 -0.02842,0.03101 l -0.09508,0.07441 a 0.12501251,0.12501251 0 0 1 -0.077,0.02635 h -0.255799 v 0.617533 A 0.12500001,0.12500001 0 0 1 59.66679,56.17572 0.12500001,0.12500001 0 0 1 59.541733,56.050663 v -0.74259 -0.817005 a 0.12501251,0.12501251 0 0 1 0.125057,-0.125057 z m 1.095024,0 h 0.238228 a 0.12501251,0.12501251 0 0 1 0.077,0.02636 l 0.09509,0.07441 a 0.12501251,0.12501251 0 0 1 0.02842,0.03101 l 0.04754,0.07441 a 0.12501251,0.12501251 0 0 1 0.01395,0.02894 l 0.04754,0.148828 a 0.12501251,0.12501251 0 0 1 0.0062,0.03824 v 0.148311 a 0.12501251,0.12501251 0 0 1 -0.0031,0.02635 l -0.04754,0.222726 a 0.12501251,0.12501251 0 0 1 -0.01705,0.04134 l -0.448034,0.699182 h 0.390673 a 0.12500001,0.12500001 0 0 1 0.125057,0.12454 0.12500001,0.12500001 0 0 1 -0.125057,0.125057 h -0.619083 a 0.12501251,0.12501251 0 0 1 -0.10542,-0.192236 l 0.559139,-0.872298 0.04031,-0.187586 v -0.116272 l -0.03669,-0.114205 -0.02739,-0.04237 -0.04444,-0.03462 h -0.151929 l -0.04444,0.03462 -0.03617,0.05633 a 0.12500001,0.12500001 0 0 1 -0.173116,0.03772 0.12500001,0.12500001 0 0 1 -0.03772,-0.1726 l 0.04806,-0.07441 a 0.12501251,0.12501251 0 0 1 0.02791,-0.03101 l 0.0956,-0.07441 a 0.12501251,0.12501251 0 0 1 0.07648,-0.02636 z m 1.000456,0 h 0.190169 a 0.12501251,0.12501251 0 0 1 0.077,0.02636 l 0.09508,0.07441 a 0.12501251,0.12501251 0 0 1 0.02842,0.03101 l 0.04754,0.07441 a 0.12501251,0.12501251 0 0 1 0.01395,0.02894 l 0.04754,0.148828 a 0.12501251,0.12501251 0 0 1 0.0062,0.03824 v 0.0739 a 0.12501251,0.12501251 0 0 1 -0.0062,0.03824 l -0.04754,0.148828 a 0.12501251,0.12501251 0 0 1 -0.01395,0.02894 l -0.04754,0.07441 a 0.12501251,0.12501251 0 0 1 -0.0047,0.0067 0.12501251,0.12501251 0 0 1 0.0047,0.0072 l 0.04754,0.0739 a 0.12501251,0.12501251 0 0 1 0.01395,0.02945 l 0.04754,0.148828 a 0.12501251,0.12501251 0 0 1 0.0062,0.03772 v 0.29714 a 0.12501251,0.12501251 0 0 1 -0.0062,0.03824 l -0.04754,0.148828 a 0.12501251,0.12501251 0 0 1 -0.01395,0.02894 l -0.04754,0.07441 a 0.12501251,0.12501251 0 0 1 -0.02842,0.03101 l -0.09508,0.07441 a 0.12501251,0.12501251 0 0 1 -0.077,0.02635 H 61.76227 a 0.12501251,0.12501251 0 0 1 -0.077,-0.02635 l -0.09508,-0.07441 a 0.12501251,0.12501251 0 0 1 -0.02842,-0.03101 l -0.04806,-0.07441 a 0.12501251,0.12501251 0 0 1 -0.01344,-0.02894 L 61.45273,55.79171 a 0.12501251,0.12501251 0 0 1 -0.0062,-0.03824 v -0.29714 a 0.12501251,0.12501251 0 0 1 0.0062,-0.03772 l 0.04754,-0.148828 a 0.12501251,0.12501251 0 0 1 0.01344,-0.02945 l 0.04806,-0.0739 a 0.12501251,0.12501251 0 0 1 0.0047,-0.0072 0.12501251,0.12501251 0 0 1 -0.0047,-0.0067 l -0.04806,-0.07441 a 0.12501251,0.12501251 0 0 1 -0.01344,-0.02894 l -0.04754,-0.148828 a 0.12501251,0.12501251 0 0 1 -0.0062,-0.03824 v -0.0739 a 0.12501251,0.12501251 0 0 1 0.0062,-0.03824 l 0.04754,-0.148828 a 0.12501251,0.12501251 0 0 1 0.01344,-0.02894 l 0.04806,-0.07441 a 0.12501251,0.12501251 0 0 1 0.02842,-0.03101 l 0.09508,-0.07441 a 0.12501251,0.12501251 0 0 1 0.077,-0.02636 z m -1.970423,0.250114 v 0.566891 h 0.212907 l 0.04444,-0.03462 0.02739,-0.04289 0.03669,-0.114205 v -0.183968 l -0.03669,-0.114205 -0.02739,-0.04237 -0.04444,-0.03462 z m 2.013314,0 -0.04444,0.03462 -0.02739,0.04237 -0.03669,0.114205 v 0.03566 l 0.03669,0.114205 0.02739,0.04237 0.04444,0.03462 h 0.104387 l 0.04444,-0.03462 0.02739,-0.04237 0.03669,-0.114205 v -0.03566 l -0.03669,-0.114205 -0.02739,-0.04237 -0.04444,-0.03462 z m 0,0.668177 -0.04444,0.03462 -0.02739,0.04289 -0.03669,0.114205 v 0.258382 l 0.03669,0.114205 0.02739,0.04237 0.04444,0.03514 h 0.104387 l 0.04444,-0.03514 0.02739,-0.04237 0.03669,-0.114205 v -0.258382 l -0.03669,-0.114205 -0.02739,-0.04289 -0.04444,-0.03462 z" />
    <g
       id="g335" />
    <path
       id="rect444"
       style="font-variation-settings:'wght' 700;fill:#000000;fill-opacity:1;stroke:none;stroke-width:0.1;stroke-linecap:round;stroke-dasharray:none;stroke-opacity:1"
       d="m 59.260883,41.280253 v 2.468067 h 3.382222 v -2.468067 z m 0.517281,0.384473 h 0.380855 a 0.12501251,0.12501251 0 0 1 0.077,0.02635 l 0.09508,0.07441 a 0.12501251,0.12501251 0 0 1 0.02842,0.03101 l 0.04754,0.07441 a 0.12501251,0.12501251 0 0 1 0.01395,0.02946 l 0.04754,0.148311 a 0.12501251,0.12501251 0 0 1 0.0062,0.03824 v 0.222726 a 0.12501251,0.12501251 0 0 1 -0.0062,0.03824 l -0.04754,0.148829 a 0.12501251,0.12501251 0 0 1 -0.01395,0.02894 l -0.04754,0.07441 a 0.12501251,0.12501251 0 0 1 -0.02842,0.03101 l -0.09508,0.07441 a 0.12501251,0.12501251 0 0 1 -0.077,0.02636 h -0.255798 v 0.61805 a 0.12500001,0.12500001 0 0 1 -0.125057,0.125057 0.12500001,0.12500001 0 0 1 -0.125057,-0.125057 v -0.743107 -0.817004 a 0.12501251,0.12501251 0 0 1 0.125057,-0.125057 z m 1.095023,0 h 0.238229 a 0.12501251,0.12501251 0 0 1 0.077,0.02635 l 0.09508,0.07441 a 0.12501251,0.12501251 0 0 1 0.02842,0.03101 l 0.04754,0.07441 a 0.12501251,0.12501251 0 0 1 0.01395,0.02946 l 0.04754,0.148311 a 0.12501251,0.12501251 0 0 1 0.0062,0.03824 v 0.148829 a 0.12501251,0.12501251 0 0 1 -0.0031,0.02584 l -0.04754,0.222725 a 0.12501251,0.12501251 0 0 1 -0.01705,0.04134 l -0.448035,0.699183 h 0.390674 a 0.12500001,0.12500001 0 0 1 0.12454,0.125056 0.12500001,0.12500001 0 0 1 -0.12454,0.125057 h -0.619084 a 0.12501251,0.12501251 0 0 1 -0.10542,-0.192753 l 0.559139,-0.872298 0.04031,-0.187585 v -0.115755 l -0.03669,-0.114205 -0.02739,-0.04289 -0.04444,-0.03462 h -0.152445 l -0.04444,0.03462 -0.03617,0.05633 a 0.12500001,0.12500001 0 0 1 -0.1726,0.03772 0.12500001,0.12500001 0 0 1 -0.03772,-0.172599 l 0.04754,-0.07441 a 0.12501251,0.12501251 0 0 1 0.02842,-0.03101 l 0.09508,-0.07441 a 0.12501251,0.12501251 0 0 1 0.077,-0.02635 z m 1.095541,0 h 0.190169 a 0.12500001,0.12500001 0 0 1 0.125057,0.125057 0.12500001,0.12500001 0 0 1 -0.125057,0.125057 h -0.147278 l -0.04444,0.03462 -0.03049,0.04754 -0.08527,0.198955 -0.01085,0.0677 a 0.12501251,0.12501251 0 0 1 0.03256,-0.0047 h 0.190686 a 0.12501251,0.12501251 0 0 1 0.077,0.02635 l 0.09508,0.07441 a 0.12501251,0.12501251 0 0 1 0.02842,0.03101 l 0.04754,0.07441 a 0.12501251,0.12501251 0 0 1 0.01395,0.02946 l 0.04754,0.148311 a 0.12501251,0.12501251 0 0 1 0.0057,0.03824 V 43.0527 a 0.12501251,0.12501251 0 0 1 -0.0057,0.03824 l -0.04754,0.148311 a 0.12501251,0.12501251 0 0 1 -0.01395,0.02946 l -0.04754,0.07441 a 0.12501251,0.12501251 0 0 1 -0.02842,0.03101 l -0.09508,0.07441 a 0.12501251,0.12501251 0 0 1 -0.077,0.02635 h -0.190689 a 0.12501251,0.12501251 0 0 1 -0.07648,-0.02635 l -0.0956,-0.07441 a 0.12501251,0.12501251 0 0 1 -0.02842,-0.03101 l -0.04754,-0.07441 a 0.12501251,0.12501251 0 0 1 -0.01395,-0.02946 l -0.04754,-0.148311 a 0.12501251,0.12501251 0 0 1 -0.0057,-0.03824 v -0.594279 a 0.12501251,0.12501251 0 0 1 0.0015,-0.01964 l 0.04754,-0.29714 a 0.12501251,0.12501251 0 0 1 0.0083,-0.02945 l 0.0956,-0.222726 a 0.12501251,0.12501251 0 0 1 0.0098,-0.0186 l 0.04754,-0.07441 a 0.12501251,0.12501251 0 0 1 0.02842,-0.03101 l 0.09508,-0.07441 a 0.12501251,0.12501251 0 0 1 0.077,-0.02635 z m -2.065507,0.250114 v 0.56689 h 0.212907 l 0.04444,-0.03462 0.02739,-0.04237 0.03669,-0.114205 v -0.183968 l -0.03669,-0.114205 -0.02739,-0.04289 -0.04444,-0.03462 z m 2.012797,0.594279 -0.04444,0.03462 -0.02687,0.04289 -0.03669,0.114204 v 0.33228 l 0.03669,0.114205 0.02687,0.04289 0.04444,0.03462 h 0.104903 l 0.04444,-0.03462 0.02739,-0.04289 0.03669,-0.114205 v -0.33228 l -0.03669,-0.114204 -0.02739,-0.04289 -0.04444,-0.03462 z" />
    <path
       id="rect1054"
       style="font-variation-settings:'wght' 700;fill:#000000;fill-opacity:1;stroke:none;stroke-width:0.1;stroke-linecap:round;stroke-dasharray:none;stroke-opacity:1"
       d="m 59.205266,46.398247 v 2.418457 h 3.401859 v -2.418457 z m 0.517281,0.365869 h 0.380855 a 0.12501251,0.12501251 0 0 1 0.077,0.02636 l 0.09508,0.07441 a 0.12501251,0.12501251 0 0 1 0.02842,0.03101 l 0.04754,0.07441 a 0.12501251,0.12501251 0 0 1 0.01395,0.02894 l 0.04754,0.148828 a 0.12501251,0.12501251 0 0 1 0.0062,0.03824 v 0.222726 a 0.12501251,0.12501251 0 0 1 -0.0062,0.03824 l -0.04754,0.148312 a 0.12501251,0.12501251 0 0 1 -0.01395,0.02945 l -0.04754,0.07441 a 0.12501251,0.12501251 0 0 1 -0.02842,0.03101 l -0.09508,0.07441 a 0.12501251,0.12501251 0 0 1 -0.077,0.02636 h -0.255798 v 0.617535 a 0.12500001,0.12500001 0 0 1 -0.125057,0.125057 0.12500001,0.12500001 0 0 1 -0.125057,-0.125057 v -0.74259 -0.817004 a 0.12501251,0.12501251 0 0 1 0.125057,-0.125057 z m 1.095023,0 h 0.238229 a 0.12501251,0.12501251 0 0 1 0.077,0.02636 l 0.09508,0.07441 a 0.12501251,0.12501251 0 0 1 0.02842,0.03101 l 0.04754,0.07441 a 0.12501251,0.12501251 0 0 1 0.01395,0.02894 l 0.04754,0.148828 a 0.12501251,0.12501251 0 0 1 0.0062,0.03824 v 0.148312 a 0.12501251,0.12501251 0 0 1 -0.0031,0.02635 l -0.04754,0.222725 a 0.12501251,0.12501251 0 0 1 -0.01705,0.04134 l -0.448035,0.698666 h 0.390674 a 0.12500001,0.12500001 0 0 1 0.12454,0.125056 0.12500001,0.12500001 0 0 1 -0.12454,0.125057 h -0.619084 a 0.12501251,0.12501251 0 0 1 -0.10542,-0.192236 l 0.559139,-0.872298 0.04031,-0.187586 v -0.116271 l -0.03669,-0.114205 -0.02739,-0.04237 -0.04444,-0.03514 h -0.152445 l -0.04444,0.03514 -0.03617,0.05633 a 0.12500001,0.12500001 0 0 1 -0.1726,0.03772 0.12500001,0.12500001 0 0 1 -0.03772,-0.172599 l 0.04754,-0.07441 a 0.12501251,0.12501251 0 0 1 0.02842,-0.03101 l 0.09508,-0.07441 a 0.12501251,0.12501251 0 0 1 0.077,-0.02636 z m 0.762228,0 h 0.666626 a 0.12501251,0.12501251 0 0 1 0.120406,0.15813 l -0.428398,1.559594 a 0.12500001,0.12500001 0 0 1 -0.153996,0.08785 0.12500001,0.12500001 0 0 1 -0.08733,-0.153995 l 0.38499,-1.401982 h -0.502295 a 0.12500001,0.12500001 0 0 1 -0.125057,-0.12454 0.12500001,0.12500001 0 0 1 0.125057,-0.125057 z m -1.732194,0.249597 v 0.567407 h 0.212907 l 0.04444,-0.03462 0.02739,-0.04289 0.03669,-0.114205 v -0.183968 l -0.03669,-0.114205 -0.02739,-0.04237 -0.04444,-0.03514 z" />
    <path
       id="rect3207"
       style="fill:#000000;stroke-width:0.1;stroke-linecap:round"
       d="m 59.108285,23.371638 v 2.391585 h 3.392557 v -2.391585 z m 0.526066,0.219108 h 0.380855 a 0.12501251,0.12501251 0 0 1 0.077,0.02635 l 0.09508,0.07441 a 0.12501251,0.12501251 0 0 1 0.02842,0.03101 l 0.04754,0.07441 a 0.12501251,0.12501251 0 0 1 0.01395,0.02894 l 0.04754,0.148828 a 0.12501251,0.12501251 0 0 1 0.0057,0.03824 v 0.222726 a 0.12501251,0.12501251 0 0 1 -0.0057,0.03824 l -0.04754,0.148312 a 0.12501251,0.12501251 0 0 1 -0.01395,0.02945 l -0.04754,0.07441 a 0.12501251,0.12501251 0 0 1 -0.02842,0.03101 l -0.09508,0.07441 a 0.12501251,0.12501251 0 0 1 -0.077,0.02636 h -0.255798 v 0.617534 a 0.12500001,0.12500001 0 0 1 -0.125057,0.125057 0.12500001,0.12500001 0 0 1 -0.125057,-0.125057 v -0.742591 -0.817004 a 0.12501251,0.12501251 0 0 1 0.125057,-0.125057 z m 1.23765,0 a 0.12501251,0.12501251 0 0 1 0.125574,0.125057 v 1.434538 h 0.160714 a 0.12500001,0.12500001 0 0 1 0.12454,0.125057 0.12500001,0.12500001 0 0 1 -0.12454,0.125057 h -0.285771 -0.285771 a 0.12500001,0.12500001 0 0 1 -0.125057,-0.125057 0.12500001,0.12500001 0 0 1 0.125057,-0.125057 h 0.160714 v -0.956014 l -0.08372,0.06563 a 0.12500001,0.12500001 0 0 1 -0.1757,-0.0217 0.12500001,0.12500001 0 0 1 0.0217,-0.1757 l 0.07855,-0.06098 0.07803,-0.121957 0.09095,-0.212907 a 0.12501251,0.12501251 0 0 1 0.114721,-0.07596 z m 0.952914,0 h 0.190169 a 0.12500001,0.12500001 0 0 1 0.125057,0.125057 0.12500001,0.12500001 0 0 1 -0.125057,0.12454 h -0.147278 l -0.04444,0.03514 -0.03049,0.04754 -0.08527,0.198955 -0.01085,0.06718 a 0.12501251,0.12501251 0 0 1 0.03256,-0.0041 h 0.190686 a 0.12501251,0.12501251 0 0 1 0.077,0.02635 l 0.09508,0.07441 a 0.12501251,0.12501251 0 0 1 0.02842,0.03101 l 0.04754,0.07441 a 0.12501251,0.12501251 0 0 1 0.01395,0.02894 l 0.04754,0.148828 a 0.12501251,0.12501251 0 0 1 0.0057,0.03824 v 0.371037 a 0.12501251,0.12501251 0 0 1 -0.0057,0.03824 l -0.04754,0.148828 a 0.12501251,0.12501251 0 0 1 -0.01395,0.02894 l -0.04754,0.07441 a 0.12501251,0.12501251 0 0 1 -0.02842,0.03101 l -0.09508,0.07441 a 0.12501251,0.12501251 0 0 1 -0.077,0.02636 h -0.190689 a 0.12501251,0.12501251 0 0 1 -0.07648,-0.02636 l -0.0956,-0.07441 a 0.12501251,0.12501251 0 0 1 -0.02842,-0.03101 l -0.04754,-0.07441 a 0.12501251,0.12501251 0 0 1 -0.01344,-0.02894 l -0.04806,-0.148828 a 0.12501251,0.12501251 0 0 1 -0.0057,-0.03824 v -0.594279 a 0.12501251,0.12501251 0 0 1 0.0015,-0.01964 l 0.04754,-0.297139 a 0.12501251,0.12501251 0 0 1 0.0083,-0.02946 l 0.0956,-0.222725 a 0.12501251,0.12501251 0 0 1 0.0098,-0.01809 l 0.04754,-0.07441 a 0.12501251,0.12501251 0 0 1 0.02842,-0.03101 l 0.09508,-0.07441 a 0.12501251,0.12501251 0 0 1 0.077,-0.02635 z m -2.065507,0.249597 v 0.567407 h 0.212907 l 0.04444,-0.03462 0.02739,-0.04289 0.03669,-0.114205 v -0.183968 l -0.03669,-0.114205 -0.02739,-0.04237 -0.04444,-0.03514 z m 2.012797,0.594279 -0.04444,0.03514 -0.02687,0.04237 -0.03669,0.114205 v 0.332796 l 0.03669,0.114205 0.02687,0.04237 0.04444,0.03462 h 0.104903 l 0.04444,-0.03462 0.02739,-0.04237 0.03669,-0.114205 v -0.332791 l -0.03669,-0.114205 -0.02739,-0.04237 -0.04444,-0.03514 z" />
    <path
       id="rect3205"
       style="fill:#000000;stroke-width:0.1;stroke-linecap:round"
       d="m 59.196215,28.504689 v 2.391585 h 3.393075 v -2.391585 z m 0.526066,0.359151 h 0.380856 a 0.12501251,0.12501251 0 0 1 0.077,0.02687 l 0.0956,0.0739 a 0.12501251,0.12501251 0 0 1 0.0279,0.03101 l 0.04806,0.07441 a 0.12501251,0.12501251 0 0 1 0.01344,0.02946 l 0.04754,0.148311 a 0.12501251,0.12501251 0 0 1 0.0062,0.03824 v 0.223242 a 0.12501251,0.12501251 0 0 1 -0.0062,0.03772 l -0.04754,0.148828 a 0.12501251,0.12501251 0 0 1 -0.01344,0.02945 l -0.04806,0.0739 a 0.12501251,0.12501251 0 0 1 -0.0279,0.03152 l -0.0956,0.0739 a 0.12501251,0.12501251 0 0 1 -0.077,0.02636 h -0.255799 v 0.61805 a 0.12500001,0.12500001 0 0 1 -0.125057,0.125057 0.12500001,0.12500001 0 0 1 -0.125057,-0.125057 v -0.742593 -0.817521 a 0.12501251,0.12501251 0 0 1 0.125057,-0.125057 z m 1.095541,0 h 0.237711 a 0.12501251,0.12501251 0 0 1 0.077,0.02687 l 0.0956,0.0739 a 0.12501251,0.12501251 0 0 1 0.02791,0.03101 l 0.04806,0.07441 a 0.12501251,0.12501251 0 0 1 0.01344,0.02946 l 0.04754,0.148311 a 0.12501251,0.12501251 0 0 1 0.0062,0.03824 v 0.148828 a 0.12501251,0.12501251 0 0 1 -0.0026,0.02584 l -0.04806,0.223242 a 0.12501251,0.12501251 0 0 1 -0.01654,0.04134 l -0.448552,0.698666 h 0.390674 a 0.12500001,0.12500001 0 0 1 0.125071,0.125052 0.12500001,0.12500001 0 0 1 -0.125057,0.125057 h -0.619083 a 0.12501251,0.12501251 0 0 1 -0.10542,-0.192237 l 0.559655,-0.872815 0.03979,-0.187585 v -0.115755 l -0.03669,-0.114205 -0.02739,-0.04289 -0.04444,-0.03462 h -0.151929 l -0.04444,0.03462 -0.03617,0.05633 a 0.12500001,0.12500001 0 0 1 -0.1726,0.03772 0.12500001,0.12500001 0 0 1 -0.03772,-0.172599 l 0.04754,-0.07441 a 0.12501251,0.12501251 0 0 1 0.02842,-0.03101 l 0.09509,-0.0739 a 0.12501251,0.12501251 0 0 1 0.077,-0.02687 z m 1.095023,0 a 0.12501251,0.12501251 0 0 1 0.125057,0.125057 v 1.435055 h 0.160714 a 0.12500001,0.12500001 0 0 1 0.125057,0.125057 0.12500001,0.12500001 0 0 1 -0.125057,0.125057 h -0.285771 -0.28577 a 0.12500001,0.12500001 0 0 1 -0.125057,-0.125057 0.12500001,0.12500001 0 0 1 0.125057,-0.125057 h 0.160713 v -0.956014 l -0.08372,0.06563 a 0.12500001,0.12500001 0 0 1 -0.175183,-0.0217 0.12500001,0.12500001 0 0 1 0.02119,-0.1757 l 0.07855,-0.06098 0.07803,-0.121957 0.09147,-0.213423 a 0.12501251,0.12501251 0 0 1 0.114722,-0.07597 z m -2.065507,0.250114 v 0.567407 h 0.212907 l 0.04444,-0.03514 0.02739,-0.04237 0.03669,-0.114205 v -0.183968 l -0.03669,-0.114205 -0.02739,-0.04289 -0.04444,-0.03462 z" />
    <path
       id="rect3528"
       style="fill:#000000;stroke-width:0.1;stroke-linecap:round"
       d="m 59.196215,31.063256 v 2.391585 h 3.393075 v -2.391585 z m 0.526066,0.341581 h 0.380856 a 0.12501251,0.12501251 0 0 1 0.077,0.02636 l 0.0956,0.07441 a 0.12501251,0.12501251 0 0 1 0.0279,0.03101 l 0.04806,0.07441 a 0.12501251,0.12501251 0 0 1 0.01344,0.02894 l 0.04754,0.148828 a 0.12501251,0.12501251 0 0 1 0.0062,0.03824 v 0.222726 a 0.12501251,0.12501251 0 0 1 -0.0062,0.03824 l -0.04754,0.148312 a 0.12501251,0.12501251 0 0 1 -0.01344,0.02945 l -0.04806,0.07441 a 0.12501251,0.12501251 0 0 1 -0.0279,0.03101 l -0.0956,0.07441 a 0.12501251,0.12501251 0 0 1 -0.077,0.02636 h -0.255799 v 0.61805 a 0.12500001,0.12500001 0 0 1 -0.125057,0.124541 0.12500001,0.12500001 0 0 1 -0.125057,-0.124541 v -0.743107 -0.817004 a 0.12501251,0.12501251 0 0 1 0.125057,-0.125057 z m 1.095541,0 h 0.237711 a 0.12501251,0.12501251 0 0 1 0.077,0.02636 l 0.0956,0.07441 a 0.12501251,0.12501251 0 0 1 0.02791,0.03101 l 0.04806,0.07441 a 0.12501251,0.12501251 0 0 1 0.01344,0.02894 l 0.04754,0.148828 a 0.12501251,0.12501251 0 0 1 0.0062,0.03824 v 0.148312 a 0.12501251,0.12501251 0 0 1 -0.0026,0.02636 l -0.04806,0.222725 a 0.12501251,0.12501251 0 0 1 -0.01654,0.04134 l -0.448552,0.699182 h 0.390674 a 0.12500001,0.12500001 0 0 1 0.125071,0.125051 0.12500001,0.12500001 0 0 1 -0.125057,0.124541 h -0.619083 a 0.12501251,0.12501251 0 0 1 -0.10542,-0.192237 l 0.559655,-0.872298 0.03979,-0.187585 V 31.84667 l -0.03669,-0.114721 -0.02739,-0.04237 -0.04444,-0.03462 h -0.151929 l -0.04444,0.03462 -0.03617,0.05633 a 0.12500001,0.12500001 0 0 1 -0.1726,0.03772 0.12500001,0.12500001 0 0 1 -0.03772,-0.172599 l 0.04754,-0.07441 a 0.12501251,0.12501251 0 0 1 0.02842,-0.03101 l 0.09509,-0.07441 a 0.12501251,0.12501251 0 0 1 0.077,-0.02636 z m 1.039213,0 a 0.12500001,0.12500001 0 0 0 5.16e-4,0 0.12500001,0.12500001 0 0 0 5.17e-4,0 0.12500001,0.12500001 0 0 0 5.17e-4,0 0.12500001,0.12500001 0 0 0 5.17e-4,0 0.12500001,0.12500001 0 0 0 5.16e-4,0 0.12500001,0.12500001 0 0 0 5.17e-4,0 0.12500001,0.12500001 0 0 0 5.17e-4,0 0.12500001,0.12500001 0 0 0 5.17e-4,0 0.12500001,0.12500001 0 0 0 5.17e-4,0 0.12500001,0.12500001 0 0 0 5.16e-4,0 0.12500001,0.12500001 0 0 0 5.17e-4,0 0.12500001,0.12500001 0 0 0 5.17e-4,0 0.12500001,0.12500001 0 0 0 5.17e-4,0 0.12500001,0.12500001 0 0 0 5.16e-4,0 0.12500001,0.12500001 0 0 0 5.17e-4,0 0.12500001,0.12500001 0 0 0 5.17e-4,0 h 0.09508 a 0.12501251,0.12501251 0 0 1 0.077,0.02636 l 0.09509,0.07441 a 0.12501251,0.12501251 0 0 1 0.02842,0.03101 l 0.04754,0.07441 a 0.12501251,0.12501251 0 0 1 0.01395,0.02894 l 0.04754,0.148828 a 0.12501251,0.12501251 0 0 1 0.0047,0.0186 l 0.04754,0.29714 a 0.12501251,0.12501251 0 0 1 0.0015,0.01964 v 0.371553 a 0.12501251,0.12501251 0 0 1 -0.0015,0.01964 l -0.04754,0.297139 a 0.12501251,0.12501251 0 0 1 -0.0047,0.01809 l -0.04754,0.148828 a 0.12501251,0.12501251 0 0 1 -0.01395,0.02945 l -0.04754,0.0739 a 0.12501251,0.12501251 0 0 1 -0.02842,0.03152 l -0.09509,0.0739 a 0.12501251,0.12501251 0 0 1 -0.077,0.02635 h -0.09508 a 0.12501251,0.12501251 0 0 1 -0.077,-0.02635 l -0.09508,-0.0739 a 0.12501251,0.12501251 0 0 1 -0.02842,-0.03152 l -0.04754,-0.0739 a 0.12501251,0.12501251 0 0 1 -0.01395,-0.02945 l -0.04754,-0.148828 a 0.12501251,0.12501251 0 0 1 -0.0041,-0.01809 l -0.04806,-0.297139 a 0.12501251,0.12501251 0 0 1 -0.0016,-0.01964 v -0.371555 a 0.12501251,0.12501251 0 0 1 0.0016,-0.01964 l 0.04806,-0.29714 a 0.12501251,0.12501251 0 0 1 0.0041,-0.0186 l 0.04754,-0.148828 a 0.12501251,0.12501251 0 0 1 0.01395,-0.02894 l 0.04754,-0.07441 a 0.12501251,0.12501251 0 0 1 0.02842,-0.03101 l 0.09508,-0.07441 a 0.12500001,0.12500001 0 0 0 5.17e-4,-5.17e-4 0.12500001,0.12500001 0 0 0 5.16e-4,0 0.12500001,0.12500001 0 0 0 5.17e-4,-5.17e-4 0.12500001,0.12500001 0 0 0 5.17e-4,-5.16e-4 0.12500001,0.12500001 0 0 0 5.17e-4,-5.17e-4 0.12500001,0.12500001 0 0 0 5.17e-4,0 0.12500001,0.12500001 0 0 0 0,-5.17e-4 0.12500001,0.12500001 0 0 0 5.16e-4,0 0.12500001,0.12500001 0 0 0 5.17e-4,-5.17e-4 0.12500001,0.12500001 0 0 0 5.17e-4,0 0.12500001,0.12500001 0 0 0 5.17e-4,-5.16e-4 0.12500001,0.12500001 0 0 0 5.16e-4,-5.17e-4 0.12500001,0.12500001 0 0 0 5.17e-4,-5.17e-4 0.12500001,0.12500001 0 0 0 5.17e-4,0 0.12500001,0.12500001 0 0 0 5.17e-4,-5.17e-4 0.12500001,0.12500001 0 0 0 5.16e-4,-5.16e-4 0.12500001,0.12500001 0 0 0 5.17e-4,0 0.12500001,0.12500001 0 0 0 5.17e-4,-5.17e-4 0.12500001,0.12500001 0 0 0 5.17e-4,0 0.12500001,0.12500001 0 0 0 0,-5.17e-4 0.12500001,0.12500001 0 0 0 5.16e-4,0 0.12500001,0.12500001 0 0 0 5.17e-4,-5.17e-4 0.12500001,0.12500001 0 0 0 5.17e-4,0 0.12500001,0.12500001 0 0 0 5.17e-4,-5.16e-4 0.12500001,0.12500001 0 0 0 5.17e-4,-5.17e-4 0.12500001,0.12500001 0 0 0 5.16e-4,0 0.12500001,0.12500001 0 0 0 5.17e-4,-5.17e-4 0.12500001,0.12500001 0 0 0 5.17e-4,0 0.12500001,0.12500001 0 0 0 5.17e-4,-5.17e-4 0.12500001,0.12500001 0 0 0 5.16e-4,-5.17e-4 0.12500001,0.12500001 0 0 0 5.17e-4,0 0.12500001,0.12500001 0 0 0 5.17e-4,-5.16e-4 0.12500001,0.12500001 0 0 0 5.17e-4,0 0.12500001,0.12500001 0 0 0 5.16e-4,-5.17e-4 0.12500001,0.12500001 0 0 0 5.17e-4,-5.17e-4 0.12500001,0.12500001 0 0 0 5.17e-4,0 0.12500001,0.12500001 0 0 0 5.17e-4,-5.17e-4 0.12500001,0.12500001 0 0 0 5.16e-4,0 0.12500001,0.12500001 0 0 0 5.17e-4,0 0.12500001,0.12500001 0 0 0 5.17e-4,-5.16e-4 0.12500001,0.12500001 0 0 0 5.17e-4,-5.17e-4 0.12500001,0.12500001 0 0 0 5.17e-4,0 0.12500001,0.12500001 0 0 0 5.16e-4,-5.17e-4 0.12500001,0.12500001 0 0 0 5.17e-4,0 0.12500001,0.12500001 0 0 0 5.17e-4,-5.17e-4 0.12500001,0.12500001 0 0 0 5.17e-4,0 0.12500001,0.12500001 0 0 0 5.16e-4,-5.16e-4 0.12500001,0.12500001 0 0 0 5.17e-4,0 0.12500001,0.12500001 0 0 0 5.17e-4,-5.17e-4 0.12500001,0.12500001 0 0 0 5.17e-4,0 0.12500001,0.12500001 0 0 0 5.16e-4,0 0.12500001,0.12500001 0 0 0 5.17e-4,-5.17e-4 0.12500001,0.12500001 0 0 0 5.17e-4,0 0.12500001,0.12500001 0 0 0 0,-5.17e-4 0.12500001,0.12500001 0 0 0 5.17e-4,0 0.12500001,0.12500001 0 0 0 5.16e-4,0 0.12500001,0.12500001 0 0 0 5.17e-4,-5.16e-4 0.12500001,0.12500001 0 0 0 5.17e-4,0 0.12500001,0.12500001 0 0 0 5.17e-4,0 0.12500001,0.12500001 0 0 0 5.17e-4,-5.17e-4 0.12500001,0.12500001 0 0 0 5.16e-4,0 0.12500001,0.12500001 0 0 0 5.17e-4,-5.17e-4 0.12500001,0.12500001 0 0 0 5.17e-4,0 0.12500001,0.12500001 0 0 0 5.17e-4,-5.17e-4 0.12500001,0.12500001 0 0 0 5.16e-4,0 0.12500001,0.12500001 0 0 0 5.17e-4,0 0.12500001,0.12500001 0 0 0 5.17e-4,-5.17e-4 0.12500001,0.12500001 0 0 0 5.17e-4,0 0.12500001,0.12500001 0 0 0 5.16e-4,0 0.12500001,0.12500001 0 0 0 5.17e-4,-5.16e-4 0.12500001,0.12500001 0 0 0 5.17e-4,0 0.12500001,0.12500001 0 0 0 5.17e-4,-5.17e-4 0.12500001,0.12500001 0 0 0 5.16e-4,0 0.12500001,0.12500001 0 0 0 5.17e-4,0 0.12500001,0.12500001 0 0 0 5.17e-4,-5.17e-4 0.12500001,0.12500001 0 0 0 5.17e-4,0 0.12500001,0.12500001 0 0 0 5.17e-4,0 0.12500001,0.12500001 0 0 0 5.16e-4,0 0.12500001,0.12500001 0 0 0 5.17e-4,-5.17e-4 0.12500001,0.12500001 0 0 0 5.17e-4,0 0.12500001,0.12500001 0 0 0 5.17e-4,0 0.12500001,0.12500001 0 0 0 5.16e-4,-5.16e-4 0.12500001,0.12500001 0 0 0 5.17e-4,0 0.12500001,0.12500001 0 0 0 5.17e-4,0 0.12500001,0.12500001 0 0 0 5.17e-4,-5.17e-4 0.12500001,0.12500001 0 0 0 5.16e-4,0 0.12500001,0.12500001 0 0 0 5.17e-4,0 0.12500001,0.12500001 0 0 0 5.17e-4,-5.17e-4 0.12500001,0.12500001 0 0 0 5.17e-4,0 0.12500001,0.12500001 0 0 0 5.16e-4,0 0.12500001,0.12500001 0 0 0 5.17e-4,0 0.12500001,0.12500001 0 0 0 5.17e-4,-5.17e-4 0.12500001,0.12500001 0 0 0 5.17e-4,0 0.12500001,0.12500001 0 0 0 5.17e-4,0 0.12500001,0.12500001 0 0 0 5.16e-4,0 0.12500001,0.12500001 0 0 0 5.17e-4,0 0.12500001,0.12500001 0 0 0 0,-5.16e-4 0.12500001,0.12500001 0 0 0 5.17e-4,0 0.12500001,0.12500001 0 0 0 5.17e-4,0 0.12500001,0.12500001 0 0 0 5.16e-4,0 0.12500001,0.12500001 0 0 0 5.17e-4,-5.17e-4 0.12500001,0.12500001 0 0 0 5.17e-4,0 0.12500001,0.12500001 0 0 0 5.17e-4,0 0.12500001,0.12500001 0 0 0 5.16e-4,0 0.12500001,0.12500001 0 0 0 5.17e-4,0 0.12500001,0.12500001 0 0 0 5.17e-4,0 0.12500001,0.12500001 0 0 0 5.17e-4,-5.17e-4 0.12500001,0.12500001 0 0 0 5.16e-4,0 0.12500001,0.12500001 0 0 0 5.17e-4,0 0.12500001,0.12500001 0 0 0 5.17e-4,0 0.12500001,0.12500001 0 0 0 5.17e-4,0 0.12500001,0.12500001 0 0 0 5.17e-4,-5.17e-4 0.12500001,0.12500001 0 0 0 5.16e-4,0 0.12500001,0.12500001 0 0 0 5.17e-4,0 0.12500001,0.12500001 0 0 0 5.17e-4,0 0.12500001,0.12500001 0 0 0 5.17e-4,0 0.12500001,0.12500001 0 0 0 5.16e-4,0 0.12500001,0.12500001 0 0 0 5.17e-4,-5.16e-4 0.12500001,0.12500001 0 0 0 5.17e-4,0 0.12500001,0.12500001 0 0 0 5.17e-4,0 0.12500001,0.12500001 0 0 0 5.16e-4,0 0.12500001,0.12500001 0 0 0 5.17e-4,0 0.12500001,0.12500001 0 0 0 5.17e-4,0 0.12500001,0.12500001 0 0 0 5.17e-4,0 0.12500001,0.12500001 0 0 0 5.16e-4,0 0.12500001,0.12500001 0 0 0 5.17e-4,-5.17e-4 0.12500001,0.12500001 0 0 0 5.17e-4,0 0.12500001,0.12500001 0 0 0 5.17e-4,0 0.12500001,0.12500001 0 0 0 5.17e-4,0 0.12500001,0.12500001 0 0 0 5.16e-4,0 0.12500001,0.12500001 0 0 0 5.17e-4,0 0.12500001,0.12500001 0 0 0 5.17e-4,0 0.12500001,0.12500001 0 0 0 5.17e-4,0 0.12500001,0.12500001 0 0 0 5.16e-4,0 0.12500001,0.12500001 0 0 0 5.17e-4,0 0.12500001,0.12500001 0 0 0 5.17e-4,0 0.12500001,0.12500001 0 0 0 5.17e-4,-5.17e-4 z m -2.009697,0.250114 v 0.56689 h 0.212907 l 0.04444,-0.03462 0.02739,-0.04237 0.03669,-0.114722 v -0.183452 l -0.03669,-0.114721 -0.02739,-0.04237 -0.04444,-0.03462 z m 2.060856,0 -0.04444,0.03462 -0.02739,0.04237 -0.03979,0.124023 -0.04444,0.278019 v 0.3514 l 0.04444,0.278019 0.03979,0.124024 0.02739,0.04237 0.04444,0.03514 h 0.0093 l 0.04444,-0.03514 0.02739,-0.04237 0.03979,-0.124024 0.04444,-0.278019 v -0.3514 l -0.04444,-0.278019 -0.03979,-0.124023 -0.02739,-0.04237 -0.04444,-0.03462 z" />
    <path
       id="rect3201"
       style="fill:#000000;stroke-width:0.1;stroke-linecap:round"
       d="m 59.159816,33.595013 v 2.391585 h 3.393075 v -2.391585 z m 1.760616,0.378788 a 0.1250125,0.1250125 0 0 1 0.02842,0.0026 0.1250125,0.1250125 0 0 1 0.09974,0.12299 v 1.435571 h 0.162264 a 0.125,0.125 0 0 1 0.125057,0.12454 0.125,0.125 0 0 1 -0.125057,0.125057 h -0.287321 -0.285254 a 0.125,0.125 0 0 1 -0.12454,-0.125057 0.125,0.125 0 0 1 0.12454,-0.12454 h 0.160197 v -0.955497 l -0.08372,0.0646 a 0.125,0.125 0 0 1 -0.1757,-0.02119 0.125,0.125 0 0 1 0.02325,-0.176216 l 0.07803,-0.06046 0.07803,-0.12299 0.08992,-0.212907 a 0.1250125,0.1250125 0 0 1 0.112138,-0.07648 z m -1.235067,5.17e-4 h 0.380856 a 0.1250125,0.1250125 0 0 1 0.07803,0.02739 l 0.0956,0.0739 a 0.1250125,0.1250125 0 0 1 0.02739,0.03152 l 0.04703,0.0739 a 0.1250125,0.1250125 0 0 1 0.01344,0.02946 l 0.04909,0.148312 a 0.1250125,0.1250125 0 0 1 0.0057,0.03721 v 0.222725 a 0.1250125,0.1250125 0 0 1 -0.0057,0.03927 l -0.04909,0.148312 a 0.1250125,0.1250125 0 0 1 -0.01344,0.02945 l -0.04703,0.0739 a 0.1250125,0.1250125 0 0 1 -0.02739,0.03152 l -0.0956,0.0739 a 0.1250125,0.1250125 0 0 1 -0.07803,0.02739 h -0.255799 v 0.617016 A 0.125,0.125 0 0 1 59.685365,35.78455 0.125,0.125 0 0 1 59.560308,35.659493 V 34.91742 34.099382 a 0.1250125,0.1250125 0 0 1 0.125057,-0.125057 z m 1.857251,0 h 0.668177 a 0.1250125,0.1250125 0 0 1 0.118855,0.15813 l -0.427364,1.560628 a 0.125,0.125 0 0 1 -0.154512,0.08785 0.125,0.125 0 0 1 -0.08785,-0.154512 l 0.38654,-1.401982 h -0.503846 a 0.125,0.125 0 0 1 -0.125057,-0.125057 0.125,0.125 0 0 1 0.125057,-0.125057 z m -1.732194,0.250114 v 0.567924 h 0.212907 l 0.04496,-0.03514 0.02739,-0.04289 0.03669,-0.115239 v -0.183451 l -0.03669,-0.113172 -0.02739,-0.04289 -0.04496,-0.03514 z" />
    <path
       id="rect3199"
       style="fill:#000000;stroke-width:0.1;stroke-linecap:round"
       d="m 59.249109,43.864135 v 2.391585 h 3.393075 v -2.391585 z m 0.526066,0.315226 h 0.380856 a 0.12501251,0.12501251 0 0 1 0.077,0.02635 l 0.0956,0.07441 a 0.12501251,0.12501251 0 0 1 0.0279,0.03101 l 0.04806,0.07441 a 0.12501251,0.12501251 0 0 1 0.01344,0.02946 l 0.04754,0.148311 a 0.12501251,0.12501251 0 0 1 0.0062,0.03824 v 0.222725 a 0.12501251,0.12501251 0 0 1 -0.0062,0.03824 l -0.04754,0.148828 a 0.12501251,0.12501251 0 0 1 -0.01344,0.02894 l -0.04806,0.07441 a 0.12501251,0.12501251 0 0 1 -0.0279,0.03101 l -0.0956,0.07441 a 0.12501251,0.12501251 0 0 1 -0.077,0.02635 h -0.255799 v 0.61805 a 0.12500001,0.12500001 0 0 1 -0.125057,0.125057 0.12500001,0.12500001 0 0 1 -0.125057,-0.125057 v -0.743092 -0.817005 a 0.12501251,0.12501251 0 0 1 0.125057,-0.125057 z m 1.095541,0 h 0.237711 a 0.12501251,0.12501251 0 0 1 0.077,0.02635 l 0.0956,0.07441 a 0.12501251,0.12501251 0 0 1 0.02791,0.03101 l 0.04806,0.07441 a 0.12501251,0.12501251 0 0 1 0.01344,0.02946 l 0.04754,0.148311 a 0.12501251,0.12501251 0 0 1 0.0062,0.03824 v 0.148828 a 0.12501251,0.12501251 0 0 1 -0.0026,0.02584 l -0.04806,0.222726 a 0.12501251,0.12501251 0 0 1 -0.01654,0.04134 l -0.448552,0.699182 h 0.390674 a 0.12500001,0.12500001 0 0 1 0.125071,0.125062 0.12500001,0.12500001 0 0 1 -0.125057,0.125057 H 60.68003 a 0.12501251,0.12501251 0 0 1 -0.10542,-0.192753 l 0.559655,-0.872298 0.03979,-0.187586 v -0.115755 l -0.03669,-0.114722 -0.02739,-0.04237 -0.04444,-0.03462 h -0.151929 l -0.04444,0.03462 -0.03617,0.05633 a 0.12500001,0.12500001 0 0 1 -0.1726,0.03772 0.12500001,0.12500001 0 0 1 -0.03772,-0.1726 l 0.04754,-0.07441 a 0.12501251,0.12501251 0 0 1 0.02842,-0.03101 l 0.09509,-0.07441 a 0.12501251,0.12501251 0 0 1 0.077,-0.02635 z m 0.952396,0 h 0.237712 a 0.12501251,0.12501251 0 0 1 0.077,0.02635 l 0.09508,0.07441 a 0.12501251,0.12501251 0 0 1 0.02842,0.03101 l 0.04806,0.07441 a 0.12501251,0.12501251 0 0 1 0.01344,0.02946 l 0.04754,0.148311 a 0.12501251,0.12501251 0 0 1 0.0062,0.03824 v 0.148828 a 0.12501251,0.12501251 0 0 1 -0.0026,0.02584 l -0.04806,0.222726 a 0.12501251,0.12501251 0 0 1 -0.01654,0.04134 l -0.448551,0.699182 h 0.390674 a 0.12500001,0.12500001 0 0 1 0.125057,0.125057 0.12500001,0.12500001 0 0 1 -0.125057,0.125057 h -0.619084 a 0.12501251,0.12501251 0 0 1 -0.10542,-0.192753 l 0.559139,-0.872298 0.04031,-0.187586 V 44.62119 l -0.03669,-0.114722 -0.02739,-0.04237 -0.04444,-0.03462 h -0.151928 l -0.04444,0.03462 -0.03617,0.05633 a 0.12500001,0.12500001 0 0 1 -0.172599,0.03772 0.12500001,0.12500001 0 0 1 -0.03772,-0.1726 l 0.04754,-0.07441 a 0.12501251,0.12501251 0 0 1 0.02842,-0.03101 l 0.09508,-0.07441 a 0.12501251,0.12501251 0 0 1 0.077,-0.02635 z m -1.92288,0.250114 v 0.566891 h 0.212907 l 0.04444,-0.03462 0.02739,-0.04237 0.03669,-0.114722 v -0.183451 l -0.03669,-0.114722 -0.02739,-0.04237 -0.04444,-0.03462 z" />
    <path
       id="path923"
       style="color:#000000;fill:#000000;fill-opacity:1;stroke:none;stroke-width:0.25;stroke-linecap:butt;stroke-linejoin:miter"
       d="m 60.887652,51.78657 a 0.12500001,0.12500001 0 0 0 -3.9e-5,0 0.12500001,0.12500001 0 0 0 -4.98e-4,2e-6 0.12500001,0.12500001 0 0 0 -4.99e-4,10e-7 0.12500001,0.12500001 0 0 0 -4.97e-4,6e-6 0.12500001,0.12500001 0 0 0 -4.99e-4,7e-6 0.12500001,0.12500001 0 0 0 -4.99e-4,1e-5 0.12500001,0.12500001 0 0 0 -4.98e-4,10e-6 0.12500001,0.12500001 0 0 0 -4.97e-4,1.4e-5 0.12500001,0.12500001 0 0 0 -4.99e-4,1.4e-5 0.12500001,0.12500001 0 0 0 -4.99e-4,1.8e-5 0.12500001,0.12500001 0 0 0 -4.97e-4,1.8e-5 0.12500001,0.12500001 0 0 0 -4.99e-4,2.3e-5 0.12500001,0.12500001 0 0 0 -4.97e-4,2.2e-5 0.12500001,0.12500001 0 0 0 -4.99e-4,2.5e-5 0.12500001,0.12500001 0 0 0 -4.96e-4,2.6e-5 0.12500001,0.12500001 0 0 0 -4.99e-4,3e-5 0.12500001,0.12500001 0 0 0 -4.96e-4,3e-5 0.12500001,0.12500001 0 0 0 -4.98e-4,3.4e-5 0.12500001,0.12500001 0 0 0 -4.96e-4,3.4e-5 0.12500001,0.12500001 0 0 0 -4.98e-4,3.7e-5 0.12500001,0.12500001 0 0 0 -4.96e-4,3.8e-5 0.12500001,0.12500001 0 0 0 -4.96e-4,4.2e-5 0.12500001,0.12500001 0 0 0 -4.98e-4,4.2e-5 0.12500001,0.12500001 0 0 0 -4.93e-4,4.5e-5 0.12500001,0.12500001 0 0 0 -4.99e-4,4.7e-5 0.12500001,0.12500001 0 0 0 -4.95e-4,4.9e-5 0.12500001,0.12500001 0 0 0 -4.96e-4,5e-5 0.12500001,0.12500001 0 0 0 -4.96e-4,5.4e-5 0.12500001,0.12500001 0 0 0 -4.95e-4,5.3e-5 0.12500001,0.12500001 0 0 0 -4.95e-4,5.8e-5 0.12500001,0.12500001 0 0 0 -4.95e-4,5.8e-5 0.12500001,0.12500001 0 0 0 -4.94e-4,6.1e-5 0.12500001,0.12500001 0 0 0 -4.96e-4,6.2e-5 0.12500001,0.12500001 0 0 0 -4.92e-4,6.5e-5 0.12500001,0.12500001 0 0 0 -4.96e-4,6.6e-5 0.12500001,0.12500001 0 0 0 -4.93e-4,6.9e-5 0.12500001,0.12500001 0 0 0 -4.93e-4,7e-5 0.12500001,0.12500001 0 0 0 -4.94e-4,7.3e-5 0.12500001,0.12500001 0 0 0 -4.92e-4,7.4e-5 0.12500001,0.12500001 0 0 0 -4.92e-4,7.7e-5 0.12500001,0.12500001 0 0 0 -4.93e-4,7.7e-5 0.12500001,0.12500001 0 0 0 -4.91e-4,8.1e-5 0.12500001,0.12500001 0 0 0 -4.92e-4,8.2e-5 0.12500001,0.12500001 0 0 0 -4.92e-4,8.5e-5 0.12500001,0.12500001 0 0 0 -4.9e-4,8.5e-5 0.12500001,0.12500001 0 0 0 -4.92e-4,8.9e-5 0.12500001,0.12500001 0 0 0 -4.89e-4,8.9e-5 0.12500001,0.12500001 0 0 0 -4.89e-4,9.3e-5 0.12500001,0.12500001 0 0 0 -4.9e-4,9.3e-5 0.12500001,0.12500001 0 0 0 -4.89e-4,9.7e-5 0.12500001,0.12500001 0 0 0 -4.89e-4,9.7e-5 0.12500001,0.12500001 0 0 0 -4.88e-4,1.01e-4 0.12500001,0.12500001 0 0 0 -4.88e-4,1.01e-4 0.12500001,0.12500001 0 0 0 -4.86e-4,1.04e-4 0.12500001,0.12500001 0 0 0 -4.89e-4,1.05e-4 0.12500001,0.12500001 0 0 0 -4.84e-4,1.08e-4 0.12500001,0.12500001 0 0 0 -4.88e-4,1.09e-4 0.12500001,0.12500001 0 0 0 -4.85e-4,1.12e-4 0.12500001,0.12500001 0 0 0 -4.86e-4,1.13e-4 0.12500001,0.12500001 0 0 0 -4.86e-4,1.16e-4 0.12500001,0.12500001 0 0 0 -4.83e-4,1.17e-4 0.12500001,0.12500001 0 0 0 -4.85e-4,1.2e-4 0.12500001,0.12500001 0 0 0 -4.83e-4,1.2e-4 0.12500001,0.12500001 0 0 0 -4.82e-4,1.24e-4 0.12500001,0.12500001 0 0 0 -4.83e-4,1.24e-4 0.12500001,0.12500001 0 0 0 -4.82e-4,1.28e-4 0.12500001,0.12500001 0 0 0 -4.81e-4,1.28e-4 0.12500001,0.12500001 0 0 0 -4.81e-4,1.31e-4 0.12500001,0.12500001 0 0 0 -4.8e-4,1.32e-4 0.12500001,0.12500001 0 0 0 -4.8e-4,1.35e-4 0.12500001,0.12500001 0 0 0 -4.8e-4,1.36e-4 0.12500001,0.12500001 0 0 0 -4.77e-4,1.39e-4 0.12500001,0.12500001 0 0 0 -4.8e-4,1.4e-4 0.12500001,0.12500001 0 0 0 -4.77e-4,1.43e-4 0.12500001,0.12500001 0 0 0 -4.77e-4,1.43e-4 0.12500001,0.12500001 0 0 0 -4.77e-4,1.47e-4 0.12500001,0.12500001 0 0 0 -4.76e-4,1.47e-4 0.12500001,0.12500001 0 0 0 -4.74e-4,1.5e-4 0.12500001,0.12500001 0 0 0 -4.76e-4,1.51e-4 0.12500001,0.12500001 0 0 0 -4.73e-4,1.55e-4 0.12500001,0.12500001 0 0 0 -4.74e-4,1.54e-4 0.12500001,0.12500001 0 0 0 -4.73e-4,1.58e-4 0.12500001,0.12500001 0 0 0 -4.72e-4,1.59e-4 0.12500001,0.12500001 0 0 0 -4.7e-4,1.61e-4 0.12500001,0.12500001 0 0 0 -4.73e-4,1.63e-4 0.12500001,0.12500001 0 0 0 -4.68e-4,1.65e-4 0.12500001,0.12500001 0 0 0 -4.72e-4,1.67e-4 0.12500001,0.12500001 0 0 0 -4.66e-4,1.68e-4 0.12500001,0.12500001 0 0 0 -4.71e-4,1.71e-4 0.12500001,0.12500001 0 0 0 -4.66e-4,1.73e-4 0.12500001,0.12500001 0 0 0 -4.68e-4,1.73e-4 0.12500001,0.12500001 0 0 0 -4.68e-4,1.78e-4 0.12500001,0.12500001 0 0 0 -4.64e-4,1.76e-4 0.12500001,0.12500001 0 0 0 -4.66e-4,1.81e-4 0.12500001,0.12500001 0 0 0 -4.63e-4,1.81e-4 0.12500001,0.12500001 0 0 0 -4.62e-4,1.84e-4 0.12500001,0.12500001 0 0 0 -4.64e-4,1.85e-4 0.12500001,0.12500001 0 0 0 -4.6e-4,1.87e-4 0.12500001,0.12500001 0 0 0 -4.63e-4,1.89e-4 0.12500001,0.12500001 0 0 0 -4.6e-4,1.91e-4 0.12500001,0.12500001 0 0 0 -4.6e-4,1.92e-4 0.12500001,0.12500001 0 0 0 -4.59e-4,1.96e-4 0.12500001,0.12500001 0 0 0 -4.58e-4,1.95e-4 0.12500001,0.12500001 0 0 0 -4.57e-4,1.99e-4 0.12500001,0.12500001 0 0 0 -4.57e-4,1.99e-4 0.12500001,0.12500001 0 0 0 -4.54e-4,2.03e-4 0.12500001,0.12500001 0 0 0 -4.56e-4,2.03e-4 0.12500001,0.12500001 0 0 0 -4.54e-4,2.06e-4 0.12500001,0.12500001 0 0 0 -4.53e-4,2.07e-4 0.12500001,0.12500001 0 0 0 -4.52e-4,2.09e-4 0.12500001,0.12500001 0 0 0 -4.52e-4,2.1e-4 0.12500001,0.12500001 0 0 0 -4.51e-4,2.14e-4 0.12500001,0.12500001 0 0 0 -4.5e-4,2.14e-4 0.12500001,0.12500001 0 0 0 -4.48e-4,2.16e-4 0.12500001,0.12500001 0 0 0 -4.49e-4,2.18e-4 0.12500001,0.12500001 0 0 0 -4.45e-4,2.2e-4 0.12500001,0.12500001 0 0 0 -4.49e-4,2.21e-4 0.12500001,0.12500001 0 0 0 -4.43e-4,2.24e-4 0.12500001,0.12500001 0 0 0 -4.47e-4,2.25e-4 0.12500001,0.12500001 0 0 0 -4.43e-4,2.27e-4 0.12500001,0.12500001 0 0 0 -4.43e-4,2.28e-4 0.12500001,0.12500001 0 0 0 -4.41e-4,2.31e-4 0.12500001,0.12500001 0 0 0 -4.42e-4,2.32e-4 0.12500001,0.12500001 0 0 0 -4.4e-4,2.35e-4 0.12500001,0.12500001 0 0 0 -4.39e-4,2.35e-4 0.12500001,0.12500001 0 0 0 -4.39e-4,2.39e-4 0.12500001,0.12500001 0 0 0 -4.36e-4,2.37e-4 0.12500001,0.12500001 0 0 0 -4.36e-4,2.42e-4 0.12500001,0.12500001 0 0 0 -4.36e-4,2.42e-4 0.12500001,0.12500001 0 0 0 -4.34e-4,2.45e-4 0.12500001,0.12500001 0 0 0 -4.33e-4,2.45e-4 0.12500001,0.12500001 0 0 0 -4.32e-4,2.49e-4 0.12500001,0.12500001 0 0 0 -4.32e-4,2.49e-4 0.12500001,0.12500001 0 0 0 -4.3e-4,2.52e-4 0.12500001,0.12500001 0 0 0 -4.3e-4,2.52e-4 0.12500001,0.12500001 0 0 0 -4.26e-4,2.55e-4 0.12500001,0.12500001 0 0 0 -4.29e-4,2.57e-4 0.12500001,0.12500001 0 0 0 -4.25e-4,2.58e-4 0.12500001,0.12500001 0 0 0 -4.27e-4,2.59e-4 0.12500001,0.12500001 0 0 0 -4.23e-4,2.62e-4 0.12500001,0.12500001 0 0 0 -4.24e-4,2.63e-4 0.12500001,0.12500001 0 0 0 -4.22e-4,2.66e-4 0.12500001,0.12500001 0 0 0 -4.21e-4,2.66e-4 0.12500001,0.12500001 0 0 0 -4.2e-4,2.69e-4 0.12500001,0.12500001 0 0 0 -4.19e-4,2.69e-4 0.12500001,0.12500001 0 0 0 -4.16e-4,2.71e-4 0.12500001,0.12500001 0 0 0 -4.19e-4,2.74e-4 0.12500001,0.12500001 0 0 0 -4.14e-4,2.75e-4 0.12500001,0.12500001 0 0 0 -4.16e-4,2.76e-4 0.12500001,0.12500001 0 0 0 -4.12e-4,2.79e-4 0.12500001,0.12500001 0 0 0 -4.14e-4,2.79e-4 0.12500001,0.12500001 0 0 0 -4.1e-4,2.82e-4 0.12500001,0.12500001 0 0 0 -4.11e-4,2.83e-4 0.12500001,0.12500001 0 0 0 -4.07e-4,2.84e-4 0.12500001,0.12500001 0 0 0 -4.1e-4,2.87e-4 0.12500001,0.12500001 0 0 0 -4.04e-4,2.87e-4 0.12500001,0.12500001 0 0 0 -4.08e-4,2.91e-4 0.12500001,0.12500001 0 0 0 -4.03e-4,2.92e-4 0.12500001,0.12500001 0 0 0 -4.05e-4,2.92e-4 0.12500001,0.12500001 0 0 0 -4.02e-4,2.96e-4 0.12500001,0.12500001 0 0 0 -4e-4,2.95e-4 0.12500001,0.12500001 0 0 0 -4e-4,2.99e-4 0.12500001,0.12500001 0 0 0 -3.99e-4,2.98e-4 0.12500001,0.12500001 0 0 0 -3.96e-4,3.01e-4 0.12500001,0.12500001 0 0 0 -3.97e-4,3.02e-4 0.12500001,0.12500001 0 0 0 -3.94e-4,3.05e-4 0.12500001,0.12500001 0 0 0 -3.94e-4,3.05e-4 0.12500001,0.12500001 0 0 0 -3.1e-5,2.3e-5 l -0.09524,0.07429 a 0.12501251,0.12501251 0 0 0 -0.02836,0.0311 l -0.04762,0.07428 a 0.12501251,0.12501251 0 0 0 -0.0138,0.02931 l -0.04762,0.148572 a 0.12501251,0.12501251 0 0 0 -0.0044,0.01837 l -0.04762,0.297143 a 0.12501251,0.12501251 0 0 0 -0.0016,0.01978 v 0.371428 a 0.12501251,0.12501251 0 0 0 0.0016,0.01978 l 0.04762,0.297143 a 0.12501251,0.12501251 0 0 0 0.0044,0.01837 l 0.04762,0.148571 a 0.12501251,0.12501251 0 0 0 0.0138,0.02931 l 0.04762,0.07429 a 0.12501251,0.12501251 0 0 0 0.02836,0.03111 l 0.09524,0.07429 a 0.12501251,0.12501251 0 0 0 0.07688,0.02644 h 0.09524 a 0.12501251,0.12501251 0 0 0 0.07688,-0.02644 l 0.09524,-0.07429 a 0.12501251,0.12501251 0 0 0 0.02836,-0.03111 l 0.04762,-0.07429 a 0.12501251,0.12501251 0 0 0 0.0138,-0.02931 l 0.04762,-0.148571 a 0.12501251,0.12501251 0 0 0 0.0044,-0.01837 l 0.04762,-0.297143 a 0.12501251,0.12501251 0 0 0 0.0016,-0.01978 v -0.371424 a 0.12501251,0.12501251 0 0 0 -0.0016,-0.01978 l -0.04762,-0.297143 a 0.12501251,0.12501251 0 0 0 -0.0044,-0.01837 l -0.04762,-0.148572 a 0.12501251,0.12501251 0 0 0 -0.0138,-0.02931 l -0.04762,-0.07428 a 0.12501251,0.12501251 0 0 0 -0.02836,-0.0311 l -0.09524,-0.07429 a 0.12501251,0.12501251 0 0 0 -0.07688,-0.02644 z m 0.04299,0.25 h 0.0093 l 0.04451,0.03472 0.02728,0.04256 0.03974,0.123996 0.04454,0.277965 v 0.351521 l -0.04454,0.277965 -0.03974,0.123995 -0.02728,0.04256 -0.04451,0.03472 h -0.0093 l -0.04451,-0.03472 -0.02728,-0.04256 -0.03974,-0.123995 -0.04454,-0.277965 v -0.351521 l 0.04454,-0.277965 0.03974,-0.123996 0.02728,-0.04256 z m -1.233466,-0.25 a 0.12501251,0.12501251 0 0 0 -0.125,0.125 v 0.817143 0.742858 a 0.12500001,0.12500001 0 0 0 0.125,0.125 0.12500001,0.12500001 0 0 0 0.125,-0.125 v -0.617858 h 0.255952 a 0.12501251,0.12501251 0 0 0 0.07688,-0.02644 l 0.09524,-0.07429 a 0.12501251,0.12501251 0 0 0 0.02836,-0.03111 l 0.04762,-0.07429 a 0.12501251,0.12501251 0 0 0 0.0138,-0.02931 l 0.04761,-0.148551 a 0.12501251,0.12501251 0 0 0 0.006,-0.03815 v -0.222857 a 0.12501251,0.12501251 0 0 0 -0.006,-0.03815 l -0.04762,-0.148572 a 0.12501251,0.12501251 0 0 0 -0.0138,-0.02931 l -0.04762,-0.07428 a 0.12501251,0.12501251 0 0 0 -0.02836,-0.0311 l -0.09524,-0.07429 a 0.12501251,0.12501251 0 0 0 -0.07688,-0.02644 z m 0.125,0.25 h 0.212967 l 0.04451,0.03472 0.02728,0.04256 0.03667,0.114407 v 0.183772 l -0.03667,0.114406 -0.02728,0.04256 -0.04451,0.03472 h -0.212967 z" />
    <g
       id="g326"
       transform="translate(0.31571673,35.260184)"
       style="fill:#000000">
      <path
         style="color:#000000;fill:#000000;fill-opacity:1;stroke:none;stroke-width:0.25;stroke-linecap:butt;stroke-linejoin:miter"
         d="m 59.325843,21.541353 a 0.12501251,0.12501251 0 0 0 -0.125,0.125 v 0.742858 0.817143 a 0.12501251,0.12501251 0 0 0 0.125,0.125 h 0.380952 a 0.12501251,0.12501251 0 0 0 0.07688,-0.02644 l 0.09524,-0.07429 a 0.12501251,0.12501251 0 0 0 0.02836,-0.03111 l 0.04762,-0.07429 a 0.12501251,0.12501251 0 0 0 0.0138,-0.02931 l 0.04762,-0.148572 a 0.12501251,0.12501251 0 0 0 0.006,-0.03815 v -0.222857 a 0.12501251,0.12501251 0 0 0 -0.006,-0.03815 l -0.04762,-0.148572 a 0.12501251,0.12501251 0 0 0 -0.0138,-0.02931 l -0.04762,-0.07428 a 0.12501251,0.12501251 0 0 0 -0.03384,-0.03515 l 0.03384,-0.05279 a 0.12501251,0.12501251 0 0 0 0.0138,-0.02931 l 0.04762,-0.148572 a 0.12501251,0.12501251 0 0 0 0.006,-0.03815 V 21.96348 a 0.12501251,0.12501251 0 0 0 -0.006,-0.03815 l -0.04762,-0.148572 a 0.12501251,0.12501251 0 0 0 -0.0138,-0.02931 l -0.04762,-0.07428 a 0.12501251,0.12501251 0 0 0 -0.02836,-0.0311 l -0.09524,-0.07429 a 0.12501251,0.12501251 0 0 0 -0.07688,-0.02644 z m 0.125,0.25 h 0.165348 l 0.04451,0.03472 0.02728,0.04256 0.03667,0.114407 v 0.109487 l -0.03667,0.114407 -0.02728,0.04256 -0.04451,0.03472 h -0.165348 z m 0,0.742858 h 0.177775 l 0.08617,0.04481 0.02081,0.03247 0.03667,0.114407 v 0.183773 l -0.03667,0.114406 -0.02728,0.04256 -0.04451,0.03472 h -0.212967 z"
         id="path887" />
      <path
         style="color:#000000;fill:#000000;fill-opacity:1;stroke:none;stroke-width:0.25;stroke-linecap:butt;stroke-linejoin:miter"
         d="m 60.325843,21.541353 a 0.12501251,0.12501251 0 0 0 -0.125,0.125 v 1.560001 a 0.12500001,0.12500001 0 0 0 4e-6,9.98e-4 0.12500001,0.12500001 0 0 0 1.2e-5,9.96e-4 0.12500001,0.12500001 0 0 0 4.8e-5,0.002 0.12500001,0.12500001 0 0 0 3.5e-5,9.96e-4 0.12500001,0.12500001 0 0 0 4.4e-5,9.96e-4 0.12500001,0.12500001 0 0 0 1.11e-4,0.002 0.12500001,0.12500001 0 0 0 6.8e-5,9.95e-4 0.12500001,0.12500001 0 0 0 1.59e-4,0.002 0.12500001,0.12500001 0 0 0 1.9e-4,0.002 0.12500001,0.12500001 0 0 0 1.07e-4,9.91e-4 0.12500001,0.12500001 0 0 0 1.15e-4,9.9e-4 0.12500001,0.12500001 0 0 0 3.92e-4,0.003 0.12500001,0.12500001 0 0 0 0.0014,0.0079 0.12500001,0.12500001 0 0 0 2.09e-4,9.74e-4 0.12500001,0.12500001 0 0 0 2.16e-4,9.73e-4 0.12500001,0.12500001 0 0 0 4.57e-4,0.0019 0.12500001,0.12500001 0 0 0 2.4e-4,9.67e-4 0.12500001,0.12500001 0 0 0 2.48e-4,9.65e-4 0.12500001,0.12500001 0 0 0 2.55e-4,9.64e-4 0.12500001,0.12500001 0 0 0 5.34e-4,0.0019 0.12500001,0.12500001 0 0 0 2.79e-4,9.57e-4 0.12500001,0.12500001 0 0 0 5.79e-4,0.0019 0.12500001,0.12500001 0 0 0 6.1e-4,0.0019 0.12500001,0.12500001 0 0 0 3.16e-4,9.46e-4 0.12500001,0.12500001 0 0 0 3.24e-4,9.42e-4 0.12500001,0.12500001 0 0 0 3.32e-4,9.4e-4 0.12500001,0.12500001 0 0 0 6.85e-4,0.0019 0.12500001,0.12500001 0 0 0 3.53e-4,9.32e-4 0.12500001,0.12500001 0 0 0 3.61e-4,9.29e-4 0.12500001,0.12500001 0 0 0 0.0015,0.0037 0.12500001,0.12500001 0 0 0 0.0021,0.0045 0.12500001,0.12500001 0 0 0 4.34e-4,8.97e-4 0.12500001,0.12500001 0 0 0 4.41e-4,8.94e-4 0.12500001,0.12500001 0 0 0 9.03e-4,0.0018 0.12500001,0.12500001 0 0 0 4.63e-4,8.83e-4 0.12500001,0.12500001 0 0 0 4.69e-4,8.79e-4 0.12500001,0.12500001 0 0 0 0.0019,0.0035 0.12500001,0.12500001 0 0 0 5.04e-4,8.59e-4 0.12500001,0.12500001 0 0 0 10e-4,0.0017 0.12500001,0.12500001 0 0 0 0.0011,0.0017 0.12500001,0.12500001 0 0 0 0.0011,0.0017 0.12500001,0.12500001 0 0 0 5.52e-4,8.31e-4 0.12500001,0.12500001 0 0 0 0.0023,0.0033 0.12500001,0.12500001 0 0 0 0.0012,0.0016 0.12500001,0.12500001 0 0 0 5.96e-4,7.99e-4 0.12500001,0.12500001 0 0 0 6.03e-4,7.93e-4 0.12500001,0.12500001 0 0 0 0.0012,0.0016 0.12500001,0.12500001 0 0 0 6.22e-4,7.79e-4 0.12500001,0.12500001 0 0 0 0.0019,0.0023 0.12500001,0.12500001 0 0 0 6.46e-4,7.59e-4 0.12500001,0.12500001 0 0 0 6.53e-4,7.53e-4 0.12500001,0.12500001 0 0 0 6.58e-4,7.49e-4 0.12500001,0.12500001 0 0 0 0.0013,0.0015 0.12500001,0.12500001 0 0 0 0.0014,0.0015 0.12500001,0.12500001 0 0 0 0.0028,0.0029 0.12500001,0.12500001 0 0 0 0.0014,0.0014 0.12500001,0.12500001 0 0 0 0.0014,0.0014 0.12500001,0.12500001 0 0 0 0.0015,0.0013 0.12500001,0.12500001 0 0 0 7.43e-4,6.64e-4 0.12500001,0.12500001 0 0 0 0.0015,0.0013 0.12500001,0.12500001 0 0 0 0.0023,0.0019 0.12500001,0.12500001 0 0 0 0.0031,0.0025 0.12500001,0.12500001 0 0 0 7.93e-4,6.03e-4 0.12500001,0.12500001 0 0 0 7.99e-4,5.96e-4 0.12500001,0.12500001 0 0 0 0.0016,0.0012 0.12500001,0.12500001 0 0 0 0.0025,0.0017 0.12500001,0.12500001 0 0 0 0.0059,0.0038 0.12500001,0.12500001 0 0 0 0.0034,0.002 0.12500001,0.12500001 0 0 0 8.72e-4,4.84e-4 0.12500001,0.12500001 0 0 0 0.0018,9.45e-4 0.12500001,0.12500001 0 0 0 8.83e-4,4.63e-4 0.12500001,0.12500001 0 0 0 8.87e-4,4.55e-4 0.12500001,0.12500001 0 0 0 8.9e-4,4.48e-4 0.12500001,0.12500001 0 0 0 0.0018,8.75e-4 0.12500001,0.12500001 0 0 0 0.0018,8.47e-4 0.12500001,0.12500001 0 0 0 9.07e-4,4.12e-4 0.12500001,0.12500001 0 0 0 9.11e-4,4.05e-4 0.12500001,0.12500001 0 0 0 9.14e-4,3.98e-4 0.12500001,0.12500001 0 0 0 0.0018,7.74e-4 0.12500001,0.12500001 0 0 0 9.23e-4,3.76e-4 0.12500001,0.12500001 0 0 0 0.0028,0.0011 0.12500001,0.12500001 0 0 0 0.0028,0.001 0.12500001,0.12500001 0 0 0 9.42e-4,3.24e-4 0.12500001,0.12500001 0 0 0 9.46e-4,3.16e-4 0.12500001,0.12500001 0 0 0 0.0019,6.1e-4 0.12500001,0.12500001 0 0 0 9.53e-4,2.93e-4 0.12500001,0.12500001 0 0 0 0.0058,0.0016 0.12500001,0.12500001 0 0 0 9.67e-4,2.4e-4 0.12500001,0.12500001 0 0 0 0.0019,4.57e-4 0.12500001,0.12500001 0 0 0 0.0068,0.0014 0.12500001,0.12500001 0 0 0 0.003,4.63e-4 0.12500001,0.12500001 0 0 0 0.003,3.92e-4 0.12500001,0.12500001 0 0 0 0.002,2.22e-4 0.12500001,0.12500001 0 0 0 9.92e-4,9.9e-5 0.12500001,0.12500001 0 0 0 9.92e-4,9.2e-5 0.12500001,0.12500001 0 0 0 0.002,1.58e-4 0.12500001,0.12500001 0 0 0 9.95e-4,6.8e-5 0.12500001,0.12500001 0 0 0 0.005,2.18e-4 0.12500001,0.12500001 0 0 0 0.002,3.2e-5 0.12500001,0.12500001 0 0 0 9.97e-4,4e-6 h 0.238095 a 0.12501251,0.12501251 0 0 0 0.05767,-0.0141 l 0.142857,-0.07429 a 0.12501251,0.12501251 0 0 0 0.04757,-0.04344 l 0.09524,-0.148571 a 0.12501251,0.12501251 0 0 0 0.0138,-0.02931 l 0.04762,-0.148573 a 0.12501251,0.12501251 0 0 0 0.0044,-0.01837 l 0.04762,-0.297143 a 0.12501251,0.12501251 0 0 0 0.0016,-0.01978 v -0.222857 a 0.12501251,0.12501251 0 0 0 -0.0016,-0.01978 l -0.04762,-0.297143 a 0.12501251,0.12501251 0 0 0 -0.0044,-0.01837 l -0.04762,-0.148571 a 0.12501251,0.12501251 0 0 0 -0.0138,-0.02931 l -0.09524,-0.148571 a 0.12501251,0.12501251 0 0 0 -0.04757,-0.04344 l -0.142857,-0.07429 a 0.12501251,0.12501251 0 0 0 -0.05767,-0.0141 z m 0.125,0.25 h 0.08254 l 0.08617,0.04481 0.06843,0.106755 0.03974,0.123996 0.04454,0.277964 v 0.202951 l -0.04454,0.277964 -0.03974,0.123997 -0.06843,0.106756 -0.08617,0.04481 h -0.08254 z"
         id="path893" />
    </g>
    <g
       id="g7012">
      <path
         style="color:#000000;fill:#000000;fill-opacity:1;stroke:none;stroke-width:0.25;stroke-linecap:butt;stroke-linejoin:miter"
         d="m 59.697176,49.163582 a 0.12501251,0.12501251 0 0 0 -0.125,0.125 v 0.817143 0.742857 a 0.12500001,0.12500001 0 0 0 0.125,0.125 0.12500001,0.12500001 0 0 0 0.125,-0.125 v -0.617857 h 0.255952 a 0.12501251,0.12501251 0 0 0 0.07688,-0.02644 l 0.09524,-0.07429 a 0.12501251,0.12501251 0 0 0 0.02836,-0.03111 l 0.04762,-0.07429 a 0.12501251,0.12501251 0 0 0 0.0138,-0.02931 l 0.04761,-0.148551 a 0.12501251,0.12501251 0 0 0 0.006,-0.03815 v -0.222857 a 0.12501251,0.12501251 0 0 0 -0.006,-0.03815 l -0.04762,-0.148572 a 0.12501251,0.12501251 0 0 0 -0.0138,-0.02931 l -0.04762,-0.07428 a 0.12501251,0.12501251 0 0 0 -0.02836,-0.0311 l -0.09524,-0.07429 a 0.12501251,0.12501251 0 0 0 -0.07688,-0.02644 z m 0.125,0.25 h 0.212967 l 0.04451,0.03472 0.02728,0.04256 0.03667,0.114407 v 0.183773 l -0.03667,0.114406 -0.02728,0.04256 -0.04451,0.03472 h -0.212967 z"
         id="path851" />
      <path
         id="path857"
         style="color:#000000;fill:#000000;fill-opacity:1;stroke:none;stroke-width:0.25;stroke-linecap:butt;stroke-linejoin:miter"
         d="m 60.934957,49.163847 a 0.12501251,0.12501251 0 0 0 -0.114722,0.07545 l -0.09095,0.213423 -0.07803,0.121957 -0.07855,0.06098 a 0.12500001,0.12500001 0 0 0 -0.0217,0.1757 0.12500001,0.12500001 0 0 0 0.175183,0.0217 l 0.08423,-0.06563 v 0.956014 h -0.160715 a 0.12500001,0.12500001 0 0 0 -0.125057,0.125057 0.12500001,0.12500001 0 0 0 0.125057,0.125057 h 0.285771 0.285254 a 0.12500001,0.12500001 0 0 0 0.125057,-0.125057 0.12500001,0.12500001 0 0 0 -0.125057,-0.125057 h -0.160197 v -1.435055 a 0.12501251,0.12501251 0 0 0 -0.125574,-0.12454 z" />
    </g>
    <g
       id="g340"
       transform="translate(-8.6437104,12.252084)"
       style="fill:#000000">
      <path
         style="color:#000000;fill:#000000;fill-opacity:1;stroke:none;stroke-width:0.25;stroke-linecap:butt;stroke-linejoin:miter;-inkscape-stroke:none"
         d="m 68.413762,46.940996 a 0.12501251,0.12501251 0 0 0 -0.07688,0.02644 l -0.09524,0.07429 a 0.12501251,0.12501251 0 0 0 -0.02836,0.0311 l -0.04762,0.07428 a 0.12501251,0.12501251 0 0 0 -0.0138,0.02931 l -0.04762,0.148572 a 0.12501251,0.12501251 0 0 0 -0.006,0.03815 v 0.148571 a 0.12501251,0.12501251 0 0 0 0.006,0.03815 l 0.04762,0.148572 a 0.12501251,0.12501251 0 0 0 0.0138,0.02931 l 0.04762,0.07429 a 0.12501251,0.12501251 0 0 0 0.02836,0.0311 l 0.09524,0.07429 a 0.12501251,0.12501251 0 0 0 0.03146,0.01789 l 0.173437,0.06764 0.06398,0.04991 0.02728,0.04256 0.03667,0.114407 v 0.109487 l -0.03667,0.114406 -0.02728,0.04256 -0.04451,0.03472 h -0.164552 l -0.115746,-0.06019 a 0.12500001,0.12500001 0 0 0 -0.168571,0.05323 0.12500001,0.12500001 0 0 0 0.05323,0.168571 l 0.142857,0.07429 a 0.12501251,0.12501251 0 0 0 0.05767,0.0141 h 0.238095 a 0.12501251,0.12501251 0 0 0 0.07688,-0.02644 l 0.09524,-0.07429 a 0.12501251,0.12501251 0 0 0 0.02836,-0.03111 l 0.04762,-0.07429 a 0.12501251,0.12501251 0 0 0 0.0138,-0.02931 l 0.04762,-0.148571 a 0.12501251,0.12501251 0 0 0 0.006,-0.03815 V 48.18027 a 0.12501251,0.12501251 0 0 0 -0.006,-0.03815 l -0.04762,-0.148572 a 0.12501251,0.12501251 0 0 0 -0.0138,-0.02931 l -0.04762,-0.07429 a 0.12501251,0.12501251 0 0 0 -0.02836,-0.03111 l -0.09524,-0.07428 a 0.12501251,0.12501251 0 0 0 -0.03146,-0.01789 l -0.173436,-0.06764 -0.06398,-0.04991 -0.02728,-0.04256 -0.03667,-0.114407 v -0.109487 l 0.03667,-0.114407 0.02728,-0.04256 0.04451,-0.03472 h 0.164552 l 0.115746,0.06019 a 0.12500001,0.12500001 0 0 0 0.168571,-0.05323 0.12500001,0.12500001 0 0 0 -0.05323,-0.168571 l -0.142857,-0.07429 a 0.12501251,0.12501251 0 0 0 -0.05767,-0.0141 z"
         id="path576" />
      <path
         style="color:#000000;fill:#000000;fill-opacity:1;stroke:none;stroke-width:0.25;stroke-linecap:butt;stroke-linejoin:miter;-inkscape-stroke:none"
         d="m 69.794714,46.940996 a 0.12500001,0.12500001 0 0 0 -0.125,0.125 v 0.855326 l -0.329055,-0.89832 a 0.12501251,0.12501251 0 0 0 -0.242373,0.04299 v 1.56 a 0.12500001,0.12500001 0 0 0 0.125,0.125 0.12500001,0.12500001 0 0 0 0.125,-0.125 v -0.855326 l 0.329055,0.89832 a 0.12501251,0.12501251 0 0 0 0.242373,-0.04299 v -1.56 a 0.12500001,0.12500001 0 0 0 -0.125,-0.125 z"
         id="path582" />
      <path
         style="color:#000000;fill:#000000;fill-opacity:1;stroke:none;stroke-width:0.25;stroke-linecap:butt;stroke-linejoin:miter;-inkscape-stroke:none"
         d="m 70.270905,46.940996 a 0.12501251,0.12501251 0 0 0 -0.125,0.125 v 1.56 a 0.12500001,0.12500001 0 0 0 4e-6,9.97e-4 0.12500001,0.12500001 0 0 0 1.2e-5,9.96e-4 0.12500001,0.12500001 0 0 0 4.8e-5,0.002 0.12500001,0.12500001 0 0 0 3.5e-5,9.96e-4 0.12500001,0.12500001 0 0 0 4.4e-5,9.96e-4 0.12500001,0.12500001 0 0 0 1.11e-4,0.002 0.12500001,0.12500001 0 0 0 6.8e-5,9.95e-4 0.12500001,0.12500001 0 0 0 1.59e-4,0.002 0.12500001,0.12500001 0 0 0 1.9e-4,0.002 0.12500001,0.12500001 0 0 0 1.07e-4,9.91e-4 0.12500001,0.12500001 0 0 0 1.15e-4,9.9e-4 0.12500001,0.12500001 0 0 0 3.92e-4,0.003 0.12500001,0.12500001 0 0 0 0.0014,0.0079 0.12500001,0.12500001 0 0 0 2.09e-4,9.74e-4 0.12500001,0.12500001 0 0 0 2.16e-4,9.73e-4 0.12500001,0.12500001 0 0 0 4.57e-4,0.0019 0.12500001,0.12500001 0 0 0 2.4e-4,9.67e-4 0.12500001,0.12500001 0 0 0 2.48e-4,9.65e-4 0.12500001,0.12500001 0 0 0 2.55e-4,9.64e-4 0.12500001,0.12500001 0 0 0 5.34e-4,0.0019 0.12500001,0.12500001 0 0 0 2.79e-4,9.57e-4 0.12500001,0.12500001 0 0 0 5.79e-4,0.0019 0.12500001,0.12500001 0 0 0 6.1e-4,0.0019 0.12500001,0.12500001 0 0 0 3.16e-4,9.46e-4 0.12500001,0.12500001 0 0 0 3.24e-4,9.42e-4 0.12500001,0.12500001 0 0 0 3.32e-4,9.4e-4 0.12500001,0.12500001 0 0 0 6.85e-4,0.0019 0.12500001,0.12500001 0 0 0 3.53e-4,9.32e-4 0.12500001,0.12500001 0 0 0 3.61e-4,9.29e-4 0.12500001,0.12500001 0 0 0 0.0015,0.0037 0.12500001,0.12500001 0 0 0 0.0021,0.0045 0.12500001,0.12500001 0 0 0 4.34e-4,8.97e-4 0.12500001,0.12500001 0 0 0 4.41e-4,8.94e-4 0.12500001,0.12500001 0 0 0 9.03e-4,0.0018 0.12500001,0.12500001 0 0 0 4.63e-4,8.83e-4 0.12500001,0.12500001 0 0 0 4.69e-4,8.79e-4 0.12500001,0.12500001 0 0 0 0.0019,0.0035 0.12500001,0.12500001 0 0 0 5.04e-4,8.59e-4 0.12500001,0.12500001 0 0 0 0.001,0.0017 0.12500001,0.12500001 0 0 0 0.0011,0.0017 0.12500001,0.12500001 0 0 0 0.0011,0.0017 0.12500001,0.12500001 0 0 0 5.52e-4,8.31e-4 0.12500001,0.12500001 0 0 0 0.0023,0.0033 0.12500001,0.12500001 0 0 0 0.0012,0.0016 0.12500001,0.12500001 0 0 0 5.96e-4,7.99e-4 0.12500001,0.12500001 0 0 0 6.03e-4,7.93e-4 0.12500001,0.12500001 0 0 0 0.0012,0.0016 0.12500001,0.12500001 0 0 0 6.22e-4,7.79e-4 0.12500001,0.12500001 0 0 0 0.0019,0.0023 0.12500001,0.12500001 0 0 0 6.46e-4,7.59e-4 0.12500001,0.12500001 0 0 0 6.53e-4,7.53e-4 0.12500001,0.12500001 0 0 0 6.58e-4,7.49e-4 0.12500001,0.12500001 0 0 0 0.0013,0.0015 0.12500001,0.12500001 0 0 0 0.0014,0.0015 0.12500001,0.12500001 0 0 0 0.0028,0.0029 0.12500001,0.12500001 0 0 0 0.0014,0.0014 0.12500001,0.12500001 0 0 0 0.0014,0.0014 0.12500001,0.12500001 0 0 0 0.0015,0.0013 0.12500001,0.12500001 0 0 0 7.43e-4,6.64e-4 0.12500001,0.12500001 0 0 0 0.0015,0.0013 0.12500001,0.12500001 0 0 0 0.0023,0.0019 0.12500001,0.12500001 0 0 0 0.0031,0.0025 0.12500001,0.12500001 0 0 0 7.93e-4,6.03e-4 0.12500001,0.12500001 0 0 0 7.99e-4,5.96e-4 0.12500001,0.12500001 0 0 0 0.0016,0.0012 0.12500001,0.12500001 0 0 0 0.0025,0.0017 0.12500001,0.12500001 0 0 0 0.0059,0.0038 0.12500001,0.12500001 0 0 0 0.0034,0.002 0.12500001,0.12500001 0 0 0 8.72e-4,4.84e-4 0.12500001,0.12500001 0 0 0 0.0018,9.45e-4 0.12500001,0.12500001 0 0 0 8.83e-4,4.63e-4 0.12500001,0.12500001 0 0 0 8.87e-4,4.55e-4 0.12500001,0.12500001 0 0 0 8.9e-4,4.48e-4 0.12500001,0.12500001 0 0 0 0.0018,8.75e-4 0.12500001,0.12500001 0 0 0 0.0018,8.47e-4 0.12500001,0.12500001 0 0 0 9.07e-4,4.12e-4 0.12500001,0.12500001 0 0 0 9.11e-4,4.05e-4 0.12500001,0.12500001 0 0 0 9.14e-4,3.98e-4 0.12500001,0.12500001 0 0 0 0.0018,7.74e-4 0.12500001,0.12500001 0 0 0 9.23e-4,3.76e-4 0.12500001,0.12500001 0 0 0 0.0028,0.0011 0.12500001,0.12500001 0 0 0 0.0028,10e-4 0.12500001,0.12500001 0 0 0 9.42e-4,3.24e-4 0.12500001,0.12500001 0 0 0 9.46e-4,3.16e-4 0.12500001,0.12500001 0 0 0 0.0019,6.1e-4 0.12500001,0.12500001 0 0 0 9.53e-4,2.93e-4 0.12500001,0.12500001 0 0 0 0.0058,0.0016 0.12500001,0.12500001 0 0 0 9.67e-4,2.4e-4 0.12500001,0.12500001 0 0 0 0.0019,4.57e-4 0.12500001,0.12500001 0 0 0 0.0068,0.0014 0.12500001,0.12500001 0 0 0 0.003,4.63e-4 0.12500001,0.12500001 0 0 0 0.003,3.92e-4 0.12500001,0.12500001 0 0 0 0.002,2.22e-4 0.12500001,0.12500001 0 0 0 9.92e-4,9.9e-5 0.12500001,0.12500001 0 0 0 9.92e-4,9.2e-5 0.12500001,0.12500001 0 0 0 0.002,1.58e-4 0.12500001,0.12500001 0 0 0 9.95e-4,6.8e-5 0.12500001,0.12500001 0 0 0 0.005,2.18e-4 0.12500001,0.12500001 0 0 0 0.002,3.2e-5 0.12500001,0.12500001 0 0 0 9.97e-4,4e-6 h 0.238095 a 0.12501251,0.12501251 0 0 0 0.05767,-0.0141 l 0.142857,-0.07429 a 0.12501251,0.12501251 0 0 0 0.04757,-0.04344 l 0.09524,-0.148571 a 0.12501251,0.12501251 0 0 0 0.0138,-0.02931 l 0.04762,-0.148572 a 0.12501251,0.12501251 0 0 0 0.0044,-0.01837 l 0.04762,-0.297143 a 0.12501251,0.12501251 0 0 0 0.0016,-0.01978 v -0.222857 a 0.12501251,0.12501251 0 0 0 -0.0016,-0.01978 l -0.04762,-0.297143 a 0.12501251,0.12501251 0 0 0 -0.0044,-0.01837 l -0.04762,-0.148571 a 0.12501251,0.12501251 0 0 0 -0.0138,-0.02931 l -0.09524,-0.148571 a 0.12501251,0.12501251 0 0 0 -0.04757,-0.04344 l -0.142857,-0.07429 a 0.12501251,0.12501251 0 0 0 -0.05767,-0.0141 z m 0.125,0.25 h 0.08254 l 0.08617,0.04481 0.06843,0.106755 0.03974,0.123996 0.04454,0.277964 v 0.202951 l -0.04454,0.277964 -0.03974,0.123997 -0.06843,0.106755 -0.08617,0.04481 h -0.08254 z"
         id="path588" />
    </g>
    <g
       id="g1063"
       transform="translate(-8.8661794,-12.88691)"
       style="fill:#000000">
      <path
         style="color:#000000;fill:#000000;fill-opacity:1;stroke:none;stroke-width:0.25;stroke-linecap:butt;stroke-linejoin:miter;-inkscape-stroke:none"
         d="m 68.366143,51.964196 a 0.12501251,0.12501251 0 0 0 -0.125,0.125 v 0.817143 0.742857 a 0.12500001,0.12500001 0 0 0 0.125,0.125 0.12500001,0.12500001 0 0 0 0.125,-0.125 v -0.617857 h 0.255952 a 0.12501251,0.12501251 0 0 0 0.07688,-0.02644 l 0.09524,-0.07429 a 0.12501251,0.12501251 0 0 0 0.02836,-0.03111 l 0.04762,-0.07429 a 0.12501251,0.12501251 0 0 0 0.01379,-0.02929 l 0.04762,-0.148571 a 0.12501251,0.12501251 0 0 0 0.006,-0.03815 v -0.222859 a 0.12501251,0.12501251 0 0 0 -0.006,-0.03815 l -0.04762,-0.148574 a 0.12501251,0.12501251 0 0 0 -0.0138,-0.02931 l -0.04762,-0.07429 a 0.12501251,0.12501251 0 0 0 -0.02836,-0.0311 l -0.09524,-0.07429 a 0.12501251,0.12501251 0 0 0 -0.07688,-0.02644 z m 0.125,0.25 h 0.212967 l 0.04451,0.03472 0.02728,0.04256 0.03667,0.114407 v 0.183773 l -0.03667,0.114406 -0.02728,0.04256 -0.04451,0.03472 h -0.212967 z"
         id="path488" />
      <path
         id="path494"
         style="color:#000000;fill:#000000;fill-opacity:1;stroke:none;stroke-width:0.25;stroke-linecap:butt;stroke-linejoin:miter;-inkscape-stroke:none"
         d="m 69.603908,51.964239 a 0.12501251,0.12501251 0 0 0 -0.114721,0.07596 l -0.09095,0.212907 -0.07803,0.121956 -0.07855,0.0615 a 0.12500001,0.12500001 0 0 0 -0.0217,0.175183 0.12500001,0.12500001 0 0 0 0.1757,0.0217 l 0.08372,-0.06563 v 0.956531 h -0.160714 a 0.12500001,0.12500001 0 0 0 -0.125057,0.125057 0.12500001,0.12500001 0 0 0 0.125057,0.12454 h 0.285771 0.285771 a 0.12500001,0.12500001 0 0 0 0.12454,-0.12454 0.12500001,0.12500001 0 0 0 -0.12454,-0.125057 h -0.160714 v -1.435054 a 0.12501251,0.12501251 0 0 0 -0.125574,-0.125057 z" />
      <path
         id="path506"
         style="color:#000000;fill:#000000;fill-opacity:1;stroke:none;stroke-width:0.25;stroke-linecap:butt;stroke-linejoin:miter;-inkscape-stroke:none"
         d="m 70.509279,51.889825 a 0.12500001,0.12500001 0 0 0 -0.122473,0.09922 l -0.238228,1.114144 a 0.12501251,0.12501251 0 0 0 0.122473,0.150895 h 0.350883 v 0.395325 a 0.12500001,0.12500001 0 0 0 0.125057,0.12454 0.12500001,0.12500001 0 0 0 0.125057,-0.12454 v -0.395325 h 0.01809 a 0.12500001,0.12500001 0 0 0 0.125057,-0.125057 0.12500001,0.12500001 0 0 0 -0.125057,-0.125057 h -0.01809 v -0.39481 a 0.12500001,0.12500001 0 0 0 -0.125057,-0.125056 0.12500001,0.12500001 0 0 0 -0.125057,0.125056 v 0.394808 h -0.19637 l 0.205672,-0.962732 a 0.12500001,0.12500001 0 0 0 -0.09612,-0.148311 0.12500001,0.12500001 0 0 0 -0.02584,-0.0031 z" />
    </g>
    <g
       id="g1068"
       transform="translate(-8.5733581,-28.237024)"
       style="fill:#000000">
      <path
         style="color:#000000;fill:#000000;fill-opacity:1;stroke:none;stroke-width:0.25;stroke-linecap:butt;stroke-linejoin:miter;-inkscape-stroke:none"
         d="m 68.509,54.475796 a 0.12501251,0.12501251 0 0 0 -0.05767,0.0141 l -0.142857,0.07429 a 0.12501251,0.12501251 0 0 0 -0.04757,0.04344 l -0.09524,0.148571 a 0.12501251,0.12501251 0 0 0 -0.0138,0.02931 l -0.04762,0.148571 a 0.12501251,0.12501251 0 0 0 -0.0044,0.01837 l -0.04762,0.297143 a 0.12501251,0.12501251 0 0 0 -0.0016,0.01978 v 0.222857 a 0.12501251,0.12501251 0 0 0 0.0016,0.01978 l 0.04762,0.297143 a 0.12501251,0.12501251 0 0 0 0.0044,0.01837 l 0.04762,0.148572 a 0.12501251,0.12501251 0 0 0 0.0138,0.02931 l 0.09524,0.148571 a 0.12501251,0.12501251 0 0 0 0.04757,0.04344 l 0.142857,0.07429 a 0.12501251,0.12501251 0 0 0 0.05767,0.0141 h 0.09524 a 0.12501251,0.12501251 0 0 0 0.05767,-0.0141 l 0.142857,-0.07429 a 0.12501251,0.12501251 0 0 0 0.04757,-0.04344 l 0.04762,-0.07429 a 0.12501251,0.12501251 0 0 0 0.01976,-0.06746 v -0.520001 a 0.12501251,0.12501251 0 0 0 -0.125,-0.125 h -0.190476 a 0.12500001,0.12500001 0 0 0 -0.125,0.125 0.12500001,0.12500001 0 0 0 0.125,0.125 h 0.06548 v 0.358376 l -0.0099,0.01539 -0.08617,0.04481 h -0.03412 l -0.08617,-0.04481 -0.06843,-0.106755 -0.03974,-0.123998 -0.04454,-0.277964 v -0.202951 l 0.04454,-0.277964 0.03974,-0.123996 0.06843,-0.106755 0.08617,-0.04481 h 0.06931 l 0.06134,0.04785 a 0.12500001,0.12500001 0 0 0 0.175442,-0.02168 0.12500001,0.12500001 0 0 0 -0.02168,-0.175442 l -0.09524,-0.07429 a 0.12501251,0.12501251 0 0 0 -0.07688,-0.02644 z"
         id="path445" />
      <path
         style="color:#000000;fill:#000000;fill-opacity:1;stroke:none;stroke-width:0.25;stroke-linecap:butt;stroke-linejoin:miter;-inkscape-stroke:none"
         d="m 69.794714,54.475796 a 0.12500001,0.12500001 0 0 0 -0.125,0.125 v 0.855326 l -0.329055,-0.89832 a 0.12501251,0.12501251 0 0 0 -0.242373,0.04299 v 1.560001 a 0.12500001,0.12500001 0 0 0 0.125,0.125 0.12500001,0.12500001 0 0 0 0.125,-0.125 v -0.855327 l 0.329055,0.898321 a 0.12501251,0.12501251 0 0 0 0.242373,-0.04299 v -1.560001 a 0.12500001,0.12500001 0 0 0 -0.125,-0.125 z"
         id="path451" />
      <path
         style="color:#000000;fill:#000000;fill-opacity:1;stroke:none;stroke-width:0.25;stroke-linecap:butt;stroke-linejoin:miter;-inkscape-stroke:none"
         d="m 70.270905,54.475796 a 0.12501251,0.12501251 0 0 0 -0.125,0.125 v 1.560001 a 0.12500001,0.12500001 0 0 0 4e-6,9.97e-4 0.12500001,0.12500001 0 0 0 1.2e-5,9.96e-4 0.12500001,0.12500001 0 0 0 4.8e-5,0.002 0.12500001,0.12500001 0 0 0 3.5e-5,9.96e-4 0.12500001,0.12500001 0 0 0 4.4e-5,9.96e-4 0.12500001,0.12500001 0 0 0 1.11e-4,0.002 0.12500001,0.12500001 0 0 0 6.8e-5,9.95e-4 0.12500001,0.12500001 0 0 0 1.59e-4,0.002 0.12500001,0.12500001 0 0 0 1.9e-4,0.002 0.12500001,0.12500001 0 0 0 1.07e-4,9.91e-4 0.12500001,0.12500001 0 0 0 1.15e-4,9.9e-4 0.12500001,0.12500001 0 0 0 3.92e-4,0.003 0.12500001,0.12500001 0 0 0 0.0014,0.0079 0.12500001,0.12500001 0 0 0 2.09e-4,9.74e-4 0.12500001,0.12500001 0 0 0 2.16e-4,9.73e-4 0.12500001,0.12500001 0 0 0 4.57e-4,0.0019 0.12500001,0.12500001 0 0 0 2.4e-4,9.67e-4 0.12500001,0.12500001 0 0 0 2.48e-4,9.65e-4 0.12500001,0.12500001 0 0 0 2.55e-4,9.64e-4 0.12500001,0.12500001 0 0 0 5.34e-4,0.0019 0.12500001,0.12500001 0 0 0 2.79e-4,9.57e-4 0.12500001,0.12500001 0 0 0 5.79e-4,0.0019 0.12500001,0.12500001 0 0 0 6.1e-4,0.0019 0.12500001,0.12500001 0 0 0 3.16e-4,9.46e-4 0.12500001,0.12500001 0 0 0 3.24e-4,9.42e-4 0.12500001,0.12500001 0 0 0 3.32e-4,9.4e-4 0.12500001,0.12500001 0 0 0 6.85e-4,0.0019 0.12500001,0.12500001 0 0 0 3.53e-4,9.32e-4 0.12500001,0.12500001 0 0 0 3.61e-4,9.29e-4 0.12500001,0.12500001 0 0 0 0.0015,0.0037 0.12500001,0.12500001 0 0 0 0.0021,0.0045 0.12500001,0.12500001 0 0 0 4.34e-4,8.97e-4 0.12500001,0.12500001 0 0 0 4.41e-4,8.94e-4 0.12500001,0.12500001 0 0 0 9.03e-4,0.0018 0.12500001,0.12500001 0 0 0 4.63e-4,8.83e-4 0.12500001,0.12500001 0 0 0 4.69e-4,8.79e-4 0.12500001,0.12500001 0 0 0 0.0019,0.0035 0.12500001,0.12500001 0 0 0 5.04e-4,8.59e-4 0.12500001,0.12500001 0 0 0 0.001,0.0017 0.12500001,0.12500001 0 0 0 0.0011,0.0017 0.12500001,0.12500001 0 0 0 0.0011,0.0017 0.12500001,0.12500001 0 0 0 5.52e-4,8.31e-4 0.12500001,0.12500001 0 0 0 0.0023,0.0033 0.12500001,0.12500001 0 0 0 0.0012,0.0016 0.12500001,0.12500001 0 0 0 5.96e-4,7.99e-4 0.12500001,0.12500001 0 0 0 6.03e-4,7.93e-4 0.12500001,0.12500001 0 0 0 0.0012,0.0016 0.12500001,0.12500001 0 0 0 6.22e-4,7.79e-4 0.12500001,0.12500001 0 0 0 0.0019,0.0023 0.12500001,0.12500001 0 0 0 6.46e-4,7.59e-4 0.12500001,0.12500001 0 0 0 6.53e-4,7.53e-4 0.12500001,0.12500001 0 0 0 6.58e-4,7.49e-4 0.12500001,0.12500001 0 0 0 0.0013,0.0015 0.12500001,0.12500001 0 0 0 0.0014,0.0015 0.12500001,0.12500001 0 0 0 0.0028,0.0029 0.12500001,0.12500001 0 0 0 0.0014,0.0014 0.12500001,0.12500001 0 0 0 0.0014,0.0014 0.12500001,0.12500001 0 0 0 0.0015,0.0013 0.12500001,0.12500001 0 0 0 7.43e-4,6.64e-4 0.12500001,0.12500001 0 0 0 0.0015,0.0013 0.12500001,0.12500001 0 0 0 0.0023,0.0019 0.12500001,0.12500001 0 0 0 0.0031,0.0025 0.12500001,0.12500001 0 0 0 7.93e-4,6.03e-4 0.12500001,0.12500001 0 0 0 7.99e-4,5.96e-4 0.12500001,0.12500001 0 0 0 0.0016,0.0012 0.12500001,0.12500001 0 0 0 0.0025,0.0017 0.12500001,0.12500001 0 0 0 0.0059,0.0038 0.12500001,0.12500001 0 0 0 0.0034,0.002 0.12500001,0.12500001 0 0 0 8.72e-4,4.84e-4 0.12500001,0.12500001 0 0 0 0.0018,9.45e-4 0.12500001,0.12500001 0 0 0 8.83e-4,4.63e-4 0.12500001,0.12500001 0 0 0 8.87e-4,4.55e-4 0.12500001,0.12500001 0 0 0 8.9e-4,4.48e-4 0.12500001,0.12500001 0 0 0 0.0018,8.75e-4 0.12500001,0.12500001 0 0 0 0.0018,8.47e-4 0.12500001,0.12500001 0 0 0 9.07e-4,4.12e-4 0.12500001,0.12500001 0 0 0 9.11e-4,4.05e-4 0.12500001,0.12500001 0 0 0 9.14e-4,3.98e-4 0.12500001,0.12500001 0 0 0 0.0018,7.74e-4 0.12500001,0.12500001 0 0 0 9.23e-4,3.76e-4 0.12500001,0.12500001 0 0 0 0.0028,0.0011 0.12500001,0.12500001 0 0 0 0.0028,10e-4 0.12500001,0.12500001 0 0 0 9.42e-4,3.24e-4 0.12500001,0.12500001 0 0 0 9.46e-4,3.16e-4 0.12500001,0.12500001 0 0 0 0.0019,6.1e-4 0.12500001,0.12500001 0 0 0 9.53e-4,2.93e-4 0.12500001,0.12500001 0 0 0 0.0058,0.0016 0.12500001,0.12500001 0 0 0 9.67e-4,2.4e-4 0.12500001,0.12500001 0 0 0 0.0019,4.57e-4 0.12500001,0.12500001 0 0 0 0.0068,0.0014 0.12500001,0.12500001 0 0 0 0.003,4.63e-4 0.12500001,0.12500001 0 0 0 0.003,3.92e-4 0.12500001,0.12500001 0 0 0 0.002,2.22e-4 0.12500001,0.12500001 0 0 0 9.92e-4,9.9e-5 0.12500001,0.12500001 0 0 0 9.92e-4,9.2e-5 0.12500001,0.12500001 0 0 0 0.002,1.58e-4 0.12500001,0.12500001 0 0 0 9.95e-4,6.8e-5 0.12500001,0.12500001 0 0 0 0.005,2.18e-4 0.12500001,0.12500001 0 0 0 0.002,3.2e-5 0.12500001,0.12500001 0 0 0 9.97e-4,4e-6 h 0.238095 a 0.12501251,0.12501251 0 0 0 0.05767,-0.0141 l 0.142857,-0.07429 a 0.12501251,0.12501251 0 0 0 0.04757,-0.04344 l 0.09524,-0.148571 a 0.12501251,0.12501251 0 0 0 0.0138,-0.02931 l 0.04762,-0.148572 a 0.12501251,0.12501251 0 0 0 0.0044,-0.01837 l 0.04762,-0.297143 a 0.12501251,0.12501251 0 0 0 0.0016,-0.01978 v -0.222857 a 0.12501251,0.12501251 0 0 0 -0.0016,-0.01978 l -0.04762,-0.297143 a 0.12501251,0.12501251 0 0 0 -0.0044,-0.01837 l -0.04762,-0.148571 a 0.12501251,0.12501251 0 0 0 -0.0138,-0.02931 l -0.09524,-0.148571 a 0.12501251,0.12501251 0 0 0 -0.04757,-0.04344 l -0.142857,-0.07429 a 0.12501251,0.12501251 0 0 0 -0.05767,-0.0141 z m 0.125,0.25 h 0.08254 l 0.08617,0.04481 0.06843,0.106755 0.03974,0.123996 0.04454,0.277964 v 0.202951 l -0.04454,0.277964 -0.03974,0.123998 -0.06843,0.106755 -0.08617,0.04481 h -0.08254 z"
         id="path457" />
    </g>
    <g
       id="g350"
       transform="translate(-8.8105621,-20.450856)"
       style="fill:#000000">
      <path
         style="color:#000000;fill:#000000;fill-opacity:1;stroke:none;stroke-width:0.25;stroke-linecap:butt;stroke-linejoin:miter;-inkscape-stroke:none"
         d="m 68.366143,56.987397 a 0.12501251,0.12501251 0 0 0 -0.125,0.125 v 0.817143 0.742857 a 0.12500001,0.12500001 0 0 0 0.125,0.125 0.12500001,0.12500001 0 0 0 0.125,-0.125 V 58.05454 h 0.255952 a 0.12501251,0.12501251 0 0 0 0.07688,-0.02644 l 0.09524,-0.07429 a 0.12501251,0.12501251 0 0 0 0.02836,-0.03111 l 0.04762,-0.07429 a 0.12501251,0.12501251 0 0 0 0.0138,-0.02931 l 0.04762,-0.148571 a 0.12501251,0.12501251 0 0 0 0.006,-0.03815 v -0.222857 a 0.12501251,0.12501251 0 0 0 -0.006,-0.03815 l -0.04763,-0.148556 a 0.12501251,0.12501251 0 0 0 -0.0138,-0.02931 l -0.04762,-0.07429 a 0.12501251,0.12501251 0 0 0 -0.02836,-0.0311 l -0.09524,-0.07429 a 0.12501251,0.12501251 0 0 0 -0.07688,-0.02644 z m 0.125,0.25 h 0.212967 l 0.04451,0.03472 0.02728,0.04256 0.03667,0.114407 v 0.183773 l -0.03667,0.114406 -0.02728,0.04256 -0.04451,0.03472 h -0.212967 z"
         id="path396" />
      <path
         id="path402"
         style="color:#000000;fill:#000000;fill-opacity:1;stroke:none;stroke-width:0.25;stroke-linecap:butt;stroke-linejoin:miter;-inkscape-stroke:none"
         d="m 69.603908,56.987188 a 0.12501251,0.12501251 0 0 0 -0.114721,0.07596 l -0.09095,0.213424 -0.07803,0.121956 -0.07855,0.06098 a 0.12500001,0.12500001 0 0 0 -0.0217,0.1757 0.12500001,0.12500001 0 0 0 0.1757,0.0217 l 0.08372,-0.06563 v 0.956014 h -0.160714 a 0.12500001,0.12500001 0 0 0 -0.125057,0.125057 0.12500001,0.12500001 0 0 0 0.125057,0.125057 h 0.285771 0.285771 a 0.12500001,0.12500001 0 0 0 0.12454,-0.125057 0.12500001,0.12500001 0 0 0 -0.12454,-0.125057 h -0.160714 v -1.435054 a 0.12501251,0.12501251 0 0 0 -0.125574,-0.125057 z" />
      <path
         style="color:#000000;fill:#000000;fill-opacity:1;stroke:none;stroke-width:0.25;stroke-linecap:butt;stroke-linejoin:miter;-inkscape-stroke:none"
         d="m 70.318524,56.987397 a 0.12501251,0.12501251 0 0 0 -0.124744,0.117004 l -0.04762,0.742857 a 0.12501251,0.12501251 0 0 0 0.229979,0.07545 l 0.0361,-0.05631 0.04451,-0.03472 h 0.152125 l 0.04451,0.03472 0.02728,0.04256 0.03667,0.114406 v 0.332345 l -0.03667,0.114406 -0.02728,0.04256 -0.04451,0.03472 h -0.152127 l -0.04451,-0.03472 -0.0361,-0.05631 a 0.12500001,0.12500001 0 0 0 -0.172693,-0.03778 0.12500001,0.12500001 0 0 0 -0.03778,0.172693 l 0.04762,0.07429 a 0.12501251,0.12501251 0 0 0 0.02836,0.0311 l 0.09524,0.07429 a 0.12501251,0.12501251 0 0 0 0.07688,0.02644 h 0.238095 a 0.12501251,0.12501251 0 0 0 0.07688,-0.02644 l 0.09524,-0.07429 a 0.12501251,0.12501251 0 0 0 0.02836,-0.0311 l 0.04762,-0.07429 a 0.12501251,0.12501251 0 0 0 0.0138,-0.02931 l 0.04762,-0.148571 a 0.12501251,0.12501251 0 0 0 0.006,-0.03815 v -0.371429 a 0.12501251,0.12501251 0 0 0 -0.006,-0.03815 l -0.04762,-0.148571 a 0.12501251,0.12501251 0 0 0 -0.0138,-0.02931 l -0.04762,-0.07429 a 0.12501251,0.12501251 0 0 0 -0.02836,-0.03111 l -0.09524,-0.07428 a 0.12501251,0.12501251 0 0 0 -0.07688,-0.02644 h -0.238095 a 0.12501251,0.12501251 0 0 0 -6.4e-5,0 l 0.02207,-0.344286 h 0.358946 a 0.12500001,0.12500001 0 0 0 0.125,-0.125 0.12500001,0.12500001 0 0 0 -0.125,-0.125 z"
         id="path414" />
    </g>
    <g
       id="g345"
       transform="translate(-4.560614,-37.819726)"
       style="fill:#000000">
      <path
         style="color:#000000;fill:#000000;fill-opacity:1;stroke:none;stroke-width:0.25;stroke-linecap:butt;stroke-linejoin:miter"
         d="m 64.185225,58.993831 a 0.12500001,0.12500001 0 0 0 -0.125,0.125 0.12500001,0.12500001 0 0 0 0.125,0.125 h 0.405615 l -0.228922,0.408136 a 0.12501251,0.12501251 0 0 0 0.109021,0.18615 h 0.09987 l 0.04451,0.03472 0.02728,0.04256 0.03667,0.114407 v 0.332343 l -0.03667,0.114407 -0.02728,0.04256 -0.04451,0.03472 h -0.199744 l -0.04451,-0.03472 -0.0361,-0.05631 a 0.12500001,0.12500001 0 0 0 -0.172693,-0.03778 0.12500001,0.12500001 0 0 0 -0.03778,0.172693 l 0.04762,0.07429 a 0.12501251,0.12501251 0 0 0 0.02836,0.0311 l 0.09524,0.07429 a 0.12501251,0.12501251 0 0 0 0.07688,0.02644 h 0.285714 a 0.12501251,0.12501251 0 0 0 0.07688,-0.02644 l 0.09524,-0.07429 a 0.12501251,0.12501251 0 0 0 0.02836,-0.0311 l 0.04762,-0.07429 a 0.12501251,0.12501251 0 0 0 0.0138,-0.02931 l 0.04762,-0.148571 a 0.12501251,0.12501251 0 0 0 0.006,-0.03815 v -0.371429 a 0.12501251,0.12501251 0 0 0 -0.006,-0.03815 l -0.04762,-0.148571 a 0.12501251,0.12501251 0 0 0 -0.0138,-0.02931 l -0.04762,-0.07429 a 0.12501251,0.12501251 0 0 0 -0.02836,-0.03111 l -0.09524,-0.07428 a 0.12501251,0.12501251 0 0 0 -0.01538,-0.01026 l 0.237997,-0.424314 a 0.12501251,0.12501251 0 0 0 -0.109021,-0.18615 z"
         id="path353" />
      <path
         style="color:#000000;fill:#000000;fill-opacity:1;stroke:none;stroke-width:0.25;stroke-linecap:butt;stroke-linejoin:miter"
         d="m 65.089587,58.993832 a 0.12500001,0.12500001 0 0 0 -0.02572,0.0028 0.12500001,0.12500001 0 0 0 -0.09612,0.148361 l 0.333333,1.56 a 0.12501251,0.12501251 0 0 0 0.244482,0 l 0.333333,-1.56 a 0.12500001,0.12500001 0 0 0 -0.09612,-0.148361 0.12500001,0.12500001 0 0 0 -0.148361,0.09612 l -0.211092,0.987914 -0.211092,-0.987914 a 0.12500001,0.12500001 0 0 0 -0.122641,-0.09888 z"
         id="path359" />
      <path
         style="color:#000000;fill:#000000;fill-opacity:1;stroke:none;stroke-width:0.25;stroke-linecap:butt;stroke-linejoin:miter"
         d="m 65.994749,58.993831 a 0.12500001,0.12500001 0 0 0 -0.125,0.125 0.12500001,0.12500001 0 0 0 0.125,0.125 h 0.405615 l -0.228923,0.408136 a 0.12501251,0.12501251 0 0 0 0.109022,0.18615 h 0.09987 l 0.04451,0.03472 0.02728,0.04256 0.03667,0.114406 v 0.332345 l -0.03667,0.114406 -0.02728,0.04256 -0.04451,0.03472 h -0.199744 l -0.04451,-0.03472 -0.0361,-0.05631 a 0.12500001,0.12500001 0 0 0 -0.172693,-0.03778 0.12500001,0.12500001 0 0 0 -0.03778,0.172693 l 0.04762,0.07429 a 0.12501251,0.12501251 0 0 0 0.02836,0.0311 l 0.09524,0.07429 a 0.12501251,0.12501251 0 0 0 0.07688,0.02644 h 0.285714 a 0.12501251,0.12501251 0 0 0 0.07688,-0.02644 l 0.09524,-0.07429 a 0.12501251,0.12501251 0 0 0 0.02836,-0.0311 l 0.04762,-0.07429 a 0.12501251,0.12501251 0 0 0 0.0138,-0.02931 l 0.04762,-0.148571 a 0.12501251,0.12501251 0 0 0 0.006,-0.03815 v -0.371429 a 0.12501251,0.12501251 0 0 0 -0.006,-0.03815 l -0.04762,-0.148571 a 0.12501251,0.12501251 0 0 0 -0.0138,-0.02931 l -0.04762,-0.07429 a 0.12501251,0.12501251 0 0 0 -0.02836,-0.03111 l -0.09524,-0.07428 a 0.12501251,0.12501251 0 0 0 -0.01538,-0.01026 l 0.237997,-0.424314 a 0.12501251,0.12501251 0 0 0 -0.109022,-0.18615 z"
         id="path365" />
    </g>
  </g>
</svg>
